<?xml version="1.0" encoding="utf-8"?><!-- Generator: Iparigrafika Gear Generator by Abel Vincze http://geargenerator.com/ --><svg version="1.2" class="svggear" xmlns="http://www.w3.org/2000/svg" xmlns:xlink="http://www.w3.org/1999/xlink" x="0px" y="0px" width="264px" height="264px" viewBox="-132 -132 264 264" overflow="scroll" xml:space="preserve"><polygon id="gearpoly0" data-id="0" class="gear" fill="#ddd" stroke="#444" stroke-width="1" stroke-miterlimit="10" points="117.8125,0 117.9559,-1.5599 118.2782,-1.6788 118.6074,-1.8035 118.9433,-1.9341 119.286,-2.0709 119.6353,-2.2138 119.9912,-2.363 120.3536,-2.5187 120.7224,-2.681 121.0974,-2.85 121.4787,-3.0257 121.8661,-3.2085 122.2595,-3.3982 122.6589,-3.5952 123.0641,-3.7994 123.475,-4.0111 123.8916,-4.2303 124.3138,-4.4571 124.7413,-4.6917 125.1743,-4.9341 125.6124,-5.1846 126.0557,-5.4431 126.504,-5.7098 126.9572,-5.9848 127.4151,-6.2682 127.8778,-6.5601 128.345,-6.8607 128.8167,-7.17 129.2928,-7.488 129.773,-7.815 130.2574,-8.151 130.7457,-8.4961 130.9526,-8.8312 130.7605,-11.3247 130.5048,-11.6241 129.9694,-11.8904 129.4393,-12.1483 128.9146,-12.3979 128.3955,-12.6393 127.882,-12.8727 127.3743,-13.0982 126.8724,-13.3158 126.3764,-13.5257 125.8864,-13.7281 125.4026,-13.923 124.925,-14.1106 124.4536,-14.291 123.9887,-14.4643 123.5303,-14.6307 123.0784,-14.7902 122.6331,-14.943 122.1946,-15.0892 121.7629,-15.229 121.3381,-15.3625 120.9202,-15.4898 120.5094,-15.611 120.1057,-15.7264 119.7092,-15.8359 119.32,-15.9398 118.938,-16.0382 118.5635,-16.1311 118.1964,-16.2189 117.8368,-16.3015 117.4848,-16.3792 117.1404,-16.452 116.8037,-16.5202 116.4232,-18.0397 116.362,-18.4299 116.2597,-19.993 116.5594,-20.1609 116.865,-20.3356 117.1764,-20.5172 117.4934,-20.7058 117.8161,-20.9016 118.1443,-21.1047 118.4778,-21.3152 118.8167,-21.5331 119.1607,-21.7587 119.5098,-21.9919 119.8638,-22.233 120.2227,-22.482 120.5863,-22.739 120.9546,-23.0041 121.3274,-23.2775 121.7046,-23.5591 122.086,-23.8492 122.4716,-24.1478 122.8613,-24.455 123.2549,-24.7708 123.6522,-25.0955 124.0533,-25.4291 124.4579,-25.7716 124.8659,-26.1232 125.2772,-26.4839 125.6917,-26.8538 126.1092,-27.2331 126.5296,-27.6217 126.9528,-28.0198 127.3786,-28.4274 127.8069,-28.8447 127.9588,-29.208 127.3791,-31.6407 127.0796,-31.8964 126.5092,-32.0757 125.9453,-32.2475 125.388,-32.4119 124.8375,-32.5692 124.2939,-32.7194 123.7571,-32.8626 123.2273,-32.9991 122.7046,-33.1288 122.189,-33.2521 121.6806,-33.3689 121.1795,-33.4795 120.6858,-33.5839 120.1995,-33.6823 119.7207,-33.7749 119.2494,-33.8618 118.7857,-33.9431 118.3297,-34.0189 117.8815,-34.0894 117.441,-34.1548 117.0084,-34.2152 116.5837,-34.2707 116.1669,-34.3214 115.7581,-34.3676 115.3574,-34.4093 114.9648,-34.4467 114.5803,-34.48 114.204,-34.5092 113.8359,-34.5346 113.4761,-34.5562 113.1246,-34.5743 112.7814,-34.5889 112.1678,-36.0302 112.0463,-36.4061 111.7007,-37.9339 111.9705,-38.1466 112.245,-38.3669 112.5241,-38.595 112.8078,-38.8309 113.0959,-39.0748 113.3882,-39.3267 113.6847,-39.5868 113.9853,-39.855 114.2898,-40.1316 114.5981,-40.4166 114.9101,-40.7101 115.2256,-41.0122 115.5446,-41.3229 115.8668,-41.6424 116.1923,-41.9707 116.5207,-42.3078 116.8521,-42.654 117.1863,-43.0093 117.5231,-43.3736 117.8624,-43.7472 118.2041,-44.13 118.548,-44.5222 118.894,-44.9238 119.242,-45.3349 119.5918,-45.7555 119.9433,-46.1857 120.2964,-46.6256 120.6508,-47.0752 121.0065,-47.5346 121.3633,-48.0038 121.7211,-48.4829 121.8143,-48.8656 120.8611,-51.1776 120.5254,-51.3834 119.9339,-51.4712 119.3501,-51.5526 118.774,-51.6279 118.2056,-51.6971 117.6452,-51.7604 117.0926,-51.8179 116.548,-51.8698 116.0114,-51.9162 115.4829,-51.9573 114.9625,-51.9931 114.4503,-52.0239 113.9463,-52.0499 113.4505,-52.071 112.9631,-52.0875 112.4841,-52.0996 112.0134,-52.1073 111.5512,-52.1109 111.0974,-52.1105 110.6521,-52.1061 110.2154,-52.0981 109.7872,-52.0864 109.3676,-52.0714 108.9567,-52.053 108.5544,-52.0315 108.1607,-52.0071 107.7758,-51.9798 107.3995,-51.9498 107.032,-51.9172 106.6732,-51.8823 106.3232,-51.8452 105.9819,-51.806 105.1504,-53.1335 104.9717,-53.4858 104.3913,-54.9407 104.6245,-55.193 104.8612,-55.4535 105.1012,-55.7225 105.3444,-55.9999 105.5908,-56.2858 105.8402,-56.5804 106.0924,-56.8836 106.3473,-57.1956 106.6047,-57.5164 106.8647,-57.8461 107.1269,-58.1848 107.3913,-58.5325 107.6577,-58.8893 107.926,-59.2552 108.1961,-59.6304 108.4678,-60.0148 108.7409,-60.4086 109.0154,-60.8117 109.291,-61.2243 109.5677,-61.6463 109.8453,-62.0779 110.1237,-62.5191 110.4026,-62.9698 110.682,-63.4303 110.9617,-63.9004 111.2416,-64.3804 111.5215,-64.8701 111.8012,-65.3696 112.0807,-65.879 112.3597,-66.3982 112.6381,-66.9274 112.6703,-67.3199 111.3672,-69.4544 111.0034,-69.6051 110.4054,-69.5993 109.816,-69.5884 109.2353,-69.5726 108.6631,-69.552 108.0996,-69.5269 107.5449,-69.4973 106.9989,-69.4633 106.4616,-69.4252 105.9332,-69.3831 105.4136,-69.3371 104.9029,-69.2874 104.401,-69.2342 103.9081,-69.1775 103.4241,-69.1176 102.949,-69.0546 102.4829,-68.9886 102.0258,-68.9198 101.5777,-68.8484 101.1386,-68.7744 100.7085,-68.6981 100.2874,-68.6197 99.8754,-68.5392 99.4724,-68.4567 99.0784,-68.3726 98.6934,-68.2868 98.3175,-68.1996 97.9505,-68.1112 97.5926,-68.0216 97.2437,-67.931 96.9038,-67.8395 96.5729,-67.7474 95.5439,-68.9285 95.3123,-69.2485 94.5115,-70.5947 94.7023,-70.8803 94.8953,-71.1747 95.0903,-71.4779 95.2872,-71.7899 95.4858,-72.1109 95.686,-72.4408 95.8876,-72.7798 96.0906,-73.1278 96.2947,-73.4849 96.4998,-73.8513 96.7059,-74.2268 96.9126,-74.6116 97.1199,-75.0056 97.3277,-75.4091 97.5358,-75.8218 97.7439,-76.244 97.9521,-76.6757 98.1602,-77.1168 98.3679,-77.5674 98.5752,-78.0275 98.7818,-78.4972 98.9877,-78.9765 99.1927,-79.4653 99.3967,-79.9638 99.5994,-80.472 99.8007,-80.9897 100.0005,-81.5172 100.1987,-82.0543 100.395,-82.6011 100.5894,-83.1577 100.7816,-83.7239 100.752,-84.1166 99.131,-86.021 98.7481,-86.1129 98.1584,-86.0136 97.578,-85.9107 97.0068,-85.8042 96.445,-85.6944 95.8924,-85.5814 95.3491,-85.4654 94.8151,-85.3464 94.2904,-85.2247 93.7751,-85.1005 93.2691,-84.9738 92.7724,-84.8448 92.2851,-84.7137 91.8071,-84.5806 91.3384,-84.4457 90.879,-84.3092 90.429,-84.1711 89.9883,-84.0316 89.5569,-83.891 89.1347,-83.7493 88.7219,-83.6066 88.3182,-83.4633 87.9239,-83.3193 87.5387,-83.1748 87.1627,-83.0301 86.7959,-82.8852 86.4382,-82.7402 86.0897,-82.5954 85.7502,-82.4509 85.4197,-82.3069 85.0983,-82.1634 84.7859,-82.0206 83.5848,-83.0263 83.306,-83.306 82.3044,-84.5104 82.4482,-84.8224 82.5928,-85.1433 82.738,-85.4733 82.8836,-85.8123 83.0296,-86.1603 83.1757,-86.5175 83.3218,-86.8839 83.4678,-87.2593 83.6136,-87.644 83.7589,-88.0379 83.9036,-88.4411 84.0476,-88.8534 84.1908,-89.2751 84.3329,-89.7061 84.4738,-90.1463 84.6134,-90.5959 84.7515,-91.0548 84.8879,-91.523 85.0226,-92.0005 85.1553,-92.4874 85.286,-92.9837 85.4144,-93.4892 85.5404,-94.0042 85.6638,-94.5284 85.7845,-95.062 85.9024,-95.6049 86.0173,-96.1571 86.129,-96.7186 86.2373,-97.2894 86.3422,-97.8695 86.4435,-98.4588 86.3528,-98.8421 84.4539,-100.4694 84.0613,-100.5003 83.4944,-100.31 82.9373,-100.1175 82.3898,-99.923 81.852,-99.7267 81.3239,-99.5286 80.8054,-99.329 80.2966,-99.128 79.7975,-98.9257 79.3079,-98.7224 78.8279,-98.5181 78.3576,-98.313 77.8967,-98.1073 77.4454,-97.9011 77.0036,-97.6945 76.5713,-97.4878 76.1484,-97.281 75.7349,-97.0743 75.3308,-96.8679 74.9361,-96.6619 74.5506,-96.4565 74.1744,-96.2517 73.8074,-96.0478 73.4495,-95.8449 73.1008,-95.6431 72.7612,-95.4426 72.4306,-95.2435 72.109,-95.046 71.7963,-94.8501 71.4925,-94.6561 71.1974,-94.4641 70.9112,-94.2743 69.5676,-95.0796 69.2485,-95.3123 68.0708,-96.3452 68.164,-96.6758 68.2566,-97.0154 68.3484,-97.364 68.4392,-97.7216 68.5289,-98.0883 68.6173,-98.4639 68.7044,-98.8486 68.7898,-99.2423 68.8736,-99.645 68.9555,-100.0568 69.0354,-100.4776 69.1131,-100.9075 69.1885,-101.3463 69.2615,-101.7942 69.3318,-102.2511 69.3993,-102.7169 69.4639,-103.1918 69.5255,-103.6756 69.5838,-104.1683 69.6387,-104.67 69.6901,-105.1805 69.7378,-105.7 69.7817,-106.2283 69.8216,-106.7654 69.8574,-107.3113 69.8889,-107.8659 69.916,-108.4293 69.9384,-109.0014 69.9562,-109.5821 69.969,-110.1715 69.9768,-110.7694 69.8274,-111.1337 67.6973,-112.444 67.3047,-112.4131 66.7746,-112.1364 66.2543,-111.8592 65.744,-111.5814 65.2436,-111.3034 64.7529,-111.0251 64.2721,-110.7469 63.801,-110.4687 63.3396,-110.1909 62.8879,-109.9134 62.4458,-109.6366 62.0133,-109.3604 61.5903,-109.0852 61.1769,-108.8109 60.7728,-108.5378 60.3781,-108.2659 59.9928,-107.9955 59.6167,-107.7267 59.2499,-107.4597 58.8922,-107.1944 58.5436,-106.9312 58.2041,-106.6701 57.8735,-106.4113 57.5518,-106.1549 57.239,-105.901 56.9349,-105.6499 56.6395,-105.4015 56.3527,-105.1561 56.0745,-104.9138 55.8048,-104.6747 55.5434,-104.4389 55.2904,-104.2065 53.8374,-104.7918 53.4858,-104.9717 52.161,-105.8077 52.2014,-106.1488 52.2397,-106.4987 52.2758,-106.8574 52.3096,-107.2248 52.3408,-107.6009 52.3694,-107.9858 52.3952,-108.3793 52.418,-108.7815 52.4377,-109.1924 52.4542,-109.612 52.4673,-110.0401 52.4768,-110.4768 52.4826,-110.922 52.4846,-111.3758 52.4826,-111.8381 52.4764,-112.3088 52.466,-112.7879 52.4511,-113.2753 52.4316,-113.7711 52.4074,-114.2752 52.3783,-114.7875 52.3441,-115.308 52.3048,-115.8367 52.2602,-116.3734 52.2102,-116.9182 52.1545,-117.471 52.0931,-118.0316 52.0258,-118.6002 51.9525,-119.1765 51.873,-119.7606 51.7872,-120.3524 51.5825,-120.6889 49.2737,-121.6498 48.8908,-121.5578 48.4104,-121.2017 47.94,-120.8464 47.4794,-120.4923 47.0286,-120.1394 46.5876,-119.7878 46.1562,-119.4378 45.7344,-119.0894 45.3222,-118.7427 44.9194,-118.3981 44.5261,-118.0555 44.1421,-117.715 43.7674,-117.377 43.4019,-117.0414 43.0455,-116.7084 42.6983,-116.3782 42.36,-116.0509 42.0306,-115.7266 41.71,-115.4054 41.3983,-115.0875 41.0951,-114.7729 40.8006,-114.462 40.5146,-114.1546 40.237,-113.851 39.9677,-113.5514 39.7066,-113.2557 39.4537,-112.9642 39.2089,-112.677 38.972,-112.3941 38.743,-112.1157 38.5218,-111.842 38.3082,-111.5729 36.7815,-111.9237 36.4061,-112.0463 34.9669,-112.6648 34.9534,-113.008 34.9365,-113.3596 34.916,-113.7195 34.8919,-114.0877 34.8639,-114.4641 34.8319,-114.8487 34.7958,-115.2414 34.7555,-115.6423 34.7107,-116.0512 34.6613,-116.4681 34.6073,-116.893 34.5484,-117.3258 34.4845,-117.7665 34.4154,-118.215 34.3411,-118.6712 34.2614,-119.1352 34.1761,-119.6067 34.0851,-120.0859 33.9883,-120.5725 33.8856,-121.0666 33.7767,-121.5681 33.6615,-122.0768 33.54,-122.5928 33.412,-123.116 33.2773,-123.6462 33.1359,-124.1835 32.9875,-124.7276 32.8321,-125.2787 32.6695,-125.8364 32.4996,-126.4009 32.3223,-126.972 32.0676,-127.2723 29.6368,-127.8602 29.273,-127.7095 28.8543,-127.2825 28.4452,-126.8581 28.0457,-126.4363 27.6557,-126.0172 27.2751,-125.6009 26.9037,-125.1877 26.5416,-124.7776 26.1887,-124.3708 25.8448,-123.9673 25.5099,-123.5674 25.1839,-123.1711 24.8667,-122.7786 24.5582,-122.39 24.2584,-122.0054 23.967,-121.6249 23.6841,-121.2487 23.4095,-120.8768 23.1431,-120.5094 22.8849,-120.1467 22.6347,-119.7886 22.3925,-119.4354 22.1581,-119.0871 21.9314,-118.7438 21.7123,-118.4057 21.5007,-118.0729 21.2965,-117.7454 21.0996,-117.4234 20.9099,-117.1069 20.7273,-116.7961 20.5516,-116.4911 20.3827,-116.192 18.82,-116.2996 18.4299,-116.362 16.9117,-116.7477 16.8447,-117.0846 16.773,-117.4292 16.6965,-117.7815 16.6151,-118.1413 16.5286,-118.5087 16.4368,-118.8836 16.3397,-119.2659 16.2371,-119.6555 16.1289,-120.0523 16.015,-120.4564 15.8951,-120.8676 15.7692,-121.2859 15.6372,-121.7112 15.4988,-122.1433 15.354,-122.5823 15.2027,-123.0281 15.0447,-123.4805 14.8799,-123.9395 14.7082,-124.405 14.5294,-124.877 14.3434,-125.3552 14.1501,-125.8397 13.9494,-126.3303 13.7411,-126.827 13.5251,-127.3297 13.3014,-127.8382 13.0697,-128.3524 12.83,-128.8723 12.5822,-129.3978 12.3261,-129.9288 12.0616,-130.4651 11.763,-130.7218 9.2702,-130.9222 8.9344,-130.7164 8.5877,-130.2293 8.2501,-129.7461 7.9215,-129.2669 7.6018,-128.792 7.2909,-128.3213 6.9888,-127.8551 6.6954,-127.3934 6.4104,-126.9364 6.1339,-126.4841 5.8657,-126.0367 5.6057,-125.5943 5.3538,-125.157 5.1099,-124.7249 4.8739,-124.2981 4.6456,-123.8768 4.425,-123.4609 4.212,-123.0507 4.0064,-122.6461 3.8081,-122.2474 3.617,-121.8547 3.433,-121.4679 3.2559,-121.0872 3.0857,-120.7127 2.9222,-120.3445 2.7653,-119.9826 2.6149,-119.6272 2.4708,-119.2784 2.3329,-118.9362 2.2011,-118.6006 2.0753,-118.2719 1.9553,-117.95 0.395,-117.8118 0,-117.8125 -1.5599,-117.9559 -1.6788,-118.2782 -1.8035,-118.6074 -1.9341,-118.9433 -2.0709,-119.286 -2.2138,-119.6353 -2.363,-119.9912 -2.5187,-120.3536 -2.681,-120.7224 -2.85,-121.0974 -3.0257,-121.4787 -3.2085,-121.8661 -3.3982,-122.2595 -3.5952,-122.6589 -3.7994,-123.0641 -4.0111,-123.475 -4.2303,-123.8916 -4.4571,-124.3138 -4.6917,-124.7413 -4.9341,-125.1743 -5.1846,-125.6124 -5.4431,-126.0557 -5.7098,-126.504 -5.9848,-126.9572 -6.2682,-127.4151 -6.5601,-127.8778 -6.8607,-128.345 -7.17,-128.8167 -7.488,-129.2928 -7.815,-129.773 -8.151,-130.2574 -8.4961,-130.7457 -8.8312,-130.9526 -11.3247,-130.7605 -11.6241,-130.5048 -11.8904,-129.9694 -12.1483,-129.4393 -12.3979,-128.9146 -12.6393,-128.3955 -12.8727,-127.882 -13.0982,-127.3743 -13.3158,-126.8724 -13.5257,-126.3764 -13.7281,-125.8864 -13.923,-125.4026 -14.1106,-124.925 -14.291,-124.4536 -14.4643,-123.9887 -14.6307,-123.5303 -14.7902,-123.0784 -14.943,-122.6331 -15.0892,-122.1946 -15.229,-121.7629 -15.3625,-121.3381 -15.4898,-120.9202 -15.611,-120.5094 -15.7264,-120.1057 -15.8359,-119.7092 -15.9398,-119.32 -16.0382,-118.938 -16.1311,-118.5635 -16.2189,-118.1964 -16.3015,-117.8368 -16.3792,-117.4848 -16.452,-117.1404 -16.5202,-116.8037 -18.0397,-116.4232 -18.4299,-116.362 -19.993,-116.2597 -20.1609,-116.5594 -20.3356,-116.865 -20.5172,-117.1764 -20.7058,-117.4934 -20.9016,-117.8161 -21.1047,-118.1443 -21.3152,-118.4778 -21.5331,-118.8167 -21.7587,-119.1607 -21.9919,-119.5098 -22.233,-119.8638 -22.482,-120.2227 -22.739,-120.5863 -23.0041,-120.9546 -23.2775,-121.3274 -23.5591,-121.7046 -23.8492,-122.086 -24.1478,-122.4716 -24.455,-122.8613 -24.7708,-123.2549 -25.0955,-123.6522 -25.4291,-124.0533 -25.7716,-124.4579 -26.1232,-124.8659 -26.4839,-125.2772 -26.8538,-125.6917 -27.2331,-126.1092 -27.6217,-126.5296 -28.0198,-126.9528 -28.4274,-127.3786 -28.8447,-127.8069 -29.208,-127.9588 -31.6407,-127.3791 -31.8964,-127.0796 -32.0757,-126.5092 -32.2475,-125.9453 -32.4119,-125.388 -32.5692,-124.8375 -32.7194,-124.2939 -32.8626,-123.7571 -32.9991,-123.2273 -33.1288,-122.7046 -33.2521,-122.189 -33.3689,-121.6806 -33.4795,-121.1795 -33.5839,-120.6858 -33.6823,-120.1995 -33.7749,-119.7207 -33.8618,-119.2494 -33.9431,-118.7857 -34.0189,-118.3297 -34.0894,-117.8815 -34.1548,-117.441 -34.2152,-117.0084 -34.2707,-116.5837 -34.3214,-116.1669 -34.3676,-115.7581 -34.4093,-115.3574 -34.4467,-114.9648 -34.48,-114.5803 -34.5092,-114.204 -34.5346,-113.8359 -34.5562,-113.4761 -34.5743,-113.1246 -34.5889,-112.7814 -36.0302,-112.1678 -36.4061,-112.0463 -37.9339,-111.7007 -38.1466,-111.9705 -38.3669,-112.245 -38.595,-112.5241 -38.8309,-112.8078 -39.0748,-113.0959 -39.3267,-113.3882 -39.5868,-113.6847 -39.855,-113.9853 -40.1316,-114.2898 -40.4166,-114.5981 -40.7101,-114.9101 -41.0122,-115.2256 -41.3229,-115.5446 -41.6424,-115.8668 -41.9707,-116.1923 -42.3078,-116.5207 -42.654,-116.8521 -43.0093,-117.1863 -43.3736,-117.5231 -43.7472,-117.8624 -44.13,-118.2041 -44.5222,-118.548 -44.9238,-118.894 -45.3349,-119.242 -45.7555,-119.5918 -46.1857,-119.9433 -46.6256,-120.2964 -47.0752,-120.6508 -47.5346,-121.0065 -48.0038,-121.3633 -48.4829,-121.7211 -48.8656,-121.8143 -51.1776,-120.8611 -51.3834,-120.5254 -51.4712,-119.9339 -51.5526,-119.3501 -51.6279,-118.774 -51.6971,-118.2056 -51.7604,-117.6452 -51.8179,-117.0926 -51.8698,-116.548 -51.9162,-116.0114 -51.9573,-115.4829 -51.9931,-114.9625 -52.0239,-114.4503 -52.0499,-113.9463 -52.071,-113.4505 -52.0875,-112.9631 -52.0996,-112.4841 -52.1073,-112.0134 -52.1109,-111.5512 -52.1105,-111.0974 -52.1061,-110.6521 -52.0981,-110.2154 -52.0864,-109.7872 -52.0714,-109.3676 -52.053,-108.9567 -52.0315,-108.5544 -52.0071,-108.1607 -51.9798,-107.7758 -51.9498,-107.3995 -51.9172,-107.032 -51.8823,-106.6732 -51.8452,-106.3232 -51.806,-105.9819 -53.1335,-105.1504 -53.4858,-104.9717 -54.9407,-104.3913 -55.193,-104.6245 -55.4535,-104.8612 -55.7225,-105.1012 -55.9999,-105.3444 -56.2858,-105.5908 -56.5804,-105.8402 -56.8836,-106.0924 -57.1956,-106.3473 -57.5164,-106.6047 -57.8461,-106.8647 -58.1848,-107.1269 -58.5325,-107.3913 -58.8893,-107.6577 -59.2552,-107.926 -59.6304,-108.1961 -60.0148,-108.4678 -60.4086,-108.7409 -60.8117,-109.0154 -61.2243,-109.291 -61.6463,-109.5677 -62.0779,-109.8453 -62.5191,-110.1237 -62.9698,-110.4026 -63.4303,-110.682 -63.9004,-110.9617 -64.3804,-111.2416 -64.8701,-111.5215 -65.3696,-111.8012 -65.879,-112.0807 -66.3982,-112.3597 -66.9274,-112.6381 -67.3199,-112.6703 -69.4544,-111.3672 -69.6051,-111.0034 -69.5993,-110.4054 -69.5884,-109.816 -69.5726,-109.2353 -69.552,-108.6631 -69.5269,-108.0996 -69.4973,-107.5449 -69.4633,-106.9989 -69.4252,-106.4616 -69.3831,-105.9332 -69.3371,-105.4136 -69.2874,-104.9029 -69.2342,-104.401 -69.1775,-103.9081 -69.1176,-103.4241 -69.0546,-102.949 -68.9886,-102.4829 -68.9198,-102.0258 -68.8484,-101.5777 -68.7744,-101.1386 -68.6981,-100.7085 -68.6197,-100.2874 -68.5392,-99.8754 -68.4567,-99.4724 -68.3726,-99.0784 -68.2868,-98.6934 -68.1996,-98.3175 -68.1112,-97.9505 -68.0216,-97.5926 -67.931,-97.2437 -67.8395,-96.9038 -67.7474,-96.5729 -68.9285,-95.5439 -69.2485,-95.3123 -70.5947,-94.5115 -70.8803,-94.7023 -71.1747,-94.8953 -71.4779,-95.0903 -71.7899,-95.2872 -72.1109,-95.4858 -72.4408,-95.686 -72.7798,-95.8876 -73.1278,-96.0906 -73.4849,-96.2947 -73.8513,-96.4998 -74.2268,-96.7059 -74.6116,-96.9126 -75.0056,-97.1199 -75.4091,-97.3277 -75.8218,-97.5358 -76.244,-97.7439 -76.6757,-97.9521 -77.1168,-98.1602 -77.5674,-98.3679 -78.0275,-98.5752 -78.4972,-98.7818 -78.9765,-98.9877 -79.4653,-99.1927 -79.9638,-99.3967 -80.472,-99.5994 -80.9897,-99.8007 -81.5172,-100.0005 -82.0543,-100.1987 -82.6011,-100.395 -83.1577,-100.5894 -83.7239,-100.7816 -84.1166,-100.752 -86.021,-99.131 -86.1129,-98.7481 -86.0136,-98.1584 -85.9107,-97.578 -85.8042,-97.0068 -85.6944,-96.445 -85.5814,-95.8924 -85.4654,-95.3491 -85.3464,-94.8151 -85.2247,-94.2904 -85.1005,-93.7751 -84.9738,-93.2691 -84.8448,-92.7724 -84.7137,-92.2851 -84.5806,-91.8071 -84.4457,-91.3384 -84.3092,-90.879 -84.1711,-90.429 -84.0316,-89.9883 -83.891,-89.5569 -83.7493,-89.1347 -83.6066,-88.7219 -83.4633,-88.3182 -83.3193,-87.9239 -83.1748,-87.5387 -83.0301,-87.1627 -82.8852,-86.7959 -82.7402,-86.4382 -82.5954,-86.0897 -82.4509,-85.7502 -82.3069,-85.4197 -82.1634,-85.0983 -82.0206,-84.7859 -83.0263,-83.5848 -83.306,-83.306 -84.5104,-82.3044 -84.8224,-82.4482 -85.1433,-82.5928 -85.4733,-82.738 -85.8123,-82.8836 -86.1603,-83.0296 -86.5175,-83.1757 -86.8839,-83.3218 -87.2593,-83.4678 -87.644,-83.6136 -88.0379,-83.7589 -88.4411,-83.9036 -88.8534,-84.0476 -89.2751,-84.1908 -89.7061,-84.3329 -90.1463,-84.4738 -90.5959,-84.6134 -91.0548,-84.7515 -91.523,-84.8879 -92.0005,-85.0226 -92.4874,-85.1553 -92.9837,-85.286 -93.4892,-85.4144 -94.0042,-85.5404 -94.5284,-85.6638 -95.062,-85.7845 -95.6049,-85.9024 -96.1571,-86.0173 -96.7186,-86.129 -97.2894,-86.2373 -97.8695,-86.3422 -98.4588,-86.4435 -98.8421,-86.3528 -100.4694,-84.4539 -100.5003,-84.0613 -100.31,-83.4944 -100.1175,-82.9373 -99.923,-82.3898 -99.7267,-81.852 -99.5286,-81.3239 -99.329,-80.8054 -99.128,-80.2966 -98.9257,-79.7975 -98.7224,-79.3079 -98.5181,-78.8279 -98.313,-78.3576 -98.1073,-77.8967 -97.9011,-77.4454 -97.6945,-77.0036 -97.4878,-76.5713 -97.281,-76.1484 -97.0743,-75.7349 -96.8679,-75.3308 -96.6619,-74.9361 -96.4565,-74.5506 -96.2517,-74.1744 -96.0478,-73.8074 -95.8449,-73.4495 -95.6431,-73.1008 -95.4426,-72.7612 -95.2435,-72.4306 -95.046,-72.109 -94.8501,-71.7963 -94.6561,-71.4925 -94.4641,-71.1974 -94.2743,-70.9112 -95.0796,-69.5676 -95.3123,-69.2485 -96.3452,-68.0708 -96.6758,-68.164 -97.0154,-68.2566 -97.364,-68.3484 -97.7216,-68.4392 -98.0883,-68.5289 -98.4639,-68.6173 -98.8486,-68.7044 -99.2423,-68.7898 -99.645,-68.8736 -100.0568,-68.9555 -100.4776,-69.0354 -100.9075,-69.1131 -101.3463,-69.1885 -101.7942,-69.2615 -102.2511,-69.3318 -102.7169,-69.3993 -103.1918,-69.4639 -103.6756,-69.5255 -104.1683,-69.5838 -104.67,-69.6387 -105.1805,-69.6901 -105.7,-69.7378 -106.2283,-69.7817 -106.7654,-69.8216 -107.3113,-69.8574 -107.8659,-69.8889 -108.4293,-69.916 -109.0014,-69.9384 -109.5821,-69.9562 -110.1715,-69.969 -110.7694,-69.9768 -111.1337,-69.8274 -112.444,-67.6973 -112.4131,-67.3047 -112.1364,-66.7746 -111.8592,-66.2543 -111.5814,-65.744 -111.3034,-65.2436 -111.0251,-64.7529 -110.7469,-64.2721 -110.4687,-63.801 -110.1909,-63.3396 -109.9134,-62.8879 -109.6366,-62.4458 -109.3604,-62.0133 -109.0852,-61.5903 -108.8109,-61.1769 -108.5378,-60.7728 -108.2659,-60.3781 -107.9955,-59.9928 -107.7267,-59.6167 -107.4597,-59.2499 -107.1944,-58.8922 -106.9312,-58.5436 -106.6701,-58.2041 -106.4113,-57.8735 -106.1549,-57.5518 -105.901,-57.239 -105.6499,-56.9349 -105.4015,-56.6395 -105.1561,-56.3527 -104.9138,-56.0745 -104.6747,-55.8048 -104.4389,-55.5434 -104.2065,-55.2904 -104.7918,-53.8374 -104.9717,-53.4858 -105.8077,-52.161 -106.1488,-52.2014 -106.4987,-52.2397 -106.8574,-52.2758 -107.2248,-52.3096 -107.6009,-52.3408 -107.9858,-52.3694 -108.3793,-52.3952 -108.7815,-52.418 -109.1924,-52.4377 -109.612,-52.4542 -110.0401,-52.4673 -110.4768,-52.4768 -110.922,-52.4826 -111.3758,-52.4846 -111.8381,-52.4826 -112.3088,-52.4764 -112.7879,-52.466 -113.2753,-52.4511 -113.7711,-52.4316 -114.2752,-52.4074 -114.7875,-52.3783 -115.308,-52.3441 -115.8367,-52.3048 -116.3734,-52.2602 -116.9182,-52.2102 -117.471,-52.1545 -118.0316,-52.0931 -118.6002,-52.0258 -119.1765,-51.9525 -119.7606,-51.873 -120.3524,-51.7872 -120.6889,-51.5825 -121.6498,-49.2737 -121.5578,-48.8908 -121.2017,-48.4104 -120.8464,-47.94 -120.4923,-47.4794 -120.1394,-47.0286 -119.7878,-46.5876 -119.4378,-46.1562 -119.0894,-45.7344 -118.7427,-45.3222 -118.3981,-44.9194 -118.0555,-44.5261 -117.715,-44.1421 -117.377,-43.7674 -117.0414,-43.4019 -116.7084,-43.0455 -116.3782,-42.6983 -116.0509,-42.36 -115.7266,-42.0306 -115.4054,-41.71 -115.0875,-41.3983 -114.7729,-41.0951 -114.462,-40.8006 -114.1546,-40.5146 -113.851,-40.237 -113.5514,-39.9677 -113.2557,-39.7066 -112.9642,-39.4537 -112.677,-39.2089 -112.3941,-38.972 -112.1157,-38.743 -111.842,-38.5218 -111.5729,-38.3082 -111.9237,-36.7815 -112.0463,-36.4061 -112.6648,-34.9669 -113.008,-34.9534 -113.3596,-34.9365 -113.7195,-34.916 -114.0877,-34.8919 -114.4641,-34.8639 -114.8487,-34.8319 -115.2414,-34.7958 -115.6423,-34.7555 -116.0512,-34.7107 -116.4681,-34.6613 -116.893,-34.6073 -117.3258,-34.5484 -117.7665,-34.4845 -118.215,-34.4154 -118.6712,-34.3411 -119.1352,-34.2614 -119.6067,-34.1761 -120.0859,-34.0851 -120.5725,-33.9883 -121.0666,-33.8856 -121.5681,-33.7767 -122.0768,-33.6615 -122.5928,-33.54 -123.116,-33.412 -123.6462,-33.2773 -124.1835,-33.1359 -124.7276,-32.9875 -125.2787,-32.8321 -125.8364,-32.6695 -126.4009,-32.4996 -126.972,-32.3223 -127.2723,-32.0676 -127.8602,-29.6368 -127.7095,-29.273 -127.2825,-28.8543 -126.8581,-28.4452 -126.4363,-28.0457 -126.0172,-27.6557 -125.6009,-27.2751 -125.1877,-26.9037 -124.7776,-26.5416 -124.3708,-26.1887 -123.9673,-25.8448 -123.5674,-25.5099 -123.1711,-25.1839 -122.7786,-24.8667 -122.39,-24.5582 -122.0054,-24.2584 -121.6249,-23.967 -121.2487,-23.6841 -120.8768,-23.4095 -120.5094,-23.1431 -120.1467,-22.8849 -119.7886,-22.6347 -119.4354,-22.3925 -119.0871,-22.1581 -118.7438,-21.9314 -118.4057,-21.7123 -118.0729,-21.5007 -117.7454,-21.2965 -117.4234,-21.0996 -117.1069,-20.9099 -116.7961,-20.7273 -116.4911,-20.5516 -116.192,-20.3827 -116.2996,-18.82 -116.362,-18.4299 -116.7477,-16.9117 -117.0846,-16.8447 -117.4292,-16.773 -117.7815,-16.6965 -118.1413,-16.6151 -118.5087,-16.5286 -118.8836,-16.4368 -119.2659,-16.3397 -119.6555,-16.2371 -120.0523,-16.1289 -120.4564,-16.015 -120.8676,-15.8951 -121.2859,-15.7692 -121.7112,-15.6372 -122.1433,-15.4988 -122.5823,-15.354 -123.0281,-15.2027 -123.4805,-15.0447 -123.9395,-14.8799 -124.405,-14.7082 -124.877,-14.5294 -125.3552,-14.3434 -125.8397,-14.1501 -126.3303,-13.9494 -126.827,-13.7411 -127.3297,-13.5251 -127.8382,-13.3014 -128.3524,-13.0697 -128.8723,-12.83 -129.3978,-12.5822 -129.9288,-12.3261 -130.4651,-12.0616 -130.7218,-11.763 -130.9222,-9.2702 -130.7164,-8.9344 -130.2293,-8.5877 -129.7461,-8.2501 -129.2669,-7.9215 -128.792,-7.6018 -128.3213,-7.2909 -127.8551,-6.9888 -127.3934,-6.6954 -126.9364,-6.4104 -126.4841,-6.1339 -126.0367,-5.8657 -125.5943,-5.6057 -125.157,-5.3538 -124.7249,-5.1099 -124.2981,-4.8739 -123.8768,-4.6456 -123.4609,-4.425 -123.0507,-4.212 -122.6461,-4.0064 -122.2474,-3.8081 -121.8547,-3.617 -121.4679,-3.433 -121.0872,-3.2559 -120.7127,-3.0857 -120.3445,-2.9222 -119.9826,-2.7653 -119.6272,-2.6149 -119.2784,-2.4708 -118.9362,-2.3329 -118.6006,-2.2011 -118.2719,-2.0753 -117.95,-1.9553 -117.8118,-0.395 -117.8125,0 -117.9559,1.5599 -118.2782,1.6788 -118.6074,1.8035 -118.9433,1.9341 -119.286,2.0709 -119.6353,2.2138 -119.9912,2.363 -120.3536,2.5187 -120.7224,2.681 -121.0974,2.85 -121.4787,3.0257 -121.8661,3.2085 -122.2595,3.3982 -122.6589,3.5952 -123.0641,3.7994 -123.475,4.0111 -123.8916,4.2303 -124.3138,4.4571 -124.7413,4.6917 -125.1743,4.9341 -125.6124,5.1846 -126.0557,5.4431 -126.504,5.7098 -126.9572,5.9848 -127.4151,6.2682 -127.8778,6.5601 -128.345,6.8607 -128.8167,7.17 -129.2928,7.488 -129.773,7.815 -130.2574,8.151 -130.7457,8.4961 -130.9526,8.8312 -130.7605,11.3247 -130.5048,11.6241 -129.9694,11.8904 -129.4393,12.1483 -128.9146,12.3979 -128.3955,12.6393 -127.882,12.8727 -127.3743,13.0982 -126.8724,13.3158 -126.3764,13.5257 -125.8864,13.7281 -125.4026,13.923 -124.925,14.1106 -124.4536,14.291 -123.9887,14.4643 -123.5303,14.6307 -123.0784,14.7902 -122.6331,14.943 -122.1946,15.0892 -121.7629,15.229 -121.3381,15.3625 -120.9202,15.4898 -120.5094,15.611 -120.1057,15.7264 -119.7092,15.8359 -119.32,15.9398 -118.938,16.0382 -118.5635,16.1311 -118.1964,16.2189 -117.8368,16.3015 -117.4848,16.3792 -117.1404,16.452 -116.8037,16.5202 -116.4232,18.0397 -116.362,18.4299 -116.2597,19.993 -116.5594,20.1609 -116.865,20.3356 -117.1764,20.5172 -117.4934,20.7058 -117.8161,20.9016 -118.1443,21.1047 -118.4778,21.3152 -118.8167,21.5331 -119.1607,21.7587 -119.5098,21.9919 -119.8638,22.233 -120.2227,22.482 -120.5863,22.739 -120.9546,23.0041 -121.3274,23.2775 -121.7046,23.5591 -122.086,23.8492 -122.4716,24.1478 -122.8613,24.455 -123.2549,24.7708 -123.6522,25.0955 -124.0533,25.4291 -124.4579,25.7716 -124.8659,26.1232 -125.2772,26.4839 -125.6917,26.8538 -126.1092,27.2331 -126.5296,27.6217 -126.9528,28.0198 -127.3786,28.4274 -127.8069,28.8447 -127.9588,29.208 -127.3791,31.6407 -127.0796,31.8964 -126.5092,32.0757 -125.9453,32.2475 -125.388,32.4119 -124.8375,32.5692 -124.2939,32.7194 -123.7571,32.8626 -123.2273,32.9991 -122.7046,33.1288 -122.189,33.2521 -121.6806,33.3689 -121.1795,33.4795 -120.6858,33.5839 -120.1995,33.6823 -119.7207,33.7749 -119.2494,33.8618 -118.7857,33.9431 -118.3297,34.0189 -117.8815,34.0894 -117.441,34.1548 -117.0084,34.2152 -116.5837,34.2707 -116.1669,34.3214 -115.7581,34.3676 -115.3574,34.4093 -114.9648,34.4467 -114.5803,34.48 -114.204,34.5092 -113.8359,34.5346 -113.4761,34.5562 -113.1246,34.5743 -112.7814,34.5889 -112.1678,36.0302 -112.0463,36.4061 -111.7007,37.9339 -111.9705,38.1466 -112.245,38.3669 -112.5241,38.595 -112.8078,38.8309 -113.0959,39.0748 -113.3882,39.3267 -113.6847,39.5868 -113.9853,39.855 -114.2898,40.1316 -114.5981,40.4166 -114.9101,40.7101 -115.2256,41.0122 -115.5446,41.3229 -115.8668,41.6424 -116.1923,41.9707 -116.5207,42.3078 -116.8521,42.654 -117.1863,43.0093 -117.5231,43.3736 -117.8624,43.7472 -118.2041,44.13 -118.548,44.5222 -118.894,44.9238 -119.242,45.3349 -119.5918,45.7555 -119.9433,46.1857 -120.2964,46.6256 -120.6508,47.0752 -121.0065,47.5346 -121.3633,48.0038 -121.7211,48.4829 -121.8143,48.8656 -120.8611,51.1776 -120.5254,51.3834 -119.9339,51.4712 -119.3501,51.5526 -118.774,51.6279 -118.2056,51.6971 -117.6452,51.7604 -117.0926,51.8179 -116.548,51.8698 -116.0114,51.9162 -115.4829,51.9573 -114.9625,51.9931 -114.4503,52.0239 -113.9463,52.0499 -113.4505,52.071 -112.9631,52.0875 -112.4841,52.0996 -112.0134,52.1073 -111.5512,52.1109 -111.0974,52.1105 -110.6521,52.1061 -110.2154,52.0981 -109.7872,52.0864 -109.3676,52.0714 -108.9567,52.053 -108.5544,52.0315 -108.1607,52.0071 -107.7758,51.9798 -107.3995,51.9498 -107.032,51.9172 -106.6732,51.8823 -106.3232,51.8452 -105.9819,51.806 -105.1504,53.1335 -104.9717,53.4858 -104.3913,54.9407 -104.6245,55.193 -104.8612,55.4535 -105.1012,55.7225 -105.3444,55.9999 -105.5908,56.2858 -105.8402,56.5804 -106.0924,56.8836 -106.3473,57.1956 -106.6047,57.5164 -106.8647,57.8461 -107.1269,58.1848 -107.3913,58.5325 -107.6577,58.8893 -107.926,59.2552 -108.1961,59.6304 -108.4678,60.0148 -108.7409,60.4086 -109.0154,60.8117 -109.291,61.2243 -109.5677,61.6463 -109.8453,62.0779 -110.1237,62.5191 -110.4026,62.9698 -110.682,63.4303 -110.9617,63.9004 -111.2416,64.3804 -111.5215,64.8701 -111.8012,65.3696 -112.0807,65.879 -112.3597,66.3982 -112.6381,66.9274 -112.6703,67.3199 -111.3672,69.4544 -111.0034,69.6051 -110.4054,69.5993 -109.816,69.5884 -109.2353,69.5726 -108.6631,69.552 -108.0996,69.5269 -107.5449,69.4973 -106.9989,69.4633 -106.4616,69.4252 -105.9332,69.3831 -105.4136,69.3371 -104.9029,69.2874 -104.401,69.2342 -103.9081,69.1775 -103.4241,69.1176 -102.949,69.0546 -102.4829,68.9886 -102.0258,68.9198 -101.5777,68.8484 -101.1386,68.7744 -100.7085,68.6981 -100.2874,68.6197 -99.8754,68.5392 -99.4724,68.4567 -99.0784,68.3726 -98.6934,68.2868 -98.3175,68.1996 -97.9505,68.1112 -97.5926,68.0216 -97.2437,67.931 -96.9038,67.8395 -96.5729,67.7474 -95.5439,68.9285 -95.3123,69.2485 -94.5115,70.5947 -94.7023,70.8803 -94.8953,71.1747 -95.0903,71.4779 -95.2872,71.7899 -95.4858,72.1109 -95.686,72.4408 -95.8876,72.7798 -96.0906,73.1278 -96.2947,73.4849 -96.4998,73.8513 -96.7059,74.2268 -96.9126,74.6116 -97.1199,75.0056 -97.3277,75.4091 -97.5358,75.8218 -97.7439,76.244 -97.9521,76.6757 -98.1602,77.1168 -98.3679,77.5674 -98.5752,78.0275 -98.7818,78.4972 -98.9877,78.9765 -99.1927,79.4653 -99.3967,79.9638 -99.5994,80.472 -99.8007,80.9897 -100.0005,81.5172 -100.1987,82.0543 -100.395,82.6011 -100.5894,83.1577 -100.7816,83.7239 -100.752,84.1166 -99.131,86.021 -98.7481,86.1129 -98.1584,86.0136 -97.578,85.9107 -97.0068,85.8042 -96.445,85.6944 -95.8924,85.5814 -95.3491,85.4654 -94.8151,85.3464 -94.2904,85.2247 -93.7751,85.1005 -93.2691,84.9738 -92.7724,84.8448 -92.2851,84.7137 -91.8071,84.5806 -91.3384,84.4457 -90.879,84.3092 -90.429,84.1711 -89.9883,84.0316 -89.5569,83.891 -89.1347,83.7493 -88.7219,83.6066 -88.3182,83.4633 -87.9239,83.3193 -87.5387,83.1748 -87.1627,83.0301 -86.7959,82.8852 -86.4382,82.7402 -86.0897,82.5954 -85.7502,82.4509 -85.4197,82.3069 -85.0983,82.1634 -84.7859,82.0206 -83.5848,83.0263 -83.306,83.306 -82.3044,84.5104 -82.4482,84.8224 -82.5928,85.1433 -82.738,85.4733 -82.8836,85.8123 -83.0296,86.1603 -83.1757,86.5175 -83.3218,86.8839 -83.4678,87.2593 -83.6136,87.644 -83.7589,88.0379 -83.9036,88.4411 -84.0476,88.8534 -84.1908,89.2751 -84.3329,89.7061 -84.4738,90.1463 -84.6134,90.5959 -84.7515,91.0548 -84.8879,91.523 -85.0226,92.0005 -85.1553,92.4874 -85.286,92.9837 -85.4144,93.4892 -85.5404,94.0042 -85.6638,94.5284 -85.7845,95.062 -85.9024,95.6049 -86.0173,96.1571 -86.129,96.7186 -86.2373,97.2894 -86.3422,97.8695 -86.4435,98.4588 -86.3528,98.8421 -84.4539,100.4694 -84.0613,100.5003 -83.4944,100.31 -82.9373,100.1175 -82.3898,99.923 -81.852,99.7267 -81.3239,99.5286 -80.8054,99.329 -80.2966,99.128 -79.7975,98.9257 -79.3079,98.7224 -78.8279,98.5181 -78.3576,98.313 -77.8967,98.1073 -77.4454,97.9011 -77.0036,97.6945 -76.5713,97.4878 -76.1484,97.281 -75.7349,97.0743 -75.3308,96.8679 -74.9361,96.6619 -74.5506,96.4565 -74.1744,96.2517 -73.8074,96.0478 -73.4495,95.8449 -73.1008,95.6431 -72.7612,95.4426 -72.4306,95.2435 -72.109,95.046 -71.7963,94.8501 -71.4925,94.6561 -71.1974,94.4641 -70.9112,94.2743 -69.5676,95.0796 -69.2485,95.3123 -68.0708,96.3452 -68.164,96.6758 -68.2566,97.0154 -68.3484,97.364 -68.4392,97.7216 -68.5289,98.0883 -68.6173,98.4639 -68.7044,98.8486 -68.7898,99.2423 -68.8736,99.645 -68.9555,100.0568 -69.0354,100.4776 -69.1131,100.9075 -69.1885,101.3463 -69.2615,101.7942 -69.3318,102.2511 -69.3993,102.7169 -69.4639,103.1918 -69.5255,103.6756 -69.5838,104.1683 -69.6387,104.67 -69.6901,105.1805 -69.7378,105.7 -69.7817,106.2283 -69.8216,106.7654 -69.8574,107.3113 -69.8889,107.8659 -69.916,108.4293 -69.9384,109.0014 -69.9562,109.5821 -69.969,110.1715 -69.9768,110.7694 -69.8274,111.1337 -67.6973,112.444 -67.3047,112.4131 -66.7746,112.1364 -66.2543,111.8592 -65.744,111.5814 -65.2436,111.3034 -64.7529,111.0251 -64.2721,110.7469 -63.801,110.4687 -63.3396,110.1909 -62.8879,109.9134 -62.4458,109.6366 -62.0133,109.3604 -61.5903,109.0852 -61.1769,108.8109 -60.7728,108.5378 -60.3781,108.2659 -59.9928,107.9955 -59.6167,107.7267 -59.2499,107.4597 -58.8922,107.1944 -58.5436,106.9312 -58.2041,106.6701 -57.8735,106.4113 -57.5518,106.1549 -57.239,105.901 -56.9349,105.6499 -56.6395,105.4015 -56.3527,105.1561 -56.0745,104.9138 -55.8048,104.6747 -55.5434,104.4389 -55.2904,104.2065 -53.8374,104.7918 -53.4858,104.9717 -52.161,105.8077 -52.2014,106.1488 -52.2397,106.4987 -52.2758,106.8574 -52.3096,107.2248 -52.3408,107.6009 -52.3694,107.9858 -52.3952,108.3793 -52.418,108.7815 -52.4377,109.1924 -52.4542,109.612 -52.4673,110.0401 -52.4768,110.4768 -52.4826,110.922 -52.4846,111.3758 -52.4826,111.8381 -52.4764,112.3088 -52.466,112.7879 -52.4511,113.2753 -52.4316,113.7711 -52.4074,114.2752 -52.3783,114.7875 -52.3441,115.308 -52.3048,115.8367 -52.2602,116.3734 -52.2102,116.9182 -52.1545,117.471 -52.0931,118.0316 -52.0258,118.6002 -51.9525,119.1765 -51.873,119.7606 -51.7872,120.3524 -51.5825,120.6889 -49.2737,121.6498 -48.8908,121.5578 -48.4104,121.2017 -47.94,120.8464 -47.4794,120.4923 -47.0286,120.1394 -46.5876,119.7878 -46.1562,119.4378 -45.7344,119.0894 -45.3222,118.7427 -44.9194,118.3981 -44.5261,118.0555 -44.1421,117.715 -43.7674,117.377 -43.4019,117.0414 -43.0455,116.7084 -42.6983,116.3782 -42.36,116.0509 -42.0306,115.7266 -41.71,115.4054 -41.3983,115.0875 -41.0951,114.7729 -40.8006,114.462 -40.5146,114.1546 -40.237,113.851 -39.9677,113.5514 -39.7066,113.2557 -39.4537,112.9642 -39.2089,112.677 -38.972,112.3941 -38.743,112.1157 -38.5218,111.842 -38.3082,111.5729 -36.7815,111.9237 -36.4061,112.0463 -34.9669,112.6648 -34.9534,113.008 -34.9365,113.3596 -34.916,113.7195 -34.8919,114.0877 -34.8639,114.4641 -34.8319,114.8487 -34.7958,115.2414 -34.7555,115.6423 -34.7107,116.0512 -34.6613,116.4681 -34.6073,116.893 -34.5484,117.3258 -34.4845,117.7665 -34.4154,118.215 -34.3411,118.6712 -34.2614,119.1352 -34.1761,119.6067 -34.0851,120.0859 -33.9883,120.5725 -33.8856,121.0666 -33.7767,121.5681 -33.6615,122.0768 -33.54,122.5928 -33.412,123.116 -33.2773,123.6462 -33.1359,124.1835 -32.9875,124.7276 -32.8321,125.2787 -32.6695,125.8364 -32.4996,126.4009 -32.3223,126.972 -32.0676,127.2723 -29.6368,127.8602 -29.273,127.7095 -28.8543,127.2825 -28.4452,126.8581 -28.0457,126.4363 -27.6557,126.0172 -27.2751,125.6009 -26.9037,125.1877 -26.5416,124.7776 -26.1887,124.3708 -25.8448,123.9673 -25.5099,123.5674 -25.1839,123.1711 -24.8667,122.7786 -24.5582,122.39 -24.2584,122.0054 -23.967,121.6249 -23.6841,121.2487 -23.4095,120.8768 -23.1431,120.5094 -22.8849,120.1467 -22.6347,119.7886 -22.3925,119.4354 -22.1581,119.0871 -21.9314,118.7438 -21.7123,118.4057 -21.5007,118.0729 -21.2965,117.7454 -21.0996,117.4234 -20.9099,117.1069 -20.7273,116.7961 -20.5516,116.4911 -20.3827,116.192 -18.82,116.2996 -18.4299,116.362 -16.9117,116.7477 -16.8447,117.0846 -16.773,117.4292 -16.6965,117.7815 -16.6151,118.1413 -16.5286,118.5087 -16.4368,118.8836 -16.3397,119.2659 -16.2371,119.6555 -16.1289,120.0523 -16.015,120.4564 -15.8951,120.8676 -15.7692,121.2859 -15.6372,121.7112 -15.4988,122.1433 -15.354,122.5823 -15.2027,123.0281 -15.0447,123.4805 -14.8799,123.9395 -14.7082,124.405 -14.5294,124.877 -14.3434,125.3552 -14.1501,125.8397 -13.9494,126.3303 -13.7411,126.827 -13.5251,127.3297 -13.3014,127.8382 -13.0697,128.3524 -12.83,128.8723 -12.5822,129.3978 -12.3261,129.9288 -12.0616,130.4651 -11.763,130.7218 -9.2702,130.9222 -8.9344,130.7164 -8.5877,130.2293 -8.2501,129.7461 -7.9215,129.2669 -7.6018,128.792 -7.2909,128.3213 -6.9888,127.8551 -6.6954,127.3934 -6.4104,126.9364 -6.1339,126.4841 -5.8657,126.0367 -5.6057,125.5943 -5.3538,125.157 -5.1099,124.7249 -4.8739,124.2981 -4.6456,123.8768 -4.425,123.4609 -4.212,123.0507 -4.0064,122.6461 -3.8081,122.2474 -3.617,121.8547 -3.433,121.4679 -3.2559,121.0872 -3.0857,120.7127 -2.9222,120.3445 -2.7653,119.9826 -2.6149,119.6272 -2.4708,119.2784 -2.3329,118.9362 -2.2011,118.6006 -2.0753,118.2719 -1.9553,117.95 -0.395,117.8118 0,117.8125 1.5599,117.9559 1.6788,118.2782 1.8035,118.6074 1.9341,118.9433 2.0709,119.286 2.2138,119.6353 2.363,119.9912 2.5187,120.3536 2.681,120.7224 2.85,121.0974 3.0257,121.4787 3.2085,121.8661 3.3982,122.2595 3.5952,122.6589 3.7994,123.0641 4.0111,123.475 4.2303,123.8916 4.4571,124.3138 4.6917,124.7413 4.9341,125.1743 5.1846,125.6124 5.4431,126.0557 5.7098,126.504 5.9848,126.9572 6.2682,127.4151 6.5601,127.8778 6.8607,128.345 7.17,128.8167 7.488,129.2928 7.815,129.773 8.151,130.2574 8.4961,130.7457 8.8312,130.9526 11.3247,130.7605 11.6241,130.5048 11.8904,129.9694 12.1483,129.4393 12.3979,128.9146 12.6393,128.3955 12.8727,127.882 13.0982,127.3743 13.3158,126.8724 13.5257,126.3764 13.7281,125.8864 13.923,125.4026 14.1106,124.925 14.291,124.4536 14.4643,123.9887 14.6307,123.5303 14.7902,123.0784 14.943,122.6331 15.0892,122.1946 15.229,121.7629 15.3625,121.3381 15.4898,120.9202 15.611,120.5094 15.7264,120.1057 15.8359,119.7092 15.9398,119.32 16.0382,118.938 16.1311,118.5635 16.2189,118.1964 16.3015,117.8368 16.3792,117.4848 16.452,117.1404 16.5202,116.8037 18.0397,116.4232 18.4299,116.362 19.993,116.2597 20.1609,116.5594 20.3356,116.865 20.5172,117.1764 20.7058,117.4934 20.9016,117.8161 21.1047,118.1443 21.3152,118.4778 21.5331,118.8167 21.7587,119.1607 21.9919,119.5098 22.233,119.8638 22.482,120.2227 22.739,120.5863 23.0041,120.9546 23.2775,121.3274 23.5591,121.7046 23.8492,122.086 24.1478,122.4716 24.455,122.8613 24.7708,123.2549 25.0955,123.6522 25.4291,124.0533 25.7716,124.4579 26.1232,124.8659 26.4839,125.2772 26.8538,125.6917 27.2331,126.1092 27.6217,126.5296 28.0198,126.9528 28.4274,127.3786 28.8447,127.8069 29.208,127.9588 31.6407,127.3791 31.8964,127.0796 32.0757,126.5092 32.2475,125.9453 32.4119,125.388 32.5692,124.8375 32.7194,124.2939 32.8626,123.7571 32.9991,123.2273 33.1288,122.7046 33.2521,122.189 33.3689,121.6806 33.4795,121.1795 33.5839,120.6858 33.6823,120.1995 33.7749,119.7207 33.8618,119.2494 33.9431,118.7857 34.0189,118.3297 34.0894,117.8815 34.1548,117.441 34.2152,117.0084 34.2707,116.5837 34.3214,116.1669 34.3676,115.7581 34.4093,115.3574 34.4467,114.9648 34.48,114.5803 34.5092,114.204 34.5346,113.8359 34.5562,113.4761 34.5743,113.1246 34.5889,112.7814 36.0302,112.1678 36.4061,112.0463 37.9339,111.7007 38.1466,111.9705 38.3669,112.245 38.595,112.5241 38.8309,112.8078 39.0748,113.0959 39.3267,113.3882 39.5868,113.6847 39.855,113.9853 40.1316,114.2898 40.4166,114.5981 40.7101,114.9101 41.0122,115.2256 41.3229,115.5446 41.6424,115.8668 41.9707,116.1923 42.3078,116.5207 42.654,116.8521 43.0093,117.1863 43.3736,117.5231 43.7472,117.8624 44.13,118.2041 44.5222,118.548 44.9238,118.894 45.3349,119.242 45.7555,119.5918 46.1857,119.9433 46.6256,120.2964 47.0752,120.6508 47.5346,121.0065 48.0038,121.3633 48.4829,121.7211 48.8656,121.8143 51.1776,120.8611 51.3834,120.5254 51.4712,119.9339 51.5526,119.3501 51.6279,118.774 51.6971,118.2056 51.7604,117.6452 51.8179,117.0926 51.8698,116.548 51.9162,116.0114 51.9573,115.4829 51.9931,114.9625 52.0239,114.4503 52.0499,113.9463 52.071,113.4505 52.0875,112.9631 52.0996,112.4841 52.1073,112.0134 52.1109,111.5512 52.1105,111.0974 52.1061,110.6521 52.0981,110.2154 52.0864,109.7872 52.0714,109.3676 52.053,108.9567 52.0315,108.5544 52.0071,108.1607 51.9798,107.7758 51.9498,107.3995 51.9172,107.032 51.8823,106.6732 51.8452,106.3232 51.806,105.9819 53.1335,105.1504 53.4858,104.9717 54.9407,104.3913 55.193,104.6245 55.4535,104.8612 55.7225,105.1012 55.9999,105.3444 56.2858,105.5908 56.5804,105.8402 56.8836,106.0924 57.1956,106.3473 57.5164,106.6047 57.8461,106.8647 58.1848,107.1269 58.5325,107.3913 58.8893,107.6577 59.2552,107.926 59.6304,108.1961 60.0148,108.4678 60.4086,108.7409 60.8117,109.0154 61.2243,109.291 61.6463,109.5677 62.0779,109.8453 62.5191,110.1237 62.9698,110.4026 63.4303,110.682 63.9004,110.9617 64.3804,111.2416 64.8701,111.5215 65.3696,111.8012 65.879,112.0807 66.3982,112.3597 66.9274,112.6381 67.3199,112.6703 69.4544,111.3672 69.6051,111.0034 69.5993,110.4054 69.5884,109.816 69.5726,109.2353 69.552,108.6631 69.5269,108.0996 69.4973,107.5449 69.4633,106.9989 69.4252,106.4616 69.3831,105.9332 69.3371,105.4136 69.2874,104.9029 69.2342,104.401 69.1775,103.9081 69.1176,103.4241 69.0546,102.949 68.9886,102.4829 68.9198,102.0258 68.8484,101.5777 68.7744,101.1386 68.6981,100.7085 68.6197,100.2874 68.5392,99.8754 68.4567,99.4724 68.3726,99.0784 68.2868,98.6934 68.1996,98.3175 68.1112,97.9505 68.0216,97.5926 67.931,97.2437 67.8395,96.9038 67.7474,96.5729 68.9285,95.5439 69.2485,95.3123 70.5947,94.5115 70.8803,94.7023 71.1747,94.8953 71.4779,95.0903 71.7899,95.2872 72.1109,95.4858 72.4408,95.686 72.7798,95.8876 73.1278,96.0906 73.4849,96.2947 73.8513,96.4998 74.2268,96.7059 74.6116,96.9126 75.0056,97.1199 75.4091,97.3277 75.8218,97.5358 76.244,97.7439 76.6757,97.9521 77.1168,98.1602 77.5674,98.3679 78.0275,98.5752 78.4972,98.7818 78.9765,98.9877 79.4653,99.1927 79.9638,99.3967 80.472,99.5994 80.9897,99.8007 81.5172,100.0005 82.0543,100.1987 82.6011,100.395 83.1577,100.5894 83.7239,100.7816 84.1166,100.752 86.021,99.131 86.1129,98.7481 86.0136,98.1584 85.9107,97.578 85.8042,97.0068 85.6944,96.445 85.5814,95.8924 85.4654,95.3491 85.3464,94.8151 85.2247,94.2904 85.1005,93.7751 84.9738,93.2691 84.8448,92.7724 84.7137,92.2851 84.5806,91.8071 84.4457,91.3384 84.3092,90.879 84.1711,90.429 84.0316,89.9883 83.891,89.5569 83.7493,89.1347 83.6066,88.7219 83.4633,88.3182 83.3193,87.9239 83.1748,87.5387 83.0301,87.1627 82.8852,86.7959 82.7402,86.4382 82.5954,86.0897 82.4509,85.7502 82.3069,85.4197 82.1634,85.0983 82.0206,84.7859 83.0263,83.5848 83.306,83.306 84.5104,82.3044 84.8224,82.4482 85.1433,82.5928 85.4733,82.738 85.8123,82.8836 86.1603,83.0296 86.5175,83.1757 86.8839,83.3218 87.2593,83.4678 87.644,83.6136 88.0379,83.7589 88.4411,83.9036 88.8534,84.0476 89.2751,84.1908 89.7061,84.3329 90.1463,84.4738 90.5959,84.6134 91.0548,84.7515 91.523,84.8879 92.0005,85.0226 92.4874,85.1553 92.9837,85.286 93.4892,85.4144 94.0042,85.5404 94.5284,85.6638 95.062,85.7845 95.6049,85.9024 96.1571,86.0173 96.7186,86.129 97.2894,86.2373 97.8695,86.3422 98.4588,86.4435 98.8421,86.3528 100.4694,84.4539 100.5003,84.0613 100.31,83.4944 100.1175,82.9373 99.923,82.3898 99.7267,81.852 99.5286,81.3239 99.329,80.8054 99.128,80.2966 98.9257,79.7975 98.7224,79.3079 98.5181,78.8279 98.313,78.3576 98.1073,77.8967 97.9011,77.4454 97.6945,77.0036 97.4878,76.5713 97.281,76.1484 97.0743,75.7349 96.8679,75.3308 96.6619,74.9361 96.4565,74.5506 96.2517,74.1744 96.0478,73.8074 95.8449,73.4495 95.6431,73.1008 95.4426,72.7612 95.2435,72.4306 95.046,72.109 94.8501,71.7963 94.6561,71.4925 94.4641,71.1974 94.2743,70.9112 95.0796,69.5676 95.3123,69.2485 96.3452,68.0708 96.6758,68.164 97.0154,68.2566 97.364,68.3484 97.7216,68.4392 98.0883,68.5289 98.4639,68.6173 98.8486,68.7044 99.2423,68.7898 99.645,68.8736 100.0568,68.9555 100.4776,69.0354 100.9075,69.1131 101.3463,69.1885 101.7942,69.2615 102.2511,69.3318 102.7169,69.3993 103.1918,69.4639 103.6756,69.5255 104.1683,69.5838 104.67,69.6387 105.1805,69.6901 105.7,69.7378 106.2283,69.7817 106.7654,69.8216 107.3113,69.8574 107.8659,69.8889 108.4293,69.916 109.0014,69.9384 109.5821,69.9562 110.1715,69.969 110.7694,69.9768 111.1337,69.8274 112.444,67.6973 112.4131,67.3047 112.1364,66.7746 111.8592,66.2543 111.5814,65.744 111.3034,65.2436 111.0251,64.7529 110.7469,64.2721 110.4687,63.801 110.1909,63.3396 109.9134,62.8879 109.6366,62.4458 109.3604,62.0133 109.0852,61.5903 108.8109,61.1769 108.5378,60.7728 108.2659,60.3781 107.9955,59.9928 107.7267,59.6167 107.4597,59.2499 107.1944,58.8922 106.9312,58.5436 106.6701,58.2041 106.4113,57.8735 106.1549,57.5518 105.901,57.239 105.6499,56.9349 105.4015,56.6395 105.1561,56.3527 104.9138,56.0745 104.6747,55.8048 104.4389,55.5434 104.2065,55.2904 104.7918,53.8374 104.9717,53.4858 105.8077,52.161 106.1488,52.2014 106.4987,52.2397 106.8574,52.2758 107.2248,52.3096 107.6009,52.3408 107.9858,52.3694 108.3793,52.3952 108.7815,52.418 109.1924,52.4377 109.612,52.4542 110.0401,52.4673 110.4768,52.4768 110.922,52.4826 111.3758,52.4846 111.8381,52.4826 112.3088,52.4764 112.7879,52.466 113.2753,52.4511 113.7711,52.4316 114.2752,52.4074 114.7875,52.3783 115.308,52.3441 115.8367,52.3048 116.3734,52.2602 116.9182,52.2102 117.471,52.1545 118.0316,52.0931 118.6002,52.0258 119.1765,51.9525 119.7606,51.873 120.3524,51.7872 120.6889,51.5825 121.6498,49.2737 121.5578,48.8908 121.2017,48.4104 120.8464,47.94 120.4923,47.4794 120.1394,47.0286 119.7878,46.5876 119.4378,46.1562 119.0894,45.7344 118.7427,45.3222 118.3981,44.9194 118.0555,44.5261 117.715,44.1421 117.377,43.7674 117.0414,43.4019 116.7084,43.0455 116.3782,42.6983 116.0509,42.36 115.7266,42.0306 115.4054,41.71 115.0875,41.3983 114.7729,41.0951 114.462,40.8006 114.1546,40.5146 113.851,40.237 113.5514,39.9677 113.2557,39.7066 112.9642,39.4537 112.677,39.2089 112.3941,38.972 112.1157,38.743 111.842,38.5218 111.5729,38.3082 111.9237,36.7815 112.0463,36.4061 112.6648,34.9669 113.008,34.9534 113.3596,34.9365 113.7195,34.916 114.0877,34.8919 114.4641,34.8639 114.8487,34.8319 115.2414,34.7958 115.6423,34.7555 116.0512,34.7107 116.4681,34.6613 116.893,34.6073 117.3258,34.5484 117.7665,34.4845 118.215,34.4154 118.6712,34.3411 119.1352,34.2614 119.6067,34.1761 120.0859,34.0851 120.5725,33.9883 121.0666,33.8856 121.5681,33.7767 122.0768,33.6615 122.5928,33.54 123.116,33.412 123.6462,33.2773 124.1835,33.1359 124.7276,32.9875 125.2787,32.8321 125.8364,32.6695 126.4009,32.4996 126.972,32.3223 127.2723,32.0676 127.8602,29.6368 127.7095,29.273 127.2825,28.8543 126.8581,28.4452 126.4363,28.0457 126.0172,27.6557 125.6009,27.2751 125.1877,26.9037 124.7776,26.5416 124.3708,26.1887 123.9673,25.8448 123.5674,25.5099 123.1711,25.1839 122.7786,24.8667 122.39,24.5582 122.0054,24.2584 121.6249,23.967 121.2487,23.6841 120.8768,23.4095 120.5094,23.1431 120.1467,22.8849 119.7886,22.6347 119.4354,22.3925 119.0871,22.1581 118.7438,21.9314 118.4057,21.7123 118.0729,21.5007 117.7454,21.2965 117.4234,21.0996 117.1069,20.9099 116.7961,20.7273 116.4911,20.5516 116.192,20.3827 116.2996,18.82 116.362,18.4299 116.7477,16.9117 117.0846,16.8447 117.4292,16.773 117.7815,16.6965 118.1413,16.6151 118.5087,16.5286 118.8836,16.4368 119.2659,16.3397 119.6555,16.2371 120.0523,16.1289 120.4564,16.015 120.8676,15.8951 121.2859,15.7692 121.7112,15.6372 122.1433,15.4988 122.5823,15.354 123.0281,15.2027 123.4805,15.0447 123.9395,14.8799 124.405,14.7082 124.877,14.5294 125.3552,14.3434 125.8397,14.1501 126.3303,13.9494 126.827,13.7411 127.3297,13.5251 127.8382,13.3014 128.3524,13.0697 128.8723,12.83 129.3978,12.5822 129.9288,12.3261 130.4651,12.0616 130.7218,11.763 130.9222,9.2702 130.7164,8.9344 130.2293,8.5877 129.7461,8.2501 129.2669,7.9215 128.792,7.6018 128.3213,7.2909 127.8551,6.9888 127.3934,6.6954 126.9364,6.4104 126.4841,6.1339 126.0367,5.8657 125.5943,5.6057 125.157,5.3538 124.7249,5.1099 124.2981,4.8739 123.8768,4.6456 123.4609,4.425 123.0507,4.212 122.6461,4.0064 122.2474,3.8081 121.8547,3.617 121.4679,3.433 121.0872,3.2559 120.7127,3.0857 120.3445,2.9222 119.9826,2.7653 119.6272,2.6149 119.2784,2.4708 118.9362,2.3329 118.6006,2.2011 118.2719,2.0753 117.95,1.9553 117.8118,0.395 "/><g class="guides"><polyline fill="none" stroke="#444" stroke-width="0.5" stroke-miterlimit="10" points="10,0 -10,0"/><polyline fill="none" stroke="#444" stroke-width="0.5" stroke-miterlimit="10" points="0,10 0,-10"/></g><circle fill="#c00" class="firstmarker" stroke="none" stroke-miterlimit="10" cx="124.6309" cy="-9.5985" r="2.4531"/><g class="geartext"><g class="text"><polyline fill="none" stroke="#444" stroke-width="0.5" stroke-linecap="square" stroke-miterlimit="1"  points="97.18 -52.2 96.82 -52.86 96.46 -53.52 96.1 -54.17 95.73 -54.82 "/><polyline fill="none" stroke="#444" stroke-width="0.5" stroke-linecap="square" stroke-miterlimit="1"  points="95.15 -52.79 97.77 -54.24 "/><polyline fill="none" stroke="#444" stroke-width="0.5" stroke-linecap="square" stroke-miterlimit="1"  points="98.5 -52.91 97.48 -53.22 96.46 -53.52 95.44 -53.8 94.42 -54.08 "/><polyline fill="none" stroke="#444" stroke-width="0.5" stroke-linecap="square" stroke-miterlimit="1"  points="95.86 -51.49 96.17 -52.5 96.46 -53.52 96.75 -54.54 97.03 -55.57 "/><polyline fill="none" stroke="#444" stroke-width="0.5" stroke-linecap="square" stroke-miterlimit="1"  points="97.55 -48.2 96.55 -48.53 96.22 -49.18 96.55 -50.18 99.21 -51.57 100.23 -51.23 100.57 -50.55 100.24 -49.53 97.55 -48.2 "/><polyline fill="none" stroke="#444" stroke-width="0.5" stroke-linecap="square" stroke-miterlimit="1"  points="104.36 -42.18 100.19 -40.5 100.95 -41.61 101.7 -42.73 102.44 -43.86 103.17 -45.01 99.05 -43.21 "/><polyline fill="none" stroke="#444" stroke-width="0.5" stroke-linecap="square" stroke-miterlimit="1"  points="104.58 -37.39 104.32 -38.1 104.06 -38.81 103.8 -39.51 103.52 -40.22 "/><polyline fill="none" stroke="#444" stroke-width="0.5" stroke-linecap="square" stroke-miterlimit="1"  points="103.17 -36.88 102.91 -37.58 102.66 -38.28 102.39 -38.98 102.13 -39.67 "/><polyline fill="none" stroke="#444" stroke-width="0.5" stroke-linecap="square" stroke-miterlimit="1"  points="104.59 -32.64 104.36 -33.35 104.13 -34.06 103.9 -34.77 103.66 -35.48 104.85 -35.09 106.03 -34.69 107.22 -34.27 102.93 -32.9 "/><polyline fill="none" stroke="#444" stroke-width="0.5" stroke-linecap="square" stroke-miterlimit="1"  points="104.91 -28.87 103.99 -29.38 103.79 -30.09 104.3 -31.01 107.18 -31.86 108.11 -31.34 108.32 -30.6 107.8 -29.67 104.91 -28.87 "/><polyline fill="none" stroke="#444" stroke-width="0.5" stroke-linecap="square" stroke-miterlimit="1"  points="107.63 -24.18 107.79 -23.44 107.95 -22.71 108.1 -21.98 108.98 -21.39 109.72 -21.53 110.31 -22.43 110.15 -23.17 109.99 -23.92 109.83 -24.67 105.44 -23.68 "/><polyline fill="none" stroke="#444" stroke-width="0.5" stroke-linecap="square" stroke-miterlimit="1"  points="106.31 -19.36 109.26 -19.9 "/><polyline fill="none" stroke="#444" stroke-width="0.5" stroke-linecap="square" stroke-miterlimit="1"  points="110 -20.04 110.74 -20.17 "/><polyline fill="none" stroke="#444" stroke-width="0.5" stroke-linecap="square" stroke-miterlimit="1"  points="107.76 -15.12 106.91 -15.74 107.54 -16.58 111.25 -17.15 "/><polyline fill="none" stroke="#444" stroke-width="0.5" stroke-linecap="square" stroke-miterlimit="1"  points="109.99 -15.43 109.88 -16.18 109.77 -16.92 109.65 -17.67 109.53 -18.41 "/><polyline fill="none" stroke="#444" stroke-width="0.5" stroke-linecap="square" stroke-miterlimit="1"  points="107.54 -10.64 107.46 -11.37 107.38 -12.1 107.3 -12.83 107.95 -13.65 109.44 -13.84 110.28 -13.18 110.36 -12.43 110.45 -11.68 110.52 -10.93 "/><polyline fill="none" stroke="#444" stroke-width="0.5" stroke-linecap="square" stroke-miterlimit="1"  points="109.17 -9.3 109.98 -8.62 110.78 -7.92 110.83 -7.17 110.13 -6.37 107.88 -6.24 "/><polyline fill="none" stroke="#444" stroke-width="0.5" stroke-linecap="square" stroke-miterlimit="1"  points="107.67 -9.17 112.16 -9.55 "/><polyline fill="none" stroke="#444" stroke-width="0.5" stroke-linecap="square" stroke-miterlimit="1"  points="108.06 -1.1 108.06 -0.37 108.06 0.37 108.06 1.1 108.8 1.85 111.8 1.9 112.56 1.15 112.56 0.38 112.56 -0.38 112.56 -1.15 "/><polyline fill="none" stroke="#444" stroke-width="0.5" stroke-linecap="square" stroke-miterlimit="1"  points="112.56 -0.38 108.06 -0.37 "/><polyline fill="none" stroke="#444" stroke-width="0.5" stroke-linecap="square" stroke-miterlimit="1"  points="110.88 6.41 110.92 5.66 110.95 4.91 110.98 4.15 111.01 3.4 "/><polyline fill="none" stroke="#444" stroke-width="0.5" stroke-linecap="square" stroke-miterlimit="1"  points="109.38 6.33 109.42 5.58 109.46 4.84 109.49 4.1 109.51 3.35 "/><polyline fill="none" stroke="#444" stroke-width="0.5" stroke-linecap="square" stroke-miterlimit="1"  points="111.53 7.98 112.22 8.79 107.73 8.44 "/><polyline fill="none" stroke="#444" stroke-width="0.5" stroke-linecap="square" stroke-miterlimit="1"  points="107.67 9.17 107.73 8.44 107.79 7.71 "/><polyline fill="none" stroke="#444" stroke-width="0.5" stroke-linecap="square" stroke-miterlimit="1"  points="108.04 12.92 107.38 12.1 107.46 11.37 108.28 10.71 111.27 11.01 111.94 11.84 111.85 12.6 111.02 13.27 108.04 12.92 "/><polyline fill="none" stroke="#444" stroke-width="0.5" stroke-linecap="square" stroke-miterlimit="1"  points="108.79 18.29 108.66 19.03 108.53 19.77 108.39 20.51 108.98 21.39 109.72 21.53 110.6 20.92 110.74 20.17 110.88 19.42 111 18.66 106.57 17.92 "/><polyline fill="none" stroke="#444" stroke-width="0.5" stroke-linecap="square" stroke-miterlimit="1"  points="108.02 25.81 108.19 25.08 108.36 24.34 108.53 23.6 108.68 22.87 "/><polyline fill="none" stroke="#444" stroke-width="0.5" stroke-linecap="square" stroke-miterlimit="1"  points="106.56 25.46 106.73 24.74 106.9 24.01 107.06 23.29 107.22 22.56 "/><polyline fill="none" stroke="#444" stroke-width="0.5" stroke-linecap="square" stroke-miterlimit="1"  points="105.44 29.79 105.64 29.07 105.83 28.35 106.02 27.63 106.21 26.91 106.99 27.88 107.76 28.87 108.53 29.87 104.19 28.67 "/><polyline fill="none" stroke="#444" stroke-width="0.5" stroke-linecap="square" stroke-miterlimit="1"  points="104.61 35.01 104.37 35.72 104.12 36.43 103.87 37.14 104.32 38.1 105.03 38.36 105.99 37.89 106.25 37.17 106.5 36.45 106.74 35.72 102.48 34.29 "/><polyline fill="none" stroke="#444" stroke-width="0.5" stroke-linecap="square" stroke-miterlimit="1"  points="100.99 38.45 102.39 38.98 103.52 40.22 104.64 41.47 102.97 41.62 101.3 41.75 99.91 41.18 "/><polyline fill="none" stroke="#444" stroke-width="0.5" stroke-linecap="square" stroke-miterlimit="1"  points="102.39 38.98 102.13 39.67 101.85 40.37 101.58 41.06 101.3 41.75 "/><polyline fill="none" stroke="#444" stroke-width="0.5" stroke-linecap="square" stroke-miterlimit="1"  points="100.87 46.47 101.19 45.79 101.49 45.1 101.8 44.41 102.1 43.71 "/><polyline fill="none" stroke="#444" stroke-width="0.5" stroke-linecap="square" stroke-miterlimit="1"  points="99.51 45.85 99.82 45.17 100.12 44.49 100.42 43.81 100.72 43.12 "/><polyline fill="none" stroke="#444" stroke-width="0.5" stroke-linecap="square" stroke-miterlimit="1"  points="96.22 49.18 96.55 48.53 96.88 47.87 97.2 47.21 97.52 46.55 98.88 47.19 99.23 48.19 98.9 48.87 98.56 49.54 98.89 50.55 99.56 50.89 100.57 50.55 100.92 49.86 101.25 49.18 100.91 48.16 "/><polyline fill="none" stroke="#444" stroke-width="0.5" stroke-linecap="square" stroke-miterlimit="1"  points="99.52 52.59 99.16 53.26 98.8 53.94 98.43 54.61 98.06 55.28 96.46 53.52 94.85 51.78 "/></g></g><g class="guides gearguides" opacity="0.2"><circle class="pitch" fill="none" stroke="#f00" stroke-miterlimit="10" cx="0" cy="0" r="125"/><circle class="outer" fill="none" stroke="#ccc" stroke-miterlimit="10" stroke-dasharray="2,2" cx="0" cy="0" r="131.25"/><circle class="base" fill="none" stroke="#00f" stroke-miterlimit="10" stroke-dasharray="2,2" cx="0" cy="0" r="111.38"/></g></svg>