  0
SECTION
  2
BLOCKS
  0
ENDSEC
  0
SECTION
  2
ENTITIES
  0
LINE
  8
0
 10
6.52538
 20
-103.718
 11
7.02588
 21
-103.671
  0
LINE
  8
0
 10
7.02588
 20
-103.671
 11
7.04648
 21
-101.704
  0
LINE
  8
0
 10
7.04648
 20
-101.704
 11
7.29033
 21
-98.383
  0
LINE
  8
0
 10
7.29033
 20
-98.383
 11
7.7422
 21
-95.0843
  0
LINE
  8
0
 10
7.7422
 20
-95.0843
 11
8.40031
 21
-91.8204
  0
LINE
  8
0
 10
8.40031
 20
-91.8204
 11
9.26205
 21
-88.6044
  0
LINE
  8
0
 10
9.26205
 20
-88.6044
 11
10.3241
 21
-85.4487
  0
LINE
  8
0
 10
10.3241
 20
-85.4487
 11
11.5821
 21
-82.366
  0
LINE
  8
0
 10
11.5821
 20
-82.366
 11
13.0312
 21
-79.3683
  0
LINE
  8
0
 10
13.0312
 20
-79.3683
 11
14.6657
 21
-76.4676
  0
LINE
  8
0
 10
14.6657
 20
-76.4676
 11
16.4791
 21
-73.6752
  0
LINE
  8
0
 10
16.4791
 20
-73.6752
 11
18.4642
 21
-71.0022
  0
LINE
  8
0
 10
18.4642
 20
-71.0022
 11
20.6133
 21
-68.4591
  0
LINE
  8
0
 10
20.6133
 20
-68.4591
 11
22.9178
 21
-66.056
  0
LINE
  8
0
 10
22.9178
 20
-66.056
 11
25.3687
 21
-63.8023
  0
LINE
  8
0
 10
25.3687
 20
-63.8023
 11
27.9562
 21
-61.707
  0
LINE
  8
0
 10
27.9562
 20
-61.707
 11
30.6702
 21
-59.7782
  0
LINE
  8
0
 10
30.6702
 20
-59.7782
 11
33.5
 21
-58.0237
  0
LINE
  8
0
 10
33.5
 20
-58.0237
 11
36.4343
 21
-56.4503
  0
LINE
  8
0
 10
36.4343
 20
-56.4503
 11
39.4617
 21
-55.0643
  0
LINE
  8
0
 10
39.4617
 20
-55.0643
 11
42.5701
 21
-53.8711
  0
LINE
  8
0
 10
42.5701
 20
-53.8711
 11
45.7472
 21
-52.8754
  0
LINE
  8
0
 10
45.7472
 20
-52.8754
 11
48.9807
 21
-52.0812
  0
LINE
  8
0
 10
48.9807
 20
-52.0812
 11
52.2576
 21
-51.4916
  0
LINE
  8
0
 10
52.2576
 20
-51.4916
 11
55.5651
 21
-51.1089
  0
LINE
  8
0
 10
55.5651
 20
-51.1089
 11
58.89
 21
-50.9347
  0
LINE
  8
0
 10
58.89
 20
-50.9347
 11
62.2194
 21
-50.9695
  0
LINE
  8
0
 10
62.2194
 20
-50.9695
 11
65.54
 21
-51.2134
  0
LINE
  8
0
 10
65.54
 20
-51.2134
 11
68.8387
 21
-51.6653
  0
LINE
  8
0
 10
68.8387
 20
-51.6653
 11
72.1026
 21
-52.3234
  0
LINE
  8
0
 10
72.1026
 20
-52.3234
 11
75.3187
 21
-53.1851
  0
LINE
  8
0
 10
75.3187
 20
-53.1851
 11
78.4743
 21
-54.2471
  0
LINE
  8
0
 10
78.4743
 20
-54.2471
 11
81.557
 21
-55.5051
  0
LINE
  8
0
 10
81.557
 20
-55.5051
 11
84.5547
 21
-56.9543
  0
LINE
  8
0
 10
84.5547
 20
-56.9543
 11
86.2378
 21
-57.9027
  0
LINE
  8
0
 10
86.2378
 20
-57.9027
 11
87.3798
 21
-56.2223
  0
LINE
  8
0
 10
87.3798
 20
-56.2223
 11
49.4615
 21
-34.3301
  0
LINE
  8
0
 10
49.4615
 20
-34.3301
 11
49.1946
 21
-34.1646
  0
LINE
  8
0
 10
49.1946
 20
-34.1646
 11
48.9385
 21
-33.9827
  0
LINE
  8
0
 10
48.9385
 20
-33.9827
 11
48.6944
 21
-33.785
  0
LINE
  8
0
 10
48.6944
 20
-33.785
 11
48.4632
 21
-33.5724
  0
LINE
  8
0
 10
48.4632
 20
-33.5724
 11
48.2458
 21
-33.3456
  0
LINE
  8
0
 10
48.2458
 20
-33.3456
 11
48.043
 21
-33.1057
  0
LINE
  8
0
 10
48.043
 20
-33.1057
 11
47.8558
 21
-32.8536
  0
LINE
  8
0
 10
47.8558
 20
-32.8536
 11
47.6847
 21
-32.5901
  0
LINE
  8
0
 10
47.6847
 20
-32.5901
 11
47.5305
 21
-32.3165
  0
LINE
  8
0
 10
47.5305
 20
-32.3165
 11
47.3938
 21
-32.0337
  0
LINE
  8
0
 10
47.3938
 20
-32.0337
 11
47.2751
 21
-31.7429
  0
LINE
  8
0
 10
47.2751
 20
-31.7429
 11
47.1749
 21
-31.4451
  0
LINE
  8
0
 10
47.1749
 20
-31.4451
 11
47.0936
 21
-31.1418
  0
LINE
  8
0
 10
47.0936
 20
-31.1418
 11
47.0315
 21
-30.8338
  0
LINE
  8
0
 10
47.0315
 20
-30.8338
 11
46.9889
 21
-30.5226
  0
LINE
  8
0
 10
46.9889
 20
-30.5226
 11
46.9659
 21
-30.2094
  0
LINE
  8
0
 10
46.9659
 20
-30.2094
 11
46.9626
 21
-29.8953
  0
LINE
  8
0
 10
46.9626
 20
-29.8953
 11
46.979
 21
-29.5816
  0
LINE
  8
0
 10
46.979
 20
-29.5816
 11
47.0152
 21
-29.2696
  0
LINE
  8
0
 10
47.0152
 20
-29.2696
 11
47.0708
 21
-28.9604
  0
LINE
  8
0
 10
47.0708
 20
-28.9604
 11
47.1457
 21
-28.6554
  0
LINE
  8
0
 10
47.1457
 20
-28.6554
 11
47.2396
 21
-28.3557
  0
LINE
  8
0
 10
47.2396
 20
-28.3557
 11
47.3522
 21
-28.0624
  0
LINE
  8
0
 10
47.3522
 20
-28.0624
 11
47.483
 21
-27.7768
  0
LINE
  8
0
 10
47.483
 20
-27.7768
 11
47.6314
 21
-27.5
  0
LINE
  8
0
 10
47.6314
 20
-27.5
 11
47.7969
 21
-27.233
  0
LINE
  8
0
 10
47.7969
 20
-27.233
 11
47.9789
 21
-26.977
  0
LINE
  8
0
 10
47.9789
 20
-26.977
 11
48.1765
 21
-26.7329
  0
LINE
  8
0
 10
48.1765
 20
-26.7329
 11
48.3892
 21
-26.5017
  0
LINE
  8
0
 10
48.3892
 20
-26.5017
 11
48.6159
 21
-26.2843
  0
LINE
  8
0
 10
48.6159
 20
-26.2843
 11
48.8558
 21
-26.0815
  0
LINE
  8
0
 10
48.8558
 20
-26.0815
 11
49.108
 21
-25.8942
  0
LINE
  8
0
 10
49.108
 20
-25.8942
 11
49.3714
 21
-25.7232
  0
LINE
  8
0
 10
49.3714
 20
-25.7232
 11
49.645
 21
-25.569
  0
LINE
  8
0
 10
49.645
 20
-25.569
 11
49.9278
 21
-25.4323
  0
LINE
  8
0
 10
49.9278
 20
-25.4323
 11
50.2187
 21
-25.3136
  0
LINE
  8
0
 10
50.2187
 20
-25.3136
 11
50.5164
 21
-25.2134
  0
LINE
  8
0
 10
50.5164
 20
-25.2134
 11
50.8198
 21
-25.1321
  0
LINE
  8
0
 10
50.8198
 20
-25.1321
 11
51.1277
 21
-25.07
  0
LINE
  8
0
 10
51.1277
 20
-25.07
 11
51.4389
 21
-25.0274
  0
LINE
  8
0
 10
51.4389
 20
-25.0274
 11
51.7521
 21
-25.0044
  0
LINE
  8
0
 10
51.7521
 20
-25.0044
 11
52.0662
 21
-25.0011
  0
LINE
  8
0
 10
52.0662
 20
-25.0011
 11
52.3799
 21
-25.0175
  0
LINE
  8
0
 10
52.3799
 20
-25.0175
 11
52.6919
 21
-25.0536
  0
LINE
  8
0
 10
52.6919
 20
-25.0536
 11
53.0011
 21
-25.1093
  0
LINE
  8
0
 10
53.0011
 20
-25.1093
 11
53.3061
 21
-25.1842
  0
LINE
  8
0
 10
53.3061
 20
-25.1842
 11
53.6059
 21
-25.2781
  0
LINE
  8
0
 10
53.6059
 20
-25.2781
 11
53.8991
 21
-25.3907
  0
LINE
  8
0
 10
53.8991
 20
-25.3907
 11
54.1847
 21
-25.5214
  0
LINE
  8
0
 10
54.1847
 20
-25.5214
 11
54.4615
 21
-25.6699
  0
LINE
  8
0
 10
54.4615
 20
-25.6699
 11
92.3521
 21
-47.546
  0
LINE
  8
0
 10
92.3521
 20
-47.546
 11
93.2732
 21
-45.7382
  0
LINE
  8
0
 10
93.2732
 20
-45.7382
 11
91.6012
 21
-44.7494
  0
LINE
  8
0
 10
91.6012
 20
-44.7494
 11
88.8474
 21
-42.8779
  0
LINE
  8
0
 10
88.8474
 20
-42.8779
 11
86.2165
 21
-40.8372
  0
LINE
  8
0
 10
86.2165
 20
-40.8372
 11
83.719
 21
-38.6353
  0
LINE
  8
0
 10
83.719
 20
-38.6353
 11
81.3647
 21
-36.281
  0
LINE
  8
0
 10
81.3647
 20
-36.281
 11
79.1628
 21
-33.7835
  0
LINE
  8
0
 10
79.1628
 20
-33.7835
 11
77.1221
 21
-31.1526
  0
LINE
  8
0
 10
77.1221
 20
-31.1526
 11
75.2506
 21
-28.3988
  0
LINE
  8
0
 10
75.2506
 20
-28.3988
 11
73.5557
 21
-25.5329
  0
LINE
  8
0
 10
73.5557
 20
-25.5329
 11
72.0442
 21
-22.5663
  0
LINE
  8
0
 10
72.0442
 20
-22.5663
 11
70.7218
 21
-19.5106
  0
LINE
  8
0
 10
70.7218
 20
-19.5106
 11
69.594
 21
-16.3779
  0
LINE
  8
0
 10
69.594
 20
-16.3779
 11
68.6651
 21
-13.1806
  0
LINE
  8
0
 10
68.6651
 20
-13.1806
 11
67.9388
 21
-9.9312
  0
LINE
  8
0
 10
67.9388
 20
-9.9312
 11
67.4179
 21
-6.64265
  0
LINE
  8
0
 10
67.4179
 20
-6.64265
 11
67.1046
 21
-3.3279
  0
LINE
  8
0
 10
67.1046
 20
-3.3279
 11
67
 21
0
  0
LINE
  8
0
 10
67
 20
0
 11
67.1046
 21
3.3279
  0
LINE
  8
0
 10
67.1046
 20
3.3279
 11
67.4179
 21
6.64265
  0
LINE
  8
0
 10
67.4179
 20
6.64265
 11
67.9388
 21
9.9312
  0
LINE
  8
0
 10
67.9388
 20
9.9312
 11
68.6651
 21
13.1806
  0
LINE
  8
0
 10
68.6651
 20
13.1806
 11
69.594
 21
16.3779
  0
LINE
  8
0
 10
69.594
 20
16.3779
 11
70.7218
 21
19.5106
  0
LINE
  8
0
 10
70.7218
 20
19.5106
 11
72.0442
 21
22.5663
  0
LINE
  8
0
 10
72.0442
 20
22.5663
 11
73.5557
 21
25.5329
  0
LINE
  8
0
 10
73.5557
 20
25.5329
 11
75.2506
 21
28.3988
  0
LINE
  8
0
 10
75.2506
 20
28.3988
 11
77.1221
 21
31.1526
  0
LINE
  8
0
 10
77.1221
 20
31.1526
 11
79.1628
 21
33.7835
  0
LINE
  8
0
 10
79.1628
 20
33.7835
 11
81.3647
 21
36.281
  0
LINE
  8
0
 10
81.3647
 20
36.281
 11
83.719
 21
38.6353
  0
LINE
  8
0
 10
83.719
 20
38.6353
 11
86.2165
 21
40.8372
  0
LINE
  8
0
 10
86.2165
 20
40.8372
 11
88.8474
 21
42.8779
  0
LINE
  8
0
 10
88.8474
 20
42.8779
 11
91.6012
 21
44.7494
  0
LINE
  8
0
 10
91.6012
 20
44.7494
 11
93.2732
 21
45.7382
  0
LINE
  8
0
 10
93.2732
 20
45.7382
 11
92.3521
 21
47.546
  0
LINE
  8
0
 10
92.3521
 20
47.546
 11
54.4615
 21
25.6699
  0
LINE
  8
0
 10
54.4615
 20
25.6699
 11
54.1847
 21
25.5214
  0
LINE
  8
0
 10
54.1847
 20
25.5214
 11
53.8991
 21
25.3907
  0
LINE
  8
0
 10
53.8991
 20
25.3907
 11
53.6059
 21
25.2781
  0
LINE
  8
0
 10
53.6059
 20
25.2781
 11
53.3061
 21
25.1842
  0
LINE
  8
0
 10
53.3061
 20
25.1842
 11
53.0011
 21
25.1093
  0
LINE
  8
0
 10
53.0011
 20
25.1093
 11
52.6919
 21
25.0536
  0
LINE
  8
0
 10
52.6919
 20
25.0536
 11
52.3799
 21
25.0175
  0
LINE
  8
0
 10
52.3799
 20
25.0175
 11
52.0662
 21
25.0011
  0
LINE
  8
0
 10
52.0662
 20
25.0011
 11
51.7521
 21
25.0044
  0
LINE
  8
0
 10
51.7521
 20
25.0044
 11
51.4389
 21
25.0274
  0
LINE
  8
0
 10
51.4389
 20
25.0274
 11
51.1277
 21
25.07
  0
LINE
  8
0
 10
51.1277
 20
25.07
 11
50.8198
 21
25.1321
  0
LINE
  8
0
 10
50.8198
 20
25.1321
 11
50.5164
 21
25.2134
  0
LINE
  8
0
 10
50.5164
 20
25.2134
 11
50.2187
 21
25.3136
  0
LINE
  8
0
 10
50.2187
 20
25.3136
 11
49.9278
 21
25.4323
  0
LINE
  8
0
 10
49.9278
 20
25.4323
 11
49.645
 21
25.569
  0
LINE
  8
0
 10
49.645
 20
25.569
 11
49.3714
 21
25.7232
  0
LINE
  8
0
 10
49.3714
 20
25.7232
 11
49.108
 21
25.8942
  0
LINE
  8
0
 10
49.108
 20
25.8942
 11
48.8558
 21
26.0815
  0
LINE
  8
0
 10
48.8558
 20
26.0815
 11
48.6159
 21
26.2843
  0
LINE
  8
0
 10
48.6159
 20
26.2843
 11
48.3892
 21
26.5017
  0
LINE
  8
0
 10
48.3892
 20
26.5017
 11
48.1765
 21
26.7329
  0
LINE
  8
0
 10
48.1765
 20
26.7329
 11
47.9789
 21
26.977
  0
LINE
  8
0
 10
47.9789
 20
26.977
 11
47.7969
 21
27.233
  0
LINE
  8
0
 10
47.7969
 20
27.233
 11
47.6314
 21
27.5
  0
LINE
  8
0
 10
47.6314
 20
27.5
 11
47.483
 21
27.7768
  0
LINE
  8
0
 10
47.483
 20
27.7768
 11
47.3522
 21
28.0624
  0
LINE
  8
0
 10
47.3522
 20
28.0624
 11
47.2396
 21
28.3557
  0
LINE
  8
0
 10
47.2396
 20
28.3557
 11
47.1457
 21
28.6554
  0
LINE
  8
0
 10
47.1457
 20
28.6554
 11
47.0708
 21
28.9604
  0
LINE
  8
0
 10
47.0708
 20
28.9604
 11
47.0152
 21
29.2696
  0
LINE
  8
0
 10
47.0152
 20
29.2696
 11
46.979
 21
29.5816
  0
LINE
  8
0
 10
46.979
 20
29.5816
 11
46.9626
 21
29.8953
  0
LINE
  8
0
 10
46.9626
 20
29.8953
 11
46.9659
 21
30.2094
  0
LINE
  8
0
 10
46.9659
 20
30.2094
 11
46.9889
 21
30.5226
  0
LINE
  8
0
 10
46.9889
 20
30.5226
 11
47.0315
 21
30.8338
  0
LINE
  8
0
 10
47.0315
 20
30.8338
 11
47.0936
 21
31.1418
  0
LINE
  8
0
 10
47.0936
 20
31.1418
 11
47.1749
 21
31.4451
  0
LINE
  8
0
 10
47.1749
 20
31.4451
 11
47.2751
 21
31.7429
  0
LINE
  8
0
 10
47.2751
 20
31.7429
 11
47.3938
 21
32.0337
  0
LINE
  8
0
 10
47.3938
 20
32.0337
 11
47.5305
 21
32.3165
  0
LINE
  8
0
 10
47.5305
 20
32.3165
 11
47.6847
 21
32.5901
  0
LINE
  8
0
 10
47.6847
 20
32.5901
 11
47.8558
 21
32.8536
  0
LINE
  8
0
 10
47.8558
 20
32.8536
 11
48.043
 21
33.1057
  0
LINE
  8
0
 10
48.043
 20
33.1057
 11
48.2458
 21
33.3456
  0
LINE
  8
0
 10
48.2458
 20
33.3456
 11
48.4632
 21
33.5724
  0
LINE
  8
0
 10
48.4632
 20
33.5724
 11
48.6944
 21
33.785
  0
LINE
  8
0
 10
48.6944
 20
33.785
 11
48.9385
 21
33.9827
  0
LINE
  8
0
 10
48.9385
 20
33.9827
 11
49.1946
 21
34.1646
  0
LINE
  8
0
 10
49.1946
 20
34.1646
 11
49.4615
 21
34.3301
  0
LINE
  8
0
 10
49.4615
 20
34.3301
 11
87.3798
 21
56.2223
  0
LINE
  8
0
 10
87.3798
 20
56.2223
 11
86.2378
 21
57.9027
  0
LINE
  8
0
 10
86.2378
 20
57.9027
 11
84.5547
 21
56.9543
  0
LINE
  8
0
 10
84.5547
 20
56.9543
 11
81.557
 21
55.5051
  0
LINE
  8
0
 10
81.557
 20
55.5051
 11
78.4743
 21
54.2471
  0
LINE
  8
0
 10
78.4743
 20
54.2471
 11
75.3187
 21
53.1851
  0
LINE
  8
0
 10
75.3187
 20
53.1851
 11
72.1026
 21
52.3234
  0
LINE
  8
0
 10
72.1026
 20
52.3234
 11
68.8387
 21
51.6653
  0
LINE
  8
0
 10
68.8387
 20
51.6653
 11
65.54
 21
51.2134
  0
LINE
  8
0
 10
65.54
 20
51.2134
 11
62.2194
 21
50.9695
  0
LINE
  8
0
 10
62.2194
 20
50.9695
 11
58.89
 21
50.9347
  0
LINE
  8
0
 10
58.89
 20
50.9347
 11
55.5651
 21
51.1089
  0
LINE
  8
0
 10
55.5651
 20
51.1089
 11
52.2576
 21
51.4916
  0
LINE
  8
0
 10
52.2576
 20
51.4916
 11
48.9807
 21
52.0812
  0
LINE
  8
0
 10
48.9807
 20
52.0812
 11
45.7472
 21
52.8754
  0
LINE
  8
0
 10
45.7472
 20
52.8754
 11
42.5701
 21
53.8711
  0
LINE
  8
0
 10
42.5701
 20
53.8711
 11
39.4617
 21
55.0643
  0
LINE
  8
0
 10
39.4617
 20
55.0643
 11
36.4343
 21
56.4503
  0
LINE
  8
0
 10
36.4343
 20
56.4503
 11
33.5
 21
58.0237
  0
LINE
  8
0
 10
33.5
 20
58.0237
 11
30.6702
 21
59.7782
  0
LINE
  8
0
 10
30.6702
 20
59.7782
 11
27.9562
 21
61.707
  0
LINE
  8
0
 10
27.9562
 20
61.707
 11
25.3687
 21
63.8023
  0
LINE
  8
0
 10
25.3687
 20
63.8023
 11
22.9178
 21
66.056
  0
LINE
  8
0
 10
22.9178
 20
66.056
 11
20.6133
 21
68.4591
  0
LINE
  8
0
 10
20.6133
 20
68.4591
 11
18.4642
 21
71.0022
  0
LINE
  8
0
 10
18.4642
 20
71.0022
 11
16.4791
 21
73.6752
  0
LINE
  8
0
 10
16.4791
 20
73.6752
 11
14.6657
 21
76.4676
  0
LINE
  8
0
 10
14.6657
 20
76.4676
 11
13.0312
 21
79.3683
  0
LINE
  8
0
 10
13.0312
 20
79.3683
 11
11.5821
 21
82.366
  0
LINE
  8
0
 10
11.5821
 20
82.366
 11
10.3241
 21
85.4487
  0
LINE
  8
0
 10
10.3241
 20
85.4487
 11
9.26205
 21
88.6044
  0
LINE
  8
0
 10
9.26205
 20
88.6044
 11
8.40031
 21
91.8204
  0
LINE
  8
0
 10
8.40031
 20
91.8204
 11
7.7422
 21
95.0843
  0
LINE
  8
0
 10
7.7422
 20
95.0843
 11
7.29033
 21
98.383
  0
LINE
  8
0
 10
7.29033
 20
98.383
 11
7.04648
 21
101.704
  0
LINE
  8
0
 10
7.04648
 20
101.704
 11
7.02588
 21
103.671
  0
LINE
  8
0
 10
7.02588
 20
103.671
 11
6.52538
 21
103.718
  0
LINE
  8
0
 10
6.52538
 20
103.718
 11
5
 21
103.766
  0
LINE
  8
0
 10
5
 20
103.766
 11
5
 21
60
  0
LINE
  8
0
 10
5
 20
60
 11
4.99013
 21
59.686
  0
LINE
  8
0
 10
4.99013
 20
59.686
 11
4.96057
 21
59.3733
  0
LINE
  8
0
 10
4.96057
 20
59.3733
 11
4.91142
 21
59.0631
  0
LINE
  8
0
 10
4.91142
 20
59.0631
 11
4.84291
 21
58.7565
  0
LINE
  8
0
 10
4.84291
 20
58.7565
 11
4.75528
 21
58.4549
  0
LINE
  8
0
 10
4.75528
 20
58.4549
 11
4.64888
 21
58.1594
  0
LINE
  8
0
 10
4.64888
 20
58.1594
 11
4.52412
 21
57.8711
  0
LINE
  8
0
 10
4.52412
 20
57.8711
 11
4.38153
 21
57.5912
  0
LINE
  8
0
 10
4.38153
 20
57.5912
 11
4.22163
 21
57.3209
  0
LINE
  8
0
 10
4.22163
 20
57.3209
 11
4.04507
 21
57.0611
  0
LINE
  8
0
 10
4.04507
 20
57.0611
 11
3.85255
 21
56.8129
  0
LINE
  8
0
 10
3.85255
 20
56.8129
 11
3.64484
 21
56.5773
  0
LINE
  8
0
 10
3.64484
 20
56.5773
 11
3.42273
 21
56.3551
  0
LINE
  8
0
 10
3.42273
 20
56.3551
 11
3.18712
 21
56.1474
  0
LINE
  8
0
 10
3.18712
 20
56.1474
 11
2.93892
 21
55.9549
  0
LINE
  8
0
 10
2.93892
 20
55.9549
 11
2.67912
 21
55.7784
  0
LINE
  8
0
 10
2.67912
 20
55.7784
 11
2.40877
 21
55.6185
  0
LINE
  8
0
 10
2.40877
 20
55.6185
 11
2.12889
 21
55.4759
  0
LINE
  8
0
 10
2.12889
 20
55.4759
 11
1.84062
 21
55.3511
  0
LINE
  8
0
 10
1.84062
 20
55.3511
 11
1.54507
 21
55.2447
  0
LINE
  8
0
 10
1.54507
 20
55.2447
 11
1.24344
 21
55.1571
  0
LINE
  8
0
 10
1.24344
 20
55.1571
 11
0.936905
 21
55.0886
  0
LINE
  8
0
 10
0.936905
 20
55.0886
 11
0.626663
 21
55.0394
  0
LINE
  8
0
 10
0.626663
 20
55.0394
 11
0.31395
 21
55.0099
  0
LINE
  8
0
 10
0.31395
 20
55.0099
 11
0
 21
55
  0
LINE
  8
0
 10
0
 20
55
 11
-0.31395
 21
55.0099
  0
LINE
  8
0
 10
-0.31395
 20
55.0099
 11
-0.626663
 21
55.0394
  0
LINE
  8
0
 10
-0.626663
 20
55.0394
 11
-0.936905
 21
55.0886
  0
LINE
  8
0
 10
-0.936905
 20
55.0886
 11
-1.24344
 21
55.1571
  0
LINE
  8
0
 10
-1.24344
 20
55.1571
 11
-1.54507
 21
55.2447
  0
LINE
  8
0
 10
-1.54507
 20
55.2447
 11
-1.84062
 21
55.3511
  0
LINE
  8
0
 10
-1.84062
 20
55.3511
 11
-2.12889
 21
55.4759
  0
LINE
  8
0
 10
-2.12889
 20
55.4759
 11
-2.40877
 21
55.6185
  0
LINE
  8
0
 10
-2.40877
 20
55.6185
 11
-2.67912
 21
55.7784
  0
LINE
  8
0
 10
-2.67912
 20
55.7784
 11
-2.93892
 21
55.9549
  0
LINE
  8
0
 10
-2.93892
 20
55.9549
 11
-3.18712
 21
56.1474
  0
LINE
  8
0
 10
-3.18712
 20
56.1474
 11
-3.42273
 21
56.3551
  0
LINE
  8
0
 10
-3.42273
 20
56.3551
 11
-3.64484
 21
56.5773
  0
LINE
  8
0
 10
-3.64484
 20
56.5773
 11
-3.85255
 21
56.8129
  0
LINE
  8
0
 10
-3.85255
 20
56.8129
 11
-4.04507
 21
57.0611
  0
LINE
  8
0
 10
-4.04507
 20
57.0611
 11
-4.22163
 21
57.3209
  0
LINE
  8
0
 10
-4.22163
 20
57.3209
 11
-4.38153
 21
57.5912
  0
LINE
  8
0
 10
-4.38153
 20
57.5912
 11
-4.52412
 21
57.8711
  0
LINE
  8
0
 10
-4.52412
 20
57.8711
 11
-4.64888
 21
58.1594
  0
LINE
  8
0
 10
-4.64888
 20
58.1594
 11
-4.75528
 21
58.4549
  0
LINE
  8
0
 10
-4.75528
 20
58.4549
 11
-4.84291
 21
58.7565
  0
LINE
  8
0
 10
-4.84291
 20
58.7565
 11
-4.91142
 21
59.0631
  0
LINE
  8
0
 10
-4.91142
 20
59.0631
 11
-4.96057
 21
59.3733
  0
LINE
  8
0
 10
-4.96057
 20
59.3733
 11
-4.99013
 21
59.686
  0
LINE
  8
0
 10
-4.99013
 20
59.686
 11
-5
 21
60
  0
LINE
  8
0
 10
-5
 20
60
 11
-5
 21
103.766
  0
LINE
  8
0
 10
-5
 20
103.766
 11
-6.52538
 21
103.718
  0
LINE
  8
0
 10
-6.52538
 20
103.718
 11
-7.02588
 21
103.671
  0
LINE
  8
0
 10
-7.02588
 20
103.671
 11
-7.04648
 21
101.704
  0
LINE
  8
0
 10
-7.04648
 20
101.704
 11
-7.29033
 21
98.383
  0
LINE
  8
0
 10
-7.29033
 20
98.383
 11
-7.7422
 21
95.0843
  0
LINE
  8
0
 10
-7.7422
 20
95.0843
 11
-8.40031
 21
91.8204
  0
LINE
  8
0
 10
-8.40031
 20
91.8204
 11
-9.26205
 21
88.6044
  0
LINE
  8
0
 10
-9.26205
 20
88.6044
 11
-10.3241
 21
85.4487
  0
LINE
  8
0
 10
-10.3241
 20
85.4487
 11
-11.5821
 21
82.366
  0
LINE
  8
0
 10
-11.5821
 20
82.366
 11
-13.0312
 21
79.3683
  0
LINE
  8
0
 10
-13.0312
 20
79.3683
 11
-14.6657
 21
76.4676
  0
LINE
  8
0
 10
-14.6657
 20
76.4676
 11
-16.4791
 21
73.6752
  0
LINE
  8
0
 10
-16.4791
 20
73.6752
 11
-18.4642
 21
71.0022
  0
LINE
  8
0
 10
-18.4642
 20
71.0022
 11
-20.6133
 21
68.4591
  0
LINE
  8
0
 10
-20.6133
 20
68.4591
 11
-22.9178
 21
66.056
  0
LINE
  8
0
 10
-22.9178
 20
66.056
 11
-25.3687
 21
63.8023
  0
LINE
  8
0
 10
-25.3687
 20
63.8023
 11
-27.9562
 21
61.707
  0
LINE
  8
0
 10
-27.9562
 20
61.707
 11
-30.6702
 21
59.7782
  0
LINE
  8
0
 10
-30.6702
 20
59.7782
 11
-33.5
 21
58.0237
  0
LINE
  8
0
 10
-33.5
 20
58.0237
 11
-36.4343
 21
56.4503
  0
LINE
  8
0
 10
-36.4343
 20
56.4503
 11
-39.4617
 21
55.0643
  0
LINE
  8
0
 10
-39.4617
 20
55.0643
 11
-42.5701
 21
53.8711
  0
LINE
  8
0
 10
-42.5701
 20
53.8711
 11
-45.7472
 21
52.8754
  0
LINE
  8
0
 10
-45.7472
 20
52.8754
 11
-48.9807
 21
52.0812
  0
LINE
  8
0
 10
-48.9807
 20
52.0812
 11
-52.2576
 21
51.4916
  0
LINE
  8
0
 10
-52.2576
 20
51.4916
 11
-55.5651
 21
51.1089
  0
LINE
  8
0
 10
-55.5651
 20
51.1089
 11
-58.89
 21
50.9347
  0
LINE
  8
0
 10
-58.89
 20
50.9347
 11
-62.2194
 21
50.9695
  0
LINE
  8
0
 10
-62.2194
 20
50.9695
 11
-65.54
 21
51.2134
  0
LINE
  8
0
 10
-65.54
 20
51.2134
 11
-68.8387
 21
51.6653
  0
LINE
  8
0
 10
-68.8387
 20
51.6653
 11
-72.1026
 21
52.3234
  0
LINE
  8
0
 10
-72.1026
 20
52.3234
 11
-75.3187
 21
53.1851
  0
LINE
  8
0
 10
-75.3187
 20
53.1851
 11
-78.4743
 21
54.2471
  0
LINE
  8
0
 10
-78.4743
 20
54.2471
 11
-81.557
 21
55.5051
  0
LINE
  8
0
 10
-81.557
 20
55.5051
 11
-84.5547
 21
56.9543
  0
LINE
  8
0
 10
-84.5547
 20
56.9543
 11
-86.2378
 21
57.9027
  0
LINE
  8
0
 10
-86.2378
 20
57.9027
 11
-87.3798
 21
56.2223
  0
LINE
  8
0
 10
-87.3798
 20
56.2223
 11
-49.4615
 21
34.3301
  0
LINE
  8
0
 10
-49.4615
 20
34.3301
 11
-49.1946
 21
34.1646
  0
LINE
  8
0
 10
-49.1946
 20
34.1646
 11
-48.9385
 21
33.9827
  0
LINE
  8
0
 10
-48.9385
 20
33.9827
 11
-48.6944
 21
33.785
  0
LINE
  8
0
 10
-48.6944
 20
33.785
 11
-48.4632
 21
33.5724
  0
LINE
  8
0
 10
-48.4632
 20
33.5724
 11
-48.2458
 21
33.3456
  0
LINE
  8
0
 10
-48.2458
 20
33.3456
 11
-48.043
 21
33.1057
  0
LINE
  8
0
 10
-48.043
 20
33.1057
 11
-47.8558
 21
32.8536
  0
LINE
  8
0
 10
-47.8558
 20
32.8536
 11
-47.6847
 21
32.5901
  0
LINE
  8
0
 10
-47.6847
 20
32.5901
 11
-47.5305
 21
32.3165
  0
LINE
  8
0
 10
-47.5305
 20
32.3165
 11
-47.3938
 21
32.0337
  0
LINE
  8
0
 10
-47.3938
 20
32.0337
 11
-47.2751
 21
31.7429
  0
LINE
  8
0
 10
-47.2751
 20
31.7429
 11
-47.1749
 21
31.4451
  0
LINE
  8
0
 10
-47.1749
 20
31.4451
 11
-47.0936
 21
31.1418
  0
LINE
  8
0
 10
-47.0936
 20
31.1418
 11
-47.0315
 21
30.8338
  0
LINE
  8
0
 10
-47.0315
 20
30.8338
 11
-46.9889
 21
30.5226
  0
LINE
  8
0
 10
-46.9889
 20
30.5226
 11
-46.9659
 21
30.2094
  0
LINE
  8
0
 10
-46.9659
 20
30.2094
 11
-46.9626
 21
29.8953
  0
LINE
  8
0
 10
-46.9626
 20
29.8953
 11
-46.979
 21
29.5816
  0
LINE
  8
0
 10
-46.979
 20
29.5816
 11
-47.0152
 21
29.2696
  0
LINE
  8
0
 10
-47.0152
 20
29.2696
 11
-47.0708
 21
28.9604
  0
LINE
  8
0
 10
-47.0708
 20
28.9604
 11
-47.1457
 21
28.6554
  0
LINE
  8
0
 10
-47.1457
 20
28.6554
 11
-47.2396
 21
28.3557
  0
LINE
  8
0
 10
-47.2396
 20
28.3557
 11
-47.3522
 21
28.0624
  0
LINE
  8
0
 10
-47.3522
 20
28.0624
 11
-47.483
 21
27.7768
  0
LINE
  8
0
 10
-47.483
 20
27.7768
 11
-47.6314
 21
27.5
  0
LINE
  8
0
 10
-47.6314
 20
27.5
 11
-47.7969
 21
27.233
  0
LINE
  8
0
 10
-47.7969
 20
27.233
 11
-47.9789
 21
26.977
  0
LINE
  8
0
 10
-47.9789
 20
26.977
 11
-48.1765
 21
26.7329
  0
LINE
  8
0
 10
-48.1765
 20
26.7329
 11
-48.3892
 21
26.5017
  0
LINE
  8
0
 10
-48.3892
 20
26.5017
 11
-48.6159
 21
26.2843
  0
LINE
  8
0
 10
-48.6159
 20
26.2843
 11
-48.8558
 21
26.0815
  0
LINE
  8
0
 10
-48.8558
 20
26.0815
 11
-49.108
 21
25.8942
  0
LINE
  8
0
 10
-49.108
 20
25.8942
 11
-49.3714
 21
25.7232
  0
LINE
  8
0
 10
-49.3714
 20
25.7232
 11
-49.645
 21
25.569
  0
LINE
  8
0
 10
-49.645
 20
25.569
 11
-49.9278
 21
25.4323
  0
LINE
  8
0
 10
-49.9278
 20
25.4323
 11
-50.2187
 21
25.3136
  0
LINE
  8
0
 10
-50.2187
 20
25.3136
 11
-50.5164
 21
25.2134
  0
LINE
  8
0
 10
-50.5164
 20
25.2134
 11
-50.8198
 21
25.1321
  0
LINE
  8
0
 10
-50.8198
 20
25.1321
 11
-51.1277
 21
25.07
  0
LINE
  8
0
 10
-51.1277
 20
25.07
 11
-51.4389
 21
25.0274
  0
LINE
  8
0
 10
-51.4389
 20
25.0274
 11
-51.7521
 21
25.0044
  0
LINE
  8
0
 10
-51.7521
 20
25.0044
 11
-52.0662
 21
25.0011
  0
LINE
  8
0
 10
-52.0662
 20
25.0011
 11
-52.3799
 21
25.0175
  0
LINE
  8
0
 10
-52.3799
 20
25.0175
 11
-52.6919
 21
25.0536
  0
LINE
  8
0
 10
-52.6919
 20
25.0536
 11
-53.0011
 21
25.1093
  0
LINE
  8
0
 10
-53.0011
 20
25.1093
 11
-53.3061
 21
25.1842
  0
LINE
  8
0
 10
-53.3061
 20
25.1842
 11
-53.6059
 21
25.2781
  0
LINE
  8
0
 10
-53.6059
 20
25.2781
 11
-53.8991
 21
25.3907
  0
LINE
  8
0
 10
-53.8991
 20
25.3907
 11
-54.1847
 21
25.5214
  0
LINE
  8
0
 10
-54.1847
 20
25.5214
 11
-54.4615
 21
25.6699
  0
LINE
  8
0
 10
-54.4615
 20
25.6699
 11
-92.3521
 21
47.546
  0
LINE
  8
0
 10
-92.3521
 20
47.546
 11
-93.2732
 21
45.7382
  0
LINE
  8
0
 10
-93.2732
 20
45.7382
 11
-91.6012
 21
44.7494
  0
LINE
  8
0
 10
-91.6012
 20
44.7494
 11
-88.8474
 21
42.8779
  0
LINE
  8
0
 10
-88.8474
 20
42.8779
 11
-86.2165
 21
40.8372
  0
LINE
  8
0
 10
-86.2165
 20
40.8372
 11
-83.719
 21
38.6353
  0
LINE
  8
0
 10
-83.719
 20
38.6353
 11
-81.3647
 21
36.281
  0
LINE
  8
0
 10
-81.3647
 20
36.281
 11
-79.1628
 21
33.7835
  0
LINE
  8
0
 10
-79.1628
 20
33.7835
 11
-77.1221
 21
31.1526
  0
LINE
  8
0
 10
-77.1221
 20
31.1526
 11
-75.2506
 21
28.3988
  0
LINE
  8
0
 10
-75.2506
 20
28.3988
 11
-73.5557
 21
25.5329
  0
LINE
  8
0
 10
-73.5557
 20
25.5329
 11
-72.0442
 21
22.5663
  0
LINE
  8
0
 10
-72.0442
 20
22.5663
 11
-70.7218
 21
19.5106
  0
LINE
  8
0
 10
-70.7218
 20
19.5106
 11
-69.594
 21
16.3779
  0
LINE
  8
0
 10
-69.594
 20
16.3779
 11
-68.6651
 21
13.1806
  0
LINE
  8
0
 10
-68.6651
 20
13.1806
 11
-67.9388
 21
9.9312
  0
LINE
  8
0
 10
-67.9388
 20
9.9312
 11
-67.4179
 21
6.64265
  0
LINE
  8
0
 10
-67.4179
 20
6.64265
 11
-67.1046
 21
3.3279
  0
LINE
  8
0
 10
-67.1046
 20
3.3279
 11
-67
 21
0
  0
LINE
  8
0
 10
-67
 20
0
 11
-67.1046
 21
-3.3279
  0
LINE
  8
0
 10
-67.1046
 20
-3.3279
 11
-67.4179
 21
-6.64265
  0
LINE
  8
0
 10
-67.4179
 20
-6.64265
 11
-67.9388
 21
-9.9312
  0
LINE
  8
0
 10
-67.9388
 20
-9.9312
 11
-68.6651
 21
-13.1806
  0
LINE
  8
0
 10
-68.6651
 20
-13.1806
 11
-69.594
 21
-16.3779
  0
LINE
  8
0
 10
-69.594
 20
-16.3779
 11
-70.7218
 21
-19.5106
  0
LINE
  8
0
 10
-70.7218
 20
-19.5106
 11
-72.0442
 21
-22.5663
  0
LINE
  8
0
 10
-72.0442
 20
-22.5663
 11
-73.5557
 21
-25.5329
  0
LINE
  8
0
 10
-73.5557
 20
-25.5329
 11
-75.2506
 21
-28.3988
  0
LINE
  8
0
 10
-75.2506
 20
-28.3988
 11
-77.1221
 21
-31.1526
  0
LINE
  8
0
 10
-77.1221
 20
-31.1526
 11
-79.1628
 21
-33.7835
  0
LINE
  8
0
 10
-79.1628
 20
-33.7835
 11
-81.3647
 21
-36.281
  0
LINE
  8
0
 10
-81.3647
 20
-36.281
 11
-83.719
 21
-38.6353
  0
LINE
  8
0
 10
-83.719
 20
-38.6353
 11
-86.2165
 21
-40.8372
  0
LINE
  8
0
 10
-86.2165
 20
-40.8372
 11
-88.8474
 21
-42.8779
  0
LINE
  8
0
 10
-88.8474
 20
-42.8779
 11
-91.6012
 21
-44.7494
  0
LINE
  8
0
 10
-91.6012
 20
-44.7494
 11
-93.2732
 21
-45.7382
  0
LINE
  8
0
 10
-93.2732
 20
-45.7382
 11
-92.3521
 21
-47.546
  0
LINE
  8
0
 10
-92.3521
 20
-47.546
 11
-54.4615
 21
-25.6699
  0
LINE
  8
0
 10
-54.4615
 20
-25.6699
 11
-54.1847
 21
-25.5214
  0
LINE
  8
0
 10
-54.1847
 20
-25.5214
 11
-53.8991
 21
-25.3907
  0
LINE
  8
0
 10
-53.8991
 20
-25.3907
 11
-53.6059
 21
-25.2781
  0
LINE
  8
0
 10
-53.6059
 20
-25.2781
 11
-53.3061
 21
-25.1842
  0
LINE
  8
0
 10
-53.3061
 20
-25.1842
 11
-53.0011
 21
-25.1093
  0
LINE
  8
0
 10
-53.0011
 20
-25.1093
 11
-52.6919
 21
-25.0536
  0
LINE
  8
0
 10
-52.6919
 20
-25.0536
 11
-52.3799
 21
-25.0175
  0
LINE
  8
0
 10
-52.3799
 20
-25.0175
 11
-52.0662
 21
-25.0011
  0
LINE
  8
0
 10
-52.0662
 20
-25.0011
 11
-51.7521
 21
-25.0044
  0
LINE
  8
0
 10
-51.7521
 20
-25.0044
 11
-51.4389
 21
-25.0274
  0
LINE
  8
0
 10
-51.4389
 20
-25.0274
 11
-51.1277
 21
-25.07
  0
LINE
  8
0
 10
-51.1277
 20
-25.07
 11
-50.8198
 21
-25.1321
  0
LINE
  8
0
 10
-50.8198
 20
-25.1321
 11
-50.5164
 21
-25.2134
  0
LINE
  8
0
 10
-50.5164
 20
-25.2134
 11
-50.2187
 21
-25.3136
  0
LINE
  8
0
 10
-50.2187
 20
-25.3136
 11
-49.9278
 21
-25.4323
  0
LINE
  8
0
 10
-49.9278
 20
-25.4323
 11
-49.645
 21
-25.569
  0
LINE
  8
0
 10
-49.645
 20
-25.569
 11
-49.3714
 21
-25.7232
  0
LINE
  8
0
 10
-49.3714
 20
-25.7232
 11
-49.108
 21
-25.8942
  0
LINE
  8
0
 10
-49.108
 20
-25.8942
 11
-48.8558
 21
-26.0815
  0
LINE
  8
0
 10
-48.8558
 20
-26.0815
 11
-48.6159
 21
-26.2843
  0
LINE
  8
0
 10
-48.6159
 20
-26.2843
 11
-48.3892
 21
-26.5017
  0
LINE
  8
0
 10
-48.3892
 20
-26.5017
 11
-48.1765
 21
-26.7329
  0
LINE
  8
0
 10
-48.1765
 20
-26.7329
 11
-47.9789
 21
-26.977
  0
LINE
  8
0
 10
-47.9789
 20
-26.977
 11
-47.7969
 21
-27.233
  0
LINE
  8
0
 10
-47.7969
 20
-27.233
 11
-47.6314
 21
-27.5
  0
LINE
  8
0
 10
-47.6314
 20
-27.5
 11
-47.483
 21
-27.7768
  0
LINE
  8
0
 10
-47.483
 20
-27.7768
 11
-47.3522
 21
-28.0624
  0
LINE
  8
0
 10
-47.3522
 20
-28.0624
 11
-47.2396
 21
-28.3557
  0
LINE
  8
0
 10
-47.2396
 20
-28.3557
 11
-47.1457
 21
-28.6554
  0
LINE
  8
0
 10
-47.1457
 20
-28.6554
 11
-47.0708
 21
-28.9604
  0
LINE
  8
0
 10
-47.0708
 20
-28.9604
 11
-47.0152
 21
-29.2696
  0
LINE
  8
0
 10
-47.0152
 20
-29.2696
 11
-46.979
 21
-29.5816
  0
LINE
  8
0
 10
-46.979
 20
-29.5816
 11
-46.9626
 21
-29.8953
  0
LINE
  8
0
 10
-46.9626
 20
-29.8953
 11
-46.9659
 21
-30.2094
  0
LINE
  8
0
 10
-46.9659
 20
-30.2094
 11
-46.9889
 21
-30.5226
  0
LINE
  8
0
 10
-46.9889
 20
-30.5226
 11
-47.0315
 21
-30.8338
  0
LINE
  8
0
 10
-47.0315
 20
-30.8338
 11
-47.0936
 21
-31.1418
  0
LINE
  8
0
 10
-47.0936
 20
-31.1418
 11
-47.1749
 21
-31.4451
  0
LINE
  8
0
 10
-47.1749
 20
-31.4451
 11
-47.2751
 21
-31.7429
  0
LINE
  8
0
 10
-47.2751
 20
-31.7429
 11
-47.3938
 21
-32.0337
  0
LINE
  8
0
 10
-47.3938
 20
-32.0337
 11
-47.5305
 21
-32.3165
  0
LINE
  8
0
 10
-47.5305
 20
-32.3165
 11
-47.6847
 21
-32.5901
  0
LINE
  8
0
 10
-47.6847
 20
-32.5901
 11
-47.8558
 21
-32.8536
  0
LINE
  8
0
 10
-47.8558
 20
-32.8536
 11
-48.043
 21
-33.1057
  0
LINE
  8
0
 10
-48.043
 20
-33.1057
 11
-48.2458
 21
-33.3456
  0
LINE
  8
0
 10
-48.2458
 20
-33.3456
 11
-48.4632
 21
-33.5724
  0
LINE
  8
0
 10
-48.4632
 20
-33.5724
 11
-48.6944
 21
-33.785
  0
LINE
  8
0
 10
-48.6944
 20
-33.785
 11
-48.9385
 21
-33.9827
  0
LINE
  8
0
 10
-48.9385
 20
-33.9827
 11
-49.1946
 21
-34.1646
  0
LINE
  8
0
 10
-49.1946
 20
-34.1646
 11
-49.4615
 21
-34.3301
  0
LINE
  8
0
 10
-49.4615
 20
-34.3301
 11
-87.3798
 21
-56.2223
  0
LINE
  8
0
 10
-87.3798
 20
-56.2223
 11
-86.2378
 21
-57.9027
  0
LINE
  8
0
 10
-86.2378
 20
-57.9027
 11
-84.5547
 21
-56.9543
  0
LINE
  8
0
 10
-84.5547
 20
-56.9543
 11
-81.557
 21
-55.5051
  0
LINE
  8
0
 10
-81.557
 20
-55.5051
 11
-78.4743
 21
-54.2471
  0
LINE
  8
0
 10
-78.4743
 20
-54.2471
 11
-75.3187
 21
-53.1851
  0
LINE
  8
0
 10
-75.3187
 20
-53.1851
 11
-72.1026
 21
-52.3234
  0
LINE
  8
0
 10
-72.1026
 20
-52.3234
 11
-68.8387
 21
-51.6653
  0
LINE
  8
0
 10
-68.8387
 20
-51.6653
 11
-65.54
 21
-51.2134
  0
LINE
  8
0
 10
-65.54
 20
-51.2134
 11
-62.2194
 21
-50.9695
  0
LINE
  8
0
 10
-62.2194
 20
-50.9695
 11
-58.89
 21
-50.9347
  0
LINE
  8
0
 10
-58.89
 20
-50.9347
 11
-55.5651
 21
-51.1089
  0
LINE
  8
0
 10
-55.5651
 20
-51.1089
 11
-52.2576
 21
-51.4916
  0
LINE
  8
0
 10
-52.2576
 20
-51.4916
 11
-48.9807
 21
-52.0812
  0
LINE
  8
0
 10
-48.9807
 20
-52.0812
 11
-45.7472
 21
-52.8754
  0
LINE
  8
0
 10
-45.7472
 20
-52.8754
 11
-42.5701
 21
-53.8711
  0
LINE
  8
0
 10
-42.5701
 20
-53.8711
 11
-39.4617
 21
-55.0643
  0
LINE
  8
0
 10
-39.4617
 20
-55.0643
 11
-36.4343
 21
-56.4503
  0
LINE
  8
0
 10
-36.4343
 20
-56.4503
 11
-33.5
 21
-58.0237
  0
LINE
  8
0
 10
-33.5
 20
-58.0237
 11
-30.6702
 21
-59.7782
  0
LINE
  8
0
 10
-30.6702
 20
-59.7782
 11
-27.9562
 21
-61.707
  0
LINE
  8
0
 10
-27.9562
 20
-61.707
 11
-25.3687
 21
-63.8023
  0
LINE
  8
0
 10
-25.3687
 20
-63.8023
 11
-22.9178
 21
-66.056
  0
LINE
  8
0
 10
-22.9178
 20
-66.056
 11
-20.6133
 21
-68.4591
  0
LINE
  8
0
 10
-20.6133
 20
-68.4591
 11
-18.4642
 21
-71.0022
  0
LINE
  8
0
 10
-18.4642
 20
-71.0022
 11
-16.4791
 21
-73.6752
  0
LINE
  8
0
 10
-16.4791
 20
-73.6752
 11
-14.6657
 21
-76.4676
  0
LINE
  8
0
 10
-14.6657
 20
-76.4676
 11
-13.0312
 21
-79.3683
  0
LINE
  8
0
 10
-13.0312
 20
-79.3683
 11
-11.5821
 21
-82.366
  0
LINE
  8
0
 10
-11.5821
 20
-82.366
 11
-10.3241
 21
-85.4487
  0
LINE
  8
0
 10
-10.3241
 20
-85.4487
 11
-9.26205
 21
-88.6044
  0
LINE
  8
0
 10
-9.26205
 20
-88.6044
 11
-8.40031
 21
-91.8204
  0
LINE
  8
0
 10
-8.40031
 20
-91.8204
 11
-7.7422
 21
-95.0843
  0
LINE
  8
0
 10
-7.7422
 20
-95.0843
 11
-7.29033
 21
-98.383
  0
LINE
  8
0
 10
-7.29033
 20
-98.383
 11
-7.04648
 21
-101.704
  0
LINE
  8
0
 10
-7.04648
 20
-101.704
 11
-7.02588
 21
-103.671
  0
LINE
  8
0
 10
-7.02588
 20
-103.671
 11
-6.52538
 21
-103.718
  0
LINE
  8
0
 10
-6.52538
 20
-103.718
 11
-5
 21
-103.766
  0
LINE
  8
0
 10
-5
 20
-103.766
 11
-5
 21
-60
  0
LINE
  8
0
 10
-5
 20
-60
 11
-4.99013
 21
-59.686
  0
LINE
  8
0
 10
-4.99013
 20
-59.686
 11
-4.96057
 21
-59.3733
  0
LINE
  8
0
 10
-4.96057
 20
-59.3733
 11
-4.91142
 21
-59.0631
  0
LINE
  8
0
 10
-4.91142
 20
-59.0631
 11
-4.84291
 21
-58.7565
  0
LINE
  8
0
 10
-4.84291
 20
-58.7565
 11
-4.75528
 21
-58.4549
  0
LINE
  8
0
 10
-4.75528
 20
-58.4549
 11
-4.64888
 21
-58.1594
  0
LINE
  8
0
 10
-4.64888
 20
-58.1594
 11
-4.52412
 21
-57.8711
  0
LINE
  8
0
 10
-4.52412
 20
-57.8711
 11
-4.38153
 21
-57.5912
  0
LINE
  8
0
 10
-4.38153
 20
-57.5912
 11
-4.22163
 21
-57.3209
  0
LINE
  8
0
 10
-4.22163
 20
-57.3209
 11
-4.04507
 21
-57.0611
  0
LINE
  8
0
 10
-4.04507
 20
-57.0611
 11
-3.85255
 21
-56.8129
  0
LINE
  8
0
 10
-3.85255
 20
-56.8129
 11
-3.64484
 21
-56.5773
  0
LINE
  8
0
 10
-3.64484
 20
-56.5773
 11
-3.42273
 21
-56.3551
  0
LINE
  8
0
 10
-3.42273
 20
-56.3551
 11
-3.18712
 21
-56.1474
  0
LINE
  8
0
 10
-3.18712
 20
-56.1474
 11
-2.93892
 21
-55.9549
  0
LINE
  8
0
 10
-2.93892
 20
-55.9549
 11
-2.67912
 21
-55.7784
  0
LINE
  8
0
 10
-2.67912
 20
-55.7784
 11
-2.40877
 21
-55.6185
  0
LINE
  8
0
 10
-2.40877
 20
-55.6185
 11
-2.12889
 21
-55.4759
  0
LINE
  8
0
 10
-2.12889
 20
-55.4759
 11
-1.84062
 21
-55.3511
  0
LINE
  8
0
 10
-1.84062
 20
-55.3511
 11
-1.54507
 21
-55.2447
  0
LINE
  8
0
 10
-1.54507
 20
-55.2447
 11
-1.24344
 21
-55.1571
  0
LINE
  8
0
 10
-1.24344
 20
-55.1571
 11
-0.936905
 21
-55.0886
  0
LINE
  8
0
 10
-0.936905
 20
-55.0886
 11
-0.626663
 21
-55.0394
  0
LINE
  8
0
 10
-0.626663
 20
-55.0394
 11
-0.31395
 21
-55.0099
  0
LINE
  8
0
 10
-0.31395
 20
-55.0099
 11
0
 21
-55
  0
LINE
  8
0
 10
0
 20
-55
 11
0.31395
 21
-55.0099
  0
LINE
  8
0
 10
0.31395
 20
-55.0099
 11
0.626663
 21
-55.0394
  0
LINE
  8
0
 10
0.626663
 20
-55.0394
 11
0.936905
 21
-55.0886
  0
LINE
  8
0
 10
0.936905
 20
-55.0886
 11
1.24344
 21
-55.1571
  0
LINE
  8
0
 10
1.24344
 20
-55.1571
 11
1.54507
 21
-55.2447
  0
LINE
  8
0
 10
1.54507
 20
-55.2447
 11
1.84062
 21
-55.3511
  0
LINE
  8
0
 10
1.84062
 20
-55.3511
 11
2.12889
 21
-55.4759
  0
LINE
  8
0
 10
2.12889
 20
-55.4759
 11
2.40877
 21
-55.6185
  0
LINE
  8
0
 10
2.40877
 20
-55.6185
 11
2.67912
 21
-55.7784
  0
LINE
  8
0
 10
2.67912
 20
-55.7784
 11
2.93892
 21
-55.9549
  0
LINE
  8
0
 10
2.93892
 20
-55.9549
 11
3.18712
 21
-56.1474
  0
LINE
  8
0
 10
3.18712
 20
-56.1474
 11
3.42273
 21
-56.3551
  0
LINE
  8
0
 10
3.42273
 20
-56.3551
 11
3.64484
 21
-56.5773
  0
LINE
  8
0
 10
3.64484
 20
-56.5773
 11
3.85255
 21
-56.8129
  0
LINE
  8
0
 10
3.85255
 20
-56.8129
 11
4.04507
 21
-57.0611
  0
LINE
  8
0
 10
4.04507
 20
-57.0611
 11
4.22163
 21
-57.3209
  0
LINE
  8
0
 10
4.22163
 20
-57.3209
 11
4.38153
 21
-57.5912
  0
LINE
  8
0
 10
4.38153
 20
-57.5912
 11
4.52412
 21
-57.8711
  0
LINE
  8
0
 10
4.52412
 20
-57.8711
 11
4.64888
 21
-58.1594
  0
LINE
  8
0
 10
4.64888
 20
-58.1594
 11
4.75528
 21
-58.4549
  0
LINE
  8
0
 10
4.75528
 20
-58.4549
 11
4.84291
 21
-58.7565
  0
LINE
  8
0
 10
4.84291
 20
-58.7565
 11
4.91142
 21
-59.0631
  0
LINE
  8
0
 10
4.91142
 20
-59.0631
 11
4.96057
 21
-59.3733
  0
LINE
  8
0
 10
4.96057
 20
-59.3733
 11
4.99013
 21
-59.686
  0
LINE
  8
0
 10
4.99013
 20
-59.686
 11
5
 21
-60
  0
LINE
  8
0
 10
5
 20
-60
 11
5
 21
-103.766
  0
LINE
  8
0
 10
5
 20
-103.766
 11
6.52538
 21
-103.718
  0
LINE
  8
0
 10
-0.147552
 20
-2.34535
 11
-0.294525
 21
-2.33147
  0
LINE
  8
0
 10
-0.294525
 20
-2.33147
 11
-0.440338
 21
-2.30836
  0
LINE
  8
0
 10
-0.440338
 20
-2.30836
 11
-0.584412
 21
-2.27617
  0
LINE
  8
0
 10
-0.584412
 20
-2.27617
 11
-0.726181
 21
-2.23497
  0
LINE
  8
0
 10
-0.726181
 20
-2.23497
 11
-0.865082
 21
-2.18497
  0
LINE
  8
0
 10
-0.865082
 20
-2.18497
 11
-1.00058
 21
-2.12634
  0
LINE
  8
0
 10
-1.00058
 20
-2.12634
 11
-1.13211
 21
-2.05931
  0
LINE
  8
0
 10
-1.13211
 20
-2.05931
 11
-1.25919
 21
-1.98416
  0
LINE
  8
0
 10
-1.25919
 20
-1.98416
 11
-1.38129
 21
-1.90118
  0
LINE
  8
0
 10
-1.38129
 20
-1.90118
 11
-1.49794
 21
-1.8107
  0
LINE
  8
0
 10
-1.49794
 20
-1.8107
 11
-1.60867
 21
-1.71307
  0
LINE
  8
0
 10
-1.60867
 20
-1.71307
 11
-1.71307
 21
-1.60867
  0
LINE
  8
0
 10
-1.71307
 20
-1.60867
 11
-1.8107
 21
-1.49794
  0
LINE
  8
0
 10
-1.8107
 20
-1.49794
 11
-1.90118
 21
-1.38129
  0
LINE
  8
0
 10
-1.90118
 20
-1.38129
 11
-1.98416
 21
-1.25919
  0
LINE
  8
0
 10
-1.98416
 20
-1.25919
 11
-2.05931
 21
-1.13211
  0
LINE
  8
0
 10
-2.05931
 20
-1.13211
 11
-2.12634
 21
-1.00058
  0
LINE
  8
0
 10
-2.12634
 20
-1.00058
 11
-2.18497
 21
-0.865082
  0
LINE
  8
0
 10
-2.18497
 20
-0.865082
 11
-2.23497
 21
-0.726181
  0
LINE
  8
0
 10
-2.23497
 20
-0.726181
 11
-2.27617
 21
-0.584412
  0
LINE
  8
0
 10
-2.27617
 20
-0.584412
 11
-2.30836
 21
-0.440338
  0
LINE
  8
0
 10
-2.30836
 20
-0.440338
 11
-2.33147
 21
-0.294525
  0
LINE
  8
0
 10
-2.33147
 20
-0.294525
 11
-2.34535
 21
-0.147552
  0
LINE
  8
0
 10
-2.34535
 20
-0.147552
 11
-2.34999
 21
0
  0
LINE
  8
0
 10
-2.34999
 20
0
 11
-2.34535
 21
0.147552
  0
LINE
  8
0
 10
-2.34535
 20
0.147552
 11
-2.33147
 21
0.294525
  0
LINE
  8
0
 10
-2.33147
 20
0.294525
 11
-2.30836
 21
0.440338
  0
LINE
  8
0
 10
-2.30836
 20
0.440338
 11
-2.27617
 21
0.584412
  0
LINE
  8
0
 10
-2.27617
 20
0.584412
 11
-2.23497
 21
0.726181
  0
LINE
  8
0
 10
-2.23497
 20
0.726181
 11
-2.18497
 21
0.865082
  0
LINE
  8
0
 10
-2.18497
 20
0.865082
 11
-2.12634
 21
1.00058
  0
LINE
  8
0
 10
-2.12634
 20
1.00058
 11
-2.05931
 21
1.13211
  0
LINE
  8
0
 10
-2.05931
 20
1.13211
 11
-1.98416
 21
1.25919
  0
LINE
  8
0
 10
-1.98416
 20
1.25919
 11
-1.90118
 21
1.38129
  0
LINE
  8
0
 10
-1.90118
 20
1.38129
 11
-1.8107
 21
1.49794
  0
LINE
  8
0
 10
-1.8107
 20
1.49794
 11
-1.71307
 21
1.60867
  0
LINE
  8
0
 10
-1.71307
 20
1.60867
 11
-1.60867
 21
1.71307
  0
LINE
  8
0
 10
-1.60867
 20
1.71307
 11
-1.49794
 21
1.8107
  0
LINE
  8
0
 10
-1.49794
 20
1.8107
 11
-1.38129
 21
1.90118
  0
LINE
  8
0
 10
-1.38129
 20
1.90118
 11
-1.25919
 21
1.98416
  0
LINE
  8
0
 10
-1.25919
 20
1.98416
 11
-1.13211
 21
2.05931
  0
LINE
  8
0
 10
-1.13211
 20
2.05931
 11
-1.00058
 21
2.12634
  0
LINE
  8
0
 10
-1.00058
 20
2.12634
 11
-0.865082
 21
2.18497
  0
LINE
  8
0
 10
-0.865082
 20
2.18497
 11
-0.726181
 21
2.23497
  0
LINE
  8
0
 10
-0.726181
 20
2.23497
 11
-0.584412
 21
2.27617
  0
LINE
  8
0
 10
-0.584412
 20
2.27617
 11
-0.440338
 21
2.30836
  0
LINE
  8
0
 10
-0.440338
 20
2.30836
 11
-0.294525
 21
2.33147
  0
LINE
  8
0
 10
-0.294525
 20
2.33147
 11
-0.147552
 21
2.34535
  0
LINE
  8
0
 10
-0.147552
 20
2.34535
 11
0
 21
2.34999
  0
LINE
  8
0
 10
0
 20
2.34999
 11
0.147552
 21
2.34535
  0
LINE
  8
0
 10
0.147552
 20
2.34535
 11
0.294525
 21
2.33147
  0
LINE
  8
0
 10
0.294525
 20
2.33147
 11
0.440338
 21
2.30836
  0
LINE
  8
0
 10
0.440338
 20
2.30836
 11
0.584412
 21
2.27617
  0
LINE
  8
0
 10
0.584412
 20
2.27617
 11
0.726181
 21
2.23497
  0
LINE
  8
0
 10
0.726181
 20
2.23497
 11
0.865082
 21
2.18497
  0
LINE
  8
0
 10
0.865082
 20
2.18497
 11
1.00058
 21
2.12634
  0
LINE
  8
0
 10
1.00058
 20
2.12634
 11
1.13211
 21
2.05931
  0
LINE
  8
0
 10
1.13211
 20
2.05931
 11
1.25919
 21
1.98416
  0
LINE
  8
0
 10
1.25919
 20
1.98416
 11
1.38129
 21
1.90118
  0
LINE
  8
0
 10
1.38129
 20
1.90118
 11
1.49794
 21
1.8107
  0
LINE
  8
0
 10
1.49794
 20
1.8107
 11
1.60867
 21
1.71307
  0
LINE
  8
0
 10
1.60867
 20
1.71307
 11
1.71307
 21
1.60867
  0
LINE
  8
0
 10
1.71307
 20
1.60867
 11
1.8107
 21
1.49794
  0
LINE
  8
0
 10
1.8107
 20
1.49794
 11
1.90118
 21
1.38129
  0
LINE
  8
0
 10
1.90118
 20
1.38129
 11
1.98416
 21
1.25919
  0
LINE
  8
0
 10
1.98416
 20
1.25919
 11
2.05931
 21
1.13211
  0
LINE
  8
0
 10
2.05931
 20
1.13211
 11
2.12634
 21
1.00058
  0
LINE
  8
0
 10
2.12634
 20
1.00058
 11
2.18497
 21
0.865082
  0
LINE
  8
0
 10
2.18497
 20
0.865082
 11
2.23497
 21
0.726181
  0
LINE
  8
0
 10
2.23497
 20
0.726181
 11
2.27617
 21
0.584412
  0
LINE
  8
0
 10
2.27617
 20
0.584412
 11
2.30836
 21
0.440338
  0
LINE
  8
0
 10
2.30836
 20
0.440338
 11
2.33147
 21
0.294525
  0
LINE
  8
0
 10
2.33147
 20
0.294525
 11
2.34535
 21
0.147552
  0
LINE
  8
0
 10
2.34535
 20
0.147552
 11
2.34999
 21
0
  0
LINE
  8
0
 10
2.34999
 20
0
 11
2.34535
 21
-0.147552
  0
LINE
  8
0
 10
2.34535
 20
-0.147552
 11
2.33147
 21
-0.294525
  0
LINE
  8
0
 10
2.33147
 20
-0.294525
 11
2.30836
 21
-0.440338
  0
LINE
  8
0
 10
2.30836
 20
-0.440338
 11
2.27617
 21
-0.584412
  0
LINE
  8
0
 10
2.27617
 20
-0.584412
 11
2.23497
 21
-0.726181
  0
LINE
  8
0
 10
2.23497
 20
-0.726181
 11
2.18497
 21
-0.865082
  0
LINE
  8
0
 10
2.18497
 20
-0.865082
 11
2.12634
 21
-1.00058
  0
LINE
  8
0
 10
2.12634
 20
-1.00058
 11
2.05931
 21
-1.13211
  0
LINE
  8
0
 10
2.05931
 20
-1.13211
 11
1.98416
 21
-1.25919
  0
LINE
  8
0
 10
1.98416
 20
-1.25919
 11
1.90118
 21
-1.38129
  0
LINE
  8
0
 10
1.90118
 20
-1.38129
 11
1.8107
 21
-1.49794
  0
LINE
  8
0
 10
1.8107
 20
-1.49794
 11
1.71307
 21
-1.60867
  0
LINE
  8
0
 10
1.71307
 20
-1.60867
 11
1.60867
 21
-1.71307
  0
LINE
  8
0
 10
1.60867
 20
-1.71307
 11
1.49794
 21
-1.8107
  0
LINE
  8
0
 10
1.49794
 20
-1.8107
 11
1.38129
 21
-1.90118
  0
LINE
  8
0
 10
1.38129
 20
-1.90118
 11
1.25919
 21
-1.98416
  0
LINE
  8
0
 10
1.25919
 20
-1.98416
 11
1.13211
 21
-2.05931
  0
LINE
  8
0
 10
1.13211
 20
-2.05931
 11
1.00058
 21
-2.12634
  0
LINE
  8
0
 10
1.00058
 20
-2.12634
 11
0.865082
 21
-2.18497
  0
LINE
  8
0
 10
0.865082
 20
-2.18497
 11
0.726181
 21
-2.23497
  0
LINE
  8
0
 10
0.726181
 20
-2.23497
 11
0.584412
 21
-2.27617
  0
LINE
  8
0
 10
0.584412
 20
-2.27617
 11
0.440338
 21
-2.30836
  0
LINE
  8
0
 10
0.440338
 20
-2.30836
 11
0.294525
 21
-2.33147
  0
LINE
  8
0
 10
0.294525
 20
-2.33147
 11
0.147552
 21
-2.34535
  0
LINE
  8
0
 10
0.147552
 20
-2.34535
 11
0
 21
-2.34999
  0
LINE
  8
0
 10
0
 20
-2.34999
 11
-0.147552
 21
-2.34535
  0
LINE
  8
0
 10
176.687
 20
-65.9421
 11
180.822
 21
-65.6384
  0
LINE
  8
0
 10
180.822
 20
-65.6384
 11
184.93
 21
-65.0757
  0
LINE
  8
0
 10
184.93
 20
-65.0757
 11
188.994
 21
-64.2562
  0
LINE
  8
0
 10
188.994
 20
-64.2562
 11
192.999
 21
-63.1831
  0
LINE
  8
0
 10
192.999
 20
-63.1831
 11
196.929
 21
-61.8606
  0
LINE
  8
0
 10
196.929
 20
-61.8606
 11
200.768
 21
-60.294
  0
LINE
  8
0
 10
200.768
 20
-60.294
 11
204.501
 21
-58.4894
  0
LINE
  8
0
 10
204.501
 20
-58.4894
 11
208.113
 21
-56.454
  0
LINE
  8
0
 10
208.113
 20
-56.454
 11
211.59
 21
-54.1958
  0
LINE
  8
0
 10
211.59
 20
-54.1958
 11
214.919
 21
-51.7238
  0
LINE
  8
0
 10
214.919
 20
-51.7238
 11
218.086
 21
-49.0475
  0
LINE
  8
0
 10
218.086
 20
-49.0475
 11
221.078
 21
-46.1778
  0
LINE
  8
0
 10
221.078
 20
-46.1778
 11
223.885
 21
-43.1257
  0
LINE
  8
0
 10
223.885
 20
-43.1257
 11
226.494
 21
-39.9035
  0
LINE
  8
0
 10
226.494
 20
-39.9035
 11
228.896
 21
-36.5238
  0
LINE
  8
0
 10
228.896
 20
-36.5238
 11
231.081
 21
-33
  0
LINE
  8
0
 10
231.081
 20
-33
 11
233.04
 21
-29.3459
  0
LINE
  8
0
 10
233.04
 20
-29.3459
 11
234.766
 21
-25.576
  0
LINE
  8
0
 10
234.766
 20
-25.576
 11
236.252
 21
-21.7052
  0
LINE
  8
0
 10
236.252
 20
-21.7052
 11
237.492
 21
-17.7487
  0
LINE
  8
0
 10
237.492
 20
-17.7487
 11
238.481
 21
-13.7222
  0
LINE
  8
0
 10
238.481
 20
-13.7222
 11
239.215
 21
-9.64148
  0
LINE
  8
0
 10
239.215
 20
-9.64148
 11
239.692
 21
-5.52274
  0
LINE
  8
0
 10
239.692
 20
-5.52274
 11
239.909
 21
-1.38219
  0
LINE
  8
0
 10
239.909
 20
-1.38219
 11
239.865
 21
2.76378
  0
LINE
  8
0
 10
239.865
 20
2.76378
 11
239.561
 21
6.89886
  0
LINE
  8
0
 10
239.561
 20
6.89886
 11
238.999
 21
11.0067
  0
LINE
  8
0
 10
238.999
 20
11.0067
 11
238.179
 21
15.0712
  0
LINE
  8
0
 10
238.179
 20
15.0712
 11
237.106
 21
19.0761
  0
LINE
  8
0
 10
237.106
 20
19.0761
 11
235.784
 21
23.0058
  0
LINE
  8
0
 10
235.784
 20
23.0058
 11
234.217
 21
26.8446
  0
LINE
  8
0
 10
234.217
 20
26.8446
 11
232.412
 21
30.5775
  0
LINE
  8
0
 10
232.412
 20
30.5775
 11
230.377
 21
34.1898
  0
LINE
  8
0
 10
230.377
 20
34.1898
 11
228.119
 21
37.6671
  0
LINE
  8
0
 10
228.119
 20
37.6671
 11
225.647
 21
40.9957
  0
LINE
  8
0
 10
225.647
 20
40.9957
 11
222.971
 21
44.1626
  0
LINE
  8
0
 10
222.971
 20
44.1626
 11
220.101
 21
47.1552
  0
LINE
  8
0
 10
220.101
 20
47.1552
 11
217.049
 21
49.9617
  0
LINE
  8
0
 10
217.049
 20
49.9617
 11
213.827
 21
52.571
  0
LINE
  8
0
 10
213.827
 20
52.571
 11
210.447
 21
54.9728
  0
LINE
  8
0
 10
210.447
 20
54.9728
 11
206.923
 21
57.1577
  0
LINE
  8
0
 10
206.923
 20
57.1577
 11
203.269
 21
59.117
  0
LINE
  8
0
 10
203.269
 20
59.117
 11
199.499
 21
60.843
  0
LINE
  8
0
 10
199.499
 20
60.843
 11
195.628
 21
62.3288
  0
LINE
  8
0
 10
195.628
 20
62.3288
 11
191.672
 21
63.5687
  0
LINE
  8
0
 10
191.672
 20
63.5687
 11
187.645
 21
64.5577
  0
LINE
  8
0
 10
187.645
 20
64.5577
 11
183.565
 21
65.292
  0
LINE
  8
0
 10
183.565
 20
65.292
 11
179.446
 21
65.7685
  0
LINE
  8
0
 10
179.446
 20
65.7685
 11
175.305
 21
65.9855
  0
LINE
  8
0
 10
175.305
 20
65.9855
 11
171.159
 21
65.9421
  0
LINE
  8
0
 10
171.159
 20
65.9421
 11
167.024
 21
65.6384
  0
LINE
  8
0
 10
167.024
 20
65.6384
 11
162.916
 21
65.0757
  0
LINE
  8
0
 10
162.916
 20
65.0757
 11
158.852
 21
64.2562
  0
LINE
  8
0
 10
158.852
 20
64.2562
 11
154.847
 21
63.1831
  0
LINE
  8
0
 10
154.847
 20
63.1831
 11
150.917
 21
61.8606
  0
LINE
  8
0
 10
150.917
 20
61.8606
 11
147.078
 21
60.294
  0
LINE
  8
0
 10
147.078
 20
60.294
 11
143.346
 21
58.4894
  0
LINE
  8
0
 10
143.346
 20
58.4894
 11
139.733
 21
56.454
  0
LINE
  8
0
 10
139.733
 20
56.454
 11
136.256
 21
54.1958
  0
LINE
  8
0
 10
136.256
 20
54.1958
 11
132.927
 21
51.7238
  0
LINE
  8
0
 10
132.927
 20
51.7238
 11
129.76
 21
49.0475
  0
LINE
  8
0
 10
129.76
 20
49.0475
 11
126.768
 21
46.1778
  0
LINE
  8
0
 10
126.768
 20
46.1778
 11
123.961
 21
43.1257
  0
LINE
  8
0
 10
123.961
 20
43.1257
 11
121.352
 21
39.9035
  0
LINE
  8
0
 10
121.352
 20
39.9035
 11
118.95
 21
36.5238
  0
LINE
  8
0
 10
118.95
 20
36.5238
 11
116.765
 21
33
  0
LINE
  8
0
 10
116.765
 20
33
 11
114.806
 21
29.3459
  0
LINE
  8
0
 10
114.806
 20
29.3459
 11
113.08
 21
25.576
  0
LINE
  8
0
 10
113.08
 20
25.576
 11
111.594
 21
21.7052
  0
LINE
  8
0
 10
111.594
 20
21.7052
 11
110.354
 21
17.7487
  0
LINE
  8
0
 10
110.354
 20
17.7487
 11
109.365
 21
13.7222
  0
LINE
  8
0
 10
109.365
 20
13.7222
 11
108.631
 21
9.64148
  0
LINE
  8
0
 10
108.631
 20
9.64148
 11
108.155
 21
5.52274
  0
LINE
  8
0
 10
108.155
 20
5.52274
 11
107.938
 21
1.38219
  0
LINE
  8
0
 10
107.938
 20
1.38219
 11
107.981
 21
-2.76378
  0
LINE
  8
0
 10
107.981
 20
-2.76378
 11
108.285
 21
-6.89886
  0
LINE
  8
0
 10
108.285
 20
-6.89886
 11
108.847
 21
-11.0067
  0
LINE
  8
0
 10
108.847
 20
-11.0067
 11
109.667
 21
-15.0712
  0
LINE
  8
0
 10
109.667
 20
-15.0712
 11
110.74
 21
-19.0761
  0
LINE
  8
0
 10
110.74
 20
-19.0761
 11
112.062
 21
-23.0058
  0
LINE
  8
0
 10
112.062
 20
-23.0058
 11
113.629
 21
-26.8446
  0
LINE
  8
0
 10
113.629
 20
-26.8446
 11
115.434
 21
-30.5775
  0
LINE
  8
0
 10
115.434
 20
-30.5775
 11
117.469
 21
-34.1898
  0
LINE
  8
0
 10
117.469
 20
-34.1898
 11
119.727
 21
-37.6671
  0
LINE
  8
0
 10
119.727
 20
-37.6671
 11
122.199
 21
-40.9957
  0
LINE
  8
0
 10
122.199
 20
-40.9957
 11
124.875
 21
-44.1626
  0
LINE
  8
0
 10
124.875
 20
-44.1626
 11
127.745
 21
-47.1552
  0
LINE
  8
0
 10
127.745
 20
-47.1552
 11
130.797
 21
-49.9617
  0
LINE
  8
0
 10
130.797
 20
-49.9617
 11
134.02
 21
-52.571
  0
LINE
  8
0
 10
134.02
 20
-52.571
 11
137.399
 21
-54.9728
  0
LINE
  8
0
 10
137.399
 20
-54.9728
 11
140.923
 21
-57.1577
  0
LINE
  8
0
 10
140.923
 20
-57.1577
 11
144.577
 21
-59.117
  0
LINE
  8
0
 10
144.577
 20
-59.117
 11
148.347
 21
-60.843
  0
LINE
  8
0
 10
148.347
 20
-60.843
 11
152.218
 21
-62.3288
  0
LINE
  8
0
 10
152.218
 20
-62.3288
 11
156.174
 21
-63.5687
  0
LINE
  8
0
 10
156.174
 20
-63.5687
 11
160.201
 21
-64.5577
  0
LINE
  8
0
 10
160.201
 20
-64.5577
 11
164.282
 21
-65.292
  0
LINE
  8
0
 10
164.282
 20
-65.292
 11
168.4
 21
-65.7685
  0
LINE
  8
0
 10
168.4
 20
-65.7685
 11
172.541
 21
-65.9855
  0
LINE
  8
0
 10
172.541
 20
-65.9855
 11
176.687
 21
-65.9421
  0
LINE
  8
0
 10
173.726
 20
-2.34175
 11
173.58
 21
-2.32478
  0
LINE
  8
0
 10
173.58
 20
-2.32478
 11
173.434
 21
-2.29865
  0
LINE
  8
0
 10
173.434
 20
-2.29865
 11
173.291
 21
-2.26343
  0
LINE
  8
0
 10
173.291
 20
-2.26343
 11
173.15
 21
-2.21927
  0
LINE
  8
0
 10
173.15
 20
-2.21927
 11
173.012
 21
-2.16637
  0
LINE
  8
0
 10
173.012
 20
-2.16637
 11
172.878
 21
-2.10492
  0
LINE
  8
0
 10
172.878
 20
-2.10492
 11
172.748
 21
-2.03516
  0
LINE
  8
0
 10
172.748
 20
-2.03516
 11
172.623
 21
-1.95735
  0
LINE
  8
0
 10
172.623
 20
-1.95735
 11
172.502
 21
-1.87184
  0
LINE
  8
0
 10
172.502
 20
-1.87184
 11
172.388
 21
-1.77893
  0
LINE
  8
0
 10
172.388
 20
-1.77893
 11
172.279
 21
-1.679
  0
LINE
  8
0
 10
172.279
 20
-1.679
 11
172.177
 21
-1.57245
  0
LINE
  8
0
 10
172.177
 20
-1.57245
 11
172.081
 21
-1.45969
  0
LINE
  8
0
 10
172.081
 20
-1.45969
 11
171.993
 21
-1.34117
  0
LINE
  8
0
 10
171.993
 20
-1.34117
 11
171.913
 21
-1.21736
  0
LINE
  8
0
 10
171.913
 20
-1.21736
 11
171.84
 21
-1.08875
  0
LINE
  8
0
 10
171.84
 20
-1.08875
 11
171.776
 21
-0.955826
  0
LINE
  8
0
 10
171.776
 20
-0.955826
 11
171.72
 21
-0.819138
  0
LINE
  8
0
 10
171.72
 20
-0.819138
 11
171.673
 21
-0.679214
  0
LINE
  8
0
 10
171.673
 20
-0.679214
 11
171.635
 21
-0.536621
  0
LINE
  8
0
 10
171.635
 20
-0.536621
 11
171.606
 21
-0.391891
  0
LINE
  8
0
 10
171.606
 20
-0.391891
 11
171.586
 21
-0.245636
  0
LINE
  8
0
 10
171.586
 20
-0.245636
 11
171.575
 21
-0.0984039
  0
LINE
  8
0
 10
171.575
 20
-0.0984039
 11
171.574
 21
0.0492096
  0
LINE
  8
0
 10
171.574
 20
0.0492096
 11
171.581
 21
0.19664
  0
LINE
  8
0
 10
171.581
 20
0.19664
 11
171.598
 21
0.343292
  0
LINE
  8
0
 10
171.598
 20
0.343292
 11
171.624
 21
0.488586
  0
LINE
  8
0
 10
171.624
 20
0.488586
 11
171.66
 21
0.631958
  0
LINE
  8
0
 10
171.66
 20
0.631958
 11
171.704
 21
0.772827
  0
LINE
  8
0
 10
171.704
 20
0.772827
 11
171.757
 21
0.91066
  0
LINE
  8
0
 10
171.757
 20
0.91066
 11
171.818
 21
1.04489
  0
LINE
  8
0
 10
171.818
 20
1.04489
 11
171.888
 21
1.17499
  0
LINE
  8
0
 10
171.888
 20
1.17499
 11
171.966
 21
1.30046
  0
LINE
  8
0
 10
171.966
 20
1.30046
 11
172.051
 21
1.42081
  0
LINE
  8
0
 10
172.051
 20
1.42081
 11
172.144
 21
1.53554
  0
LINE
  8
0
 10
172.144
 20
1.53554
 11
172.244
 21
1.6442
  0
LINE
  8
0
 10
172.244
 20
1.6442
 11
172.351
 21
1.74638
  0
LINE
  8
0
 10
172.351
 20
1.74638
 11
172.463
 21
1.84167
  0
LINE
  8
0
 10
172.463
 20
1.84167
 11
172.582
 21
1.92969
  0
LINE
  8
0
 10
172.582
 20
1.92969
 11
172.706
 21
2.0101
  0
LINE
  8
0
 10
172.706
 20
2.0101
 11
172.834
 21
2.08257
  0
LINE
  8
0
 10
172.834
 20
2.08257
 11
172.967
 21
2.14682
  0
LINE
  8
0
 10
172.967
 20
2.14682
 11
173.104
 21
2.20261
  0
LINE
  8
0
 10
173.104
 20
2.20261
 11
173.244
 21
2.24969
  0
LINE
  8
0
 10
173.244
 20
2.24969
 11
173.386
 21
2.2879
  0
LINE
  8
0
 10
173.386
 20
2.2879
 11
173.531
 21
2.31708
  0
LINE
  8
0
 10
173.531
 20
2.31708
 11
173.677
 21
2.33711
  0
LINE
  8
0
 10
173.677
 20
2.33711
 11
173.825
 21
2.34793
  0
LINE
  8
0
 10
173.825
 20
2.34793
 11
173.972
 21
2.34947
  0
LINE
  8
0
 10
173.972
 20
2.34947
 11
174.12
 21
2.34175
  0
LINE
  8
0
 10
174.12
 20
2.34175
 11
174.266
 21
2.32478
  0
LINE
  8
0
 10
174.266
 20
2.32478
 11
174.412
 21
2.29865
  0
LINE
  8
0
 10
174.412
 20
2.29865
 11
174.555
 21
2.26343
  0
LINE
  8
0
 10
174.555
 20
2.26343
 11
174.696
 21
2.21927
  0
LINE
  8
0
 10
174.696
 20
2.21927
 11
174.834
 21
2.16637
  0
LINE
  8
0
 10
174.834
 20
2.16637
 11
174.968
 21
2.10492
  0
LINE
  8
0
 10
174.968
 20
2.10492
 11
175.098
 21
2.03516
  0
LINE
  8
0
 10
175.098
 20
2.03516
 11
175.224
 21
1.95735
  0
LINE
  8
0
 10
175.224
 20
1.95735
 11
175.344
 21
1.87184
  0
LINE
  8
0
 10
175.344
 20
1.87184
 11
175.459
 21
1.77893
  0
LINE
  8
0
 10
175.459
 20
1.77893
 11
175.567
 21
1.679
  0
LINE
  8
0
 10
175.567
 20
1.679
 11
175.669
 21
1.57245
  0
LINE
  8
0
 10
175.669
 20
1.57245
 11
175.765
 21
1.45969
  0
LINE
  8
0
 10
175.765
 20
1.45969
 11
175.853
 21
1.34117
  0
LINE
  8
0
 10
175.853
 20
1.34117
 11
175.933
 21
1.21736
  0
LINE
  8
0
 10
175.933
 20
1.21736
 11
176.006
 21
1.08875
  0
LINE
  8
0
 10
176.006
 20
1.08875
 11
176.07
 21
0.955826
  0
LINE
  8
0
 10
176.07
 20
0.955826
 11
176.126
 21
0.819138
  0
LINE
  8
0
 10
176.126
 20
0.819138
 11
176.173
 21
0.679214
  0
LINE
  8
0
 10
176.173
 20
0.679214
 11
176.211
 21
0.536621
  0
LINE
  8
0
 10
176.211
 20
0.536621
 11
176.24
 21
0.391891
  0
LINE
  8
0
 10
176.24
 20
0.391891
 11
176.26
 21
0.245636
  0
LINE
  8
0
 10
176.26
 20
0.245636
 11
176.271
 21
0.0984039
  0
LINE
  8
0
 10
176.271
 20
0.0984039
 11
176.273
 21
-0.0492096
  0
LINE
  8
0
 10
176.273
 20
-0.0492096
 11
176.265
 21
-0.19664
  0
LINE
  8
0
 10
176.265
 20
-0.19664
 11
176.248
 21
-0.343292
  0
LINE
  8
0
 10
176.248
 20
-0.343292
 11
176.222
 21
-0.488586
  0
LINE
  8
0
 10
176.222
 20
-0.488586
 11
176.186
 21
-0.631958
  0
LINE
  8
0
 10
176.186
 20
-0.631958
 11
176.142
 21
-0.772827
  0
LINE
  8
0
 10
176.142
 20
-0.772827
 11
176.089
 21
-0.91066
  0
LINE
  8
0
 10
176.089
 20
-0.91066
 11
176.028
 21
-1.04489
  0
LINE
  8
0
 10
176.028
 20
-1.04489
 11
175.958
 21
-1.17499
  0
LINE
  8
0
 10
175.958
 20
-1.17499
 11
175.88
 21
-1.30046
  0
LINE
  8
0
 10
175.88
 20
-1.30046
 11
175.795
 21
-1.42081
  0
LINE
  8
0
 10
175.795
 20
-1.42081
 11
175.702
 21
-1.53554
  0
LINE
  8
0
 10
175.702
 20
-1.53554
 11
175.602
 21
-1.6442
  0
LINE
  8
0
 10
175.602
 20
-1.6442
 11
175.495
 21
-1.74638
  0
LINE
  8
0
 10
175.495
 20
-1.74638
 11
175.383
 21
-1.84167
  0
LINE
  8
0
 10
175.383
 20
-1.84167
 11
175.264
 21
-1.92969
  0
LINE
  8
0
 10
175.264
 20
-1.92969
 11
175.14
 21
-2.0101
  0
LINE
  8
0
 10
175.14
 20
-2.0101
 11
175.012
 21
-2.08257
  0
LINE
  8
0
 10
175.012
 20
-2.08257
 11
174.879
 21
-2.14682
  0
LINE
  8
0
 10
174.879
 20
-2.14682
 11
174.742
 21
-2.20261
  0
LINE
  8
0
 10
174.742
 20
-2.20261
 11
174.602
 21
-2.24969
  0
LINE
  8
0
 10
174.602
 20
-2.24969
 11
174.46
 21
-2.2879
  0
LINE
  8
0
 10
174.46
 20
-2.2879
 11
174.315
 21
-2.31708
  0
LINE
  8
0
 10
174.315
 20
-2.31708
 11
174.169
 21
-2.33711
  0
LINE
  8
0
 10
174.169
 20
-2.33711
 11
174.021
 21
-2.34793
  0
LINE
  8
0
 10
174.021
 20
-2.34793
 11
173.874
 21
-2.34947
  0
LINE
  8
0
 10
173.874
 20
-2.34947
 11
173.726
 21
-2.34175
  0
ENDSEC
  0
SECTION
  2
OBJECTS
  0
DICTIONARY
  0
ENDSEC
  0
EOF
