  0
SECTION
  2
BLOCKS
  0
ENDSEC
  0
SECTION
  2
ENTITIES
  0
LINE
  8
0
 10
-53.65
 20
0
 11
-53.5441
 21
-3.36871
  0
LINE
  8
0
 10
-53.5441
 20
-3.36871
 11
-53.227
 21
-6.72413
  0
LINE
  8
0
 10
-53.227
 20
-6.72413
 11
-52.6997
 21
-10.053
  0
LINE
  8
0
 10
-52.6997
 20
-10.053
 11
-51.9645
 21
-13.3422
  0
LINE
  8
0
 10
-51.9645
 20
-13.3422
 11
-51.0242
 21
-16.5788
  0
LINE
  8
0
 10
-51.0242
 20
-16.5788
 11
-49.8825
 21
-19.7499
  0
LINE
  8
0
 10
-49.8825
 20
-19.7499
 11
-48.544
 21
-22.8431
  0
LINE
  8
0
 10
-48.544
 20
-22.8431
 11
-47.0139
 21
-25.8461
  0
LINE
  8
0
 10
-47.0139
 20
-25.8461
 11
-45.2982
 21
-28.7471
  0
LINE
  8
0
 10
-45.2982
 20
-28.7471
 11
-43.4038
 21
-31.5347
  0
LINE
  8
0
 10
-43.4038
 20
-31.5347
 11
-41.338
 21
-34.1978
  0
LINE
  8
0
 10
-41.338
 20
-34.1978
 11
-39.1092
 21
-36.726
  0
LINE
  8
0
 10
-39.1092
 20
-36.726
 11
-36.726
 21
-39.1092
  0
LINE
  8
0
 10
-36.726
 20
-39.1092
 11
-34.1978
 21
-41.338
  0
LINE
  8
0
 10
-34.1978
 20
-41.338
 11
-31.5347
 21
-43.4038
  0
LINE
  8
0
 10
-31.5347
 20
-43.4038
 11
-28.7471
 21
-45.2982
  0
LINE
  8
0
 10
-28.7471
 20
-45.2982
 11
-25.8461
 21
-47.0139
  0
LINE
  8
0
 10
-25.8461
 20
-47.0139
 11
-22.8431
 21
-48.544
  0
LINE
  8
0
 10
-22.8431
 20
-48.544
 11
-19.7499
 21
-49.8825
  0
LINE
  8
0
 10
-19.7499
 20
-49.8825
 11
-16.5788
 21
-51.0242
  0
LINE
  8
0
 10
-16.5788
 20
-51.0242
 11
-13.3422
 21
-51.9645
  0
LINE
  8
0
 10
-13.3422
 20
-51.9645
 11
-10.053
 21
-52.6997
  0
LINE
  8
0
 10
-10.053
 20
-52.6997
 11
-6.72413
 21
-53.227
  0
LINE
  8
0
 10
-6.72413
 20
-53.227
 11
-3.36871
 21
-53.5441
  0
LINE
  8
0
 10
-3.36871
 20
-53.5441
 11
1.22465e-16
 21
-53.65
  0
LINE
  8
0
 10
1.22465e-16
 20
-53.65
 11
3.36871
 21
-53.5441
  0
LINE
  8
0
 10
3.36871
 20
-53.5441
 11
6.72413
 21
-53.227
  0
LINE
  8
0
 10
6.72413
 20
-53.227
 11
10.053
 21
-52.6997
  0
LINE
  8
0
 10
10.053
 20
-52.6997
 11
13.3422
 21
-51.9645
  0
LINE
  8
0
 10
13.3422
 20
-51.9645
 11
16.5788
 21
-51.0242
  0
LINE
  8
0
 10
16.5788
 20
-51.0242
 11
19.7499
 21
-49.8825
  0
LINE
  8
0
 10
19.7499
 20
-49.8825
 11
22.8431
 21
-48.544
  0
LINE
  8
0
 10
22.8431
 20
-48.544
 11
25.8461
 21
-47.0139
  0
LINE
  8
0
 10
25.8461
 20
-47.0139
 11
28.7471
 21
-45.2982
  0
LINE
  8
0
 10
28.7471
 20
-45.2982
 11
31.5347
 21
-43.4038
  0
LINE
  8
0
 10
31.5347
 20
-43.4038
 11
34.1978
 21
-41.338
  0
LINE
  8
0
 10
34.1978
 20
-41.338
 11
36.726
 21
-39.1092
  0
LINE
  8
0
 10
36.726
 20
-39.1092
 11
39.1092
 21
-36.726
  0
LINE
  8
0
 10
39.1092
 20
-36.726
 11
41.338
 21
-34.1978
  0
LINE
  8
0
 10
41.338
 20
-34.1978
 11
43.4038
 21
-31.5347
  0
LINE
  8
0
 10
43.4038
 20
-31.5347
 11
45.2982
 21
-28.7471
  0
LINE
  8
0
 10
45.2982
 20
-28.7471
 11
47.0139
 21
-25.8461
  0
LINE
  8
0
 10
47.0139
 20
-25.8461
 11
48.544
 21
-22.8431
  0
LINE
  8
0
 10
48.544
 20
-22.8431
 11
49.8825
 21
-19.7499
  0
LINE
  8
0
 10
49.8825
 20
-19.7499
 11
51.0242
 21
-16.5788
  0
LINE
  8
0
 10
51.0242
 20
-16.5788
 11
51.9645
 21
-13.3422
  0
LINE
  8
0
 10
51.9645
 20
-13.3422
 11
52.6997
 21
-10.053
  0
LINE
  8
0
 10
52.6997
 20
-10.053
 11
53.227
 21
-6.72413
  0
LINE
  8
0
 10
53.227
 20
-6.72413
 11
53.5441
 21
-3.36871
  0
LINE
  8
0
 10
53.5441
 20
-3.36871
 11
53.65
 21
0
  0
LINE
  8
0
 10
53.65
 20
0
 11
53.5441
 21
3.36871
  0
LINE
  8
0
 10
53.5441
 20
3.36871
 11
53.227
 21
6.72413
  0
LINE
  8
0
 10
53.227
 20
6.72413
 11
52.6997
 21
10.053
  0
LINE
  8
0
 10
52.6997
 20
10.053
 11
51.9645
 21
13.3422
  0
LINE
  8
0
 10
51.9645
 20
13.3422
 11
51.0242
 21
16.5788
  0
LINE
  8
0
 10
51.0242
 20
16.5788
 11
49.8825
 21
19.7499
  0
LINE
  8
0
 10
49.8825
 20
19.7499
 11
48.544
 21
22.8431
  0
LINE
  8
0
 10
48.544
 20
22.8431
 11
47.0139
 21
25.8461
  0
LINE
  8
0
 10
47.0139
 20
25.8461
 11
45.2982
 21
28.7471
  0
LINE
  8
0
 10
45.2982
 20
28.7471
 11
43.4038
 21
31.5347
  0
LINE
  8
0
 10
43.4038
 20
31.5347
 11
41.338
 21
34.1978
  0
LINE
  8
0
 10
41.338
 20
34.1978
 11
39.1092
 21
36.726
  0
LINE
  8
0
 10
39.1092
 20
36.726
 11
36.726
 21
39.1092
  0
LINE
  8
0
 10
36.726
 20
39.1092
 11
34.1978
 21
41.338
  0
LINE
  8
0
 10
34.1978
 20
41.338
 11
31.5347
 21
43.4038
  0
LINE
  8
0
 10
31.5347
 20
43.4038
 11
28.7471
 21
45.2982
  0
LINE
  8
0
 10
28.7471
 20
45.2982
 11
25.8461
 21
47.0139
  0
LINE
  8
0
 10
25.8461
 20
47.0139
 11
22.8431
 21
48.544
  0
LINE
  8
0
 10
22.8431
 20
48.544
 11
19.7499
 21
49.8825
  0
LINE
  8
0
 10
19.7499
 20
49.8825
 11
16.5788
 21
51.0242
  0
LINE
  8
0
 10
16.5788
 20
51.0242
 11
13.3422
 21
51.9645
  0
LINE
  8
0
 10
13.3422
 20
51.9645
 11
10.053
 21
52.6997
  0
LINE
  8
0
 10
10.053
 20
52.6997
 11
6.72413
 21
53.227
  0
LINE
  8
0
 10
6.72413
 20
53.227
 11
3.36871
 21
53.5441
  0
LINE
  8
0
 10
3.36871
 20
53.5441
 11
1.22465e-16
 21
53.65
  0
LINE
  8
0
 10
1.22465e-16
 20
53.65
 11
-3.36871
 21
53.5441
  0
LINE
  8
0
 10
-3.36871
 20
53.5441
 11
-6.72413
 21
53.227
  0
LINE
  8
0
 10
-6.72413
 20
53.227
 11
-10.053
 21
52.6997
  0
LINE
  8
0
 10
-10.053
 20
52.6997
 11
-13.3422
 21
51.9645
  0
LINE
  8
0
 10
-13.3422
 20
51.9645
 11
-16.5788
 21
51.0242
  0
LINE
  8
0
 10
-16.5788
 20
51.0242
 11
-19.7499
 21
49.8825
  0
LINE
  8
0
 10
-19.7499
 20
49.8825
 11
-22.8431
 21
48.544
  0
LINE
  8
0
 10
-22.8431
 20
48.544
 11
-25.8461
 21
47.0139
  0
LINE
  8
0
 10
-25.8461
 20
47.0139
 11
-28.7471
 21
45.2982
  0
LINE
  8
0
 10
-28.7471
 20
45.2982
 11
-31.5347
 21
43.4038
  0
LINE
  8
0
 10
-31.5347
 20
43.4038
 11
-34.1978
 21
41.338
  0
LINE
  8
0
 10
-34.1978
 20
41.338
 11
-36.726
 21
39.1092
  0
LINE
  8
0
 10
-36.726
 20
39.1092
 11
-39.1092
 21
36.726
  0
LINE
  8
0
 10
-39.1092
 20
36.726
 11
-41.338
 21
34.1978
  0
LINE
  8
0
 10
-41.338
 20
34.1978
 11
-43.4038
 21
31.5347
  0
LINE
  8
0
 10
-43.4038
 20
31.5347
 11
-45.2982
 21
28.7471
  0
LINE
  8
0
 10
-45.2982
 20
28.7471
 11
-47.0139
 21
25.8461
  0
LINE
  8
0
 10
-47.0139
 20
25.8461
 11
-48.544
 21
22.8431
  0
LINE
  8
0
 10
-48.544
 20
22.8431
 11
-49.8825
 21
19.7499
  0
LINE
  8
0
 10
-49.8825
 20
19.7499
 11
-51.0242
 21
16.5788
  0
LINE
  8
0
 10
-51.0242
 20
16.5788
 11
-51.9645
 21
13.3422
  0
LINE
  8
0
 10
-51.9645
 20
13.3422
 11
-52.6997
 21
10.053
  0
LINE
  8
0
 10
-52.6997
 20
10.053
 11
-53.227
 21
6.72413
  0
LINE
  8
0
 10
-53.227
 20
6.72413
 11
-53.5441
 21
3.36871
  0
LINE
  8
0
 10
-53.5441
 20
3.36871
 11
-53.65
 21
0
  0
LINE
  8
0
 10
-2.35
 20
0
 11
-2.34536
 21
0.147557
  0
LINE
  8
0
 10
-2.34536
 20
0.147557
 11
-2.33147
 21
0.294533
  0
LINE
  8
0
 10
-2.33147
 20
0.294533
 11
-2.30837
 21
0.440346
  0
LINE
  8
0
 10
-2.30837
 20
0.440346
 11
-2.27617
 21
0.584421
  0
LINE
  8
0
 10
-2.27617
 20
0.584421
 11
-2.23498
 21
0.72619
  0
LINE
  8
0
 10
-2.23498
 20
0.72619
 11
-2.18497
 21
0.865092
  0
LINE
  8
0
 10
-2.18497
 20
0.865092
 11
-2.12634
 21
1.00058
  0
LINE
  8
0
 10
-2.12634
 20
1.00058
 11
-2.05932
 21
1.13212
  0
LINE
  8
0
 10
-2.05932
 20
1.13212
 11
-1.98417
 21
1.25919
  0
LINE
  8
0
 10
-1.98417
 20
1.25919
 11
-1.90119
 21
1.3813
  0
LINE
  8
0
 10
-1.90119
 20
1.3813
 11
-1.81071
 21
1.49795
  0
LINE
  8
0
 10
-1.81071
 20
1.49795
 11
-1.71308
 21
1.60869
  0
LINE
  8
0
 10
-1.71308
 20
1.60869
 11
-1.60869
 21
1.71308
  0
LINE
  8
0
 10
-1.60869
 20
1.71308
 11
-1.49795
 21
1.81071
  0
LINE
  8
0
 10
-1.49795
 20
1.81071
 11
-1.3813
 21
1.90119
  0
LINE
  8
0
 10
-1.3813
 20
1.90119
 11
-1.25919
 21
1.98417
  0
LINE
  8
0
 10
-1.25919
 20
1.98417
 11
-1.13212
 21
2.05932
  0
LINE
  8
0
 10
-1.13212
 20
2.05932
 11
-1.00058
 21
2.12634
  0
LINE
  8
0
 10
-1.00058
 20
2.12634
 11
-0.865092
 21
2.18497
  0
LINE
  8
0
 10
-0.865092
 20
2.18497
 11
-0.72619
 21
2.23498
  0
LINE
  8
0
 10
-0.72619
 20
2.23498
 11
-0.584421
 21
2.27617
  0
LINE
  8
0
 10
-0.584421
 20
2.27617
 11
-0.440346
 21
2.30837
  0
LINE
  8
0
 10
-0.440346
 20
2.30837
 11
-0.294533
 21
2.33147
  0
LINE
  8
0
 10
-0.294533
 20
2.33147
 11
-0.147557
 21
2.34536
  0
LINE
  8
0
 10
-0.147557
 20
2.34536
 11
1.22465e-16
 21
2.35
  0
LINE
  8
0
 10
1.22465e-16
 20
2.35
 11
0.147557
 21
2.34536
  0
LINE
  8
0
 10
0.147557
 20
2.34536
 11
0.294533
 21
2.33147
  0
LINE
  8
0
 10
0.294533
 20
2.33147
 11
0.440346
 21
2.30837
  0
LINE
  8
0
 10
0.440346
 20
2.30837
 11
0.584421
 21
2.27617
  0
LINE
  8
0
 10
0.584421
 20
2.27617
 11
0.72619
 21
2.23498
  0
LINE
  8
0
 10
0.72619
 20
2.23498
 11
0.865092
 21
2.18497
  0
LINE
  8
0
 10
0.865092
 20
2.18497
 11
1.00058
 21
2.12634
  0
LINE
  8
0
 10
1.00058
 20
2.12634
 11
1.13212
 21
2.05932
  0
LINE
  8
0
 10
1.13212
 20
2.05932
 11
1.25919
 21
1.98417
  0
LINE
  8
0
 10
1.25919
 20
1.98417
 11
1.3813
 21
1.90119
  0
LINE
  8
0
 10
1.3813
 20
1.90119
 11
1.49795
 21
1.81071
  0
LINE
  8
0
 10
1.49795
 20
1.81071
 11
1.60869
 21
1.71308
  0
LINE
  8
0
 10
1.60869
 20
1.71308
 11
1.71308
 21
1.60869
  0
LINE
  8
0
 10
1.71308
 20
1.60869
 11
1.81071
 21
1.49795
  0
LINE
  8
0
 10
1.81071
 20
1.49795
 11
1.90119
 21
1.3813
  0
LINE
  8
0
 10
1.90119
 20
1.3813
 11
1.98417
 21
1.25919
  0
LINE
  8
0
 10
1.98417
 20
1.25919
 11
2.05932
 21
1.13212
  0
LINE
  8
0
 10
2.05932
 20
1.13212
 11
2.12634
 21
1.00058
  0
LINE
  8
0
 10
2.12634
 20
1.00058
 11
2.18497
 21
0.865092
  0
LINE
  8
0
 10
2.18497
 20
0.865092
 11
2.23498
 21
0.72619
  0
LINE
  8
0
 10
2.23498
 20
0.72619
 11
2.27617
 21
0.584421
  0
LINE
  8
0
 10
2.27617
 20
0.584421
 11
2.30837
 21
0.440346
  0
LINE
  8
0
 10
2.30837
 20
0.440346
 11
2.33147
 21
0.294533
  0
LINE
  8
0
 10
2.33147
 20
0.294533
 11
2.34536
 21
0.147557
  0
LINE
  8
0
 10
2.34536
 20
0.147557
 11
2.35
 21
0
  0
LINE
  8
0
 10
2.35
 20
0
 11
2.34536
 21
-0.147557
  0
LINE
  8
0
 10
2.34536
 20
-0.147557
 11
2.33147
 21
-0.294533
  0
LINE
  8
0
 10
2.33147
 20
-0.294533
 11
2.30837
 21
-0.440346
  0
LINE
  8
0
 10
2.30837
 20
-0.440346
 11
2.27617
 21
-0.584421
  0
LINE
  8
0
 10
2.27617
 20
-0.584421
 11
2.23498
 21
-0.72619
  0
LINE
  8
0
 10
2.23498
 20
-0.72619
 11
2.18497
 21
-0.865092
  0
LINE
  8
0
 10
2.18497
 20
-0.865092
 11
2.12634
 21
-1.00058
  0
LINE
  8
0
 10
2.12634
 20
-1.00058
 11
2.05932
 21
-1.13212
  0
LINE
  8
0
 10
2.05932
 20
-1.13212
 11
1.98417
 21
-1.25919
  0
LINE
  8
0
 10
1.98417
 20
-1.25919
 11
1.90119
 21
-1.3813
  0
LINE
  8
0
 10
1.90119
 20
-1.3813
 11
1.81071
 21
-1.49795
  0
LINE
  8
0
 10
1.81071
 20
-1.49795
 11
1.71308
 21
-1.60869
  0
LINE
  8
0
 10
1.71308
 20
-1.60869
 11
1.60869
 21
-1.71308
  0
LINE
  8
0
 10
1.60869
 20
-1.71308
 11
1.49795
 21
-1.81071
  0
LINE
  8
0
 10
1.49795
 20
-1.81071
 11
1.3813
 21
-1.90119
  0
LINE
  8
0
 10
1.3813
 20
-1.90119
 11
1.25919
 21
-1.98417
  0
LINE
  8
0
 10
1.25919
 20
-1.98417
 11
1.13212
 21
-2.05932
  0
LINE
  8
0
 10
1.13212
 20
-2.05932
 11
1.00058
 21
-2.12634
  0
LINE
  8
0
 10
1.00058
 20
-2.12634
 11
0.865092
 21
-2.18497
  0
LINE
  8
0
 10
0.865092
 20
-2.18497
 11
0.72619
 21
-2.23498
  0
LINE
  8
0
 10
0.72619
 20
-2.23498
 11
0.584421
 21
-2.27617
  0
LINE
  8
0
 10
0.584421
 20
-2.27617
 11
0.440346
 21
-2.30837
  0
LINE
  8
0
 10
0.440346
 20
-2.30837
 11
0.294533
 21
-2.33147
  0
LINE
  8
0
 10
0.294533
 20
-2.33147
 11
0.147557
 21
-2.34536
  0
LINE
  8
0
 10
0.147557
 20
-2.34536
 11
1.22465e-16
 21
-2.35
  0
LINE
  8
0
 10
1.22465e-16
 20
-2.35
 11
-0.147557
 21
-2.34536
  0
LINE
  8
0
 10
-0.147557
 20
-2.34536
 11
-0.294533
 21
-2.33147
  0
LINE
  8
0
 10
-0.294533
 20
-2.33147
 11
-0.440346
 21
-2.30837
  0
LINE
  8
0
 10
-0.440346
 20
-2.30837
 11
-0.584421
 21
-2.27617
  0
LINE
  8
0
 10
-0.584421
 20
-2.27617
 11
-0.72619
 21
-2.23498
  0
LINE
  8
0
 10
-0.72619
 20
-2.23498
 11
-0.865092
 21
-2.18497
  0
LINE
  8
0
 10
-0.865092
 20
-2.18497
 11
-1.00058
 21
-2.12634
  0
LINE
  8
0
 10
-1.00058
 20
-2.12634
 11
-1.13212
 21
-2.05932
  0
LINE
  8
0
 10
-1.13212
 20
-2.05932
 11
-1.25919
 21
-1.98417
  0
LINE
  8
0
 10
-1.25919
 20
-1.98417
 11
-1.3813
 21
-1.90119
  0
LINE
  8
0
 10
-1.3813
 20
-1.90119
 11
-1.49795
 21
-1.81071
  0
LINE
  8
0
 10
-1.49795
 20
-1.81071
 11
-1.60869
 21
-1.71308
  0
LINE
  8
0
 10
-1.60869
 20
-1.71308
 11
-1.71308
 21
-1.60869
  0
LINE
  8
0
 10
-1.71308
 20
-1.60869
 11
-1.81071
 21
-1.49795
  0
LINE
  8
0
 10
-1.81071
 20
-1.49795
 11
-1.90119
 21
-1.3813
  0
LINE
  8
0
 10
-1.90119
 20
-1.3813
 11
-1.98417
 21
-1.25919
  0
LINE
  8
0
 10
-1.98417
 20
-1.25919
 11
-2.05932
 21
-1.13212
  0
LINE
  8
0
 10
-2.05932
 20
-1.13212
 11
-2.12634
 21
-1.00058
  0
LINE
  8
0
 10
-2.12634
 20
-1.00058
 11
-2.18497
 21
-0.865092
  0
LINE
  8
0
 10
-2.18497
 20
-0.865092
 11
-2.23498
 21
-0.72619
  0
LINE
  8
0
 10
-2.23498
 20
-0.72619
 11
-2.27617
 21
-0.584421
  0
LINE
  8
0
 10
-2.27617
 20
-0.584421
 11
-2.30837
 21
-0.440346
  0
LINE
  8
0
 10
-2.30837
 20
-0.440346
 11
-2.33147
 21
-0.294533
  0
LINE
  8
0
 10
-2.33147
 20
-0.294533
 11
-2.34536
 21
-0.147557
  0
LINE
  8
0
 10
-2.34536
 20
-0.147557
 11
-2.35
 21
0
  0
LINE
  8
0
 10
121.285
 20
1.10262
 11
121.296
 21
0.0551987
  0
LINE
  8
0
 10
121.296
 20
0.0551987
 11
122.648
 21
-0.0157001
  0
LINE
  8
0
 10
122.648
 20
-0.0157001
 11
129.156
 21
-0.768606
  0
LINE
  8
0
 10
129.156
 20
-0.768606
 11
135.603
 21
-1.92862
  0
LINE
  8
0
 10
135.603
 20
-1.92862
 11
141.964
 21
-3.49115
  0
LINE
  8
0
 10
141.964
 20
-3.49115
 11
148.215
 21
-5.45005
  0
LINE
  8
0
 10
148.215
 20
-5.45005
 11
154.33
 21
-7.79757
  0
LINE
  8
0
 10
154.33
 20
-7.79757
 11
160.287
 21
-10.5245
  0
LINE
  8
0
 10
160.287
 20
-10.5245
 11
166.06
 21
-13.6199
  0
LINE
  8
0
 10
166.06
 20
-13.6199
 11
171.627
 21
-17.0718
  0
LINE
  8
0
 10
171.627
 20
-17.0718
 11
176.966
 21
-20.8664
  0
LINE
  8
0
 10
176.966
 20
-20.8664
 11
182.057
 21
-24.9889
  0
LINE
  8
0
 10
182.057
 20
-24.9889
 11
186.879
 21
-29.4228
  0
LINE
  8
0
 10
186.879
 20
-29.4228
 11
191.413
 21
-34.1508
  0
LINE
  8
0
 10
191.413
 20
-34.1508
 11
195.641
 21
-39.1541
  0
LINE
  8
0
 10
195.641
 20
-39.1541
 11
199.547
 21
-44.413
  0
LINE
  8
0
 10
199.547
 20
-44.413
 11
200.285
 21
-45.5491
  0
LINE
  8
0
 10
200.285
 20
-45.5491
 11
201.197
 21
-45.0349
  0
LINE
  8
0
 10
201.197
 20
-45.0349
 11
203.971
 21
-43.2335
  0
LINE
  8
0
 10
203.971
 20
-43.2335
 11
206.626
 21
-41.2615
  0
LINE
  8
0
 10
206.626
 20
-41.2615
 11
209.153
 21
-39.1266
  0
LINE
  8
0
 10
209.153
 20
-39.1266
 11
211.54
 21
-36.8373
  0
LINE
  8
0
 10
211.54
 20
-36.8373
 11
213.779
 21
-34.4026
  0
LINE
  8
0
 10
213.779
 20
-34.4026
 11
215.86
 21
-31.8321
  0
LINE
  8
0
 10
215.86
 20
-31.8321
 11
217.776
 21
-29.1361
  0
LINE
  8
0
 10
217.776
 20
-29.1361
 11
219.519
 21
-26.325
  0
LINE
  8
0
 10
219.519
 20
-26.325
 11
221.082
 21
-23.41
  0
LINE
  8
0
 10
221.082
 20
-23.41
 11
222.459
 21
-20.4027
  0
LINE
  8
0
 10
222.459
 20
-20.4027
 11
223.644
 21
-17.3148
  0
LINE
  8
0
 10
223.644
 20
-17.3148
 11
224.634
 21
-14.1586
  0
LINE
  8
0
 10
224.634
 20
-14.1586
 11
225.423
 21
-10.9466
  0
LINE
  8
0
 10
225.423
 20
-10.9466
 11
226.008
 21
-7.69127
  0
LINE
  8
0
 10
226.008
 20
-7.69127
 11
226.388
 21
-4.40564
  0
LINE
  8
0
 10
226.388
 20
-4.40564
 11
226.562
 21
-1.10262
  0
LINE
  8
0
 10
226.562
 20
-1.10262
 11
226.527
 21
2.20475
  0
LINE
  8
0
 10
226.527
 20
2.20475
 11
226.285
 21
5.50342
  0
LINE
  8
0
 10
226.285
 20
5.50342
 11
225.836
 21
8.78037
  0
LINE
  8
0
 10
225.836
 20
8.78037
 11
225.182
 21
12.0227
  0
LINE
  8
0
 10
225.182
 20
12.0227
 11
224.326
 21
15.2175
  0
LINE
  8
0
 10
224.326
 20
15.2175
 11
223.271
 21
18.3523
  0
LINE
  8
0
 10
223.271
 20
18.3523
 11
222.021
 21
21.4147
  0
LINE
  8
0
 10
222.021
 20
21.4147
 11
220.582
 21
24.3925
  0
LINE
  8
0
 10
220.582
 20
24.3925
 11
218.958
 21
27.2741
  0
LINE
  8
0
 10
218.958
 20
27.2741
 11
217.157
 21
30.0481
  0
LINE
  8
0
 10
217.157
 20
30.0481
 11
215.185
 21
32.7034
  0
LINE
  8
0
 10
215.185
 20
32.7034
 11
213.05
 21
35.2297
  0
LINE
  8
0
 10
213.05
 20
35.2297
 11
210.76
 21
37.617
  0
LINE
  8
0
 10
210.76
 20
37.617
 11
208.326
 21
39.8558
  0
LINE
  8
0
 10
208.326
 20
39.8558
 11
205.755
 21
41.9373
  0
LINE
  8
0
 10
205.755
 20
41.9373
 11
203.059
 21
43.8533
  0
LINE
  8
0
 10
203.059
 20
43.8533
 11
200.248
 21
45.5962
  0
LINE
  8
0
 10
200.248
 20
45.5962
 11
197.333
 21
47.1592
  0
LINE
  8
0
 10
197.333
 20
47.1592
 11
194.326
 21
48.5361
  0
LINE
  8
0
 10
194.326
 20
48.5361
 11
191.238
 21
49.7214
  0
LINE
  8
0
 10
191.238
 20
49.7214
 11
188.082
 21
50.7105
  0
LINE
  8
0
 10
188.082
 20
50.7105
 11
184.87
 21
51.4995
  0
LINE
  8
0
 10
184.87
 20
51.4995
 11
181.614
 21
52.0852
  0
LINE
  8
0
 10
181.614
 20
52.0852
 11
178.329
 21
52.4653
  0
LINE
  8
0
 10
178.329
 20
52.4653
 11
175.026
 21
52.6385
  0
LINE
  8
0
 10
175.026
 20
52.6385
 11
171.718
 21
52.6038
  0
LINE
  8
0
 10
171.718
 20
52.6038
 11
168.42
 21
52.3616
  0
LINE
  8
0
 10
168.42
 20
52.3616
 11
165.143
 21
51.9127
  0
LINE
  8
0
 10
165.143
 20
51.9127
 11
161.9
 21
51.2589
  0
LINE
  8
0
 10
161.9
 20
51.2589
 11
158.706
 21
50.4029
  0
LINE
  8
0
 10
158.706
 20
50.4029
 11
155.571
 21
49.3479
  0
LINE
  8
0
 10
155.571
 20
49.3479
 11
152.508
 21
48.0982
  0
LINE
  8
0
 10
152.508
 20
48.0982
 11
149.531
 21
46.6586
  0
LINE
  8
0
 10
149.531
 20
46.6586
 11
146.649
 21
45.0349
  0
LINE
  8
0
 10
146.649
 20
45.0349
 11
143.875
 21
43.2335
  0
LINE
  8
0
 10
143.875
 20
43.2335
 11
141.22
 21
41.2615
  0
LINE
  8
0
 10
141.22
 20
41.2615
 11
138.693
 21
39.1266
  0
LINE
  8
0
 10
138.693
 20
39.1266
 11
136.306
 21
36.8373
  0
LINE
  8
0
 10
136.306
 20
36.8373
 11
134.067
 21
34.4026
  0
LINE
  8
0
 10
134.067
 20
34.4026
 11
131.986
 21
31.8321
  0
LINE
  8
0
 10
131.986
 20
31.8321
 11
130.07
 21
29.1361
  0
LINE
  8
0
 10
130.07
 20
29.1361
 11
128.327
 21
26.325
  0
LINE
  8
0
 10
128.327
 20
26.325
 11
126.764
 21
23.41
  0
LINE
  8
0
 10
126.764
 20
23.41
 11
125.387
 21
20.4027
  0
LINE
  8
0
 10
125.387
 20
20.4027
 11
124.202
 21
17.3148
  0
LINE
  8
0
 10
124.202
 20
17.3148
 11
123.213
 21
14.1586
  0
LINE
  8
0
 10
123.213
 20
14.1586
 11
122.424
 21
10.9466
  0
LINE
  8
0
 10
122.424
 20
10.9466
 11
121.838
 21
7.69127
  0
LINE
  8
0
 10
121.838
 20
7.69127
 11
121.458
 21
4.40564
  0
LINE
  8
0
 10
121.458
 20
4.40564
 11
121.285
 21
1.10262
  0
LINE
  8
0
 10
171.574
 20
0.0492146
 11
171.581
 21
0.196643
  0
LINE
  8
0
 10
171.581
 20
0.196643
 11
171.598
 21
0.343295
  0
LINE
  8
0
 10
171.598
 20
0.343295
 11
171.624
 21
0.488593
  0
LINE
  8
0
 10
171.624
 20
0.488593
 11
171.66
 21
0.631961
  0
LINE
  8
0
 10
171.66
 20
0.631961
 11
171.704
 21
0.772837
  0
LINE
  8
0
 10
171.704
 20
0.772837
 11
171.757
 21
0.910662
  0
LINE
  8
0
 10
171.757
 20
0.910662
 11
171.818
 21
1.04489
  0
LINE
  8
0
 10
171.818
 20
1.04489
 11
171.888
 21
1.175
  0
LINE
  8
0
 10
171.888
 20
1.175
 11
171.966
 21
1.30047
  0
LINE
  8
0
 10
171.966
 20
1.30047
 11
172.051
 21
1.42081
  0
LINE
  8
0
 10
172.051
 20
1.42081
 11
172.144
 21
1.53554
  0
LINE
  8
0
 10
172.144
 20
1.53554
 11
172.244
 21
1.64421
  0
LINE
  8
0
 10
172.244
 20
1.64421
 11
172.351
 21
1.74639
  0
LINE
  8
0
 10
172.351
 20
1.74639
 11
172.463
 21
1.84168
  0
LINE
  8
0
 10
172.463
 20
1.84168
 11
172.582
 21
1.9297
  0
LINE
  8
0
 10
172.582
 20
1.9297
 11
172.706
 21
2.01011
  0
LINE
  8
0
 10
172.706
 20
2.01011
 11
172.834
 21
2.08258
  0
LINE
  8
0
 10
172.834
 20
2.08258
 11
172.967
 21
2.14683
  0
LINE
  8
0
 10
172.967
 20
2.14683
 11
173.104
 21
2.20261
  0
LINE
  8
0
 10
173.104
 20
2.20261
 11
173.244
 21
2.2497
  0
LINE
  8
0
 10
173.244
 20
2.2497
 11
173.386
 21
2.28791
  0
LINE
  8
0
 10
173.386
 20
2.28791
 11
173.531
 21
2.31709
  0
LINE
  8
0
 10
173.531
 20
2.31709
 11
173.677
 21
2.33713
  0
LINE
  8
0
 10
173.677
 20
2.33713
 11
173.825
 21
2.34794
  0
LINE
  8
0
 10
173.825
 20
2.34794
 11
173.972
 21
2.34948
  0
LINE
  8
0
 10
173.972
 20
2.34948
 11
174.12
 21
2.34176
  0
LINE
  8
0
 10
174.12
 20
2.34176
 11
174.266
 21
2.32479
  0
LINE
  8
0
 10
174.266
 20
2.32479
 11
174.412
 21
2.29865
  0
LINE
  8
0
 10
174.412
 20
2.29865
 11
174.555
 21
2.26343
  0
LINE
  8
0
 10
174.555
 20
2.26343
 11
174.696
 21
2.21928
  0
LINE
  8
0
 10
174.696
 20
2.21928
 11
174.834
 21
2.16638
  0
LINE
  8
0
 10
174.834
 20
2.16638
 11
174.968
 21
2.10492
  0
LINE
  8
0
 10
174.968
 20
2.10492
 11
175.098
 21
2.03516
  0
LINE
  8
0
 10
175.098
 20
2.03516
 11
175.224
 21
1.95737
  0
LINE
  8
0
 10
175.224
 20
1.95737
 11
175.344
 21
1.87185
  0
LINE
  8
0
 10
175.344
 20
1.87185
 11
175.459
 21
1.77894
  0
LINE
  8
0
 10
175.459
 20
1.77894
 11
175.567
 21
1.67901
  0
LINE
  8
0
 10
175.567
 20
1.67901
 11
175.669
 21
1.57246
  0
LINE
  8
0
 10
175.669
 20
1.57246
 11
175.765
 21
1.4597
  0
LINE
  8
0
 10
175.765
 20
1.4597
 11
175.853
 21
1.34118
  0
LINE
  8
0
 10
175.853
 20
1.34118
 11
175.933
 21
1.21736
  0
LINE
  8
0
 10
175.933
 20
1.21736
 11
176.006
 21
1.08875
  0
LINE
  8
0
 10
176.006
 20
1.08875
 11
176.07
 21
0.955831
  0
LINE
  8
0
 10
176.07
 20
0.955831
 11
176.126
 21
0.819144
  0
LINE
  8
0
 10
176.126
 20
0.819144
 11
176.173
 21
0.679224
  0
LINE
  8
0
 10
176.173
 20
0.679224
 11
176.211
 21
0.536625
  0
LINE
  8
0
 10
176.211
 20
0.536625
 11
176.24
 21
0.391907
  0
LINE
  8
0
 10
176.24
 20
0.391907
 11
176.26
 21
0.245642
  0
LINE
  8
0
 10
176.26
 20
0.245642
 11
176.271
 21
0.0984077
  0
LINE
  8
0
 10
176.271
 20
0.0984077
 11
176.273
 21
-0.0492146
  0
LINE
  8
0
 10
176.273
 20
-0.0492146
 11
176.265
 21
-0.196643
  0
LINE
  8
0
 10
176.265
 20
-0.196643
 11
176.248
 21
-0.343295
  0
LINE
  8
0
 10
176.248
 20
-0.343295
 11
176.222
 21
-0.488593
  0
LINE
  8
0
 10
176.222
 20
-0.488593
 11
176.186
 21
-0.631961
  0
LINE
  8
0
 10
176.186
 20
-0.631961
 11
176.142
 21
-0.772837
  0
LINE
  8
0
 10
176.142
 20
-0.772837
 11
176.089
 21
-0.910662
  0
LINE
  8
0
 10
176.089
 20
-0.910662
 11
176.028
 21
-1.04489
  0
LINE
  8
0
 10
176.028
 20
-1.04489
 11
175.958
 21
-1.175
  0
LINE
  8
0
 10
175.958
 20
-1.175
 11
175.88
 21
-1.30047
  0
LINE
  8
0
 10
175.88
 20
-1.30047
 11
175.795
 21
-1.42081
  0
LINE
  8
0
 10
175.795
 20
-1.42081
 11
175.702
 21
-1.53554
  0
LINE
  8
0
 10
175.702
 20
-1.53554
 11
175.602
 21
-1.64421
  0
LINE
  8
0
 10
175.602
 20
-1.64421
 11
175.496
 21
-1.74639
  0
LINE
  8
0
 10
175.496
 20
-1.74639
 11
175.383
 21
-1.84168
  0
LINE
  8
0
 10
175.383
 20
-1.84168
 11
175.264
 21
-1.9297
  0
LINE
  8
0
 10
175.264
 20
-1.9297
 11
175.14
 21
-2.01011
  0
LINE
  8
0
 10
175.14
 20
-2.01011
 11
175.012
 21
-2.08258
  0
LINE
  8
0
 10
175.012
 20
-2.08258
 11
174.879
 21
-2.14683
  0
LINE
  8
0
 10
174.879
 20
-2.14683
 11
174.742
 21
-2.20261
  0
LINE
  8
0
 10
174.742
 20
-2.20261
 11
174.602
 21
-2.2497
  0
LINE
  8
0
 10
174.602
 20
-2.2497
 11
174.46
 21
-2.28791
  0
LINE
  8
0
 10
174.46
 20
-2.28791
 11
174.315
 21
-2.31709
  0
LINE
  8
0
 10
174.315
 20
-2.31709
 11
174.169
 21
-2.33713
  0
LINE
  8
0
 10
174.169
 20
-2.33713
 11
174.021
 21
-2.34794
  0
LINE
  8
0
 10
174.021
 20
-2.34794
 11
173.874
 21
-2.34948
  0
LINE
  8
0
 10
173.874
 20
-2.34948
 11
173.726
 21
-2.34176
  0
LINE
  8
0
 10
173.726
 20
-2.34176
 11
173.58
 21
-2.32479
  0
LINE
  8
0
 10
173.58
 20
-2.32479
 11
173.434
 21
-2.29865
  0
LINE
  8
0
 10
173.434
 20
-2.29865
 11
173.291
 21
-2.26343
  0
LINE
  8
0
 10
173.291
 20
-2.26343
 11
173.15
 21
-2.21928
  0
LINE
  8
0
 10
173.15
 20
-2.21928
 11
173.012
 21
-2.16638
  0
LINE
  8
0
 10
173.012
 20
-2.16638
 11
172.878
 21
-2.10492
  0
LINE
  8
0
 10
172.878
 20
-2.10492
 11
172.748
 21
-2.03516
  0
LINE
  8
0
 10
172.748
 20
-2.03516
 11
172.623
 21
-1.95737
  0
LINE
  8
0
 10
172.623
 20
-1.95737
 11
172.502
 21
-1.87185
  0
LINE
  8
0
 10
172.502
 20
-1.87185
 11
172.388
 21
-1.77894
  0
LINE
  8
0
 10
172.388
 20
-1.77894
 11
172.279
 21
-1.67901
  0
LINE
  8
0
 10
172.279
 20
-1.67901
 11
172.177
 21
-1.57246
  0
LINE
  8
0
 10
172.177
 20
-1.57246
 11
172.081
 21
-1.4597
  0
LINE
  8
0
 10
172.081
 20
-1.4597
 11
171.993
 21
-1.34118
  0
LINE
  8
0
 10
171.993
 20
-1.34118
 11
171.913
 21
-1.21736
  0
LINE
  8
0
 10
171.913
 20
-1.21736
 11
171.84
 21
-1.08875
  0
LINE
  8
0
 10
171.84
 20
-1.08875
 11
171.776
 21
-0.955831
  0
LINE
  8
0
 10
171.776
 20
-0.955831
 11
171.72
 21
-0.819144
  0
LINE
  8
0
 10
171.72
 20
-0.819144
 11
171.673
 21
-0.679224
  0
LINE
  8
0
 10
171.673
 20
-0.679224
 11
171.635
 21
-0.536625
  0
LINE
  8
0
 10
171.635
 20
-0.536625
 11
171.606
 21
-0.391907
  0
LINE
  8
0
 10
171.606
 20
-0.391907
 11
171.586
 21
-0.245642
  0
LINE
  8
0
 10
171.586
 20
-0.245642
 11
171.575
 21
-0.0984077
  0
LINE
  8
0
 10
171.575
 20
-0.0984077
 11
171.574
 21
0.0492146
  0
LINE
  8
0
 10
139.274
 20
-51.8641
 11
139.277
 21
-52.1562
  0
LINE
  8
0
 10
139.277
 20
-52.1562
 11
139.299
 21
-52.4476
  0
LINE
  8
0
 10
139.299
 20
-52.4476
 11
139.338
 21
-52.737
  0
LINE
  8
0
 10
139.338
 20
-52.737
 11
139.396
 21
-53.0234
  0
LINE
  8
0
 10
139.396
 20
-53.0234
 11
139.472
 21
-53.3055
  0
LINE
  8
0
 10
139.472
 20
-53.3055
 11
139.565
 21
-53.5824
  0
LINE
  8
0
 10
139.565
 20
-53.5824
 11
139.675
 21
-53.8528
  0
LINE
  8
0
 10
139.675
 20
-53.8528
 11
139.802
 21
-54.1159
  0
LINE
  8
0
 10
139.802
 20
-54.1159
 11
139.946
 21
-54.3703
  0
LINE
  8
0
 10
139.946
 20
-54.3703
 11
140.105
 21
-54.6153
  0
LINE
  8
0
 10
140.105
 20
-54.6153
 11
140.279
 21
-54.8499
  0
LINE
  8
0
 10
140.279
 20
-54.8499
 11
140.467
 21
-55.073
  0
LINE
  8
0
 10
140.467
 20
-55.073
 11
140.67
 21
-55.2838
  0
LINE
  8
0
 10
140.67
 20
-55.2838
 11
140.885
 21
-55.4816
  0
LINE
  8
0
 10
140.885
 20
-55.4816
 11
141.112
 21
-55.6654
  0
LINE
  8
0
 10
141.112
 20
-55.6654
 11
141.35
 21
-55.8346
  0
LINE
  8
0
 10
141.35
 20
-55.8346
 11
141.598
 21
-55.9885
  0
LINE
  8
0
 10
141.598
 20
-55.9885
 11
141.855
 21
-56.1266
  0
LINE
  8
0
 10
141.855
 20
-56.1266
 11
142.121
 21
-56.2482
  0
LINE
  8
0
 10
142.121
 20
-56.2482
 11
142.394
 21
-56.3529
  0
LINE
  8
0
 10
142.394
 20
-56.3529
 11
142.673
 21
-56.4402
  0
LINE
  8
0
 10
142.673
 20
-56.4402
 11
142.956
 21
-56.5099
  0
LINE
  8
0
 10
142.956
 20
-56.5099
 11
143.244
 21
-56.5616
  0
LINE
  8
0
 10
143.244
 20
-56.5616
 11
143.534
 21
-56.5952
  0
LINE
  8
0
 10
143.534
 20
-56.5952
 11
143.826
 21
-56.6105
  0
LINE
  8
0
 10
143.826
 20
-56.6105
 11
144.118
 21
-56.6074
  0
LINE
  8
0
 10
144.118
 20
-56.6074
 11
144.409
 21
-56.5861
  0
LINE
  8
0
 10
144.409
 20
-56.5861
 11
144.699
 21
-56.5464
  0
LINE
  8
0
 10
144.699
 20
-56.5464
 11
144.985
 21
-56.4887
  0
LINE
  8
0
 10
144.985
 20
-56.4887
 11
145.267
 21
-56.4131
  0
LINE
  8
0
 10
145.267
 20
-56.4131
 11
145.544
 21
-56.3199
  0
LINE
  8
0
 10
145.544
 20
-56.3199
 11
145.814
 21
-56.2095
  0
LINE
  8
0
 10
145.814
 20
-56.2095
 11
146.077
 21
-56.0824
  0
LINE
  8
0
 10
146.077
 20
-56.0824
 11
146.332
 21
-55.939
  0
LINE
  8
0
 10
146.332
 20
-55.939
 11
146.577
 21
-55.7799
  0
LINE
  8
0
 10
146.577
 20
-55.7799
 11
146.811
 21
-55.6057
  0
LINE
  8
0
 10
146.811
 20
-55.6057
 11
147.035
 21
-55.4171
  0
LINE
  8
0
 10
147.035
 20
-55.4171
 11
147.245
 21
-55.215
  0
LINE
  8
0
 10
147.245
 20
-55.215
 11
147.443
 21
-54.9999
  0
LINE
  8
0
 10
147.443
 20
-54.9999
 11
147.627
 21
-54.7729
  0
LINE
  8
0
 10
147.627
 20
-54.7729
 11
147.796
 21
-54.5348
  0
LINE
  8
0
 10
147.796
 20
-54.5348
 11
147.95
 21
-54.2865
  0
LINE
  8
0
 10
147.95
 20
-54.2865
 11
148.088
 21
-54.0291
  0
LINE
  8
0
 10
148.088
 20
-54.0291
 11
148.21
 21
-53.7635
  0
LINE
  8
0
 10
148.21
 20
-53.7635
 11
148.314
 21
-53.4908
  0
LINE
  8
0
 10
148.314
 20
-53.4908
 11
148.402
 21
-53.212
  0
LINE
  8
0
 10
148.402
 20
-53.212
 11
148.471
 21
-52.9283
  0
LINE
  8
0
 10
148.471
 20
-52.9283
 11
148.523
 21
-52.6408
  0
LINE
  8
0
 10
148.523
 20
-52.6408
 11
148.557
 21
-52.3506
  0
LINE
  8
0
 10
148.557
 20
-52.3506
 11
148.572
 21
-52.0589
  0
LINE
  8
0
 10
148.572
 20
-52.0589
 11
148.569
 21
-51.7668
  0
LINE
  8
0
 10
148.569
 20
-51.7668
 11
148.548
 21
-51.4755
  0
LINE
  8
0
 10
148.548
 20
-51.4755
 11
148.508
 21
-51.186
  0
LINE
  8
0
 10
148.508
 20
-51.186
 11
148.45
 21
-50.8997
  0
LINE
  8
0
 10
148.45
 20
-50.8997
 11
148.375
 21
-50.6175
  0
LINE
  8
0
 10
148.375
 20
-50.6175
 11
148.281
 21
-50.3407
  0
LINE
  8
0
 10
148.281
 20
-50.3407
 11
148.171
 21
-50.0702
  0
LINE
  8
0
 10
148.171
 20
-50.0702
 11
148.044
 21
-49.8072
  0
LINE
  8
0
 10
148.044
 20
-49.8072
 11
147.9
 21
-49.5527
  0
LINE
  8
0
 10
147.9
 20
-49.5527
 11
147.741
 21
-49.3077
  0
LINE
  8
0
 10
147.741
 20
-49.3077
 11
147.567
 21
-49.0732
  0
LINE
  8
0
 10
147.567
 20
-49.0732
 11
147.379
 21
-48.8501
  0
LINE
  8
0
 10
147.379
 20
-48.8501
 11
147.176
 21
-48.6392
  0
LINE
  8
0
 10
147.176
 20
-48.6392
 11
146.961
 21
-48.4415
  0
LINE
  8
0
 10
146.961
 20
-48.4415
 11
146.734
 21
-48.2577
  0
LINE
  8
0
 10
146.734
 20
-48.2577
 11
146.496
 21
-48.0884
  0
LINE
  8
0
 10
146.496
 20
-48.0884
 11
146.248
 21
-47.9345
  0
LINE
  8
0
 10
146.248
 20
-47.9345
 11
145.991
 21
-47.7965
  0
LINE
  8
0
 10
145.991
 20
-47.7965
 11
145.725
 21
-47.6749
  0
LINE
  8
0
 10
145.725
 20
-47.6749
 11
145.452
 21
-47.5702
  0
LINE
  8
0
 10
145.452
 20
-47.5702
 11
145.174
 21
-47.4828
  0
LINE
  8
0
 10
145.174
 20
-47.4828
 11
144.89
 21
-47.4131
  0
LINE
  8
0
 10
144.89
 20
-47.4131
 11
144.602
 21
-47.3614
  0
LINE
  8
0
 10
144.602
 20
-47.3614
 11
144.312
 21
-47.3278
  0
LINE
  8
0
 10
144.312
 20
-47.3278
 11
144.02
 21
-47.3125
  0
LINE
  8
0
 10
144.02
 20
-47.3125
 11
143.728
 21
-47.3156
  0
LINE
  8
0
 10
143.728
 20
-47.3156
 11
143.437
 21
-47.337
  0
LINE
  8
0
 10
143.437
 20
-47.337
 11
143.148
 21
-47.3766
  0
LINE
  8
0
 10
143.148
 20
-47.3766
 11
142.861
 21
-47.4344
  0
LINE
  8
0
 10
142.861
 20
-47.4344
 11
142.579
 21
-47.51
  0
LINE
  8
0
 10
142.579
 20
-47.51
 11
142.302
 21
-47.6032
  0
LINE
  8
0
 10
142.302
 20
-47.6032
 11
142.032
 21
-47.7135
  0
LINE
  8
0
 10
142.032
 20
-47.7135
 11
141.769
 21
-47.8407
  0
LINE
  8
0
 10
141.769
 20
-47.8407
 11
141.514
 21
-47.9841
  0
LINE
  8
0
 10
141.514
 20
-47.9841
 11
141.269
 21
-48.1432
  0
LINE
  8
0
 10
141.269
 20
-48.1432
 11
141.035
 21
-48.3173
  0
LINE
  8
0
 10
141.035
 20
-48.3173
 11
140.812
 21
-48.5059
  0
LINE
  8
0
 10
140.812
 20
-48.5059
 11
140.601
 21
-48.7081
  0
LINE
  8
0
 10
140.601
 20
-48.7081
 11
140.403
 21
-48.9231
  0
LINE
  8
0
 10
140.403
 20
-48.9231
 11
140.219
 21
-49.1501
  0
LINE
  8
0
 10
140.219
 20
-49.1501
 11
140.05
 21
-49.3883
  0
LINE
  8
0
 10
140.05
 20
-49.3883
 11
139.896
 21
-49.6365
  0
LINE
  8
0
 10
139.896
 20
-49.6365
 11
139.758
 21
-49.894
  0
LINE
  8
0
 10
139.758
 20
-49.894
 11
139.636
 21
-50.1596
  0
LINE
  8
0
 10
139.636
 20
-50.1596
 11
139.532
 21
-50.4323
  0
LINE
  8
0
 10
139.532
 20
-50.4323
 11
139.444
 21
-50.711
  0
LINE
  8
0
 10
139.444
 20
-50.711
 11
139.375
 21
-50.9947
  0
LINE
  8
0
 10
139.375
 20
-50.9947
 11
139.323
 21
-51.2822
  0
LINE
  8
0
 10
139.323
 20
-51.2822
 11
139.289
 21
-51.5724
  0
LINE
  8
0
 10
139.289
 20
-51.5724
 11
139.274
 21
-51.8641
  0
ENDSEC
  0
SECTION
  2
OBJECTS
  0
DICTIONARY
  0
ENDSEC
  0
EOF
