<?xml version="1.0" encoding="UTF-8" standalone="no"?>
<!-- Generator: Iparigrafika Gear Generator by Abel Vincze http://geargenerator.com/ -->

<svg
   xmlns:dc="http://purl.org/dc/elements/1.1/"
   xmlns:cc="http://creativecommons.org/ns#"
   xmlns:rdf="http://www.w3.org/1999/02/22-rdf-syntax-ns#"
   xmlns:svg="http://www.w3.org/2000/svg"
   xmlns="http://www.w3.org/2000/svg"
   xmlns:sodipodi="http://sodipodi.sourceforge.net/DTD/sodipodi-0.dtd"
   xmlns:inkscape="http://www.inkscape.org/namespaces/inkscape"
   version="1.2"
   class="svggear"
   x="0px"
   y="0px"
   width="476px"
   height="476px"
   viewBox="-238 -238 476 476"
   overflow="scroll"
   xml:space="preserve"
   id="svg2"
   inkscape:version="0.91 r13725"
   sodipodi:docname="gg_gear.svg"
   inkscape:export-filename="/home/leebc/maker/NERF-repo/sights/steam_gear_sight/gg_gear.svg.png"
   inkscape:export-xdpi="90"
   inkscape:export-ydpi="90"><metadata
     id="metadata105"><rdf:RDF><cc:Work
         rdf:about=""><dc:format>image/svg+xml</dc:format><dc:type
           rdf:resource="http://purl.org/dc/dcmitype/StillImage" /><dc:title></dc:title></cc:Work></rdf:RDF></metadata><defs
     id="defs103" /><sodipodi:namedview
     pagecolor="#ffffff"
     bordercolor="#666666"
     borderopacity="1"
     objecttolerance="10"
     gridtolerance="10"
     guidetolerance="10"
     inkscape:pageopacity="0"
     inkscape:pageshadow="2"
     inkscape:window-width="1366"
     inkscape:window-height="721"
     id="namedview101"
     showgrid="false"
     inkscape:object-paths="true"
     inkscape:snap-intersection-paths="true"
     inkscape:object-nodes="true"
     inkscape:snap-smooth-nodes="true"
     inkscape:snap-midpoints="true"
     inkscape:snap-object-midpoints="true"
     inkscape:zoom="0.86"
     inkscape:cx="111.78414"
     inkscape:cy="232.91665"
     inkscape:window-x="0"
     inkscape:window-y="0"
     inkscape:window-maximized="1"
     inkscape:current-layer="svg2" /><path
     style="fill:none;stroke:#444444;stroke-width:1;stroke-miterlimit:10"
     d="m 199.8287,-0.0036 0.1976,-0.0097 0.2814,-0.0196 0.3647,-0.0328 0.4477,-0.0495 0.53,-0.0696 0.6118,-0.0932 0.6926,-0.1201 0.7727,-0.1503 0.8517,-0.184 0.9297,-0.2208 1.0064,-0.261 1.0819,-0.3044 1.156,-0.3509 1.2286,-0.4008 1.2996,-0.4536 1.3689,-0.5096 1.4365,-0.5685 1.5021,-0.6305 1.5658,-0.6954 1.6274,-0.7631 1.6868,-0.8336 1.7441,-0.9069 1.799,-0.983 1.8515,-1.0615 1.9014,-1.1427 1.9488,-1.2263 1.9936,-1.3123 2.0356,-1.4007 2.0747,-1.4914 1.0184,-1.5022 -1.5213,-14.3946 -1.3098,-1.2562 -2.3407,-1.0248 -2.2834,-0.9442 -2.2238,-0.8667 -2.1622,-0.7918 -2.0982,-0.72 -2.0325,-0.651 -1.9647,-0.5852 -1.8951,-0.5224 -1.8239,-0.4626 -1.751,-0.406 -1.6765,-0.3528 -1.6007,-0.3025 -1.5236,-0.2558 -1.4452,-0.2121 -1.3657,-0.172 -1.2852,-0.135 -1.2038,-0.1016 -1.1216,-0.0715 -1.0388,-0.0449 -0.9553,-0.0216 -0.8714,-0.0018 -0.787,0.0145 -0.7024,0.0273 -0.6177,0.0368 -0.5329,0.0427 -0.4482,0.0451 -0.3635,0.0442 -0.2792,0.0397 -0.1953,0.0318 -0.1118,0.0205 -15.6125,3.3369 -8.349,-27.969 14.8869,-5.7675 0.1047,-0.0442 0.1808,-0.0804 0.2553,-0.1198 0.3282,-0.1624 0.3996,-0.2079 0.4691,-0.2564 0.5367,-0.3079 0.6025,-0.3621 0.6662,-0.4194 0.7278,-0.4791 0.7871,-0.5418 0.8442,-0.6069 0.8989,-0.6747 0.9512,-0.7449 1.0008,-0.8175 1.048,-0.8924 1.0924,-0.9697 1.1341,-1.049 1.1729,-1.1306 1.2088,-1.214 1.2418,-1.2994 1.2719,-1.3868 1.2987,-1.4757 1.3224,-1.5664 1.343,-1.6587 1.3602,-1.7524 1.3743,-1.8475 1.3848,-1.9438 1.3922,-2.0415 1.3959,-2.1401 0.4068,-1.7687 -6.6184,-12.873 -1.6752,-0.6982 -2.5528,-0.11 -2.4703,-0.0557 -2.3867,-0.005 -2.3022,0.0426 -2.2167,0.0867 -2.1304,0.1271 -2.0434,0.1641 -1.9558,0.1975 -1.8679,0.2275 -1.7794,0.2538 -1.6907,0.2768 -1.6019,0.2961 -1.5131,0.3119 -1.4242,0.3242 -1.3356,0.333 -1.2472,0.3384 -1.1593,0.3401 -1.0717,0.3385 -0.9848,0.3334 -0.8986,0.325 -0.8132,0.313 -0.7286,0.2979 -0.6452,0.2792 -0.5627,0.2574 -0.4815,0.2323 -0.4015,0.204 -0.3231,0.1725 -0.246,0.1379 -0.1706,0.1002 -0.0968,0.0596 -13.3528,8.7514 -17.8888,-23.0643 11.7981,-10.7558 0.0817,-0.079 0.1395,-0.1403 0.1948,-0.204 0.2475,-0.27 0.2974,-0.3382 0.3448,-0.4085 0.3893,-0.481 0.431,-0.5554 0.4697,-0.6316 0.5055,-0.7097 0.5383,-0.7896 0.568,-0.8709 0.5944,-0.9538 0.6179,-1.0382 0.6379,-1.1238 0.6549,-1.2108 0.6683,-1.2988 0.6785,-1.3878 0.6853,-1.4779 0.6887,-1.5688 0.6886,-1.6603 0.6849,-1.7525 0.6779,-1.8452 0.6673,-1.9384 0.6531,-2.0318 0.6354,-2.1254 0.614,-2.2192 0.5892,-2.3129 0.5606,-2.4065 0.5286,-2.4998 -0.2595,-1.7963 -10.8218,-9.6128 -1.8143,-0.0459 -2.4201,0.8196 -2.3236,0.8404 -2.2273,0.8578 -2.1313,0.8714 -2.0357,0.8816 -1.9406,0.8881 -1.8462,0.8911 -1.7524,0.8908 -1.6595,0.8868 -1.5676,0.8796 -1.4766,0.8688 -1.3868,0.8548 -1.2982,0.8374 -1.2109,0.8168 -1.1251,0.793 -1.0408,0.766 -0.9581,0.736 -0.877,0.7028 -0.7979,0.6666 -0.7205,0.6277 -0.6452,0.5856 -0.5719,0.541 -0.5007,0.4934 -0.4317,0.4433 -0.365,0.3906 -0.3008,0.3352 -0.2389,0.2776 -0.1796,0.2174 -0.1229,0.1551 -0.0687,0.0905 -9.2898,12.984 -25.0126,-15.0446 7.116,-14.2915 0.0477,-0.1031 0.0794,-0.1813 0.1079,-0.2605 0.1332,-0.3411 0.1552,-0.4229 0.1739,-0.5055 0.1893,-0.5891 0.2012,-0.6736 0.2099,-0.7587 0.215,-0.8444 0.2167,-0.9306 0.215,-1.0173 0.2098,-1.1041 0.201,-1.1913 0.189,-1.2784 0.1732,-1.3656 0.154,-1.4525 0.1313,-1.5393 0.1052,-1.6256 0.0755,-1.7116 0.0422,-1.7969 0.0057,-1.8816 -0.0345,-1.9655 -0.0779,-2.0485 -0.125,-2.1306 -0.1753,-2.2114 -0.2291,-2.2911 -0.2862,-2.3696 -0.3465,-2.4465 -0.4102,-2.522 -0.8909,-1.5812 -13.5636,-5.0544 -1.7083,0.6126 -1.9606,1.6385 -1.8631,1.6231 -1.7671,1.6044 -1.6725,1.5825 -1.5798,1.5574 -1.4888,1.5292 -1.3995,1.4979 -1.3123,1.4636 -1.2271,1.4264 -1.144,1.3864 -1.063,1.3436 -0.9844,1.298 -0.908,1.2499 -0.8341,1.1991 -0.7627,1.1459 -0.6937,1.0902 -0.6276,1.0324 -0.5639,0.9721 -0.5032,0.9099 -0.4452,0.8455 -0.39,0.7792 -0.3378,0.711 -0.2886,0.641 -0.2425,0.5693 -0.1993,0.4961 -0.1593,0.4213 -0.1226,0.3451 -0.0889,0.2676 -0.0585,0.189 -0.0315,0.1092 -3.972,15.4631 -28.7583,-4.9931 1.4727,-15.897 0.0072,-0.1134 0.0086,-0.1977 0.0065,-0.2819 10e-4,-0.3662 -0.008,-0.4504 -0.0204,-0.5342 -0.0364,-0.6177 -0.0556,-0.7008 -0.0784,-0.7832 -0.1046,-0.8651 -0.1341,-0.9461 -0.167,-1.0262 -0.2033,-1.1054 -0.2428,-1.1834 -0.2856,-1.2604 -0.3318,-1.3359 -0.3811,-1.4101 -0.4336,-1.4827 -0.4892,-1.5539 -0.5479,-1.6233 -0.6097,-1.6908 -0.6744,-1.7566 -0.7422,-1.8203 -0.8127,-1.882 -0.8862,-1.9416 -0.9623,-1.9987 -1.0413,-2.0537 -1.1228,-2.1062 -1.2069,-2.1561 -1.2936,-2.2035 -1.4019,-1.1526 -14.4735,0.1866 -1.3717,1.1884 -1.2363,2.2361 -1.151,2.1865 -1.0681,2.1344 -0.988,2.0799 -0.9105,2.0229 -0.8358,1.9637 -0.7639,1.9023 -0.695,1.8389 -0.629,1.7734 -0.5658,1.706 -0.5059,1.6368 -0.449,1.566 -0.3952,1.4934 -0.3446,1.4195 -0.2973,1.344 -0.253,1.2673 -0.2123,1.1893 -0.1747,1.1103 -0.1405,1.0302 -0.1096,0.9492 -0.0823,0.8674 -0.0581,0.7851 -0.0376,0.7019 -0.0204,0.6185 -0.0067,0.5345 0.0036,0.4504 0.0105,0.3661 0.0137,0.2817 0.0137,0.1974 0.0101,0.1132 1.8821,15.8537 -28.62,5.7328 -4.3694,-15.3555 -0.0342,-0.1084 -0.0634,-0.1874 -0.0958,-0.2653 -0.1314,-0.3418 -0.1701,-0.417 -0.2121,-0.4908 -0.257,-0.5629 -0.305,-0.6333 -0.3561,-0.702 -0.41,-0.7689 -0.4668,-0.8338 -0.5264,-0.8966 -0.5889,-0.9573 -0.6539,-1.0158 -0.7217,-1.072 -0.7919,-1.1259 -0.8648,-1.1772 -0.9399,-1.226 -1.0175,-1.2722 -1.0973,-1.3157 -1.1793,-1.3565 -1.2635,-1.3943 -1.3496,-1.4293 -1.4377,-1.4613 -1.5277,-1.4903 -1.6194,-1.5162 -1.7128,-1.5388 -1.8078,-1.5584 -1.9043,-1.5745 -2.0022,-1.5874 -1.7236,-0.5683 -13.4288,5.4024 -0.8498,1.6036 -0.3451,2.5318 -0.2833,2.4546 -0.225,2.3761 -0.1699,2.2963 -0.1183,2.2152 -0.07,2.1331 -0.0251,2.0498 0.0162,1.9657 0.0542,1.8809 0.0886,1.7952 0.1195,1.7091 0.1471,1.6224 0.1709,1.5354 0.1915,1.448 0.2083,1.3607 0.2218,1.2731 0.2318,1.1857 0.2381,1.0984 0.2412,1.0113 0.2406,0.9248 0.2367,0.8386 0.2293,0.753 0.2186,0.6681 0.2044,0.5841 0.1869,0.5009 0.166,0.4186 0.142,0.3376 0.1146,0.2577 0.084,0.1791 0.0504,0.1019 7.482,14.1033 -24.6164,15.6844 -9.6214,-12.7402 -0.0711,-0.0886 -0.1268,-0.1519 -0.1852,-0.2128 -0.246,-0.2713 -0.3093,-0.3274 -0.375,-0.381 -0.443,-0.432 -0.5132,-0.4804 -0.5856,-0.526 -0.6601,-0.5688 -0.7365,-0.6089 -0.8147,-0.6458 -0.8949,-0.68 -0.9768,-0.711 -1.0602,-0.7389 -1.1451,-0.7638 -1.2316,-0.7853 -1.3194,-0.8037 -1.4084,-0.8187 -1.4985,-0.8305 -1.5896,-0.8388 -1.6819,-0.8438 -1.7748,-0.8452 -1.8685,-0.8433 -1.9629,-0.8378 -2.0577,-0.8288 -2.1531,-0.8162 -2.2486,-0.8 -2.3445,-0.7803 -2.4405,-0.7569 -1.8125,0.0926 -10.5703,9.8887 -0.2132,1.8023 0.5928,2.4854 0.6225,2.3913 0.6486,2.2969 0.6711,2.2026 0.6899,2.1083 0.7053,2.0143 0.717,1.9205 0.7253,1.8272 0.7299,1.7342 0.7312,1.642 0.7288,1.5505 0.7232,1.4597 0.7141,1.37 0.7016,1.2811 0.6858,1.1935 0.6667,1.107 0.6444,1.0219 0.6189,0.9382 0.5902,0.856 0.5585,0.7753 0.5236,0.6965 0.4859,0.6193 0.4451,0.5441 0.4016,0.4708 0.3552,0.3995 0.3061,0.3304 0.2543,0.2635 0.2,0.1989 0.143,0.1367 0.0838,0.0768 12.0715,10.4482 -17.2883,23.5177 -13.574,-8.4042 -0.0983,-0.0571 -0.1731,-0.0957 -0.2495,-0.1316 -0.3274,-0.1641 -0.4067,-0.1935 -0.4873,-0.2199 -0.5692,-0.2428 -0.6521,-0.2625 -0.7361,-0.2789 -0.8209,-0.292 -0.9067,-0.3017 -0.9931,-0.3079 -1.0801,-0.3108 -1.1676,-0.3101 -1.2555,-0.3061 -1.3438,-0.2985 -1.4321,-0.2874 -1.5206,-0.2728 -1.609,-0.2547 -1.6973,-0.233 -1.7854,-0.208 -1.873,-0.1792 -1.9603,-0.147 -2.047,-0.1114 -2.133,-0.0721 -2.2182,-0.0295 -2.3025,0.0167 -2.3858,0.0663 -2.468,0.1193 -2.5491,0.1758 -1.6567,0.7411 -6.2843,13.0394 0.4523,1.7576 1.4506,2.1034 1.4443,2.0049 1.4345,1.9076 1.4214,1.8114 1.405,1.7167 1.3853,1.6235 1.3624,1.5318 1.3363,1.4418 1.3071,1.3535 1.275,1.267 1.2397,1.1824 1.2017,1.1 1.1607,1.0194 1.117,0.9412 1.0707,0.8652 1.0216,0.7914 0.97,0.7201 0.916,0.6512 0.8596,0.585 0.8008,0.5213 0.7399,0.4603 0.6768,0.4019 0.6116,0.3466 0.5445,0.2939 0.4755,0.2442 0.4048,0.1976 0.3324,0.1538 0.2583,0.1132 0.1828,0.0758 0.1058,0.0414 15.0306,5.3818 -7.6252,28.1749 -15.6933,-2.9332 -0.1123,-0.0176 -0.196,-0.0268 -0.2802,-0.0325 -0.3645,-0.0348 -0.4492,-0.0336 -0.5338,-0.0289 -0.6185,-0.0208 -0.7029,-0.0093 -0.7871,0.0058 -0.871,0.0243 -0.9545,0.0463 -1.0372,0.0716 -1.1194,0.1004 -1.2009,0.1326 -1.2813,0.1681 -1.3608,0.2071 -1.4392,0.2494 -1.5165,0.2949 -1.5923,0.3437 -1.6669,0.3958 -1.7399,0.4511 -1.8114,0.5095 -1.881,0.571 -1.949,0.6356 -2.015,0.7033 -2.079,0.7738 -2.141,0.8473 -2.2008,0.9237 -2.2583,1.0029 -2.3134,1.0847 -1.277,1.2895 -1.1497,14.4291 1.0567,1.4755 2.1125,1.4373 2.071,1.3478 2.0268,1.2605 1.9798,1.1757 1.9303,1.0932 1.8782,1.0135 1.8237,0.9362 1.7669,0.8617 1.7078,0.7899 1.6465,0.7208 1.5832,0.6548 1.5179,0.5916 1.4506,0.5313 1.3816,0.4741 1.3108,0.42 1.2385,0.3689 1.1647,0.3211 1.0894,0.2763 1.0129,0.235 0.935,0.1968 0.8562,0.1619 0.7763,0.1304 0.6955,0.1021 0.6139,0.0774 0.5317,0.056 0.4488,0.0379 0.3655,0.0234 0.2817,0.0123 0.1978,0.0046 0.1137,4e-4 15.9598,-0.4113 3.0676,29.0269 -15.6932,2.9339 -0.1111,0.0241 -0.1924,0.0458 -0.273,0.0709 -0.3525,0.0993 -0.431,0.131 -0.5082,0.1658 -0.5842,0.204 -0.6588,0.2453 -0.7319,0.2898 -0.8034,0.3373 -0.8733,0.3879 -0.9413,0.4414 -1.0076,0.498 -1.0718,0.5575 -1.134,0.6196 -1.1941,0.6847 -1.252,0.7525 -1.3075,0.8228 -1.3607,0.8957 -1.4113,0.9713 -1.4595,1.0491 -1.505,1.1294 -1.5477,1.212 -1.5878,1.2967 -1.6249,1.3837 -1.6591,1.4726 -1.6903,1.5635 -1.7185,1.6563 -1.7435,1.7509 -1.7654,1.8472 -0.7249,1.6638 4.1403,13.87 1.5184,0.9941 2.4891,0.5772 2.418,0.5086 2.3452,0.4433 2.2708,0.3811 2.1949,0.3221 2.1175,0.2665 2.0388,0.2142 1.9588,0.1652 1.8778,0.1196 1.7958,0.0774 1.7128,0.0387 1.629,0.0033 1.5446,-0.0286 1.4596,-0.057 1.374,-0.0819 1.2882,-0.1034 1.202,-0.1214 1.1157,-0.1358 1.0293,-0.1468 0.943,-0.1543 0.8569,-0.1583 0.7709,-0.1588 0.6855,-0.156 0.6004,-0.1496 0.516,-0.1399 0.4322,-0.1267 0.3492,-0.1102 0.2672,-0.0904 0.1861,-0.0671 0.1061,-0.0408 14.7335,-6.1488 13.3462,25.9586 -13.5736,8.4048 -0.0949,0.0627 -0.1629,0.1122 -0.2289,0.1647 -0.2928,0.2199 -0.3546,0.2778 -0.414,0.3383 -0.471,0.4012 -0.5257,0.4668 -0.5778,0.5345 -0.6273,0.6048 -0.6742,0.6771 -0.7183,0.7518 -0.7597,0.8283 -0.798,0.907 -0.8336,0.9875 -0.8662,1.0698 -0.8956,1.1539 -0.922,1.2395 -0.9452,1.3268 -0.9652,1.4155 -0.9819,1.5055 -0.9954,1.5968 -1.0054,1.6893 -1.0121,1.7827 -1.0153,1.8772 -1.0151,1.9725 -1.0114,2.0686 -1.0041,2.1652 -0.9933,2.2625 -0.9788,2.3602 -0.075,1.8134 8.8712,11.4376 1.7749,0.3785 2.5295,-0.3609 2.4385,-0.3992 2.347,-0.4339 2.2551,-0.465 2.163,-0.4924 2.0708,-0.5164 1.9785,-0.5368 1.8862,-0.5536 1.7943,-0.5668 1.7024,-0.5765 1.6111,-0.5827 1.5203,-0.5854 1.4299,-0.5846 1.3404,-0.5804 1.2517,-0.5728 1.1638,-0.5617 1.077,-0.5474 0.9913,-0.5297 0.9068,-0.5087 0.8236,-0.4845 0.7418,-0.4572 0.6615,-0.4266 0.5828,-0.393 0.5058,-0.3565 0.4307,-0.3168 0.3572,-0.2743 0.2859,-0.2289 0.2164,-0.1808 0.1493,-0.1298 0.0842,-0.0763 11.5174,-11.056 21.8223,19.3845 -9.6209,12.7406 -0.0658,0.0926 -0.1113,0.1636 -0.154,0.2363 -0.1936,0.3108 -0.2303,0.3871 -0.2638,0.465 -0.2943,0.5443 -0.3216,0.6251 -0.3457,0.7072 -0.3665,0.7905 -0.384,0.875 -0.3983,0.9604 -0.4091,1.0469 -0.4165,1.134 -0.4206,1.2219 -0.4212,1.3105 -0.4183,1.3995 -0.412,1.4889 -0.402,1.5787 -0.3887,1.6685 -0.3718,1.7586 -0.3513,1.8485 -0.3273,1.9384 -0.2997,2.028 -0.2687,2.1172 -0.234,2.206 -0.1958,2.2942 -0.1541,2.3818 -0.1089,2.4685 -0.0602,2.5544 0.5851,1.718 12.4039,7.4607 1.7919,-0.2883 2.2283,-1.2503 2.1296,-1.2531 2.0317,-1.2525 1.9349,-1.2482 1.8391,-1.2406 1.7443,-1.2295 1.651,-1.2153 1.5589,-1.1975 1.4683,-1.1767 1.3793,-1.1526 1.2918,-1.1254 1.2061,-1.095 1.1222,-1.0617 1.0402,-1.0254 0.9603,-0.9863 0.8823,-0.9442 0.8065,-0.8995 0.733,-0.852 0.6618,-0.8019 0.5929,-0.7493 0.5266,-0.6943 0.4627,-0.6368 0.4015,-0.577 0.3429,-0.5151 0.2871,-0.451 0.234,-0.3848 0.1839,-0.3167 0.1366,-0.2468 0.0922,-0.175 0.051,-0.1016 6.7458,-14.4699 27.3511,10.1924 -4.3687,15.3557 -0.0279,0.1102 -0.0448,0.1927 -0.0582,0.2759 -0.0682,0.3598 -0.0749,0.4442 -0.0781,0.5289 -0.0778,0.6138 -0.074,0.6991 -0.0669,0.7843 -0.0562,0.8696 -0.042,0.9546 -0.0244,1.0394 -0.0033,1.1239 0.0212,1.208 0.0492,1.2913 0.0807,1.3741 0.1155,1.4561 0.1537,1.5372 0.1954,1.6173 0.2403,1.6963 0.2886,1.7741 0.3402,1.8506 0.395,1.9258 0.4531,1.9993 0.5143,2.0712 0.5787,2.1416 0.6462,2.21 0.7167,2.2767 0.7902,2.3411 0.8666,2.4037 1.1662,1.3906 14.2614,2.4761 1.5667,-0.9161 1.6262,-1.9709 1.5331,-1.9378 1.4421,-1.9018 1.3533,-1.8629 1.2668,-1.8211 1.1824,-1.7767 1.1005,-1.7296 1.021,-1.6798 0.9441,-1.6277 0.8697,-1.573 0.7981,-1.516 0.7291,-1.4568 0.6629,-1.3954 0.5995,-1.3319 0.5391,-1.2665 0.4817,-1.1992 0.4271,-1.1301 0.3758,-1.0593 0.3274,-0.9868 0.2822,-0.9129 0.2402,-0.8376 0.2014,-0.761 0.166,-0.6831 0.1336,-0.6041 0.1048,-0.5243 0.0792,-0.4434 0.0571,-0.3617 0.0382,-0.2795 0.0228,-0.1965 0.0108,-0.1131 1.0631,-15.9297 29.1861,-0.3762 1.4734,15.8969 0.0138,0.1128 0.0279,0.1959 0.0454,0.2784 0.0663,0.3601 0.0906,0.4412 0.1183,0.5214 0.1492,0.6005 0.1835,0.6786 0.221,0.7555 0.2617,0.8311 0.3057,0.9054 0.3527,0.978 0.4029,1.0493 0.4562,1.1186 0.5123,1.1864 0.5716,1.2522 0.6337,1.3161 0.6987,1.3778 0.7664,1.4375 0.8369,1.495 0.91,1.55 0.9857,1.6028 1.064,1.6529 1.1447,1.7007 1.2278,1.7456 1.3133,1.7879 1.4009,1.8274 1.4906,1.8639 1.5826,1.8977 1.6764,1.9283 1.5899,0.8753 14.1928,-2.8429 1.13,-1.4202 0.8043,-2.4252 0.7296,-2.3607 0.6578,-2.2944 0.5889,-2.2259 0.5233,-2.1558 0.4608,-2.0839 0.4014,-2.0103 0.3452,-1.9352 0.2924,-1.8588 0.2428,-1.781 0.1965,-1.7019 0.1536,-1.6218 0.114,-1.5406 0.0779,-1.4586 0.0452,-1.3758 0.016,-1.2922 -0.01,-1.208 -0.0323,-1.1235 -0.0512,-1.0385 -0.0666,-0.9532 -0.0786,-0.8678 -0.087,-0.7823 -0.0921,-0.6969 -0.0935,-0.6117 -0.0917,-0.5267 -0.0863,-0.4421 -0.0775,-0.3579 -0.0653,-0.2743 -0.0498,-0.1915 -0.0307,-0.1095 -4.7631,-15.238 27.0792,-10.894 7.1166,14.2912 0.0536,0.1002 0.0967,0.1726 0.1429,0.2431 0.192,0.3119 0.2439,0.3787 0.2986,0.4434 0.356,0.5061 0.4163,0.5665 0.479,0.6246 0.5443,0.6805 0.612,0.7338 0.6823,0.7846 0.7547,0.8328 0.8294,0.8783 0.9064,0.9212 0.9853,0.9612 1.0664,0.9982 1.1492,1.0325 1.2339,1.0635 1.3204,1.0917 1.4085,1.1167 1.4981,1.1384 1.5893,1.157 1.6818,1.1723 1.7755,1.1842 1.8704,1.1927 1.9664,1.1979 2.0634,1.1997 2.1612,1.1978 2.2598,1.1924 1.7987,0.242 12.2074,-7.778 0.5406,-1.7325 -0.126,-2.552 -0.1725,-2.4649 -0.2155,-2.377 -0.2549,-2.2884 -0.2908,-2.1992 -0.3231,-2.1096 -0.3519,-2.0196 -0.3772,-1.9293 -0.3988,-1.8388 -0.417,-1.7484 -0.4316,-1.658 -0.4426,-1.5678 -0.4502,-1.4778 -0.4543,-1.3882 -0.4548,-1.2992 -0.4519,-1.2107 -0.4457,-1.1229 -0.4359,-1.0359 -0.4229,-0.9499 -0.4065,-0.8648 -0.3867,-0.7808 -0.3638,-0.698 -0.3376,-0.6166 -0.3083,-0.5366 -0.2757,-0.458 -0.2402,-0.381 -0.2015,-0.3058 -0.16,-0.2322 -0.1156,-0.1606 -0.0682,-0.091 -9.9461,-12.4883 21.3153,-19.9406 11.7986,10.7553 0.0861,0.0741 0.1526,0.126 0.2211,0.1751 0.2916,0.2215 0.3642,0.265 0.4387,0.3056 0.5148,0.3433 0.5928,0.3779 0.6723,0.4094 0.7533,0.4379 0.8358,0.4631 0.9196,0.4852 1.0046,0.5039 1.0908,0.5194 1.1779,0.5316 1.266,0.5403 1.3549,0.5456 1.4446,0.5476 1.5348,0.546 1.6256,0.541 1.7168,0.5324 1.8082,0.5204 1.8999,0.5048 1.9917,0.4855 2.0834,0.4629 2.175,0.4365 2.2663,0.4067 2.3574,0.3732 2.448,0.3362 2.5379,0.2957 1.7647,-0.4242 8.5733,-11.6625 -0.1217,-1.8108 -1.0394,-2.3342 -1.0513,-2.2362 -1.0596,-2.1386 -1.0643,-2.0418 -1.0656,-1.9457 -1.0634,-1.8504 -1.0577,-1.756 -1.0487,-1.6628 -1.0362,-1.5706 -1.0204,-1.4797 -1.0013,-1.3901 -0.9791,-1.302 -0.9536,-1.2154 -0.9251,-1.1304 -0.8934,-1.0472 -0.8588,-0.9656 -0.8212,-0.8861 -0.7808,-0.8085 -0.7374,-0.733 -0.6914,-0.6595 -0.6427,-0.5884 -0.5914,-0.5195 -0.5376,-0.453 -0.4812,-0.389 -0.4226,-0.3275 -0.3616,-0.2685 -0.2984,-0.2123 -0.2331,-0.1587 -0.1657,-0.1081 -0.0965,-0.0601 -13.7857,-8.0521 12.6725,-26.294 14.8871,5.7669 0.1071,0.038 0.1878,0.0623 0.2694,0.0834 0.352,0.1012 0.4353,0.1155 0.5194,0.1266 0.6041,0.1341 0.6893,0.1382 0.7748,0.1389 0.8606,0.1362 0.9467,0.1299 1.0327,0.1202 1.1188,0.1071 1.2048,0.0903 1.2904,0.0701 1.3757,0.0465 1.4605,0.0193 1.5448,-0.0112 1.6285,-0.0453 1.7112,-0.0828 1.7932,-0.1237 1.8741,-0.168 1.9539,-0.2156 2.0326,-0.2667 2.1099,-0.321 2.1858,-0.3786 2.2602,-0.4395 2.3331,-0.5036 2.4041,-0.5708 2.4734,-0.6411 1.4922,-1.033 3.7814,-13.9721 -0.7676,-1.6445 -1.8124,-1.8011 -1.7881,-1.7054 -1.7606,-1.6114 -1.7301,-1.5195 -1.6965,-1.4293 -1.66,-1.3413 -1.6207,-1.2554 -1.5784,-1.1717 -1.5336,-1.0902 -1.4861,-1.0112 -1.4359,-0.9345 -1.3833,-0.8604 -1.3283,-0.7888 -1.2709,-0.7199 -1.2114,-0.6537 -1.1496,-0.5902 -1.0859,-0.5296 -1.02,-0.4719 -0.9525,-0.417 -0.8829,-0.3653 -0.8119,-0.3165 -0.7391,-0.2708 -0.6649,-0.2282 -0.5893,-0.1889 -0.5123,-0.1527 -0.4342,-0.1198 -0.3549,-0.0901 -0.2747,-0.0638 -0.1936,-0.0409 -0.1117,-0.0212 L 181.4317,29.0963 183.75,0 199.7151,-4e-4 Z"
     id="gearpoly0" /><path
     style="fill:none;stroke:#444444;stroke-width:0.5;stroke-miterlimit:10"
     d="M 10,0 -10,0"
     id="polyline7" /><path
     style="fill:none;stroke:#444444;stroke-width:0.5;stroke-miterlimit:10"
     d="M 0,10 0,-10"
     id="polyline9" /><path
     style="fill:none;stroke:#000000;stroke-miterlimit:10;stroke-opacity:1"
     d="m 221.1357,-22.333099 a 9.8125,9.8125 0 0 1 -9.8125,9.8125 9.8125,9.8125 0 0 1 -9.8125,-9.8125 9.8125,9.8125 0 0 1 9.8125,-9.8125 9.8125,9.8125 0 0 1 9.8125,9.8125 z"
     id="circle11" /><path
     style="opacity:0;fill:none;stroke:#ff0000;stroke-width:5;stroke-miterlimit:4;stroke-dasharray:none;stroke-opacity:1"
     d="M 112.38214,-1.1565094 A 112.56984,4.8943405 0 0 1 -0.18769836,3.7378311 112.56984,4.8943405 0 0 1 -112.75754,-1.1565094 112.56984,4.8943405 0 0 1 -0.18769836,-6.0508499 112.56984,4.8943405 0 0 1 112.38214,-1.1565094 Z"
     id="path3440" /><path
     style="opacity:0;fill:none;stroke:#ff0000;stroke-width:5;stroke-miterlimit:4;stroke-dasharray:none;stroke-opacity:1"
     d="M 124.9675,-1.1564941 A 124.9675,50.185204 0 0 1 0,49.028709 124.9675,50.185204 0 0 1 -124.9675,-1.1564941 124.9675,50.185204 0 0 1 0,-51.341698 124.9675,50.185204 0 0 1 124.9675,-1.1564941 Z"
     id="path3442" /><path
     style="opacity:0;fill:#000000;fill-opacity:1;stroke:#000000;stroke-width:50;stroke-miterlimit:4;stroke-dasharray:none;stroke-opacity:1"
     d="M 95.017334,0 A 95.017334,95.017334 0 0 1 0,95.017334 95.017334,95.017334 0 0 1 -95.017334,0 95.017334,95.017334 0 0 1 0,-95.017334 95.017334,95.017334 0 0 1 95.017334,0 Z"
     id="path3444" /><path
     style="opacity:1;fill:none;fill-opacity:1;stroke:#000000;stroke-width:5;stroke-miterlimit:4;stroke-dasharray:none;stroke-opacity:1"
     d="M 142.88811,-1.1564941 A 142.88811,142.88811 0 0 1 0,141.73161 142.88811,142.88811 0 0 1 -142.88811,-1.1564941 142.88811,142.88811 0 0 1 0,-144.0446 142.88811,142.88811 0 0 1 142.88811,-1.1564941 Z"
     id="path4251" /><path
     style="fill:#000000;stroke:none"
     d="m -141.38811,-1.1564941 a 1.5,1.5 0 0 1 -1.5,1.49999996 1.5,1.5 0 0 1 -1.5,-1.49999996 1.5,1.5 0 0 1 1.5,-1.5 1.5,1.5 0 0 1 1.5,1.5 z"
     id="path4273" /><path
     style="fill:#000000;stroke:none;stroke-width:0.2;stroke-miterlimit:4;stroke-dasharray:none"
     d="m 144.38811,-1.1564941 a 1.5,1.5 0 0 1 -1.5,1.49999996 1.5,1.5 0 0 1 -1.5,-1.49999996 1.5,1.5 0 0 1 1.5,-1.5 1.5,1.5 0 0 1 1.5,1.5 z"
     id="path4275" /><path
     style="opacity:1;fill:none;fill-opacity:1;stroke:#000000;stroke-width:10;stroke-miterlimit:4;stroke-dasharray:none;stroke-opacity:1"
     d="M 35.830097,0 A 35.830097,35.830097 0 0 1 0,35.830097 35.830097,35.830097 0 0 1 -35.830097,0 35.830097,35.830097 0 0 1 0,-35.830097 35.830097,35.830097 0 0 1 35.830097,0 Z"
     id="path4285" /><path
     style="fill:none;fill-rule:evenodd;stroke:#000000;stroke-width:10;stroke-linecap:butt;stroke-linejoin:miter;stroke-opacity:1;stroke-miterlimit:4;stroke-dasharray:none"
     d="M -144.38811,-1.15649 -35.8301,0"
     id="path4287"
     inkscape:connector-curvature="0" /><path
     style="fill:none;fill-rule:evenodd;stroke:#000000;stroke-width:10;stroke-linecap:butt;stroke-linejoin:miter;stroke-opacity:1;stroke-miterlimit:4;stroke-dasharray:none"
     d="M 35.8301,0 142.88811,-1.15649"
     id="path4289"
     inkscape:connector-curvature="0" /><path
     style="fill:none;fill-rule:evenodd;stroke:#000000;stroke-width:10;stroke-linecap:butt;stroke-linejoin:miter;stroke-opacity:1;stroke-miterlimit:4;stroke-dasharray:none"
     d="M 0,35.8301 0,141.73161"
     id="path4291"
     inkscape:connector-curvature="0" /><path
     style="fill:none;fill-rule:evenodd;stroke:#000000;stroke-width:10;stroke-linecap:butt;stroke-linejoin:miter;stroke-opacity:1;stroke-miterlimit:4;stroke-dasharray:none"
     d="M 0,-144.0446 0,-35.8301"
     id="path4293"
     inkscape:connector-curvature="0" /></svg>