999
Inkscape export via OpenSCAD DXF Export
  0
SECTION
  2
HEADER
  9
$ACADVER
  1
AC1014
  9
$HANDSEED
  5
FFFF
  9
$MEASUREMENT
 70
     1
  0
ENDSEC
  0
SECTION
  2
TABLES
  0
TABLE
  2
VPORT
  5
8
330
0
100
AcDbSymbolTable
 70
     4
  0
VPORT
  5
2E
330
8
100
AcDbSymbolTableRecord
100
AcDbViewportTableRecord
  2
*ACTIVE
 70
     0
 10
0.0
 20
0.0
 11
1.0
 21
1.0
 12
210.0
 22
148.5
 13
0.0
 23
0.0
 14
10.0
 24
10.0
 15
10.0
 25
10.0
 16
0.0
 26
0.0
 36
1.0
 17
0.0
 27
0.0
 37
0.0
 40
341.0
 41
1.24
 42
50.0
 43
0.0
 44
0.0
 50
0.0
 51
0.0
 71
     0
 72
   100
 73
     1
 74
     3
 75
     0
 76
     0
 77
     0
 78
     0
  0
ENDTAB
  0
TABLE
  2
LTYPE
  5
5
330
0
100
AcDbSymbolTable
 70
     1
  0
LTYPE
  5
14
330
5
100
AcDbSymbolTableRecord
100
AcDbLinetypeTableRecord
  2
BYBLOCK
 70
     0
  3

 72
    65
 73
     0
 40
0.0
  0
LTYPE
  5
15
330
5
100
AcDbSymbolTableRecord
100
AcDbLinetypeTableRecord
  2
BYLAYER
 70
     0
  3

 72
    65
 73
     0
 40
0.0
  0
LTYPE
  5
16
330
5
100
AcDbSymbolTableRecord
100
AcDbLinetypeTableRecord
  2
CONTINUOUS
 70
     0
  3
Solid line
 72
    65
 73
     0
 40
0.0
  0
ENDTAB
  0
TABLE
0
TABLE
2
LAYER
5
2
330
0
100
AcDbSymbolTable
70
1
0
LAYER
5
10
330
2
100
AcDbSymbolTableRecord
100
AcDbLayerTableRecord
2
Layer_1
70
0
62
7
6
CONTINUOUS
0
ENDTAB
0
ENDSEC
  0
ENDTAB
  0
TABLE
  2
STYLE
  5
3
330
0
100
AcDbSymbolTable
 70
     1
  0
STYLE
  5
11
330
3
100
AcDbSymbolTableRecord
100
AcDbTextStyleTableRecord
  2
STANDARD
 70
     0
 40
0.0
 41
1.0
 50
0.0
 71
     0
 42
2.5
  3
txt
  4

  0
ENDTAB
  0
TABLE
  2
VIEW
  5
6
330
0
100
AcDbSymbolTable
 70
     0
  0
ENDTAB
  0
TABLE
  2
UCS
  5
7
330
0
100
AcDbSymbolTable
 70
     0
  0
ENDTAB
  0
TABLE
  2
APPID
  5
9
330
0
100
AcDbSymbolTable
 70
     2
  0
APPID
  5
12
330
9
100
AcDbSymbolTableRecord
100
AcDbRegAppTableRecord
  2
ACAD
 70
     0
  0
ENDTAB
  0
TABLE
  2
DIMSTYLE
  5
A
330
0
100
AcDbSymbolTable
 70
     1
  0
DIMSTYLE
105
27
330
A
100
AcDbSymbolTableRecord
100
AcDbDimStyleTableRecord
  2
ISO-25
 70
     0
  3

  4

  5

  6

  7

 40
1.0
 41
2.5
 42
0.625
 43
3.75
 44
1.25
 45
0.0
 46
0.0
 47
0.0
 48
0.0
140
2.5
141
2.5
142
0.0
143
0.03937007874016
144
1.0
145
0.0
146
1.0
147
0.625
 71
     0
 72
     0
 73
     0
 74
     0
 75
     0
 76
     0
 77
     1
 78
     8
170
     0
171
     3
172
     1
173
     0
174
     0
175
     0
176
     0
177
     0
178
     0
270
     2
271
     2
272
     2
273
     2
274
     3
340
11
275
     0
280
     0
281
     0
282
     0
283
     0
284
     8
285
     0
286
     0
287
     3
288
     0
  0
ENDTAB
  0
TABLE
  2
BLOCK_RECORD
  5
1
330
0
100
AcDbSymbolTable
 70
     1
  0
BLOCK_RECORD
  5
1F
330
1
100
AcDbSymbolTableRecord
100
AcDbBlockTableRecord
  2
*MODEL_SPACE
  0
BLOCK_RECORD
  5
1B
330
1
100
AcDbSymbolTableRecord
100
AcDbBlockTableRecord
  2
*PAPER_SPACE
  0
ENDTAB
  0
ENDSEC
  0
SECTION
  2
BLOCKS
  0
BLOCK
  5
20
330
1F
100
AcDbEntity
  8
0
100
AcDbBlockBegin
  2
*MODEL_SPACE
 70
     0
 10
0.0
 20
0.0
 30
0.0
  3
*MODEL_SPACE
  1

  0
ENDBLK
  5
21
330
1F
100
AcDbEntity
  8
0
100
AcDbBlockEnd
  0
BLOCK
  5
1C
330
1B
100
AcDbEntity
 67
     1
  8
0
100
AcDbBlockBegin
  2
*PAPER_SPACE
  1

  0
ENDBLK
  5
1D
330
1B
100
AcDbEntity
 67
     1
  8
0
100
AcDbBlockEnd
  0
ENDSEC
  0
SECTION
  2
ENTITIES
0
DIMENSION
5
83
100
AcDbEntity
62
256
370
-1
6
ByLayer
1
total_width
3
Standard
70
0
71
5
72
1
41
1.0
100
AcDbAlignedDimension
13
-405.436048
23
0.000000
33
0.0
14
1225.650782
24
0.000000
34
0.0
50
0.000000
100
AcDbRotatedDimension
0
DIMENSION
5
83
100
AcDbEntity
62
256
370
-1
6
ByLayer
1
total_minx
3
Standard
70
0
71
5
72
1
41
1.0
100
AcDbAlignedDimension
13
-405.436048
23
0.000000
33
0.0
14
0.000000
24
0.000000
34
0.0
50
0.000000
100
AcDbRotatedDimension
0
DIMENSION
5
83
100
AcDbEntity
62
256
370
-1
6
ByLayer
1
total_maxx
3
Standard
70
0
71
5
72
1
41
1.0
100
AcDbAlignedDimension
13
0.000000
23
0.000000
33
0.0
14
1225.650782
24
0.000000
34
0.0
50
0.000000
100
AcDbRotatedDimension
0
DIMENSION
5
83
100
AcDbEntity
62
256
370
-1
6
ByLayer
1
total_height
3
Standard
70
0
71
5
72
1
41
1.0
100
AcDbAlignedDimension
13
0.000000
23
2131.723815
33
0.0
14
0.000000
24
4260.804748
34
0.0
50
90.000000
100
AcDbRotatedDimension
0
DIMENSION
5
83
100
AcDbEntity
62
256
370
-1
6
ByLayer
1
total_miny
3
Standard
70
0
71
5
72
1
41
1.0
100
AcDbAlignedDimension
13
2131.723815
23
0.000000
33
0.0
14
0.000000
24
0.000000
34
0.0
50
0.000000
100
AcDbRotatedDimension
0
DIMENSION
5
83
100
AcDbEntity
62
256
370
-1
6
ByLayer
1
total_maxy
3
Standard
70
0
71
5
72
1
41
1.0
100
AcDbAlignedDimension
13
0.000000
23
0.000000
33
0.0
14
4260.804748
24
0.000000
34
0.0
50
0.000000
100
AcDbRotatedDimension
0
DIMENSION
8
Layer_1
5
83
100
AcDbEntity
62
256
370
-1
6
ByLayer
1
Layer_1_width
3
Standard
70
0
71
5
72
1
41
1.0
100
AcDbAlignedDimension
13
-405.436048
23
0.000000
33
0.0
14
1225.650782
24
0.000000
34
0.0
50
0.000000
100
AcDbRotatedDimension
0
DIMENSION
8
Layer_1
5
83
100
AcDbEntity
62
256
370
-1
6
ByLayer
1
Layer_1_minx
3
Standard
70
0
71
5
72
1
41
1.0
100
AcDbAlignedDimension
13
-405.436048
23
0.000000
33
0.0
14
0.000000
24
0.000000
34
0.0
50
0.000000
100
AcDbRotatedDimension
0
DIMENSION
8
Layer_1
5
83
100
AcDbEntity
62
256
370
-1
6
ByLayer
1
Layer_1_maxx
3
Standard
70
0
71
5
72
1
41
1.0
100
AcDbAlignedDimension
13
0.000000
23
0.000000
33
0.0
14
1225.650782
24
0.000000
34
0.0
50
0.000000
100
AcDbRotatedDimension
0
DIMENSION
8
Layer_1
5
83
100
AcDbEntity
62
256
370
-1
6
ByLayer
1
Layer_1_height
3
Standard
70
0
71
5
72
1
41
1.0
100
AcDbAlignedDimension
13
0.000000
23
2131.723815
33
0.0
14
0.000000
24
4260.804748
34
0.0
50
90.000000
100
AcDbRotatedDimension
0
DIMENSION
8
Layer_1
5
83
100
AcDbEntity
62
256
370
-1
6
ByLayer
1
Layer_1_miny
3
Standard
70
0
71
5
72
1
41
1.0
100
AcDbAlignedDimension
13
2131.723815
23
0.000000
33
0.0
14
0.000000
24
0.000000
34
0.0
50
0.000000
100
AcDbRotatedDimension
0
DIMENSION
8
Layer_1
5
83
100
AcDbEntity
62
256
370
-1
6
ByLayer
1
Layer_1_maxy
3
Standard
70
0
71
5
72
1
41
1.0
100
AcDbAlignedDimension
13
0.000000
23
0.000000
33
0.0
14
4260.804748
24
0.000000
34
0.0
50
0.000000
100
AcDbRotatedDimension
62
0
0
LWPOLYLINE
100
AcDbPolyline
8
Layer_1
90
18
70
0
10
-157.238096
20
2301.460314
30
0.0
10
-157.523248
20
2300.989513
30
0.0
10
-158.300881
20
2300.605052
30
0.0
10
-159.454264
20
2300.345842
30
0.0
10
-160.866667
20
2300.250791
30
0.0
10
-162.279069
20
2300.345842
30
0.0
10
-163.432452
20
2300.605052
30
0.0
10
-164.210085
20
2300.989513
30
0.0
10
-164.495237
20
2301.460314
30
0.0
10
-164.210085
20
2301.931115
30
0.0
10
-163.432452
20
2302.315576
30
0.0
10
-162.279069
20
2302.574786
30
0.0
10
-160.866667
20
2302.669837
30
0.0
10
-159.454264
20
2302.574786
30
0.0
10
-158.300881
20
2302.315576
30
0.0
10
-157.523248
20
2301.931115
30
0.0
10
-157.238096
20
2301.460314
30
0.0
10
-157.238096
20
2301.460314
30
0.0
62
0
0
LWPOLYLINE
100
AcDbPolyline
8
Layer_1
90
258
70
0
10
961.429709
20
3503.601344
30
0.0
10
961.793787
20
3486.635999
30
0.0
10
961.737271
20
3469.721141
30
0.0
10
961.262823
20
3452.863770
30
0.0
10
960.373104
20
3436.070888
30
0.0
10
959.070779
20
3419.349495
30
0.0
10
957.358509
20
3402.706590
30
0.0
10
955.238956
20
3386.149174
30
0.0
10
952.714785
20
3369.684247
30
0.0
10
949.788656
20
3353.318810
30
0.0
10
946.463233
20
3337.059863
30
0.0
10
942.741178
20
3320.914406
30
0.0
10
938.625154
20
3304.889440
30
0.0
10
934.117823
20
3288.991964
30
0.0
10
929.221849
20
3273.228979
30
0.0
10
923.939893
20
3257.607486
30
0.0
10
918.274617
20
3242.134485
30
0.0
10
912.228686
20
3226.816975
30
0.0
10
905.804761
20
3211.661958
30
0.0
10
899.005504
20
3196.676434
30
0.0
10
891.833580
20
3181.867403
30
0.0
10
884.291648
20
3167.241864
30
0.0
10
876.382374
20
3152.806820
30
0.0
10
868.108419
20
3138.569269
30
0.0
10
859.472445
20
3124.536212
30
0.0
10
850.477115
20
3110.714650
30
0.0
10
841.125093
20
3097.111583
30
0.0
10
831.419040
20
3083.734010
30
0.0
10
821.361618
20
3070.588933
30
0.0
10
810.955492
20
3057.683352
30
0.0
10
800.203322
20
3045.024266
30
0.0
10
789.107772
20
3032.618677
30
0.0
10
777.671505
20
3020.473585
30
0.0
10
765.927597
20
3008.626056
30
0.0
10
753.911955
20
2997.110424
30
0.0
10
741.631478
20
2985.929587
30
0.0
10
729.093071
20
2975.086447
30
0.0
10
716.303635
20
2964.583903
30
0.0
10
703.270071
20
2954.424853
30
0.0
10
689.999283
20
2944.612198
30
0.0
10
676.498172
20
2935.148838
30
0.0
10
662.773641
20
2926.037671
30
0.0
10
648.832590
20
2917.281599
30
0.0
10
634.681924
20
2908.883519
30
0.0
10
620.328543
20
2900.846332
30
0.0
10
605.779350
20
2893.172938
30
0.0
10
591.041247
20
2885.866236
30
0.0
10
576.121137
20
2878.929126
30
0.0
10
561.025920
20
2872.364507
30
0.0
10
545.762499
20
2866.175279
30
0.0
10
530.337777
20
2860.364341
30
0.0
10
514.758656
20
2854.934594
30
0.0
10
499.032037
20
2849.888936
30
0.0
10
483.164823
20
2845.230268
30
0.0
10
467.163916
20
2840.961489
30
0.0
10
451.036218
20
2837.085499
30
0.0
10
434.788631
20
2833.605197
30
0.0
10
418.428057
20
2830.523483
30
0.0
10
401.961399
20
2827.843256
30
0.0
10
385.395558
20
2825.567417
30
0.0
10
368.737437
20
2823.698865
30
0.0
10
351.993937
20
2822.240498
30
0.0
10
335.171961
20
2821.195218
30
0.0
10
318.278411
20
2820.565924
30
0.0
10
301.320189
20
2820.355515
30
0.0
10
283.677750
20
2820.578669
30
0.0
10
266.130342
20
2821.244551
30
0.0
10
248.683516
20
2822.347797
30
0.0
10
231.342818
20
2823.883039
30
0.0
10
214.113796
20
2825.844911
30
0.0
10
197.001998
20
2828.228047
30
0.0
10
180.012972
20
2831.027081
30
0.0
10
163.152267
20
2834.236647
30
0.0
10
146.425429
20
2837.851378
30
0.0
10
129.838007
20
2841.865908
30
0.0
10
113.395549
20
2846.274871
30
0.0
10
97.103603
20
2851.072902
30
0.0
10
80.967717
20
2856.254632
30
0.0
10
64.993437
20
2861.814698
30
0.0
10
49.186314
20
2867.747731
30
0.0
10
33.551893
20
2874.048367
30
0.0
10
18.095724
20
2880.711238
30
0.0
10
2.823354
20
2887.730980
30
0.0
10
-12.259669
20
2895.102224
30
0.0
10
-27.147796
20
2902.819606
30
0.0
10
-41.835481
20
2910.877759
30
0.0
10
-56.317175
20
2919.271316
30
0.0
10
-70.587331
20
2927.994913
30
0.0
10
-84.640400
20
2937.043181
30
0.0
10
-98.470834
20
2946.410756
30
0.0
10
-112.073085
20
2956.092271
30
0.0
10
-125.441607
20
2966.082360
30
0.0
10
-138.570849
20
2976.375657
30
0.0
10
-151.455266
20
2986.966795
30
0.0
10
-164.089309
20
2997.850408
30
0.0
10
-176.467429
20
3009.021130
30
0.0
10
-188.584080
20
3020.473595
30
0.0
10
-200.433713
20
3032.202436
30
0.0
10
-212.010779
20
3044.202289
30
0.0
10
-223.309733
20
3056.467785
30
0.0
10
-234.325024
20
3068.993559
30
0.0
10
-245.051106
20
3081.774245
30
0.0
10
-255.482431
20
3094.804477
30
0.0
10
-265.613450
20
3108.078888
30
0.0
10
-275.438616
20
3121.592113
30
0.0
10
-284.952381
20
3135.338784
30
0.0
10
-294.149196
20
3149.313536
30
0.0
10
-303.023515
20
3163.511003
30
0.0
10
-311.569789
20
3177.925819
30
0.0
10
-319.782470
20
3192.552616
30
0.0
10
-327.656010
20
3207.386030
30
0.0
10
-335.184861
20
3222.420693
30
0.0
10
-342.363476
20
3237.651240
30
0.0
10
-349.186306
20
3253.072304
30
0.0
10
-355.647804
20
3268.678520
30
0.0
10
-361.742422
20
3284.464521
30
0.0
10
-367.464611
20
3300.424940
30
0.0
10
-372.808825
20
3316.554412
30
0.0
10
-377.769514
20
3332.847571
30
0.0
10
-382.341131
20
3349.299049
30
0.0
10
-386.518128
20
3365.903482
30
0.0
10
-390.294958
20
3382.655502
30
0.0
10
-393.666072
20
3399.549745
30
0.0
10
-396.625922
20
3416.580842
30
0.0
10
-399.168960
20
3433.743429
30
0.0
10
-401.289639
20
3451.032139
30
0.0
10
-402.982411
20
3468.441605
30
0.0
10
-404.241728
20
3485.966462
30
0.0
10
-405.062041
20
3503.601344
30
0.0
10
-405.436048
20
3521.236225
30
0.0
10
-405.363600
20
3538.761083
30
0.0
10
-404.849882
20
3556.170549
30
0.0
10
-403.900079
20
3573.459259
30
0.0
10
-402.519374
20
3590.621846
30
0.0
10
-400.712953
20
3607.652943
30
0.0
10
-398.486000
20
3624.547185
30
0.0
10
-395.843699
20
3641.299206
30
0.0
10
-392.791235
20
3657.903639
30
0.0
10
-389.333792
20
3674.355117
30
0.0
10
-385.476555
20
3690.648276
30
0.0
10
-381.224708
20
3706.777748
30
0.0
10
-376.583436
20
3722.738167
30
0.0
10
-371.557923
20
3738.524168
30
0.0
10
-366.153354
20
3754.130383
30
0.0
10
-360.374914
20
3769.551448
30
0.0
10
-354.227786
20
3784.781995
30
0.0
10
-347.717155
20
3799.816658
30
0.0
10
-340.848206
20
3814.650072
30
0.0
10
-333.626123
20
3829.276869
30
0.0
10
-326.056091
20
3843.691685
30
0.0
10
-318.143294
20
3857.889151
30
0.0
10
-309.892917
20
3871.863904
30
0.0
10
-301.310144
20
3885.610575
30
0.0
10
-292.400159
20
3899.123800
30
0.0
10
-283.168148
20
3912.398211
30
0.0
10
-273.619294
20
3925.428442
30
0.0
10
-263.758782
20
3938.209129
30
0.0
10
-253.591797
20
3950.734903
30
0.0
10
-243.123523
20
3963.000399
30
0.0
10
-232.359145
20
3975.000251
30
0.0
10
-221.303847
20
3986.729093
30
0.0
10
-209.962813
20
3998.181558
30
0.0
10
-198.341228
20
4009.352280
30
0.0
10
-186.444277
20
4020.235893
30
0.0
10
-174.277144
20
4030.827031
30
0.0
10
-161.845013
20
4041.120328
30
0.0
10
-149.153069
20
4051.110416
30
0.0
10
-136.206497
20
4060.791931
30
0.0
10
-123.010481
20
4070.159506
30
0.0
10
-109.570205
20
4079.207775
30
0.0
10
-95.890854
20
4087.931371
30
0.0
10
-81.977612
20
4096.324929
30
0.0
10
-67.835665
20
4104.383082
30
0.0
10
-53.470196
20
4112.100464
30
0.0
10
-38.886389
20
4119.471708
30
0.0
10
-24.089431
20
4126.491449
30
0.0
10
-9.084504
20
4133.154321
30
0.0
10
6.123207
20
4139.454956
30
0.0
10
21.528517
20
4145.387990
30
0.0
10
37.126241
20
4150.948055
30
0.0
10
52.911196
20
4156.129786
30
0.0
10
68.878196
20
4160.927816
30
0.0
10
85.022057
20
4165.336780
30
0.0
10
101.337596
20
4169.351310
30
0.0
10
117.819626
20
4172.966041
30
0.0
10
134.462964
20
4176.175607
30
0.0
10
151.262425
20
4178.974641
30
0.0
10
168.212826
20
4181.357777
30
0.0
10
185.308980
20
4183.319649
30
0.0
10
202.545704
20
4184.854891
30
0.0
10
219.917814
20
4185.958136
30
0.0
10
237.420124
20
4186.624019
30
0.0
10
255.047450
20
4186.847173
30
0.0
10
272.019922
20
4186.636764
30
0.0
10
288.956091
20
4186.007469
30
0.0
10
305.848858
20
4184.962189
30
0.0
10
322.691126
20
4183.503823
30
0.0
10
339.475795
20
4181.635271
30
0.0
10
356.195766
20
4179.359431
30
0.0
10
372.843943
20
4176.679205
30
0.0
10
389.413225
20
4173.597491
30
0.0
10
405.896515
20
4170.117189
30
0.0
10
422.286714
20
4166.241198
30
0.0
10
438.576724
20
4161.972419
30
0.0
10
454.759446
20
4157.313751
30
0.0
10
470.827781
20
4152.268094
30
0.0
10
486.774632
20
4146.838347
30
0.0
10
502.592899
20
4141.027409
30
0.0
10
518.275484
20
4134.838181
30
0.0
10
533.815288
20
4128.273562
30
0.0
10
549.205214
20
4121.336452
30
0.0
10
564.438163
20
4114.029750
30
0.0
10
579.507035
20
4106.356355
30
0.0
10
594.404733
20
4098.319169
30
0.0
10
609.124159
20
4089.921089
30
0.0
10
623.658213
20
4081.165016
30
0.0
10
637.999797
20
4072.053850
30
0.0
10
652.141813
20
4062.590489
30
0.0
10
666.077162
20
4052.777835
30
0.0
10
679.798746
20
4042.618785
30
0.0
10
693.299466
20
4032.116240
30
0.0
10
706.572223
20
4021.273100
30
0.0
10
719.609920
20
4010.092264
30
0.0
10
732.405458
20
3998.576632
30
0.0
10
744.951737
20
3986.729103
30
0.0
10
757.210530
20
3974.584010
30
0.0
10
769.146247
20
3962.178421
30
0.0
10
780.755751
20
3949.519336
30
0.0
10
792.035907
20
3936.613755
30
0.0
10
802.983577
20
3923.468678
30
0.0
10
813.595624
20
3910.091105
30
0.0
10
823.868913
20
3896.488038
30
0.0
10
833.800306
20
3882.666475
30
0.0
10
843.386667
20
3868.633419
30
0.0
10
852.624859
20
3854.395868
30
0.0
10
861.511745
20
3839.960823
30
0.0
10
870.044188
20
3825.335285
30
0.0
10
878.219053
20
3810.526254
30
0.0
10
886.033202
20
3795.540729
30
0.0
10
893.483499
20
3780.385712
30
0.0
10
900.566807
20
3765.068203
30
0.0
10
907.279989
20
3749.595202
30
0.0
10
913.619909
20
3733.973708
30
0.0
10
919.583430
20
3718.210724
30
0.0
10
925.167415
20
3702.313248
30
0.0
10
930.368728
20
3686.288282
30
0.0
10
935.184232
20
3670.142825
30
0.0
10
939.610790
20
3653.883878
30
0.0
10
943.645266
20
3637.518441
30
0.0
10
947.284523
20
3621.053514
30
0.0
10
950.525424
20
3604.496098
30
0.0
10
953.364833
20
3587.853193
30
0.0
10
955.799613
20
3571.131799
30
0.0
10
957.826627
20
3554.338917
30
0.0
10
959.442739
20
3537.481547
30
0.0
10
960.644812
20
3520.566689
30
0.0
10
961.429709
20
3503.601344
30
0.0
10
961.429709
20
3503.601344
30
0.0
62
0
0
LWPOLYLINE
100
AcDbPolyline
8
Layer_1
90
5
70
0
10
6.450791
20
2741.323815
30
0.0
10
1225.650782
20
2741.323815
30
0.0
10
1225.650782
20
2131.723815
30
0.0
10
6.450791
20
2131.723815
30
0.0
10
6.450791
20
2741.323815
30
0.0
62
0
0
LWPOLYLINE
100
AcDbPolyline
8
Layer_1
90
258
70
0
10
1203.391795
20
3502.079684
30
0.0
10
1203.807119
20
3482.496649
30
0.0
10
1203.726668
20
3463.035792
30
0.0
10
1203.156199
20
3443.703074
30
0.0
10
1202.101470
20
3424.504453
30
0.0
10
1200.568237
20
3405.445888
30
0.0
10
1198.562257
20
3386.533338
30
0.0
10
1196.089289
20
3367.772762
30
0.0
10
1193.155089
20
3349.170119
30
0.0
10
1189.765414
20
3330.731369
30
0.0
10
1185.926022
20
3312.462469
30
0.0
10
1181.642670
20
3294.369379
30
0.0
10
1176.921115
20
3276.458059
30
0.0
10
1171.767115
20
3258.734466
30
0.0
10
1166.186426
20
3241.204561
30
0.0
10
1160.184806
20
3223.874302
30
0.0
10
1153.768011
20
3206.749648
30
0.0
10
1146.941801
20
3189.836559
30
0.0
10
1139.711930
20
3173.140992
30
0.0
10
1132.084158
20
3156.668908
30
0.0
10
1124.064240
20
3140.426265
30
0.0
10
1115.657935
20
3124.419022
30
0.0
10
1106.870999
20
3108.653139
30
0.0
10
1097.709189
20
3093.134573
30
0.0
10
1088.178264
20
3077.869285
30
0.0
10
1078.283979
20
3062.863234
30
0.0
10
1068.032093
20
3048.122377
30
0.0
10
1057.428363
20
3033.652675
30
0.0
10
1046.478545
20
3019.460087
30
0.0
10
1035.188397
20
3005.550570
30
0.0
10
1023.563677
20
2991.930085
30
0.0
10
1011.610141
20
2978.604591
30
0.0
10
999.333546
20
2965.580046
30
0.0
10
986.739651
20
2952.862409
30
0.0
10
973.834211
20
2940.457640
30
0.0
10
960.622985
20
2928.371697
30
0.0
10
947.111730
20
2916.610539
30
0.0
10
933.306202
20
2905.180126
30
0.0
10
919.212160
20
2894.086417
30
0.0
10
904.835360
20
2883.335370
30
0.0
10
890.181559
20
2872.932944
30
0.0
10
875.256515
20
2862.885099
30
0.0
10
860.065985
20
2853.197794
30
0.0
10
844.615726
20
2843.876987
30
0.0
10
828.911495
20
2834.928638
30
0.0
10
812.959051
20
2826.358705
30
0.0
10
796.764149
20
2818.173148
30
0.0
10
780.332547
20
2810.377925
30
0.0
10
763.670002
20
2802.978996
30
0.0
10
746.782272
20
2795.982320
30
0.0
10
729.675114
20
2789.393855
30
0.0
10
712.354285
20
2783.219561
30
0.0
10
694.825542
20
2777.465397
30
0.0
10
677.094642
20
2772.137321
30
0.0
10
659.167343
20
2767.241293
30
0.0
10
641.049402
20
2762.783272
30
0.0
10
622.746577
20
2758.769216
30
0.0
10
604.264623
20
2755.205085
30
0.0
10
585.609299
20
2752.096838
30
0.0
10
566.786362
20
2749.450434
30
0.0
10
547.801569
20
2747.271831
30
0.0
10
528.660678
20
2745.566990
30
0.0
10
509.369444
20
2744.341868
30
0.0
10
489.933627
20
2743.602425
30
0.0
10
470.358982
20
2743.354619
30
0.0
10
450.767555
20
2743.602425
30
0.0
10
431.281659
20
2744.341868
30
0.0
10
411.907455
20
2745.566990
30
0.0
10
392.651103
20
2747.271832
30
0.0
10
373.518764
20
2749.450434
30
0.0
10
354.516600
20
2752.096839
30
0.0
10
335.650770
20
2755.205086
30
0.0
10
316.927437
20
2758.769217
30
0.0
10
298.352760
20
2762.783272
30
0.0
10
279.932900
20
2767.241294
30
0.0
10
261.674018
20
2772.137322
30
0.0
10
243.582275
20
2777.465397
30
0.0
10
225.663832
20
2783.219562
30
0.0
10
207.924850
20
2789.393856
30
0.0
10
190.371489
20
2795.982320
30
0.0
10
173.009910
20
2802.978997
30
0.0
10
155.846274
20
2810.377926
30
0.0
10
138.886741
20
2818.173148
30
0.0
10
122.137474
20
2826.358706
30
0.0
10
105.604631
20
2834.928638
30
0.0
10
89.294375
20
2843.876988
30
0.0
10
73.212866
20
2853.197795
30
0.0
10
57.366264
20
2862.885100
30
0.0
10
41.760731
20
2872.932945
30
0.0
10
26.402427
20
2883.335371
30
0.0
10
11.297514
20
2894.086418
30
0.0
10
-3.547849
20
2905.180127
30
0.0
10
-18.127499
20
2916.610540
30
0.0
10
-32.435278
20
2928.371698
30
0.0
10
-46.465023
20
2940.457641
30
0.0
10
-60.210573
20
2952.862410
30
0.0
10
-73.665769
20
2965.580047
30
0.0
10
-86.824449
20
2978.604592
30
0.0
10
-99.680453
20
2991.930086
30
0.0
10
-112.227619
20
3005.550571
30
0.0
10
-124.459787
20
3019.460088
30
0.0
10
-136.370796
20
3033.652676
30
0.0
10
-147.954485
20
3048.122378
30
0.0
10
-159.204694
20
3062.863235
30
0.0
10
-170.115261
20
3077.869286
30
0.0
10
-180.680026
20
3093.134574
30
0.0
10
-190.892829
20
3108.653139
30
0.0
10
-200.747507
20
3124.419023
30
0.0
10
-210.237901
20
3140.426266
30
0.0
10
-219.357849
20
3156.668909
30
0.0
10
-228.101192
20
3173.140993
30
0.0
10
-236.461767
20
3189.836559
30
0.0
10
-244.433415
20
3206.749649
30
0.0
10
-252.009974
20
3223.874303
30
0.0
10
-259.185284
20
3241.204562
30
0.0
10
-265.953183
20
3258.734467
30
0.0
10
-272.307512
20
3276.458059
30
0.0
10
-278.242109
20
3294.369380
30
0.0
10
-283.750813
20
3312.462469
30
0.0
10
-288.827464
20
3330.731369
30
0.0
10
-293.465901
20
3349.170120
30
0.0
10
-297.659962
20
3367.772763
30
0.0
10
-301.403488
20
3386.533338
30
0.0
10
-304.690318
20
3405.445888
30
0.0
10
-307.514290
20
3424.504453
30
0.0
10
-309.869244
20
3443.703074
30
0.0
10
-311.749019
20
3463.035793
30
0.0
10
-313.147454
20
3482.496649
30
0.0
10
-314.058388
20
3502.079684
30
0.0
10
-314.473713
20
3521.662719
30
0.0
10
-314.393261
20
3541.123575
30
0.0
10
-313.822792
20
3560.456293
30
0.0
10
-312.768063
20
3579.654914
30
0.0
10
-311.234830
20
3598.713479
30
0.0
10
-309.228850
20
3617.626029
30
0.0
10
-306.755882
20
3636.386605
30
0.0
10
-303.821682
20
3654.989247
30
0.0
10
-300.432007
20
3673.427998
30
0.0
10
-296.592615
20
3691.696898
30
0.0
10
-292.309263
20
3709.789987
30
0.0
10
-287.587708
20
3727.701308
30
0.0
10
-282.433708
20
3745.424900
30
0.0
10
-276.853019
20
3762.954805
30
0.0
10
-270.851399
20
3780.285064
30
0.0
10
-264.434605
20
3797.409718
30
0.0
10
-257.608394
20
3814.322808
30
0.0
10
-250.378524
20
3831.018374
30
0.0
10
-242.750751
20
3847.490459
30
0.0
10
-234.730834
20
3863.733102
30
0.0
10
-226.324528
20
3879.740344
30
0.0
10
-217.537592
20
3895.506228
30
0.0
10
-208.375783
20
3911.024793
30
0.0
10
-198.844857
20
3926.290081
30
0.0
10
-188.950573
20
3941.296133
30
0.0
10
-178.698687
20
3956.036989
30
0.0
10
-168.094957
20
3970.506691
30
0.0
10
-157.145139
20
3984.699280
30
0.0
10
-145.854991
20
3998.608796
30
0.0
10
-134.230271
20
4012.229281
30
0.0
10
-122.276735
20
4025.554775
30
0.0
10
-110.000140
20
4038.579321
30
0.0
10
-97.406245
20
4051.296957
30
0.0
10
-84.500806
20
4063.701727
30
0.0
10
-71.289580
20
4075.787670
30
0.0
10
-57.778324
20
4087.548827
30
0.0
10
-43.972797
20
4098.979240
30
0.0
10
-29.878754
20
4110.072949
30
0.0
10
-15.501954
20
4120.823996
30
0.0
10
-0.848153
20
4131.226422
30
0.0
10
14.076891
20
4141.274267
30
0.0
10
29.267421
20
4150.961572
30
0.0
10
44.717679
20
4160.282379
30
0.0
10
60.421910
20
4169.230729
30
0.0
10
76.374355
20
4177.800662
30
0.0
10
92.569256
20
4185.986219
30
0.0
10
109.000858
20
4193.781441
30
0.0
10
125.663403
20
4201.180370
30
0.0
10
142.551133
20
4208.177047
30
0.0
10
159.658291
20
4214.765511
30
0.0
10
176.979120
20
4220.939806
30
0.0
10
194.507863
20
4226.693970
30
0.0
10
212.238762
20
4232.022046
30
0.0
10
230.166061
20
4236.918074
30
0.0
10
248.284002
20
4241.376095
30
0.0
10
266.586828
20
4245.390151
30
0.0
10
285.068781
20
4248.954281
30
0.0
10
303.724105
20
4252.062529
30
0.0
10
322.547042
20
4254.708933
30
0.0
10
341.531835
20
4256.887536
30
0.0
10
360.672727
20
4258.592377
30
0.0
10
379.963960
20
4259.817499
30
0.0
10
399.399777
20
4260.556942
30
0.0
10
418.974422
20
4260.804748
30
0.0
10
437.821868
20
4260.571094
30
0.0
10
456.629001
20
4259.872281
30
0.0
10
475.387938
20
4258.711527
30
0.0
10
494.090796
20
4257.092053
30
0.0
10
512.729693
20
4255.017078
30
0.0
10
531.296745
20
4252.489823
30
0.0
10
549.784071
20
4249.513508
30
0.0
10
568.183787
20
4246.091352
30
0.0
10
586.488011
20
4242.226576
30
0.0
10
604.688860
20
4237.922399
30
0.0
10
622.778451
20
4233.182041
30
0.0
10
640.748903
20
4228.008723
30
0.0
10
658.592331
20
4222.405664
30
0.0
10
676.300854
20
4216.376084
30
0.0
10
693.866589
20
4209.923203
30
0.0
10
711.281653
20
4203.050241
30
0.0
10
728.538163
20
4195.760418
30
0.0
10
745.628238
20
4188.056955
30
0.0
10
762.543993
20
4179.943070
30
0.0
10
779.277547
20
4171.421984
30
0.0
10
795.821016
20
4162.496916
30
0.0
10
812.166519
20
4153.171088
30
0.0
10
828.306171
20
4143.447718
30
0.0
10
844.232092
20
4133.330027
30
0.0
10
859.936398
20
4122.821234
30
0.0
10
875.411206
20
4111.924560
30
0.0
10
890.648634
20
4100.643224
30
0.0
10
905.640799
20
4088.980447
30
0.0
10
920.379818
20
4076.939448
30
0.0
10
934.857809
20
4064.523448
30
0.0
10
949.066889
20
4051.735666
30
0.0
10
962.999175
20
4038.579322
30
0.0
10
976.612215
20
4025.092542
30
0.0
10
989.866488
20
4011.316488
30
0.0
10
1002.758512
20
3997.258933
30
0.0
10
1015.284804
20
3982.927652
30
0.0
10
1027.441879
20
3968.330418
30
0.0
10
1039.226256
20
3953.475004
30
0.0
10
1050.634450
20
3938.369185
30
0.0
10
1061.662979
20
3923.020733
30
0.0
10
1072.308360
20
3907.437423
30
0.0
10
1082.567109
20
3891.627027
30
0.0
10
1092.435742
20
3875.597321
30
0.0
10
1101.910778
20
3859.356076
30
0.0
10
1110.988733
20
3842.911068
30
0.0
10
1119.666123
20
3826.270069
30
0.0
10
1127.939465
20
3809.440854
30
0.0
10
1135.805277
20
3792.431195
30
0.0
10
1143.260074
20
3775.248867
30
0.0
10
1150.300375
20
3757.901643
30
0.0
10
1156.922695
20
3740.397297
30
0.0
10
1163.123551
20
3722.743603
30
0.0
10
1168.899461
20
3704.948333
30
0.0
10
1174.246941
20
3687.019262
30
0.0
10
1179.162508
20
3668.964164
30
0.0
10
1183.642678
20
3650.790811
30
0.0
10
1187.683969
20
3632.506978
30
0.0
10
1191.282898
20
3614.120439
30
0.0
10
1194.435980
20
3595.638966
30
0.0
10
1197.139734
20
3577.070334
30
0.0
10
1199.390676
20
3558.422316
30
0.0
10
1201.185322
20
3539.702686
30
0.0
10
1202.520189
20
3520.919217
30
0.0
10
1203.391795
20
3502.079684
30
0.0
10
1203.391795
20
3502.079684
30
0.0
62
0
0
LWPOLYLINE
100
AcDbPolyline
8
Layer_1
90
2
70
0
10
1188.558738
20
2742.936546
30
0.0
10
1199.847627
20
3429.946065
30
0.0
  0
ENDSEC
  0
SECTION
  2
OBJECTS
  0
DICTIONARY
  5
C
330
0
100
AcDbDictionary
  3
ACAD_GROUP
350
D
  3
ACAD_MLINESTYLE
350
17
  0
DICTIONARY
  5
D
330
C
100
AcDbDictionary
  0
DICTIONARY
  5
1A
330
C
100
AcDbDictionary
  0
DICTIONARY
  5
17
330
C
100
AcDbDictionary
  3
STANDARD
350
18
  0
DICTIONARY
  5
19
330
C
100
AcDbDictionary
  0
ENDSEC
  0
EOF
