<?xml version="1.0" encoding="utf-8"?><!-- Generator: Iparigrafika Gear Generator by Abel Vincze http://geargenerator.com/ --><svg version="1.2" class="svggear" xmlns="http://www.w3.org/2000/svg" xmlns:xlink="http://www.w3.org/1999/xlink" x="0px" y="0px" width="1176px" height="1176px" viewBox="-588 -588 1176 1176" overflow="scroll" xml:space="preserve"><polygon id="gearpoly1" data-id="1" class="gear" fill="#ddd" stroke="#444" stroke-width="1" stroke-miterlimit="10" points="533.7481,-1.4342 533.7331,-8.1157 535.0754,-8.637 536.4417,-9.1798 537.8317,-9.7446 539.2451,-10.3316 540.6817,-10.9414 542.1411,-11.5744 543.6232,-12.2308 545.1276,-12.9112 546.6541,-13.6158 548.2024,-14.3451 549.7721,-15.0995 551.363,-15.8793 552.9748,-16.6848 554.6072,-17.5166 556.2598,-18.3749 557.9324,-19.2601 559.6246,-20.1725 561.3361,-21.1126 563.0665,-22.0806 564.8157,-23.077 566.5831,-24.102 568.3685,-25.156 570.1715,-26.2394 571.9918,-27.3525 573.829,-28.4956 575.6828,-29.669 577.5527,-30.8731 579.4385,-32.1082 581.3398,-33.3746 583.2561,-34.6726 585.1872,-36.0026 586.3139,-37.3127 585.5525,-47.797 584.2482,-48.9305 582.1453,-49.9675 580.0615,-50.975 577.9972,-51.9534 575.9527,-52.9031 573.9284,-53.8243 571.9246,-54.7176 569.9415,-55.5832 567.9795,-56.4216 566.0388,-57.2331 564.1199,-58.0181 562.2229,-58.777 560.3481,-59.5101 558.4959,-60.218 556.6666,-60.9009 554.8603,-61.5592 553.0774,-62.1935 551.3181,-62.804 549.5826,-63.3911 547.8714,-63.9553 546.1845,-64.4971 544.5222,-65.0167 542.8848,-65.5146 541.2726,-65.9913 539.6856,-66.4472 538.1242,-66.8826 536.5886,-67.298 535.079,-67.6938 533.5956,-68.0705 532.1386,-68.4285 530.7083,-68.7682 529.3047,-69.09 528.3541,-75.7036 528.3541,-75.7036 527.4093,-82.318 528.6661,-83.021 529.9435,-83.7487 531.2414,-84.5014 532.5593,-85.2795 533.897,-86.0833 535.2542,-86.9132 536.6305,-87.7695 538.0256,-88.6526 539.4392,-89.5628 540.8708,-90.5005 542.3203,-91.466 543.7872,-92.4596 545.2712,-93.4817 546.7719,-94.5325 548.289,-95.6125 549.8221,-96.7218 551.3709,-97.8609 552.9349,-99.03 554.5138,-100.2294 556.1072,-101.4595 557.7148,-102.7206 559.3361,-104.0128 560.9708,-105.3366 562.6185,-106.6922 564.2787,-108.0798 565.9511,-109.4998 567.6353,-110.9525 569.3309,-112.438 571.0374,-113.9567 572.7544,-115.5088 574.4816,-117.0945 575.415,-118.5487 573.2019,-128.825 571.7526,-129.766 569.5257,-130.5002 567.322,-131.2079 565.1417,-131.8895 562.9849,-132.5453 560.8521,-133.1759 558.7434,-133.7816 556.6591,-134.3628 554.5996,-134.92 552.5649,-135.4535 550.5553,-135.9638 548.5712,-136.4513 546.6127,-136.9164 544.68,-137.3596 542.7734,-137.7812 540.893,-138.1818 539.0392,-138.5617 537.212,-138.9214 535.4118,-139.2613 533.6387,-139.5819 531.8928,-139.8836 530.1744,-140.1668 528.4836,-140.432 526.8207,-140.6797 525.1858,-140.9102 523.579,-141.1241 522.0005,-141.3217 520.4505,-141.5036 518.9291,-141.6702 517.4365,-141.8219 515.9728,-141.9592 514.538,-142.0826 512.6763,-148.4995 512.6763,-148.4995 510.8202,-154.9181 511.9668,-155.7892 513.1306,-156.6876 514.311,-157.6136 515.5079,-158.5675 516.7207,-159.5497 517.9492,-160.5603 519.1929,-161.5999 520.4515,-162.6686 521.7246,-163.7666 523.0119,-164.8945 524.3129,-166.0523 525.6272,-167.2404 526.9545,-168.459 528.2944,-169.7085 529.6464,-170.989 531.0102,-172.301 532.3854,-173.6445 533.7714,-175.0199 535.1681,-176.4274 536.5748,-177.8673 537.9912,-179.3398 539.4169,-180.8451 540.8515,-182.3835 542.2944,-183.9552 543.7454,-185.5604 545.2039,-187.1994 546.6695,-188.8722 548.1418,-190.5793 549.6204,-192.3207 551.1047,-194.0966 552.5943,-195.9074 553.3163,-197.4773 549.6945,-207.3456 548.1284,-208.0757 545.821,-208.4928 543.5403,-208.8869 541.2863,-209.2585 539.0592,-209.6078 536.8594,-209.9354 534.687,-210.2417 532.5421,-210.5272 530.425,-210.7923 528.3359,-211.0374 526.2749,-211.2631 524.2422,-211.4697 522.238,-211.6577 520.2624,-211.8276 518.3157,-211.9798 516.3979,-212.1148 514.5092,-212.233 512.6498,-212.3349 510.8198,-212.421 509.0193,-212.4916 507.2484,-212.5474 505.5073,-212.5887 503.7961,-212.6161 502.1149,-212.6299 500.4638,-212.6306 498.8429,-212.6188 497.2523,-212.5948 495.692,-212.5592 494.1623,-212.5124 492.663,-212.455 491.1944,-212.3872 489.7565,-212.3097 487.0198,-218.4051 487.0198,-218.4051 484.2885,-224.5029 485.3027,-225.5251 486.3301,-226.5767 487.3702,-227.658 488.4227,-228.7692 489.487,-229.9105 490.5628,-231.0824 491.6498,-232.2849 492.7474,-233.5183 493.8553,-234.7829 494.9731,-236.0789 496.1003,-237.4065 497.2365,-238.766 498.3813,-240.1575 499.5342,-241.5813 500.6949,-243.0375 501.8628,-244.5265 503.0376,-246.0483 504.2188,-247.6033 505.4059,-249.1914 506.5985,-250.8131 507.7963,-252.4684 508.9986,-254.1575 510.2051,-255.8805 511.4153,-257.6378 512.6287,-259.4293 513.8449,-261.2553 515.0634,-263.1158 516.2838,-265.0112 517.5056,-266.9414 518.7283,-268.9067 519.9515,-270.9071 520.448,-272.5622 515.488,-281.8304 513.8355,-282.3354 511.4926,-282.4274 509.1791,-282.5003 506.8954,-282.5545 504.6414,-282.5904 502.4174,-282.6087 500.2234,-282.6097 498.0597,-282.5939 495.9263,-282.5618 493.8234,-282.5138 491.7511,-282.4504 489.7094,-282.3721 487.6985,-282.2793 485.7186,-282.1726 483.7696,-282.0524 481.8517,-281.9192 479.9649,-281.7734 478.1094,-281.6155 476.2852,-281.4461 474.4924,-281.2655 472.731,-281.0743 471.0011,-280.8729 469.3028,-280.6618 467.636,-280.4415 466.0009,-280.2124 464.3974,-279.9751 462.8256,-279.73 461.2855,-279.4776 459.7771,-279.2184 458.3005,-278.9528 456.8556,-278.6813 455.4424,-278.4045 451.884,-284.0596 451.884,-284.0596 448.3307,-289.718 449.1928,-290.8714 450.0638,-292.0557 450.9433,-293.2712 451.8308,-294.5181 452.726,-295.7965 453.6283,-297.1067 454.5373,-298.4487 455.4526,-299.8229 456.3737,-301.2294 457.3002,-302.6683 458.2317,-304.1399 459.1676,-305.6443 460.1076,-307.1815 461.0512,-308.7519 461.9979,-310.3556 462.9472,-311.9926 463.8987,-313.6631 464.852,-315.3673 465.8066,-317.1052 466.7619,-318.8771 467.7176,-320.683 468.6732,-322.5229 469.6281,-324.3972 470.5819,-326.3057 471.5342,-328.2487 472.4845,-330.2261 473.4322,-332.2382 474.377,-334.2849 475.3182,-336.3664 476.2555,-338.4827 477.1884,-340.6339 477.4497,-342.342 471.2481,-350.8297 469.5414,-351.0998 467.2084,-350.8649 464.9074,-350.615 462.6383,-350.3509 460.4013,-350.0728 458.1964,-349.7814 456.0236,-349.477 453.8832,-349.1602 451.775,-348.8315 449.6992,-348.4913 447.6559,-348.1401 445.645,-347.7784 443.6666,-347.4067 441.7208,-347.0255 439.8075,-346.6352 437.9268,-346.2363 436.0787,-345.8294 434.2632,-345.4148 432.4803,-344.9931 430.7301,-344.5648 429.0125,-344.1303 427.3274,-343.6901 425.675,-343.2447 424.0551,-342.7946 422.4677,-342.3402 420.9129,-341.882 419.3905,-341.4206 417.9005,-340.9563 416.4429,-340.4897 415.0176,-340.0211 413.6245,-339.5512 412.2637,-339.0804 407.9529,-344.1853 407.9529,-344.1853 403.6466,-349.294 404.3398,-350.5562 405.0375,-351.8502 405.7393,-353.1763 406.4447,-354.5346 407.1532,-355.9251 407.8643,-357.3481 408.5777,-358.8036 409.2929,-360.2918 410.0093,-361.8128 410.7265,-363.3667 411.4441,-364.9536 412.1616,-366.5735 412.8785,-368.2267 413.5943,-369.9131 414.3086,-371.6329 415.0209,-373.3861 415.7306,-375.1728 416.4375,-376.993 417.1409,-378.8469 417.8403,-380.7345 418.5354,-382.6558 419.2255,-384.6109 419.9103,-386.5997 420.5893,-388.6225 421.2619,-390.679 421.9277,-392.7695 422.5862,-394.8939 423.2369,-397.0522 423.8793,-399.2444 424.513,-401.4706 425.1374,-403.7306 425.1584,-405.4585 417.8359,-413.0005 416.1082,-413.0305 413.8307,-412.4731 411.5868,-411.9055 409.3765,-411.3281 407.2,-410.7414 405.0571,-410.1459 402.9478,-409.5421 400.8723,-408.9305 398.8304,-408.3116 396.8222,-407.6858 394.8476,-407.0537 392.9066,-406.4157 390.9992,-405.7723 389.1253,-405.1239 387.285,-404.4711 385.4781,-403.8144 383.7046,-403.1542 381.9645,-402.491 380.2577,-401.8253 378.5841,-401.1576 376.9437,-400.4882 375.3363,-399.8178 373.7619,-399.1468 372.2204,-398.4756 370.7118,-397.8047 369.2358,-397.1346 367.7924,-396.4658 366.3816,-395.7986 365.0031,-395.1337 363.6569,-394.4714 362.3428,-393.8122 361.0607,-393.1565 356.0814,-397.6118 356.0814,-397.6118 351.106,-402.0715 351.6168,-403.4178 352.1276,-404.7964 352.638,-406.2072 353.1475,-407.6504 353.6556,-409.126 354.1618,-410.6341 354.6657,-412.1748 355.1667,-413.748 355.6645,-415.3539 356.1585,-416.9925 356.6482,-418.6638 357.1333,-420.3679 357.6131,-422.1047 358.0873,-423.8743 358.5553,-425.6768 359.0166,-427.512 359.4708,-429.3801 359.9174,-431.2811 360.356,-433.2148 360.7859,-435.1814 361.2068,-437.1807 361.6182,-439.2128 362.0195,-441.2776 362.4104,-443.3751 362.7902,-445.5053 363.1586,-447.6681 363.515,-449.8635 363.859,-452.0913 364.1901,-454.3516 364.5077,-456.6443 364.8115,-458.9692 364.5919,-460.6832 356.291,-467.1327 354.5759,-466.922 352.3981,-466.053 350.2551,-465.1786 348.1467,-464.2993 346.073,-463.4154 344.0338,-462.5275 342.0291,-461.636 340.0589,-460.7415 338.123,-459.8444 336.2214,-458.9452 334.354,-458.0444 332.5207,-457.1425 330.7214,-456.2399 328.9561,-455.3371 327.2245,-454.4345 325.5266,-453.5327 323.8622,-452.6321 322.2314,-451.7332 320.6338,-450.8364 319.0694,-449.9423 317.5381,-449.0511 316.0397,-448.1635 314.574,-447.2799 313.1409,-446.4007 311.7403,-445.5264 310.372,-444.6574 309.0357,-443.7942 307.7315,-442.9372 306.4589,-442.0869 305.218,-441.2437 304.0084,-440.408 302.8301,-439.5803 297.2791,-443.2992 297.2791,-443.2992 291.7315,-447.023 292.05,-448.4274 292.364,-449.8636 292.6731,-451.3318 292.9767,-452.8318 293.2745,-454.3638 293.5659,-455.9277 293.8504,-457.5235 294.1277,-459.1511 294.3971,-460.8107 294.6582,-462.502 294.9106,-464.2252 295.1538,-465.9802 295.3872,-467.7669 295.6105,-469.5853 295.8231,-471.4354 296.0245,-473.317 296.2143,-475.2301 296.392,-477.1747 296.5572,-479.1506 296.7092,-481.1579 296.8478,-483.1963 296.9723,-485.2659 297.0824,-487.3665 297.1775,-489.498 297.2572,-491.6603 297.321,-493.8533 297.3684,-496.0769 297.399,-498.331 297.4123,-500.6154 297.4078,-502.9299 297.385,-505.2745 296.929,-506.9413 287.8113,-512.1727 286.1422,-511.7253 284.1066,-510.5618 282.1061,-509.3976 280.1406,-508.2334 278.2101,-507.0695 276.3143,-505.9064 274.4532,-504.7446 272.6266,-503.5846 270.8345,-502.4269 269.0765,-501.2718 267.3526,-500.1199 265.6627,-498.9716 264.0066,-497.8273 262.384,-496.6876 260.7949,-495.5528 259.239,-494.4235 257.7162,-493.3001 256.2263,-492.1829 254.7691,-491.0725 253.3444,-489.9693 251.952,-488.8738 250.5917,-487.7863 249.2632,-486.7072 247.9665,-485.6372 246.7012,-484.5764 245.4671,-483.5255 244.264,-482.4847 243.0917,-481.4545 241.9499,-480.4354 240.8384,-479.4276 239.7569,-478.4318 238.7052,-477.4481 232.6907,-480.3583 232.6907,-480.3583 226.6788,-483.2738 226.7987,-484.7088 226.9098,-486.1748 227.0115,-487.6717 227.1035,-489.1994 227.1851,-490.7579 227.2561,-492.3471 227.3157,-493.9669 227.3637,-495.6174 227.3996,-497.2982 227.4228,-499.0095 227.4329,-500.7511 227.4295,-502.5228 227.412,-504.3246 227.38,-506.1564 227.333,-508.018 227.2706,-509.9093 227.1923,-511.8303 227.0977,-513.7807 226.9862,-515.7604 226.8574,-517.7692 226.711,-519.8071 226.5463,-521.8739 226.3629,-523.9694 226.1605,-526.0934 225.9384,-528.2457 225.6964,-530.4263 225.4339,-532.6348 225.1505,-534.8712 224.8457,-537.1352 224.5191,-539.4266 224.1703,-541.7452 223.4867,-543.3323 213.7297,-547.2439 212.1391,-546.5686 210.2852,-545.133 208.4662,-543.7018 206.6819,-542.2753 204.9321,-540.8541 203.2167,-539.4385 201.5354,-538.029 199.888,-536.6261 198.2744,-535.2302 196.6943,-533.8417 195.1476,-532.461 193.6339,-531.0887 192.1531,-529.7251 190.7049,-528.3707 189.2892,-527.0258 187.9057,-525.6909 186.554,-524.3665 185.2341,-523.0528 183.9456,-521.7504 182.6883,-520.4597 181.4619,-519.181 180.2662,-517.9148 179.1009,-516.6614 177.9657,-515.4212 176.8603,-514.1947 175.7845,-512.9822 174.738,-511.7842 173.7204,-510.6009 172.7316,-509.4327 171.7711,-508.2801 170.8388,-507.1434 169.9342,-506.023 163.5732,-508.0678 163.5732,-508.0678 157.2141,-510.1182 157.1331,-511.556 157.0391,-513.0231 156.9315,-514.5196 156.8099,-516.0452 156.6739,-517.5999 156.5229,-519.1835 156.3566,-520.7959 156.1745,-522.437 155.976,-524.1065 155.7608,-525.8043 155.5285,-527.5303 155.2785,-529.2843 155.0104,-531.0662 154.7238,-532.8757 154.4182,-534.7126 154.0932,-536.5769 153.7483,-538.4682 153.3831,-540.3865 152.9972,-542.3314 152.5901,-544.3028 152.1614,-546.3005 151.7107,-548.3242 151.2375,-550.3738 150.7414,-552.4489 150.222,-554.5494 149.6789,-556.6751 149.1115,-558.8256 148.5196,-561.0008 147.9027,-563.2003 147.2604,-565.424 146.5923,-567.6715 145.6945,-569.1479 135.488,-571.6636 134.0069,-570.7735 132.3709,-569.0939 130.7687,-567.4234 129.2003,-565.7625 127.6654,-564.1116 126.1636,-562.471 124.6949,-560.8413 123.2588,-559.2227 121.8552,-557.6158 120.4837,-556.0209 119.1441,-554.4384 117.8362,-552.8688 116.5596,-551.3124 115.314,-549.7696 114.0993,-548.2408 112.9149,-546.7263 111.7608,-545.2267 110.6365,-543.7421 109.5418,-542.2731 108.4764,-540.8199 107.4399,-539.383 106.4321,-537.9627 105.4525,-536.5593 104.5009,-535.1732 103.577,-533.8048 102.6804,-532.4544 101.8108,-531.1223 100.9679,-529.8089 100.1512,-528.5145 99.3605,-527.2395 98.5955,-525.9841 97.8556,-524.7486 91.272,-525.8883 91.272,-525.8883 84.6894,-527.0338 84.4091,-528.4462 84.1118,-529.886 83.797,-531.3529 83.4643,-532.8468 83.1132,-534.3675 82.7433,-535.9147 82.3542,-537.4882 81.9454,-539.0879 81.5165,-540.7136 81.0672,-542.3649 80.5968,-544.0418 80.1052,-545.744 79.5917,-547.4712 79.0561,-549.2232 78.4978,-550.9997 77.9165,-552.8006 77.3117,-554.6255 76.6832,-556.4743 76.0303,-558.3466 75.3528,-560.2421 74.6503,-562.1607 73.9223,-564.102 73.1685,-566.0658 72.3884,-568.0517 71.5817,-570.0595 70.748,-572.0888 69.8869,-574.1395 68.998,-576.2111 68.081,-578.3034 67.1355,-580.416 66.1611,-582.5486 65.0665,-583.8858 54.6093,-584.9565 53.2665,-583.8689 51.8801,-581.978 50.526,-580.1008 49.204,-578.2377 47.9138,-576.3892 46.655,-574.5557 45.4273,-572.7374 44.2305,-570.9347 43.0642,-569.1481 41.928,-567.3778 40.8217,-565.6243 39.745,-563.888 38.6974,-562.169 37.6787,-560.4679 36.6885,-558.7849 35.7265,-557.1204 34.7923,-555.4747 33.8856,-553.8481 33.006,-552.241 32.1531,-550.6537 31.3267,-549.0865 30.5263,-547.5397 29.7516,-546.0137 29.0022,-544.5087 28.2778,-543.025 27.5778,-541.563 26.9021,-540.1228 26.2501,-538.7049 25.6216,-537.3094 25.016,-535.9367 24.4331,-534.5871 23.8724,-533.2607 17.1942,-533.473 17.1942,-533.473 10.5162,-533.6912 10.0421,-535.0509 9.5473,-536.4353 9.0314,-537.8441 8.494,-539.2772 7.9347,-540.7341 7.3531,-542.2148 6.7488,-543.7189 6.1214,-545.2461 5.4704,-546.7963 4.7956,-548.3691 4.0965,-549.9642 3.3727,-551.5813 2.6239,-553.2202 1.8496,-554.8806 1.0495,-556.5622 0.2232,-558.2647 -0.6296,-559.9877 -1.5094,-561.7309 -2.4164,-563.4941 -3.3511,-565.277 -4.3139,-567.0791 -5.3049,-568.9002 -6.3247,-570.7399 -7.3736,-572.5979 -8.4519,-574.4739 -9.5599,-576.3675 -10.698,-578.2783 -11.8665,-580.2061 -13.0658,-582.1504 -14.2962,-584.1109 -15.5579,-586.0872 -16.8279,-587.2589 -27.3324,-586.8639 -28.5108,-585.6 -29.6205,-583.5345 -30.7001,-581.4871 -31.75,-579.4583 -32.7704,-577.4482 -33.7617,-575.4572 -34.7244,-573.4858 -35.6587,-571.5341 -36.565,-569.6025 -37.4438,-567.6914 -38.2952,-565.801 -39.1199,-563.9317 -39.918,-562.0837 -40.6901,-560.2573 -41.4364,-558.4529 -42.1574,-556.6707 -42.8535,-554.911 -43.525,-553.174 -44.1723,-551.4602 -44.796,-549.7696 -45.3962,-548.1027 -45.9735,-546.4596 -46.5283,-544.8406 -47.061,-543.2459 -47.5719,-541.6758 -48.0616,-540.1306 -48.5303,-538.6104 -48.9786,-537.1156 -49.4068,-535.6462 -49.8154,-534.2026 -50.2048,-532.7849 -50.5755,-531.3934 -57.2182,-530.6742 -57.2182,-530.6742 -63.8616,-529.9609 -64.5203,-531.2414 -65.2029,-532.5435 -65.9099,-533.8668 -66.6415,-535.2111 -67.3981,-536.5761 -68.1801,-537.9614 -68.9879,-539.3667 -69.8218,-540.7918 -70.6821,-542.2362 -71.5693,-543.6998 -72.4836,-545.1821 -73.4254,-546.6828 -74.395,-548.2015 -75.3929,-549.738 -76.4192,-551.2918 -77.4744,-552.8627 -78.5587,-554.4503 -79.6725,-556.0541 -80.8161,-557.674 -81.9899,-559.3094 -83.194,-560.96 -84.4289,-562.6254 -85.6948,-564.3053 -86.9921,-565.9993 -88.3209,-567.7069 -89.6817,-569.4279 -91.0747,-571.1617 -92.5001,-572.9081 -93.9583,-574.6665 -95.4496,-576.4367 -96.9741,-578.2181 -98.3948,-579.2018 -108.7421,-577.3486 -109.7331,-575.933 -110.5445,-573.7332 -111.3287,-571.5555 -112.086,-569.4003 -112.8167,-567.2677 -113.5213,-565.1582 -114.2002,-563.072 -114.8538,-561.0092 -115.4825,-558.9703 -116.0867,-556.9555 -116.6668,-554.965 -117.2233,-552.9991 -117.7565,-551.058 -118.2668,-549.142 -118.7548,-547.2512 -119.2207,-545.386 -119.6651,-543.5466 -120.0883,-541.7331 -120.4909,-539.9458 -120.8731,-538.1849 -121.2356,-536.4506 -121.5786,-534.7432 -121.9027,-533.0627 -122.2082,-531.4094 -122.4957,-529.7835 -122.7655,-528.1852 -123.0181,-526.6146 -123.254,-525.0719 -123.4735,-523.5572 -123.6772,-522.0708 -123.8656,-520.6127 -124.0389,-519.1832 -130.5169,-517.5465 -130.5169,-517.5465 -136.9964,-515.9156 -137.8269,-517.0919 -138.6841,-518.2863 -139.5684,-519.4984 -140.4799,-520.7278 -141.4192,-521.9741 -142.3864,-523.2371 -143.3819,-524.5164 -144.406,-525.8115 -145.459,-527.1222 -146.5412,-528.448 -147.6529,-529.7886 -148.7944,-531.1436 -149.9659,-532.5127 -151.1679,-533.8953 -152.4005,-535.2912 -153.664,-536.7 -154.9587,-538.1211 -156.2849,-539.5544 -157.6429,-540.9993 -159.0328,-542.4554 -160.4549,-543.9224 -161.9096,-545.3997 -163.397,-546.8871 -164.9173,-548.384 -166.4709,-549.8901 -168.058,-551.4049 -169.6787,-552.9281 -171.3333,-554.459 -173.0221,-555.9974 -174.7451,-557.5428 -176.5027,-559.0948 -178.0465,-559.8711 -188.0352,-556.5959 -188.8195,-555.0562 -189.317,-552.7648 -189.7904,-550.4992 -190.2404,-548.2596 -190.6672,-546.0461 -191.0714,-543.859 -191.4533,-541.6986 -191.8135,-539.565 -192.1523,-537.4584 -192.4702,-535.3791 -192.7677,-533.3272 -193.0451,-531.303 -193.3029,-529.3066 -193.5416,-527.3382 -193.7617,-525.3979 -193.9635,-523.486 -194.1476,-521.6026 -194.3143,-519.7479 -194.4642,-517.922 -194.5977,-516.125 -194.7152,-514.3572 -194.8173,-512.6186 -194.9043,-510.9094 -194.9768,-509.2297 -195.0352,-507.5796 -195.0799,-505.9593 -195.1115,-504.3688 -195.1303,-502.8083 -195.137,-501.2778 -195.1318,-499.7775 -195.1154,-498.3074 -195.0881,-496.8677 -201.2753,-494.3453 -201.2753,-494.3453 -207.4647,-491.8285 -208.4509,-492.8778 -209.466,-493.9413 -210.5103,-495.0185 -211.5841,-496.109 -212.6876,-497.2126 -213.8212,-498.3287 -214.9851,-499.4569 -216.1794,-500.5969 -217.4046,-501.7483 -218.6608,-502.9106 -219.9482,-504.0835 -221.2672,-505.2664 -222.6179,-506.4591 -224.0006,-507.661 -225.4155,-508.8717 -226.8628,-510.0909 -228.3427,-511.3181 -229.8554,-512.5528 -231.4012,-513.7947 -232.9803,-515.0432 -234.5927,-516.2979 -236.2389,-517.5585 -237.9188,-518.8244 -239.6327,-520.0951 -241.3808,-521.3704 -243.1632,-522.6496 -244.9801,-523.9323 -246.8317,-525.2181 -248.7181,-526.5065 -250.6395,-527.7971 -252.596,-529.0893 -254.2328,-529.6432 -263.6684,-525.0097 -264.2308,-523.3758 -264.4045,-521.0375 -264.5581,-518.7281 -264.6919,-516.4476 -264.8066,-514.1962 -264.9024,-511.9742 -264.98,-509.7816 -265.0397,-507.6187 -265.082,-505.4855 -265.1075,-503.3822 -265.1165,-501.3089 -265.1095,-499.2657 -265.0869,-497.2529 -265.0494,-495.2704 -264.9973,-493.3184 -264.9311,-491.397 -264.8512,-489.5063 -264.7582,-487.6464 -264.6525,-485.8174 -264.5346,-484.0194 -264.405,-482.2524 -264.264,-480.5165 -264.1124,-478.8118 -263.9504,-477.1384 -263.7785,-475.4962 -263.5973,-473.8855 -263.4072,-472.3061 -263.2087,-470.7581 -263.0023,-469.2416 -262.7884,-467.7566 -262.5675,-466.3031 -262.3402,-464.8812 -268.1161,-461.5223 -268.1161,-461.5223 -273.895,-458.1686 -275.0176,-459.0704 -276.1708,-459.9822 -277.3549,-460.9036 -278.57,-461.8341 -279.8164,-462.7733 -281.0943,-463.7208 -282.4038,-464.6761 -283.7452,-465.6388 -285.1187,-466.6084 -286.5244,-467.5846 -287.9626,-468.5669 -289.4333,-469.5547 -290.9369,-470.5478 -292.4734,-471.5456 -294.043,-472.5477 -295.6459,-473.5536 -297.2822,-474.5628 -298.9521,-475.575 -300.6556,-476.5896 -302.3931,-477.6062 -304.1645,-478.6244 -305.97,-479.6435 -307.8098,-480.6633 -309.6838,-481.6832 -311.5924,-482.7027 -313.5355,-483.7214 -315.5133,-484.7388 -317.5258,-485.7544 -319.5731,-486.7677 -321.6554,-487.7783 -323.7727,-488.7857 -325.4707,-489.1064 -334.1696,-483.2048 -334.4992,-481.5085 -334.3458,-479.1688 -334.1764,-476.8605 -333.9916,-474.5836 -333.7918,-472.3382 -333.5775,-470.1244 -333.3491,-467.9424 -333.1072,-465.7922 -332.8523,-463.6738 -332.5847,-461.5875 -332.3051,-459.5331 -332.0138,-457.5108 -331.7114,-455.5207 -331.3983,-453.5627 -331.075,-451.6369 -330.742,-449.7435 -330.3998,-447.8823 -330.0488,-446.0535 -329.6896,-444.257 -329.3226,-442.4928 -328.9483,-440.7611 -328.5672,-439.0617 -328.1798,-437.3947 -327.7864,-435.7601 -327.3877,-434.1579 -326.9841,-432.588 -326.5761,-431.0504 -326.1641,-429.5451 -325.7486,-428.0721 -325.3301,-426.6313 -324.9091,-425.2227 -324.486,-423.8463 -329.7383,-419.7162 -329.7383,-419.7162 -334.9942,-415.5909 -336.2314,-416.3277 -337.5003,-417.0702 -338.8011,-417.8178 -340.1339,-418.5701 -341.4988,-419.3267 -342.8961,-420.0871 -344.3259,-420.8509 -345.7882,-421.6175 -347.2833,-422.3866 -348.8112,-423.1576 -350.372,-423.9302 -351.966,-424.7037 -353.5931,-425.4779 -355.2535,-426.2521 -356.9473,-427.026 -358.6746,-427.799 -360.4354,-428.5707 -362.2299,-429.3407 -364.0581,-430.1083 -365.9202,-430.8732 -367.816,-431.6349 -369.7458,-432.3929 -371.7096,-433.1467 -373.7074,-433.8958 -375.7392,-434.6398 -377.8052,-435.3781 -379.9053,-436.1104 -382.0396,-436.836 -384.208,-437.5545 -386.4107,-438.2655 -388.6476,-438.9684 -390.3737,-439.0497 -398.1666,-431.9949 -398.2569,-430.2692 -397.7794,-427.9737 -397.2904,-425.7113 -396.7905,-423.4823 -396.2801,-421.2866 -395.7598,-419.1242 -395.23,-416.9952 -394.6912,-414.8996 -394.1439,-412.8373 -393.5886,-410.8085 -393.0257,-408.813 -392.4559,-406.8509 -391.8794,-404.9223 -391.2968,-403.0269 -390.7087,-401.1649 -390.1154,-399.3362 -389.5175,-397.5408 -388.9155,-395.7786 -388.3097,-394.0496 -387.7008,-392.3537 -387.0891,-390.6909 -386.4752,-389.0611 -385.8595,-387.4642 -385.2425,-385.9003 -384.6247,-384.3691 -384.0065,-382.8707 -383.3885,-381.4048 -382.771,-379.9716 -382.1546,-378.5707 -381.5396,-377.2022 -380.9267,-375.8659 -380.3162,-374.5617 -384.9425,-369.7409 -384.9425,-369.7409 -389.5731,-364.9242 -390.9008,-365.4817 -392.2607,-366.0403 -393.6529,-366.5996 -395.0774,-367.1592 -396.5344,-367.7184 -398.0239,-368.277 -399.5461,-368.8343 -401.1009,-369.39 -402.6884,-369.9435 -404.3087,-370.4944 -405.9619,-371.0421 -407.648,-371.5864 -409.367,-372.1265 -411.1191,-372.6621 -412.9041,-373.1927 -414.7221,-373.7179 -416.5732,-374.237 -418.4574,-374.7497 -420.3747,-375.2554 -422.325,-375.7537 -424.3084,-376.2442 -426.3249,-376.7262 -428.3745,-377.1994 -430.4571,-377.6632 -432.5727,-378.1171 -434.7213,-378.5608 -436.9029,-378.9936 -439.1174,-379.4151 -441.3648,-379.8249 -443.645,-380.2223 -445.9579,-380.6071 -447.6785,-380.4474 -454.4138,-372.3766 -454.263,-370.6552 -453.4706,-368.4485 -452.6715,-366.2762 -451.8663,-364.1384 -451.0553,-362.0351 -450.2391,-359.9662 -449.4181,-357.9316 -448.5929,-355.9314 -447.764,-353.9654 -446.9317,-352.0336 -446.0966,-350.1359 -445.2592,-348.2722 -444.4199,-346.4425 -443.5793,-344.6467 -442.7377,-342.8847 -441.8957,-341.1563 -441.0538,-339.4616 -440.2123,-337.8003 -439.3718,-336.1724 -438.5328,-334.5778 -437.6957,-333.0163 -436.8609,-331.4878 -436.029,-329.9922 -435.2003,-328.5293 -434.3754,-327.099 -433.5547,-325.7012 -432.7387,-324.3357 -431.9277,-323.0023 -431.1223,-321.7009 -430.3229,-320.4312 -429.53,-319.1933 -428.7439,-317.9867 -432.6543,-312.569 -432.6543,-312.569 -436.5694,-307.1547 -437.9618,-307.522 -439.3862,-307.8859 -440.8427,-308.246 -442.3312,-308.6018 -443.8519,-308.9529 -445.4046,-309.2987 -446.9895,-309.6388 -448.6065,-309.9726 -450.2556,-310.2998 -451.9369,-310.6198 -453.6502,-310.9322 -455.3956,-311.2365 -457.1731,-311.5321 -458.9826,-311.8187 -460.8241,-312.0957 -462.6975,-312.3627 -464.6029,-312.6192 -466.5401,-312.8646 -468.5091,-313.0986 -470.5098,-313.3207 -472.5422,-313.5303 -474.6061,-313.727 -476.7016,-313.9103 -478.8285,-314.0797 -480.9867,-314.2348 -483.1761,-314.3751 -485.3967,-314.5001 -487.6483,-314.6093 -489.9309,-314.7023 -492.2442,-314.7786 -494.5882,-314.8377 -496.2698,-314.4401 -501.8163,-305.5105 -501.4274,-303.8269 -500.3356,-301.7518 -499.242,-299.7119 -498.147,-297.707 -497.0512,-295.737 -495.955,-293.8019 -494.8589,-291.9014 -493.7633,-290.0354 -492.6688,-288.2039 -491.5758,-286.4067 -490.4847,-284.6437 -489.3961,-282.9147 -488.3103,-281.2197 -487.2279,-279.5583 -486.1493,-277.9306 -485.075,-276.3362 -484.0054,-274.7751 -482.9409,-273.2472 -481.8821,-271.7521 -480.8293,-270.2897 -479.783,-268.86 -478.7436,-267.4625 -477.7116,-266.0972 -476.6874,-264.7639 -475.6715,-263.4624 -474.6642,-262.1924 -473.6661,-260.9537 -472.6774,-259.7461 -471.6988,-258.5695 -470.7304,-257.4234 -469.7729,-256.3079 -468.8266,-255.2225 -471.9449,-249.3132 -471.9449,-249.3132 -475.0684,-243.4068 -476.4984,-243.5767 -477.9596,-243.7388 -479.452,-243.8928 -480.9756,-244.0379 -482.5303,-244.1739 -484.116,-244.3003 -485.7328,-244.4165 -487.3806,-244.522 -489.0592,-244.6165 -490.7686,-244.6994 -492.5087,-244.7703 -494.2795,-244.8287 -496.0808,-244.8741 -497.9126,-244.9061 -499.7747,-244.9241 -501.6671,-244.9277 -503.5896,-244.9165 -505.5421,-244.89 -507.5245,-244.8477 -509.5366,-244.7891 -511.5784,-244.7139 -513.6496,-244.6214 -515.7502,-244.5113 -517.88,-244.3831 -520.0388,-244.2363 -522.2265,-244.0705 -524.4428,-243.8852 -526.6877,-243.68 -528.961,-243.4545 -531.2624,-243.208 -533.5918,-242.9403 -535.2017,-242.3126 -539.4515,-232.698 -538.8321,-231.0848 -537.4621,-229.182 -536.0952,-227.3141 -534.7319,-225.4811 -533.3726,-223.6828 -532.0177,-221.919 -530.6678,-220.1895 -529.3232,-218.4942 -527.9844,-216.8329 -526.6519,-215.2053 -525.3261,-213.6113 -524.0074,-212.0507 -522.6964,-210.5232 -521.3933,-209.0286 -520.0986,-207.5668 -518.8129,-206.1375 -517.5364,-204.7405 -516.2696,-203.3756 -515.013,-202.0424 -513.7669,-200.7408 -512.5318,-199.4705 -511.3081,-198.2314 -510.0961,-197.023 -508.8963,-195.8452 -507.7092,-194.6977 -506.535,-193.5802 -505.3741,-192.4925 -504.2271,-191.4343 -503.0941,-190.4053 -501.9757,-189.4052 -500.8723,-188.4337 -499.7841,-187.4906 -502.0496,-181.2049 -502.0496,-181.2049 -504.3208,-174.9212 -505.7605,-174.8905 -507.23,-174.8477 -508.7293,-174.7924 -510.2583,-174.7241 -511.8168,-174.6424 -513.4047,-174.5468 -515.0219,-174.4369 -516.6683,-174.3121 -518.3437,-174.172 -520.048,-174.0163 -521.7811,-173.8443 -523.5428,-173.6556 -525.3329,-173.4499 -527.1513,-173.2266 -528.9978,-172.9853 -530.8723,-172.7256 -532.7745,-172.4469 -534.7043,-172.1489 -536.6615,-171.8311 -538.6459,-171.4931 -540.6573,-171.1344 -542.6956,-170.7545 -544.7604,-170.3532 -546.8516,-169.9298 -548.9689,-169.484 -551.1122,-169.0154 -553.2813,-168.5234 -555.4757,-168.0078 -557.6955,-167.468 -559.9402,-166.9037 -562.2097,-166.3144 -563.7166,-165.4687 -566.5869,-155.3563 -565.749,-153.845 -564.1275,-152.1513 -562.514,-150.4919 -560.9088,-148.8664 -559.3125,-147.2748 -557.7253,-145.7167 -556.1478,-144.192 -554.5804,-142.7003 -553.0234,-141.2415 -551.4774,-139.8152 -549.9426,-138.4212 -548.4196,-137.0593 -546.9087,-135.7291 -545.4103,-134.4305 -543.9248,-133.1631 -542.4526,-131.9266 -540.9941,-130.7209 -539.5497,-129.5455 -538.1198,-128.4002 -536.7047,-127.2847 -535.3048,-126.1987 -533.9205,-125.1419 -532.5522,-124.1139 -531.2002,-123.1146 -529.8649,-122.1435 -528.5466,-121.2003 -527.2456,-120.2847 -525.9625,-119.3964 -524.6974,-118.5351 -523.4507,-117.7004 -522.2227,-116.892 -521.0139,-116.1095 -522.3826,-109.5696 -522.3826,-109.5696 -523.7571,-103.031 -525.1785,-102.8002 -526.6278,-102.5533 -528.1048,-102.2899 -529.6094,-102.0095 -531.1413,-101.7117 -532.7005,-101.396 -534.2867,-101.0621 -535.8997,-100.7094 -537.5393,-100.3375 -539.2053,-99.946 -540.8976,-99.5345 -542.6159,-99.1026 -544.3599,-98.6497 -546.1296,-98.1755 -547.9245,-97.6796 -549.7446,-97.1615 -551.5895,-96.6208 -553.4591,-96.0571 -555.353,-95.47 -557.2711,-94.8591 -559.213,-94.2239 -561.1785,-93.5641 -563.1674,-92.8793 -565.1793,-92.169 -567.214,-91.4329 -569.2712,-90.6705 -571.3507,-89.8815 -573.4521,-89.0655 -575.5751,-88.222 -577.7194,-87.3508 -579.8848,-86.4514 -581.2593,-85.4042 -582.6943,-74.9907 -581.6542,-73.6108 -579.8128,-72.1592 -577.9841,-70.7405 -576.1683,-69.3543 -574.366,-68.0003 -572.5774,-66.6783 -570.8031,-65.3879 -569.0433,-64.1289 -567.2985,-62.9009 -565.5689,-61.7037 -563.8551,-60.5369 -562.1574,-59.4002 -560.476,-58.2932 -558.8115,-57.2158 -557.1641,-56.1674 -555.5341,-55.1479 -553.922,-54.1569 -552.3281,-53.1939 -550.7527,-52.2588 -549.1961,-51.3511 -547.6587,-50.4705 -546.1408,-49.6166 -544.6428,-48.7891 -543.1648,-47.9876 -541.7073,-47.2118 -540.2706,-46.4613 -538.8549,-45.7357 -537.4606,-45.0347 -536.0879,-44.3578 -534.7372,-43.7047 -533.4087,-43.075 -532.1027,-42.4684 -532.5479,-35.8017 -532.5479,-35.8017 -532.9991,-29.1354 -534.3745,-28.709 -535.7753,-28.2628 -537.2013,-27.7964 -538.6522,-27.3094 -540.1278,-26.8013 -541.6279,-26.2717 -543.1521,-25.7202 -544.7004,-25.1465 -546.2723,-24.55 -547.8676,-23.9305 -549.4862,-23.2875 -551.1276,-22.6206 -552.7917,-21.9294 -554.4781,-21.2135 -556.1865,-20.4726 -557.9168,-19.7062 -559.6685,-18.9141 -561.4414,-18.0957 -563.2352,-17.2507 -565.0496,-16.3788 -566.8842,-15.4796 -568.7388,-14.5526 -570.613,-13.5977 -572.5065,-12.6143 -574.4189,-11.6021 -576.35,-10.5609 -578.2994,-9.4901 -580.2668,-8.3896 -582.2517,-7.2589 -584.254,-6.0977 -586.2731,-4.9057 -587.4885,-3.6774 -587.4602,6.8345 -586.2383,8.0562 -584.2128,9.2374 -582.2043,10.3878 -580.2133,11.5078 -578.2401,12.5978 -576.285,13.658 -574.3483,14.6889 -572.4304,15.6907 -570.5317,16.6639 -568.6524,17.6088 -566.7928,18.5257 -564.9534,19.4151 -563.1344,20.2773 -561.3361,21.1126 -559.5588,21.9214 -557.8028,22.7042 -556.0685,23.4612 -554.3561,24.193 -552.6658,24.8997 -550.9981,25.582 -549.3531,26.2401 -547.7311,26.8744 -546.1325,27.4853 -544.5574,28.0733 -543.0061,28.6387 -541.4789,29.182 -539.976,29.7035 -538.4977,30.2037 -537.0442,30.6829 -535.6157,31.1417 -534.2125,31.5803 -532.8348,31.9993 -532.3478,38.6631 -532.3478,38.6631 -531.8668,45.3273 -533.1695,45.9409 -534.4946,46.5777 -535.8418,47.2381 -537.2108,47.9223 -538.6014,48.6308 -540.0131,49.364 -541.4458,50.1223 -542.8991,50.9059 -544.3727,51.7153 -545.8663,52.5508 -547.3796,53.4129 -548.9122,54.3017 -550.4639,55.2178 -552.0343,56.1614 -553.623,57.1328 -555.2298,58.1325 -556.8542,59.1608 -558.4959,60.218 -560.1547,61.3044 -561.83,62.4203 -563.5217,63.5661 -565.2292,64.7421 -566.9522,65.9487 -568.6904,67.186 -570.4434,68.4544 -572.2108,69.7543 -573.9922,71.0859 -575.7873,72.4496 -577.5956,73.8455 -579.4167,75.2741 -581.2503,76.7355 -582.2829,78.121 -580.7919,88.5266 -579.4118,89.5664 -577.2416,90.4542 -575.0927,91.3139 -572.9651,92.1459 -570.8594,92.9506 -568.7758,93.7284 -566.7145,94.4798 -564.6758,95.2049 -562.6601,95.9044 -560.6676,96.5785 -558.6986,97.2278 -556.7533,97.8525 -554.8319,98.4531 -552.9349,99.03 -551.0623,99.5836 -549.2145,100.1144 -547.3917,100.6227 -545.5941,101.109 -543.8219,101.5736 -542.0755,102.0171 -540.3549,102.4399 -538.6605,102.8423 -536.9923,103.2248 -535.3507,103.5878 -533.7358,103.9319 -532.1479,104.2573 -530.5871,104.5646 -529.0535,104.8541 -527.5475,105.1264 -526.069,105.3819 -524.6184,105.621 -523.1958,105.8441 -521.7862,112.3753 -521.7862,112.3753 -520.3824,118.9077 -521.587,119.6967 -522.8106,120.5117 -524.0528,121.3531 -525.3132,122.2212 -526.5916,123.1164 -527.8876,124.0389 -529.2008,124.9892 -530.5309,125.9674 -531.8775,126.974 -533.2403,128.0093 -534.6189,129.0736 -536.0129,130.1671 -537.422,131.2902 -538.8458,132.4431 -540.2838,133.6263 -541.7358,134.8398 -543.2013,136.0842 -544.68,137.3596 -546.1714,138.6662 -547.6751,140.0045 -549.1908,141.3746 -550.718,142.7768 -552.2564,144.2113 -553.8055,145.6785 -555.3649,147.1786 -556.9342,148.7118 -558.5129,150.2784 -560.1007,151.8786 -561.6971,153.5126 -563.3017,155.1807 -564.9141,156.8831 -565.7438,158.3988 -562.8192,168.4957 -561.3078,169.3333 -559.0352,169.9104 -556.7875,170.4627 -554.5649,170.9905 -552.3676,171.4943 -550.196,171.9746 -548.0502,172.4317 -545.9305,172.8661 -543.837,173.2782 -541.7701,173.6685 -539.7299,174.0374 -537.7165,174.3853 -535.7303,174.7126 -533.7714,175.0199 -531.8401,175.3075 -529.9364,175.576 -528.0605,175.8256 -526.2128,176.057 -524.3932,176.2705 -522.602,176.4666 -520.8393,176.6458 -519.1054,176.8085 -517.4002,176.9551 -515.7241,177.0861 -514.077,177.2021 -512.4593,177.3033 -510.8709,177.3904 -509.3119,177.4637 -507.7826,177.5238 -506.2831,177.571 -504.8133,177.6059 -503.3735,177.6289 -501.0686,183.9003 -501.0686,183.9003 -498.7693,190.1737 -499.8524,191.1227 -500.9506,192.1001 -502.0636,193.1062 -503.191,194.1412 -504.3324,195.2056 -505.4873,196.2995 -506.6555,197.4233 -507.8365,198.5772 -509.03,199.7614 -510.2354,200.9762 -511.4525,202.222 -512.6807,203.4989 -513.9198,204.8071 -515.1692,206.147 -516.4286,207.5188 -517.6976,208.9226 -518.9757,210.3588 -520.2624,211.8276 -521.5575,213.3291 -522.8603,214.8636 -524.1706,216.4313 -525.4878,218.0324 -526.8116,219.6671 -528.1414,221.3356 -529.4768,223.0382 -530.8174,224.7748 -532.1628,226.5459 -533.5124,228.3515 -534.8659,230.1918 -536.2227,232.067 -537.5824,233.9772 -538.1932,235.5936 -533.8918,245.1852 -532.2785,245.8043 -529.9477,246.0595 -527.645,246.2936 -525.3706,246.5069 -523.1246,246.7001 -520.9073,246.8734 -518.7188,247.0274 -516.5592,247.1626 -514.4288,247.2794 -512.3276,247.3782 -510.2559,247.4595 -508.2138,247.5238 -506.2013,247.5716 -504.2188,247.6033 -502.2661,247.6193 -500.3436,247.6202 -498.4513,247.6063 -496.5893,247.5783 -494.7577,247.5365 -492.9567,247.4814 -491.1862,247.4135 -489.4465,247.3333 -487.7375,247.2412 -486.0595,247.1377 -484.4123,247.0232 -482.7962,246.8984 -481.2111,246.7635 -479.6572,246.6192 -478.1344,246.4658 -476.6428,246.3039 -475.1825,246.1339 -473.7535,245.9562 -470.5983,251.8459 -470.5983,251.8459 -467.4482,257.7383 -468.3887,258.8287 -469.3403,259.9494 -470.3024,261.1006 -471.2748,262.2825 -472.2569,263.4954 -473.2484,264.7394 -474.2488,266.0148 -475.2577,267.3218 -476.2747,268.6606 -477.2993,270.0314 -478.3312,271.4344 -479.3698,272.8698 -480.4147,274.3378 -481.4655,275.8385 -482.5218,277.3722 -483.583,278.939 -484.6487,280.5391 -485.7186,282.1726 -486.792,283.8398 -487.8687,285.5407 -488.948,287.2755 -490.0296,289.0443 -491.1129,290.8473 -492.1976,292.6847 -493.2831,294.5565 -494.369,296.4629 -495.4547,298.4039 -496.54,300.3798 -497.6241,302.3905 -498.7068,304.4363 -499.7874,306.5171 -500.1672,308.2029 -494.5728,317.1025 -492.8891,317.491 -490.5454,317.4193 -488.2326,317.3306 -485.9506,317.2254 -483.6996,317.1041 -481.4797,316.9671 -479.2911,316.8151 -477.1337,316.6484 -475.0078,316.4675 -472.9133,316.273 -470.8504,316.0652 -468.8192,315.8446 -466.8197,315.6119 -464.852,315.3673 -462.9162,315.1114 -461.0122,314.8447 -459.1403,314.5677 -457.3003,314.2807 -455.4923,313.9845 -453.7165,313.6792 -451.9727,313.3656 -450.2611,313.044 -448.5816,312.715 -446.9343,312.379 -445.3191,312.0364 -443.736,311.6878 -442.1852,311.3337 -440.6664,310.9745 -439.1798,310.6107 -437.7253,310.2427 -436.3029,309.8711 -434.9125,309.4964 -430.9683,314.8895 -430.9683,314.8895 -427.0288,320.2862 -427.8084,321.4969 -428.5947,322.7392 -429.3873,324.013 -430.1857,325.3188 -430.9894,326.6565 -431.7981,328.0264 -432.6113,329.4286 -433.4285,330.8633 -434.2493,332.3306 -435.0732,333.8307 -435.8997,335.3637 -436.7285,336.9296 -437.5589,338.5287 -438.3906,340.1611 -439.2231,341.8269 -440.056,343.5261 -440.8887,345.259 -441.7208,347.0255 -442.5517,348.8258 -443.3812,350.66 -444.2086,352.5281 -445.0334,354.4303 -445.8553,356.3665 -446.6737,358.337 -447.4881,360.3416 -448.2981,362.3806 -449.1032,364.4538 -449.9029,366.5615 -450.6966,368.7036 -451.484,370.8801 -452.2646,373.0911 -452.4061,374.8133 -445.6275,382.8477 -443.9061,382.9981 -441.5953,382.601 -439.3172,382.1912 -437.0721,381.7694 -434.8599,381.336 -432.6807,380.8915 -430.5345,380.4363 -428.4213,379.971 -426.3412,379.496 -424.2943,379.0118 -422.2804,378.519 -420.2996,378.0179 -418.352,377.5091 -416.4375,376.993 -414.5561,376.4702 -412.7078,375.9412 -410.8926,375.4063 -409.1104,374.8661 -407.3613,374.3211 -405.6452,373.7717 -403.9621,373.2184 -402.3119,372.6617 -400.6945,372.1022 -399.11,371.5401 -397.5582,370.9761 -396.0391,370.4106 -394.5526,369.8441 -393.0986,369.277 -391.6771,368.7098 -390.288,368.143 -388.9311,367.5771 -387.6064,367.0125 -382.95,371.8042 -382.95,371.8042 -378.2978,376.6001 -378.9013,377.9076 -379.507,379.2471 -380.1146,380.6189 -380.7235,382.0231 -381.3333,383.4597 -381.9435,384.9288 -382.5536,386.4305 -383.1632,387.965 -383.7717,389.5322 -384.3788,391.1324 -384.984,392.7654 -385.5867,394.4315 -386.1865,396.1306 -386.783,397.8629 -387.3755,399.6283 -387.9638,401.4269 -388.5472,403.2588 -389.1253,405.1239 -389.6977,407.0224 -390.2638,408.9541 -390.8231,410.9192 -391.3752,412.9177 -391.9196,414.9495 -392.4558,417.0146 -392.9834,419.1131 -393.5017,421.2449 -394.0104,423.4101 -394.509,425.6085 -394.9969,427.8402 -395.4737,430.1051 -395.9389,432.4033 -395.8394,434.1284 -388.0086,441.1412 -386.283,441.0506 -384.0499,440.3357 -381.8511,439.6129 -379.6865,438.8828 -377.5562,438.1457 -375.46,437.4022 -373.3981,436.6527 -371.3702,435.8978 -369.3765,435.138 -367.4168,434.3736 -365.4911,433.6053 -363.5994,432.8334 -361.7415,432.0585 -359.9174,431.2811 -358.1271,430.5015 -356.3704,429.7203 -354.6473,428.938 -352.9577,428.1551 -351.3015,427.3719 -349.6786,426.5891 -348.0888,425.8069 -346.5321,425.026 -345.0084,424.2468 -343.5175,423.4697 -342.0593,422.6952 -340.6336,421.9238 -339.2405,421.1559 -337.8796,420.392 -336.5508,419.6325 -335.2541,418.8779 -333.9892,418.1286 -332.756,417.3851 -327.478,421.4822 -327.478,421.4822 -322.2036,425.5839 -322.6193,426.9627 -323.0327,428.3735 -323.4434,429.8165 -323.851,431.2917 -324.2549,432.7992 -324.6547,434.3389 -325.0499,435.911 -325.4399,437.5153 -325.8245,439.152 -326.203,440.8211 -326.575,442.5225 -326.9399,444.2562 -327.2975,446.0223 -327.647,447.8207 -327.9881,449.6514 -328.3203,451.5144 -328.6431,453.4096 -328.9561,455.3371 -329.2586,457.2967 -329.5503,459.2884 -329.8308,461.3122 -330.0994,463.3681 -330.3557,465.4559 -330.5993,467.5756 -330.8296,469.727 -331.0462,471.9103 -331.2486,474.1251 -331.4364,476.3716 -331.6089,478.6494 -331.7659,480.9587 -331.9068,483.2992 -331.5681,484.9937 -322.8376,490.8484 -321.1413,490.5185 -319.0295,489.4998 -316.9527,488.4781 -314.9108,487.4537 -312.9037,486.4273 -310.9315,485.3993 -308.9939,484.3702 -307.0908,483.3405 -305.2222,482.3105 -303.388,481.2809 -301.588,480.252 -299.8221,479.2244 -298.0901,478.1985 -296.392,477.1747 -294.7276,476.1536 -293.0968,475.1355 -291.4993,474.121 -289.9351,473.1105 -288.404,472.1045 -286.9058,471.1034 -285.4404,470.1076 -284.0075,469.1176 -282.607,468.1339 -281.2388,467.1569 -279.9026,466.187 -278.5982,465.2247 -277.3254,464.2704 -276.0841,463.3245 -274.874,462.3875 -273.6949,461.4597 -272.5466,460.5417 -271.4288,459.6338 -265.632,462.9565 -265.632,462.9565 -259.8381,466.2843 -260.0579,467.7074 -260.2709,469.1621 -260.4768,470.6482 -260.6751,472.1658 -260.8653,473.7148 -261.0469,475.2952 -261.2194,476.9069 -261.3824,478.55 -261.5354,480.2243 -261.678,481.9297 -261.8095,483.6663 -261.9297,485.434 -262.0379,487.2326 -262.1338,489.0622 -262.2168,490.9225 -262.2865,492.8136 -262.3424,494.7353 -262.384,496.6876 -262.4109,498.6702 -262.4226,500.6832 -262.4186,502.7264 -262.3985,504.7996 -262.3618,506.9027 -262.308,509.0357 -262.2366,511.1983 -262.1473,513.3904 -262.0395,515.6119 -261.9127,517.8626 -261.7666,520.1423 -261.6007,522.4509 -261.4144,524.7882 -260.8432,526.4191 -251.3828,531.0018 -249.749,530.4391 -247.7995,529.1364 -245.8851,527.8355 -244.0056,526.537 -242.161,525.2412 -240.351,523.9488 -238.5754,522.66 -236.8342,521.3754 -235.1272,520.0954 -233.4541,518.8205 -231.8148,517.5512 -230.2091,516.2878 -228.6368,515.0308 -227.0977,513.7807 -225.5916,512.5378 -224.1183,511.3027 -222.6776,510.0758 -221.2692,508.8574 -219.893,507.6481 -218.5487,506.4482 -217.2361,505.2582 -215.955,504.0784 -214.7051,502.9094 -213.4861,501.7514 -212.2979,500.605 -211.1401,499.4705 -210.0126,498.3484 -208.915,497.2389 -207.847,496.1426 -206.8085,495.0598 -205.7991,493.9909 -204.8186,492.9363 -198.6158,495.4199 -198.6158,495.4199 -192.4152,497.9089 -192.4347,499.3488 -192.4432,500.8189 -192.4403,502.3192 -192.4254,503.8496 -192.3982,505.41 -192.3581,507.0003 -192.3046,508.6204 -192.2374,510.2701 -192.1559,511.9494 -192.0597,513.6582 -191.9483,515.3962 -191.8212,517.1634 -191.6781,518.9596 -191.5184,520.7846 -191.3417,522.6384 -191.1475,524.5208 -190.9354,526.4316 -190.7049,528.3707 -190.4557,530.3378 -190.1871,532.3328 -189.8988,534.3555 -189.5903,536.4057 -189.2612,538.4833 -188.9111,540.588 -188.5395,542.7196 -188.1459,544.878 -187.73,547.0628 -187.2913,549.274 -186.8293,551.5112 -186.3437,553.7742 -185.8339,556.0629 -185.0413,557.5984 -175.0352,560.8199 -173.4956,560.0352 -171.7464,558.4739 -170.0316,556.9192 -168.3512,555.3718 -166.7048,553.8319 -165.0923,552.3001 -163.5134,550.7768 -161.968,549.2624 -160.4557,547.7573 -158.9763,546.262 -157.5296,544.7768 -156.1153,543.3022 -154.7333,541.8386 -153.3831,540.3865 -152.0647,538.9461 -150.7776,537.518 -149.5216,536.1025 -148.2966,534.7 -147.1021,533.3109 -145.9379,531.9356 -144.8037,530.5745 -143.6992,529.2279 -142.6241,527.8963 -141.5782,526.58 -140.5611,525.2793 -139.5725,523.9947 -138.6121,522.7266 -137.6795,521.4752 -136.7746,520.2409 -135.8969,519.0241 -135.0461,517.8251 -134.2219,516.6443 -127.7338,518.2404 -127.7338,518.2404 -121.2471,519.8423 -121.066,521.2709 -120.8699,522.7279 -120.6582,524.2132 -120.4305,525.7267 -120.1863,527.2681 -119.9252,528.8373 -119.6468,530.4342 -119.3507,532.0585 -119.0362,533.7101 -118.7032,535.3888 -118.351,537.0944 -117.9792,538.8267 -117.5875,540.5855 -117.1753,542.3706 -116.7424,544.1818 -116.2881,546.0188 -115.8121,547.8815 -115.314,549.7696 -114.7934,551.6829 -114.2498,553.6211 -113.6828,555.584 -113.092,557.5713 -112.477,559.5829 -111.8373,561.6184 -111.1727,563.6775 -110.4826,565.7601 -109.7666,567.8658 -109.0244,569.9944 -108.2556,572.1455 -107.4597,574.319 -106.6364,576.5144 -105.6378,577.9246 -95.2807,579.7222 -93.8654,578.7309 -92.3504,576.9413 -90.8687,575.1632 -89.42,573.3969 -88.004,571.6429 -86.6203,569.9016 -85.2688,568.1733 -83.9491,566.4586 -82.661,564.7577 -81.4042,563.071 -80.1782,561.3989 -78.983,559.7419 -77.818,558.1002 -76.6832,556.4743 -75.578,554.8644 -74.5022,553.2711 -73.4555,551.6946 -72.4375,550.1352 -71.4479,548.5934 -70.4865,547.0694 -69.5527,545.5637 -68.6464,544.0765 -67.7671,542.6083 -66.9146,541.1592 -66.0884,539.7297 -65.2882,538.32 -64.5136,536.9305 -63.7643,535.5615 -63.04,534.2133 -62.3401,532.8862 -61.6645,531.5805 -61.0126,530.2965 -54.3655,530.9741 -54.3655,530.9741 -47.719,531.6576 -47.3409,533.047 -46.9439,534.4626 -46.5275,535.904 -46.0914,537.371 -45.6351,538.8634 -45.1582,540.3811 -44.6603,541.9237 -44.1409,543.491 -43.5997,545.0827 -43.0362,546.6987 -42.4501,548.3387 -41.8409,550.0024 -41.2082,551.6896 -40.5516,553.4 -39.8708,555.1332 -39.1653,556.8892 -38.4347,558.6675 -37.6787,560.4679 -36.8968,562.2901 -36.0888,564.1338 -35.2541,565.9986 -34.3925,567.8844 -33.5035,569.7908 -32.5868,571.7175 -31.642,573.6641 -30.6688,575.6304 -29.6667,577.6159 -28.6355,579.6205 -27.5748,581.6437 -26.4842,583.6852 -25.3633,585.7447 -24.1782,587.0023 -13.6717,587.3409 -12.4081,586.1623 -11.157,584.1793 -9.9372,582.2122 -8.7483,580.2615 -7.5902,578.3275 -6.4624,576.4106 -5.3645,574.511 -4.2964,572.6293 -3.2575,570.7657 -2.2476,568.9205 -1.2663,567.0941 -0.3133,565.2868 0.6118,563.499 1.5094,561.7309 2.3798,559.983 3.2233,558.2554 4.0404,556.5485 4.8315,554.8627 5.5968,553.1981 6.3368,551.5552 7.0519,549.9342 7.7425,548.3354 8.4088,546.759 9.0514,545.2054 9.6706,543.6748 10.2669,542.1675 10.8405,540.6837 11.392,539.2237 11.9217,537.7878 12.43,536.3762 12.9173,534.9892 13.3841,533.627 20.0608,533.3729 20.0608,533.3729 26.7378,533.1247 27.3056,534.448 27.8958,535.7946 28.5087,537.164 29.1447,538.556 29.8043,539.9704 30.4878,541.4069 31.1955,542.8652 31.928,544.345 32.6855,545.8459 33.4684,547.3678 34.277,548.9102 35.1119,550.473 35.9732,552.0557 36.8614,553.658 37.7769,555.2797 38.7199,556.9203 39.6908,558.5796 40.6901,560.2573 41.7179,561.9529 42.7747,563.6662 43.8608,565.3968 44.9765,567.1443 46.1221,568.9084 47.298,570.6888 48.5046,572.485 49.742,574.2966 51.0106,576.1234 52.3108,577.965 53.6427,579.8209 55.0069,581.6907 56.4034,583.5742 57.752,584.6546 68.2034,583.5277 69.2907,582.1847 70.2537,580.0468 71.1878,577.9291 72.0936,575.832 72.9713,573.7556 73.8214,571.7004 74.6441,569.6665 75.44,567.6545 76.2094,565.6644 76.9527,563.6966 77.6702,561.7514 78.3625,559.8291 79.0298,557.9299 79.6725,556.0541 80.2912,554.202 80.8861,552.3739 81.4577,550.5699 82.0064,548.7904 82.5327,547.0355 83.0368,545.3056 83.5193,543.6008 83.9806,541.9215 84.4211,540.2677 84.8413,538.6398 85.2414,537.0379 85.6221,535.4623 85.9836,533.9131 86.3266,532.3906 86.6512,530.895 86.9582,529.4264 87.2477,527.985 87.5204,526.571 94.0968,525.3902 94.0968,525.3902 100.6742,524.2152 101.4207,525.4466 102.1925,526.6979 102.99,527.9687 103.8136,529.2587 104.6636,530.5675 105.5404,531.8949 106.4442,533.2405 107.3754,534.6039 108.3344,535.9849 109.3215,537.3829 110.337,538.7978 111.3812,540.2292 112.4544,541.6766 113.557,543.1397 114.6892,544.6182 115.8514,546.1116 117.0438,547.6197 118.2668,549.142 119.5206,550.678 120.8056,552.2276 122.122,553.7902 123.47,555.3654 124.85,556.9529 126.2623,558.5522 127.707,560.163 129.1845,561.7849 130.6951,563.4173 132.2388,565.06 133.8162,566.7125 135.4272,568.3743 137.0723,570.0451 138.5582,570.9272 148.751,568.3568 149.6408,566.8755 150.2969,564.6244 150.9272,562.3973 151.5323,560.1945 152.1125,558.0162 152.6683,555.8627 153.2,553.7341 153.7081,551.6309 154.193,549.5531 154.6552,547.501 155.0951,545.4749 155.513,543.4749 155.9095,541.5014 156.2849,539.5544 156.6398,537.6342 156.9745,535.7411 157.2895,533.8751 157.5852,532.0365 157.8621,530.2255 158.1206,528.4422 158.3612,526.6869 158.5842,524.9597 158.7903,523.2607 158.9798,521.5901 159.1531,519.9482 159.3108,518.3349 159.4532,516.7505 159.5809,515.1951 159.6943,513.6688 159.7938,512.1718 159.8799,510.7041 159.9532,509.266 166.3012,507.1814 166.3012,507.1814 172.6511,505.1024 173.5617,506.218 174.5001,507.3497 175.4668,508.4971 176.4619,509.6599 177.4858,510.8377 178.5387,512.0302 179.621,513.2369 180.733,514.4574 181.8748,515.6914 183.0469,516.9386 184.2494,518.1983 185.4826,519.4704 186.7468,520.7544 188.0423,522.0498 189.3693,523.3563 190.728,524.6735 192.1187,526.0009 193.5416,527.3382 194.997,528.6848 196.4851,530.0404 198.0062,531.4046 199.5603,532.7769 201.1479,534.1569 202.7689,535.5441 204.4238,536.9382 206.1127,538.3386 207.8357,539.745 209.5931,541.1568 211.385,542.5737 213.2117,543.9951 215.0733,545.4207 216.6674,546.0874 226.4033,542.1234 227.0783,540.5327 227.4147,538.2123 227.729,535.9191 228.0216,533.6535 228.293,531.4157 228.5436,529.2057 228.7739,527.0239 228.9844,524.8704 229.1754,522.7453 229.3475,520.6489 229.5011,518.5813 229.6366,516.5426 229.7546,514.5331 229.8554,512.5528 229.9396,510.602 230.0076,508.6806 230.0598,506.789 230.0968,504.9271 230.1189,503.0952 230.1267,501.2933 230.1206,499.5216 230.1012,497.7801 230.0688,496.069 230.0239,494.3884 229.967,492.7382 229.8986,491.1187 229.8192,489.5299 229.7291,487.9719 229.629,486.4447 229.5192,484.9484 229.4003,483.483 229.2727,482.0487 235.2688,479.1009 235.2688,479.1009 241.2675,476.1584 242.3245,477.1364 243.4113,478.1265 244.5282,479.1282 245.6755,480.1412 246.8533,481.165 248.062,482.1993 249.3017,483.2437 250.5727,484.2976 251.8752,485.3607 253.2094,486.4325 254.5755,487.5127 255.9738,488.6008 257.4044,489.6963 258.8676,490.7988 260.3635,491.908 261.8923,493.0232 263.4542,494.1442 265.0494,495.2704 266.6781,496.4014 268.3403,497.5367 270.0364,498.6759 271.7664,499.8185 273.5306,500.9642 275.329,502.1123 277.1617,503.2625 279.029,504.4142 280.931,505.5671 282.8678,506.7206 284.8395,507.8743 286.8462,509.0276 288.8881,510.1802 290.5595,510.6187 299.649,505.3383 300.096,503.6691 300.1062,501.3244 300.0983,499.0098 300.0727,496.7256 300.03,494.4717 299.9707,492.2484 299.8951,490.0558 299.8038,487.8939 299.6972,485.763 299.5759,483.663 299.4402,481.5941 299.2907,479.5564 299.1278,477.55 298.9521,475.575 298.7639,473.6314 298.5638,471.7193 298.3523,469.8388 298.1297,467.9899 297.8967,466.1728 297.6537,464.3873 297.4011,462.6337 297.1395,460.9119 296.8692,459.2219 296.5909,457.5639 296.3049,455.9377 296.0118,454.3435 295.712,452.7812 295.406,451.2508 295.0943,449.7524 294.7773,448.286 294.4556,446.8514 294.1296,445.4488 299.6571,441.6952 299.6571,441.6952 305.188,437.9465 306.3708,438.7679 307.5848,439.5971 308.8303,440.4336 310.1073,441.2771 311.4162,442.127 312.7571,442.9831 314.13,443.8447 315.5353,444.7115 316.9731,445.5829 318.4435,446.4587 319.9467,447.3382 321.4828,448.2211 323.0519,449.1068 324.6543,449.995 326.29,450.8852 327.9591,451.7768 329.6619,452.6695 331.3983,453.5627 333.1685,454.456 334.9726,455.3489 336.8107,456.241 338.6829,457.1318 340.5893,458.0207 342.53,458.9074 344.505,459.7913 346.5144,460.6719 348.5584,461.5489 350.6368,462.4216 352.7499,463.2897 354.8976,464.1525 357.08,465.0097 358.7962,465.2113 367.0623,458.7173 367.2727,457.0021 366.9565,454.6788 366.6265,452.3879 366.2833,450.1294 365.9273,447.9034 365.5591,445.71 365.1791,443.5493 364.7878,441.4211 364.3857,439.3258 363.9733,437.2631 363.551,435.2333 363.1194,433.2362 362.6788,431.272 362.2299,429.3407 361.7731,427.4422 361.3089,425.5765 360.8377,423.7438 360.36,421.9439 359.8763,420.1768 359.3872,418.4426 358.893,416.7411 358.3942,415.0725 357.8914,413.4366 357.3851,411.8334 356.8756,410.2629 356.3634,408.725 355.8491,407.2196 355.3331,405.7467 354.8159,404.3063 354.2979,402.8982 353.7797,401.5224 353.2616,400.1788 358.213,395.6925 358.213,395.6925 363.1683,391.2105 364.4539,391.8593 365.7715,392.5114 367.1213,393.1665 368.5033,393.824 369.9177,394.4835 371.3647,395.1446 372.8442,395.8068 374.3565,396.4695 375.9015,397.1324 377.4795,397.795 379.0904,398.4568 380.7345,399.1173 382.4116,399.776 384.122,400.4326 385.8656,401.0864 387.6426,401.737 389.453,402.3841 391.2968,403.0269 393.1742,403.6652 395.085,404.2983 397.0294,404.9259 399.0073,405.5474 401.0189,406.1624 403.0641,406.7704 405.1429,407.3708 407.2553,407.9632 409.4014,408.5472 411.5811,409.1222 413.7944,409.6877 416.0413,410.2432 418.3218,410.7884 420.0493,410.7491 427.3312,403.1679 427.3009,401.4401 426.6643,399.1835 426.0187,396.9608 425.3645,394.772 424.7022,392.6172 424.0324,390.4964 423.3553,388.4096 422.6717,386.3566 421.9819,384.3376 421.2864,382.3524 420.5857,380.4011 419.8803,378.4835 419.1707,376.5998 418.4574,374.7497 417.7408,372.9332 417.0214,371.1504 416.2997,369.401 415.5762,367.6851 414.8513,366.0026 414.1256,364.3533 413.3994,362.7372 412.6733,361.1542 411.9477,359.6042 411.2231,358.0871 410.5,356.6027 409.7788,355.1511 409.06,353.7319 408.3441,352.3452 407.6314,350.9908 406.9225,349.6685 406.2178,348.3782 405.5178,347.1198 409.7966,341.988 409.7966,341.988 414.0799,336.86 415.4433,337.3235 416.8389,337.7859 418.2667,338.2468 419.7268,338.7056 421.2192,339.1618 422.7441,339.6151 424.3014,340.0649 425.8911,340.5108 427.5134,340.9522 429.1682,341.3887 430.8556,341.8198 432.5756,342.2451 434.3281,342.664 436.1132,343.0761 437.9309,343.4809 439.7811,343.8779 441.6639,344.2667 443.5793,344.6467 445.5271,345.0175 447.5075,345.3785 449.5203,345.7294 451.5655,346.0696 453.6431,346.3986 455.753,346.716 457.8951,347.0213 460.0695,347.314 462.2759,347.5936 464.5144,347.8596 466.7849,348.1116 469.0872,348.349 471.4214,348.5715 473.1267,348.2921 479.2825,339.7713 479.0121,338.0646 478.0677,335.9184 477.119,333.8072 476.1666,331.7308 475.2108,329.6892 474.2523,327.6822 473.2914,325.7099 472.3287,323.7721 471.3646,321.8687 470.3996,319.9996 469.4342,318.1648 468.4688,316.3641 467.504,314.5974 466.5401,312.8646 465.5777,311.1656 464.6172,309.5002 463.659,307.8683 462.7037,306.2698 461.7518,304.7045 460.8035,303.1723 459.8595,301.673 458.9202,300.2065 457.9859,298.7725 457.0572,297.371 456.1346,296.0018 455.2184,294.6646 454.309,293.3593 453.4071,292.0857 452.5128,290.8436 451.6268,289.6329 450.7494,288.4532 449.8811,287.3045 453.404,281.6271 453.404,281.6271 456.932,275.9529 458.3466,276.2222 459.7929,276.4859 461.271,276.7435 462.7807,276.9946 464.3221,277.2388 465.8952,277.4754 467.5,277.7041 469.1363,277.9243 470.8043,278.1357 472.5037,278.3377 474.2347,278.5297 475.9971,278.7115 477.7908,278.8825 479.6159,279.0421 481.4723,279.19 483.3598,279.3256 485.2784,279.4486 487.2279,279.5583 489.2085,279.6544 491.2198,279.7363 493.2618,279.8036 495.3345,279.8559 497.4376,279.8926 499.5712,279.9133 501.7349,279.9174 503.9288,279.9046 506.1527,279.8744 508.4065,279.8263 510.6899,279.7599 513.0029,279.6746 515.3453,279.57 516.9951,279.0561 521.9052,269.7614 521.3998,268.1089 520.1659,266.1151 518.9327,264.1565 517.7005,262.2329 516.47,260.3441 515.2415,258.4901 514.0154,256.6707 512.7924,254.8857 511.5728,253.135 510.3571,251.4185 509.1457,249.7359 507.9391,248.087 506.7377,246.4718 505.5421,244.89 504.3526,243.3415 503.1696,241.826 501.9937,240.3433 500.8253,238.8933 499.6647,237.4757 498.5124,236.0904 497.3689,234.7371 496.2346,233.4155 495.1099,232.1256 493.9952,230.8669 492.891,229.6394 491.7976,228.4428 490.7155,227.2767 489.645,226.1411 488.5866,225.0356 487.5407,223.9599 486.5077,222.9138 485.488,221.8971 488.1865,215.7847 488.1865,215.7847 490.8904,209.6747 492.3287,209.7445 493.7977,209.8043 495.2972,209.8538 496.8272,209.8923 498.3876,209.9195 499.9783,209.9349 501.5992,209.9381 503.2503,209.9284 504.9314,209.9056 506.6425,209.8691 508.3833,209.8184 510.1538,209.7531 511.954,209.6728 513.7835,209.5769 515.6423,209.465 517.5304,209.3366 519.4474,209.1913 521.3933,209.0286 523.3679,208.8482 525.371,208.6494 527.4026,208.4318 529.4623,208.1951 531.5501,207.9387 533.6658,207.6623 535.8091,207.3653 537.9798,207.0473 540.1779,206.7079 542.403,206.3466 544.655,205.963 546.9336,205.5566 549.2386,205.1271 550.8009,204.3885 554.3696,194.5009 553.6392,192.9349 552.1398,191.1322 550.646,189.3643 549.1581,187.6308 547.6766,185.9317 546.202,184.2667 544.7347,182.6357 543.2752,181.0383 541.8238,179.4744 540.381,177.9437 538.9472,176.4461 537.5229,174.9812 536.1085,173.5489 534.7043,172.1489 533.3108,170.781 531.9285,169.4448 530.5577,168.1403 529.1988,166.867 527.8522,165.6247 526.5184,164.4132 525.1977,163.2322 523.8905,162.0814 522.5972,160.9605 521.3182,159.8693 520.0538,158.8074 518.8045,157.7746 517.5707,156.7705 516.3526,155.7949 515.1506,154.8474 513.9652,153.9278 512.7966,153.0356 511.6453,152.1707 513.4669,145.7423 513.4669,145.7423 515.2942,139.3155 516.7282,139.1844 518.1912,139.0392 519.683,138.8794 521.2034,138.7047 522.7524,138.5145 524.3298,138.3083 525.9354,138.0858 527.5691,137.8465 529.2307,137.5899 530.92,137.3156 532.6368,137.0232 534.3811,136.7121 536.1525,136.382 537.9508,136.0324 539.776,135.6629 541.6278,135.273 543.506,134.8624 545.4103,134.4305 547.3405,133.9769 549.2965,133.5013 551.278,133.0031 553.2848,132.4821 555.3166,131.9376 557.3732,131.3694 559.4543,130.777 561.5597,130.16 563.6891,129.518 565.8423,128.8505 568.0189,128.1572 570.2188,127.4377 572.4417,126.6915 573.8859,125.7428 576.0438,115.4547 575.1025,114.0056 573.3669,112.4291 571.6415,110.8863 569.9269,109.3768 568.2234,107.9004 566.5314,106.4568 564.8514,105.0458 563.1837,103.6671 561.5288,102.3204 559.887,101.0055 558.2588,99.7219 556.6444,98.4696 555.0444,97.2481 553.4591,96.0571 551.8888,94.8964 550.334,93.7657 548.7949,92.6646 547.272,91.5928 545.7657,90.5501 544.2762,89.536 542.804,88.5503 541.3494,87.5926 539.9127,86.6626 538.4942,85.76 537.0944,84.8844 535.7135,84.0355 534.3519,83.2129 533.0099,82.4163 531.6878,81.6453 530.3859,80.8996 529.1046,80.1788 527.8441,79.4826 528.7533,72.8631 528.7533,72.8631 529.6683,66.2446 531.0701,65.9152 532.4987,65.5678 533.9537,65.202 535.4351,64.8173 536.9425,64.4134 538.4759,63.9897 540.0349,63.5459 541.6194,63.0816 543.2291,62.5963 544.8638,62.0895 546.5232,61.561 548.2071,61.0102 549.9154,60.4368 551.6476,59.8403 553.4036,59.2203 555.1831,58.5765 556.9858,57.9085 558.8115,57.2158 560.6599,56.498 562.5306,55.7548 564.4235,54.9857 566.3382,54.1904 568.2745,53.3685 570.2319,52.5196 572.2104,51.6433 574.2094,50.7393 576.2287,49.8072 578.2681,48.8465 580.3271,47.8571 582.4054,46.8384 584.5028,45.7901 585.8009,44.6496 586.506,34.1613 585.3722,32.8573 583.434,31.5377 581.5107,30.25 579.6027,28.9939 577.7103,27.7689 575.8339,26.5749 573.9738,25.4114 572.1305,24.2782 570.3043,23.175 568.4955,22.1013 566.7044,21.0568 564.9315,20.0413 563.1771,19.0544 561.4414,18.0957 559.7249,17.1648 558.0278,16.2615 556.3505,15.3853 554.6933,14.5359 553.0565,13.7129 551.4404,12.916 549.8453,12.1448 548.2715,11.3989 546.7194,10.6779 545.1891,9.9815 543.6811,9.3092 542.1955,8.6608 540.7327,8.0357 539.2928,7.4336 537.8763,6.8541 536.4833,6.2969 535.1141,5.7614 533.769,5.2473 533.7481,-1.4342 "/><g class="guides"><polyline fill="none" stroke="#444" stroke-width="0.5" stroke-miterlimit="10" points="10,0 -10,0"/><polyline fill="none" stroke="#444" stroke-width="0.5" stroke-miterlimit="10" points="0,10 0,-10"/></g><circle fill="#c00" class="firstmarker" stroke="none" stroke-miterlimit="10" cx="561.0223" cy="-40.7456" r="9.8125"/><g class="geartext"><g class="text"><polyline fill="none" stroke="#444" stroke-width="0.5" stroke-linecap="square" stroke-miterlimit="1"  points="449.02 -228.35 447.65 -231.02 446.27 -233.68 444.87 -236.34 443.45 -238.98 "/><polyline fill="none" stroke="#444" stroke-width="0.5" stroke-linecap="square" stroke-miterlimit="1"  points="440.95 -230.9 451.58 -236.47 "/><polyline fill="none" stroke="#444" stroke-width="0.5" stroke-linecap="square" stroke-miterlimit="1"  points="454.37 -231.07 450.32 -232.4 446.27 -233.68 442.22 -234.93 438.17 -236.14 "/><polyline fill="none" stroke="#444" stroke-width="0.5" stroke-linecap="square" stroke-miterlimit="1"  points="443.67 -225.63 444.99 -229.65 446.27 -233.68 447.52 -237.75 448.74 -241.83 "/><polyline fill="none" stroke="#444" stroke-width="0.5" stroke-linecap="square" stroke-miterlimit="1"  points="457.09 -225.64 461.12 -224.23 444.93 -216.36 "/><polyline fill="none" stroke="#444" stroke-width="0.5" stroke-linecap="square" stroke-miterlimit="1"  points="446.21 -213.71 444.93 -216.36 443.64 -219.01 "/><polyline fill="none" stroke="#444" stroke-width="0.5" stroke-linecap="square" stroke-miterlimit="1"  points="475.96 -190.73 459.25 -184.04 462.31 -188.47 465.34 -192.94 468.33 -197.46 471.28 -202.02 454.73 -194.92 "/><polyline fill="none" stroke="#444" stroke-width="0.5" stroke-linecap="square" stroke-miterlimit="1"  points="476.82 -171.58 475.79 -174.41 474.74 -177.24 473.68 -180.07 472.6 -182.89 "/><polyline fill="none" stroke="#444" stroke-width="0.5" stroke-linecap="square" stroke-miterlimit="1"  points="471.17 -169.54 470.16 -172.35 469.12 -175.14 468.07 -177.94 467 -180.72 "/><polyline fill="none" stroke="#444" stroke-width="0.5" stroke-linecap="square" stroke-miterlimit="1"  points="476.93 -152.6 476.01 -155.44 475.08 -158.27 474.13 -161.1 473.16 -163.92 477.92 -162.39 482.67 -160.8 487.42 -159.17 470.31 -153.58 "/><polyline fill="none" stroke="#444" stroke-width="0.5" stroke-linecap="square" stroke-miterlimit="1"  points="493.63 -138.72 492.8 -141.65 491.94 -144.58 491.07 -147.51 490.19 -150.43 484.45 -148.67 485.33 -145.79 486.19 -142.89 487.03 -139.99 484.97 -136.28 479.19 -134.66 475.5 -136.68 474.67 -139.51 473.83 -142.33 475.85 -146.03 "/><polyline fill="none" stroke="#444" stroke-width="0.5" stroke-linecap="square" stroke-miterlimit="1"  points="490.22 -115.95 490.91 -113.03 491.57 -110.1 492.22 -107.17 495.78 -104.86 498.72 -105.48 501.01 -109.09 500.35 -112.07 499.68 -115.05 498.98 -118.02 481.47 -113.88 "/><polyline fill="none" stroke="#444" stroke-width="0.5" stroke-linecap="square" stroke-miterlimit="1"  points="485.23 -96.61 497 -98.95 "/><polyline fill="none" stroke="#444" stroke-width="0.5" stroke-linecap="square" stroke-miterlimit="1"  points="499.94 -99.54 502.88 -100.12 "/><polyline fill="none" stroke="#444" stroke-width="0.5" stroke-linecap="square" stroke-miterlimit="1"  points="491.33 -79.69 487.89 -82.12 490.35 -85.54 505.12 -88.11 "/><polyline fill="none" stroke="#444" stroke-width="0.5" stroke-linecap="square" stroke-miterlimit="1"  points="500.21 -81.13 499.72 -84.11 499.21 -87.08 498.68 -90.06 498.14 -93.02 "/><polyline fill="none" stroke="#444" stroke-width="0.5" stroke-linecap="square" stroke-miterlimit="1"  points="490.89 -61.71 490.51 -64.64 490.12 -67.56 489.71 -70.47 492.24 -73.83 498.18 -74.72 501.58 -72.18 502 -69.19 502.41 -66.2 502.79 -63.21 "/><polyline fill="none" stroke="#444" stroke-width="0.5" stroke-linecap="square" stroke-miterlimit="1"  points="497.55 -56.54 500.86 -53.9 504.16 -51.22 504.45 -48.21 501.74 -44.94 492.78 -44.14 "/><polyline fill="none" stroke="#444" stroke-width="0.5" stroke-linecap="square" stroke-miterlimit="1"  points="491.59 -55.86 509.47 -57.89 "/><polyline fill="none" stroke="#444" stroke-width="0.5" stroke-linecap="square" stroke-miterlimit="1"  points="494.19 -23.56 494.32 -20.62 494.43 -17.67 494.53 -14.73 497.61 -11.86 509.61 -12.14 512.52 -15.27 512.42 -18.32 512.3 -21.37 512.17 -24.42 "/><polyline fill="none" stroke="#444" stroke-width="0.5" stroke-linecap="square" stroke-miterlimit="1"  points="512.3 -21.37 494.32 -20.62 "/><polyline fill="none" stroke="#444" stroke-width="0.5" stroke-linecap="square" stroke-miterlimit="1"  points="506.71 6.04 506.74 3.02 506.75 0 506.74 -3.02 506.71 -6.04 "/><polyline fill="none" stroke="#444" stroke-width="0.5" stroke-linecap="square" stroke-miterlimit="1"  points="500.71 5.96 500.74 2.98 500.75 0 500.74 -2.98 500.71 -5.96 "/><polyline fill="none" stroke="#444" stroke-width="0.5" stroke-linecap="square" stroke-miterlimit="1"  points="509.61 12.14 512.52 15.27 494.53 14.73 "/><polyline fill="none" stroke="#444" stroke-width="0.5" stroke-linecap="square" stroke-miterlimit="1"  points="494.43 17.67 494.53 14.73 494.61 11.78 "/><polyline fill="none" stroke="#444" stroke-width="0.5" stroke-linecap="square" stroke-miterlimit="1"  points="509.17 24.28 512.01 27.47 494.04 26.5 "/><polyline fill="none" stroke="#444" stroke-width="0.5" stroke-linecap="square" stroke-miterlimit="1"  points="493.87 29.45 494.04 26.5 494.19 23.56 "/><polyline fill="none" stroke="#444" stroke-width="0.5" stroke-linecap="square" stroke-miterlimit="1"  points="496.48 35.54 493.49 35.33 "/><polyline fill="none" stroke="#444" stroke-width="0.5" stroke-linecap="square" stroke-miterlimit="1"  points="491.91 52.93 492.22 50 492.51 47.07 492.78 44.14 493.03 41.2 499.01 41.7 501.74 44.94 501.46 47.93 501.17 50.91 503.84 54.22 506.82 54.54 510.12 51.82 510.42 48.78 510.71 45.74 507.98 42.45 "/><polyline fill="none" stroke="#444" stroke-width="0.5" stroke-linecap="square" stroke-miterlimit="1"  points="507.52 73.04 507.95 70.01 508.36 66.99 508.75 63.96 509.12 60.93 503.16 60.21 502.79 63.21 502.41 66.2 502 69.19 498.61 71.76 492.67 70.9 490.12 67.56 490.51 64.64 490.89 61.71 494.22 59.15 "/><polyline fill="none" stroke="#444" stroke-width="0.5" stroke-linecap="square" stroke-miterlimit="1"  points="495.19 92.47 494.63 95.42 494.05 98.36 493.46 101.3 495.78 104.86 498.72 105.48 502.27 103.11 502.88 100.12 503.47 97.12 504.04 94.12 486.34 90.82 "/><polyline fill="none" stroke="#444" stroke-width="0.5" stroke-linecap="square" stroke-miterlimit="1"  points="491.72 122.51 492.44 119.58 493.14 116.64 493.83 113.7 494.5 110.76 "/><polyline fill="none" stroke="#444" stroke-width="0.5" stroke-linecap="square" stroke-miterlimit="1"  points="485.9 121.06 486.61 118.16 487.3 115.26 487.98 112.36 488.64 109.45 "/><polyline fill="none" stroke="#444" stroke-width="0.5" stroke-linecap="square" stroke-miterlimit="1"  points="481.26 138.34 482.08 135.47 482.88 132.6 483.66 129.72 484.42 126.83 487.52 130.75 490.59 134.71 493.63 138.72 476.3 133.85 "/><polyline fill="none" stroke="#444" stroke-width="0.5" stroke-linecap="square" stroke-miterlimit="1"  points="477.93 159.22 476.97 162.07 475.99 164.9 475 167.73 476.82 171.58 479.64 172.59 483.49 170.73 484.5 167.85 485.49 164.96 486.46 162.07 469.39 156.38 "/><polyline fill="none" stroke="#444" stroke-width="0.5" stroke-linecap="square" stroke-miterlimit="1"  points="463.5 173.05 469.12 175.14 473.68 180.07 478.19 185.05 471.5 185.7 464.82 186.27 459.25 184.04 "/><polyline fill="none" stroke="#444" stroke-width="0.5" stroke-linecap="square" stroke-miterlimit="1"  points="469.12 175.14 468.07 177.94 467 180.72 465.92 183.5 464.82 186.27 "/><polyline fill="none" stroke="#444" stroke-width="0.5" stroke-linecap="square" stroke-miterlimit="1"  points="463.35 205.18 464.57 202.42 465.76 199.65 466.94 196.87 468.11 194.09 "/><polyline fill="none" stroke="#444" stroke-width="0.5" stroke-linecap="square" stroke-miterlimit="1"  points="457.87 202.76 459.06 200.03 460.25 197.29 461.41 194.54 462.56 191.79 "/><polyline fill="none" stroke="#444" stroke-width="0.5" stroke-linecap="square" stroke-miterlimit="1"  points="444.93 216.36 446.21 213.71 447.48 211.04 448.73 208.38 449.96 205.7 455.42 208.19 456.89 212.17 455.62 214.88 454.33 217.59 455.73 221.61 458.42 222.92 462.45 221.48 463.76 218.72 465.05 215.96 463.6 211.94 "/><polyline fill="none" stroke="#444" stroke-width="0.5" stroke-linecap="square" stroke-miterlimit="1"  points="458.42 229.71 457.04 232.43 455.65 235.15 454.24 237.86 452.82 240.56 446.27 233.68 439.65 226.9 "/></g></g><g class="guides gearguides" opacity="0.2"><circle class="pitch" fill="none" stroke="#f00" stroke-miterlimit="10" cx="0" cy="0" r="562.5"/><circle class="outer" fill="none" stroke="#ccc" stroke-miterlimit="10" stroke-dasharray="2,2" cx="0" cy="0" r="587.5"/><circle class="base" fill="none" stroke="#00f" stroke-miterlimit="10" stroke-dasharray="2,2" cx="0" cy="0" r="501.19"/></g></svg>