<?xml version="1.0" encoding="utf-8"?><!-- Generator: Iparigrafika Gear Generator by Abel Vincze http://geargenerator.com/ --><svg version="1.2" class="svggear" xmlns="http://www.w3.org/2000/svg" xmlns:xlink="http://www.w3.org/1999/xlink" x="0px" y="0px" width="368px" height="368px" viewBox="-184 -184 368 368" overflow="scroll" xml:space="preserve"><polygon id="gearpoly2" data-id="2" class="gear" fill="#ddd" stroke="#444" stroke-width="1" stroke-miterlimit="10" points="165.4167,0 165.6689,-0.0998 165.8402,-0.1216 166.0225,-0.1463 166.2159,-0.1741 166.4203,-0.2053 166.6356,-0.2399 166.8618,-0.2783 167.0989,-0.3205 167.3468,-0.3668 167.6055,-0.4173 167.8748,-0.4722 168.1548,-0.5317 168.4454,-0.596 168.7465,-0.6653 169.058,-0.7397 169.38,-0.8194 169.7123,-0.9046 170.0548,-0.9955 170.4076,-1.0922 170.7704,-1.195 171.1433,-1.3039 171.5261,-1.4192 171.9189,-1.5411 172.3214,-1.6697 172.7336,-1.8051 173.1555,-1.9477 173.5868,-2.0974 174.0276,-2.2545 174.4778,-2.4193 174.9372,-2.5917 175.4058,-2.772 175.8834,-2.9604 176.37,-3.157 176.8654,-3.3619 177.3695,-3.5755 177.8823,-3.7977 178.4036,-4.0287 178.9333,-4.2688 179.4713,-4.5181 180.0175,-4.7767 180.5718,-5.0447 181.1339,-5.3224 181.7039,-5.6098 182.2816,-5.9072 182.8669,-6.2147 183.2172,-6.5237 182.8992,-12.61 182.5185,-12.8808 181.9044,-13.1256 181.2988,-13.3611 180.702,-13.5876 180.1139,-13.8052 179.5348,-14.014 178.9646,-14.2142 178.4036,-14.406 177.8517,-14.5896 177.3092,-14.7651 176.776,-14.9326 176.2523,-15.0924 175.7383,-15.2446 175.2339,-15.3894 174.7392,-15.527 174.2544,-15.6575 173.7795,-15.7811 173.3146,-15.898 172.8598,-16.0083 172.4152,-16.1123 171.9808,-16.2101 171.5567,-16.3018 171.143,-16.3877 170.7397,-16.468 170.3469,-16.5428 169.9647,-16.6123 169.5931,-16.6766 169.2322,-16.7361 168.882,-16.7908 168.5427,-16.8409 168.2142,-16.8866 167.8965,-16.9281 167.5899,-16.9656 167.2942,-16.9992 167.0095,-17.0293 166.7359,-17.0558 166.4734,-17.0791 166.222,-17.0993 165.9819,-17.1165 165.7529,-17.1311 165.5351,-17.1431 165.3286,-17.1528 165.1334,-17.1603 164.9494,-17.1659 164.7768,-17.1697 164.5155,-17.2427 163.5691,-24.6541 163.8037,-24.7904 163.9698,-24.8374 164.1464,-24.889 164.3335,-24.9454 164.5309,-25.0066 164.7387,-25.073 164.9567,-25.1447 165.1848,-25.2217 165.423,-25.3044 165.6712,-25.3929 165.9294,-25.4874 166.1974,-25.588 166.4751,-25.6949 166.7625,-25.8082 167.0595,-25.9282 167.366,-26.055 167.6819,-26.1888 168.0071,-26.3297 168.3415,-26.4779 168.6849,-26.6336 169.0374,-26.7969 169.3988,-26.968 169.769,-27.1471 170.1478,-27.3342 170.5353,-27.5296 170.9312,-27.7334 171.3354,-27.9458 171.7479,-28.1668 172.1685,-28.3968 172.5971,-28.6358 173.0335,-28.8839 173.4777,-29.1414 173.9296,-29.4083 174.3889,-29.6848 174.8556,-29.9711 175.3295,-30.2672 175.8106,-30.5734 176.2986,-30.8898 176.7934,-31.2164 177.295,-31.5535 177.8031,-31.9012 178.3176,-32.2596 178.8383,-32.6288 179.3653,-33.0089 179.8981,-33.4002 180.1985,-33.758 178.9769,-39.7288 178.5601,-39.9399 177.9164,-40.0904 177.2825,-40.2331 176.6586,-40.3681 176.0447,-40.4956 175.4408,-40.6157 174.8472,-40.7288 174.2638,-40.8348 173.6908,-40.9341 173.1281,-41.0267 172.576,-41.1129 172.0343,-41.1929 171.5033,-41.2668 170.983,-41.3348 170.4733,-41.3971 169.9745,-41.4539 169.4865,-41.5053 169.0094,-41.5516 168.5432,-41.5929 168.088,-41.6295 167.6439,-41.6614 167.2109,-41.6889 166.789,-41.7122 166.3782,-41.7315 165.9787,-41.7469 165.5904,-41.7587 165.2134,-41.7669 164.8476,-41.7719 164.4932,-41.7738 164.1502,-41.7727 163.8185,-41.769 163.4983,-41.7627 163.1894,-41.7541 162.892,-41.7433 162.6061,-41.7305 162.3316,-41.716 162.0685,-41.6999 161.817,-41.6824 161.5769,-41.6637 161.3483,-41.6439 161.1312,-41.6234 160.9255,-41.6022 160.7313,-41.5805 160.5486,-41.5586 160.3774,-41.5366 160.1082,-41.5699 158.0677,-48.7574 158.2793,-48.9271 158.4365,-48.9984 158.6035,-49.0758 158.7801,-49.1594 158.9662,-49.2494 159.1617,-49.346 159.3666,-49.4493 159.5807,-49.5595 159.8039,-49.6768 160.0362,-49.8013 160.2774,-49.9332 160.5274,-50.0726 160.7861,-50.2197 161.0534,-50.3746 161.3292,-50.5376 161.6134,-50.7086 161.9058,-50.888 162.2063,-51.0758 162.5149,-51.2722 162.8313,-51.4773 163.1555,-51.6914 163.4874,-51.9144 163.8267,-52.1466 164.1735,-52.3881 164.5275,-52.6391 164.8886,-52.8996 165.2566,-53.1698 165.6315,-53.4499 166.0132,-53.74 166.4013,-54.0402 166.7959,-54.3506 167.1968,-54.6714 167.6038,-55.0027 168.0168,-55.3446 168.4356,-55.6972 168.8601,-56.0607 169.2902,-56.4352 169.7256,-56.8207 170.1662,-57.2175 170.6119,-57.6255 171.0625,-58.0451 171.5179,-58.4761 171.9778,-58.9188 172.4422,-59.3732 172.9108,-59.8395 173.1545,-60.2381 171.0566,-65.9602 170.613,-66.1068 169.954,-66.1597 169.306,-66.2063 168.6689,-66.2468 168.0428,-66.2814 167.4279,-66.3102 166.824,-66.3335 166.2313,-66.3514 165.6499,-66.3641 165.0797,-66.3719 164.5209,-66.3749 163.9734,-66.3732 163.4373,-66.3671 162.9126,-66.3568 162.3994,-66.3425 161.8976,-66.3243 161.4074,-66.3024 160.9287,-66.2771 160.4616,-66.2485 160.0061,-66.2167 159.5622,-66.1821 159.1299,-66.1448 158.7092,-66.105 158.3002,-66.0628 157.9028,-66.0185 157.5171,-65.9722 157.143,-65.9242 156.7806,-65.8746 156.4299,-65.8236 156.0909,-65.7715 155.7635,-65.7183 155.4477,-65.6644 155.1436,-65.6098 154.8511,-65.5548 154.5703,-65.4996 154.301,-65.4443 154.0433,-65.3892 153.7972,-65.3344 153.5626,-65.2801 153.3395,-65.2265 153.1278,-65.1738 152.9276,-65.1222 152.7389,-65.0719 152.5615,-65.023 152.3954,-64.9757 152.1242,-64.9684 149.0353,-71.7716 149.2192,-71.971 149.3641,-72.0649 149.5177,-72.1663 149.6798,-72.2753 149.8504,-72.392 150.0294,-72.5167 150.2166,-72.6494 150.4119,-72.7903 150.6151,-72.9395 150.8262,-73.0972 151.0451,-73.2636 151.2715,-73.4387 151.5054,-73.6227 151.7466,-73.8158 151.9951,-74.018 152.2506,-74.2295 152.513,-74.4504 152.7822,-74.6809 153.058,-74.9211 153.3403,-75.1711 153.629,-75.4311 153.9239,-75.7011 154.2249,-75.9813 154.5318,-76.2718 154.8444,-76.5727 155.1626,-76.8841 155.4863,-77.2062 155.8153,-77.539 156.1494,-77.8828 156.4885,-78.2374 156.8324,-78.6032 157.181,-78.9802 157.5341,-79.3684 157.8915,-79.768 158.2531,-80.1791 158.6187,-80.6018 158.9881,-81.0362 159.3612,-81.4824 159.7378,-81.9404 160.1177,-82.4103 160.5007,-82.8923 160.8867,-83.3864 161.2756,-83.8927 161.667,-84.4113 162.0609,-84.9422 162.2425,-85.3727 159.3152,-90.7182 158.8547,-90.797 158.1952,-90.7511 157.5474,-90.7006 156.9114,-90.6457 156.2872,-90.5865 155.6748,-90.5234 155.0742,-90.4564 154.4855,-90.3858 153.9087,-90.3117 153.3437,-90.2344 152.7907,-90.1541 152.2495,-90.0708 151.7203,-89.9849 151.203,-89.8965 150.6977,-89.8059 150.2042,-89.7131 149.7228,-89.6184 149.2532,-89.522 148.7956,-89.4241 148.3499,-89.3248 147.916,-89.2244 147.4941,-89.1231 147.0841,-89.021 146.6859,-88.9183 146.2996,-88.8153 145.9251,-88.7121 145.5624,-88.6088 145.2114,-88.5058 144.8722,-88.4031 144.5447,-88.301 144.2289,-88.1997 143.9247,-88.0993 143.6322,-88 143.3511,-87.902 143.0816,-87.8055 142.8236,-87.7107 142.577,-87.6178 142.3418,-87.5269 142.1179,-87.4383 141.9053,-87.3521 141.7039,-87.2684 141.5136,-87.1875 141.3344,-87.1096 141.1663,-87.0348 141.0091,-86.9633 140.7421,-86.9157 136.6737,-93.1825 136.8259,-93.4071 136.9551,-93.5216 137.0919,-93.6447 137.236,-93.7766 137.3873,-93.9175 137.5456,-94.0674 137.711,-94.2266 137.8831,-94.395 138.0618,-94.5729 138.2471,-94.7603 138.4387,-94.9574 138.6365,-95.1643 138.8403,-95.3811 139.0501,-95.608 139.2656,-95.8449 139.4867,-96.0922 139.7133,-96.3498 139.9451,-96.6178 140.1821,-96.8964 140.424,-97.1857 140.6707,-97.4858 140.9221,-97.7967 141.1779,-98.1187 141.438,-98.4516 141.7023,-98.7958 141.9706,-99.1512 142.2427,-99.5179 142.5184,-99.8961 142.7975,-100.2857 143.08,-100.687 143.3655,-101.0999 143.6541,-101.5246 143.9453,-101.9612 144.2392,-102.4096 144.5355,-102.87 144.834,-103.3425 145.1345,-103.8271 145.4369,-104.3238 145.7411,-104.8328 146.0467,-105.3541 146.3536,-105.8878 146.6617,-106.4339 146.9707,-106.9925 147.2805,-107.5637 147.5908,-108.1474 147.7062,-108.6001 144.0149,-113.4496 143.5478,-113.4589 142.9025,-113.3153 142.2695,-113.1688 141.6488,-113.0197 141.0404,-112.8682 140.4442,-112.7144 139.8603,-112.5587 139.2887,-112.4011 138.7294,-112.2419 138.1822,-112.0813 137.6473,-111.9194 137.1247,-111.7564 136.6142,-111.5926 136.1158,-111.4281 135.6296,-111.2631 135.1555,-111.0978 134.6935,-110.9324 134.2436,-110.7671 133.8057,-110.6021 133.3797,-110.4375 132.9657,-110.2736 132.5636,-110.1105 132.1734,-109.9485 131.795,-109.7876 131.4283,-109.6281 131.0734,-109.4702 130.7301,-109.3141 130.3984,-109.1599 130.0783,-109.0078 129.7697,-108.858 129.4725,-108.7108 129.1867,-108.5661 128.9122,-108.4244 128.6489,-108.2856 128.3968,-108.15 128.1558,-108.0178 127.9258,-107.8892 127.7067,-107.7643 127.4986,-107.6433 127.3012,-107.5263 127.1145,-107.4136 126.9384,-107.3052 126.7728,-107.2015 126.6177,-107.1025 126.473,-107.0084 126.216,-106.9215 121.259,-112.5119 121.376,-112.7566 121.4868,-112.8891 121.6036,-113.0312 121.7265,-113.1832 121.8551,-113.345 121.9893,-113.5169 122.1291,-113.6989 122.2742,-113.8911 122.4244,-114.0936 122.5797,-114.3066 122.7397,-114.53 122.9045,-114.7641 123.0738,-115.0089 123.2474,-115.2644 123.4252,-115.5309 123.607,-115.8083 123.7926,-116.0968 123.9819,-116.3964 124.1747,-116.7072 124.3708,-117.0294 124.57,-117.3628 124.7722,-117.7078 124.9772,-118.0642 125.1848,-118.4323 125.3949,-118.8119 125.6072,-119.2034 125.8216,-119.6065 126.0378,-120.0216 126.2558,-120.4485 126.4753,-120.8874 126.6961,-121.3383 126.9181,-121.8012 127.1411,-122.2763 127.3648,-122.7635 127.5891,-123.2629 127.8139,-123.7746 128.0389,-124.2986 128.2639,-124.8349 128.4887,-125.3835 128.7132,-125.9446 128.9372,-126.518 129.1604,-127.104 129.3827,-127.7024 129.6039,-128.3133 129.8238,-128.9367 129.8705,-129.4016 125.4976,-133.6468 125.0343,-133.5864 124.4177,-133.3481 123.8136,-133.1089 123.222,-132.869 122.643,-132.6285 122.0764,-132.3876 121.5222,-132.1466 120.9805,-131.9056 120.4511,-131.6648 119.934,-131.4244 119.4292,-131.1846 118.9367,-130.9456 118.4563,-130.7075 117.988,-130.4706 117.5318,-130.2349 117.0877,-130.0009 116.6555,-129.7685 116.2352,-129.5379 115.8268,-129.3095 115.4301,-129.0833 115.0452,-128.8595 114.6719,-128.6383 114.3102,-128.4198 113.9599,-128.2044 113.6212,-127.992 113.2937,-127.783 112.9775,-127.5774 112.6726,-127.3755 112.3787,-127.1775 112.0958,-126.9834 111.8239,-126.7934 111.5629,-126.6078 111.3125,-126.4267 111.0729,-126.2503 110.8438,-126.0786 110.6252,-125.912 110.4169,-125.7505 110.2189,-125.5943 110.0311,-125.4436 109.8533,-125.2986 109.6855,-125.1593 109.5276,-125.0259 109.3793,-124.8986 109.2407,-124.7776 109.1116,-124.663 108.8704,-124.5388 103.1356,-129.328 103.2148,-129.5874 103.3046,-129.7349 103.399,-129.8929 103.4978,-130.0614 103.6009,-130.2406 103.708,-130.4306 103.8191,-130.6314 103.9339,-130.843 104.0523,-131.0657 104.174,-131.2994 104.299,-131.5442 104.4271,-131.8002 104.558,-132.0675 104.6916,-132.3461 104.8276,-132.6361 104.9661,-132.9375 105.1066,-133.2504 105.2491,-133.5749 105.3934,-133.911 105.5393,-134.2587 105.6867,-134.6182 105.8352,-134.9894 105.9848,-135.3724 106.1352,-135.7673 106.2863,-136.1741 106.4379,-136.5927 106.5898,-137.0234 106.7418,-137.466 106.8937,-137.9206 107.0453,-138.3873 107.1965,-138.8661 107.347,-139.357 107.4967,-139.8599 107.6453,-140.3751 107.7927,-140.9024 107.9387,-141.4418 108.083,-141.9935 108.2256,-142.5573 108.3662,-143.1333 108.5046,-143.7216 108.6405,-144.322 108.774,-144.9347 108.9046,-145.5595 109.0323,-146.1966 109.1568,-146.8459 109.1336,-147.3125 104.1769,-150.8585 103.7278,-150.7297 103.1535,-150.4022 102.5918,-150.0757 102.0426,-149.7502 101.5059,-149.4261 100.9815,-149.1035 100.4695,-148.7826 99.9697,-148.4635 99.4821,-148.1465 99.0067,-147.8318 98.5432,-147.5194 98.0918,-147.2096 97.6523,-146.9026 97.2246,-146.5985 96.8086,-146.2975 96.4043,-145.9999 96.0116,-145.7056 95.6303,-145.4151 95.2605,-145.1283 94.902,-144.8455 94.5547,-144.5668 94.2186,-144.2924 93.8934,-144.0225 93.5792,-143.7573 93.2759,-143.4968 92.9832,-143.2413 92.7012,-142.9909 92.4298,-142.7458 92.1687,-142.5062 91.9179,-142.2721 91.6774,-142.0437 91.4469,-141.8213 91.2263,-141.6049 91.0157,-141.3947 90.8147,-141.1909 90.6234,-140.9935 90.4415,-140.8028 90.269,-140.6188 90.1057,-140.4418 89.9516,-140.2719 89.8064,-140.1091 89.6701,-139.9537 89.5425,-139.8058 89.4234,-139.6654 89.3129,-139.5328 89.0929,-139.3741 82.7083,-143.255 82.748,-143.5234 82.8148,-143.6826 82.8846,-143.8529 82.9572,-144.0343 83.0324,-144.2268 83.11,-144.4306 83.1899,-144.6457 83.2719,-144.8722 83.3558,-145.11 83.4413,-145.3592 83.5285,-145.6199 83.6169,-145.8922 83.7065,-146.176 83.7971,-146.4714 83.8884,-146.7784 83.9804,-147.0971 84.0727,-147.4274 84.1653,-147.7695 84.2579,-148.1234 84.3503,-148.489 84.4424,-148.8664 84.534,-149.2556 84.6248,-149.6567 84.7147,-150.0695 84.8035,-150.4943 84.891,-150.9308 84.977,-151.3793 85.0613,-151.8396 85.1438,-152.3118 85.2242,-152.7959 85.3023,-153.2919 85.3779,-153.7997 85.451,-154.3194 85.5212,-154.8509 85.5883,-155.3943 85.6523,-155.9495 85.7128,-156.5165 85.7698,-157.0952 85.8229,-157.6858 85.8721,-158.2881 85.917,-158.9021 85.9576,-159.5278 85.9937,-160.1651 86.025,-160.8141 86.0514,-161.4747 85.9589,-161.9326 80.529,-164.7003 80.1041,-164.506 79.5851,-164.0966 79.0783,-163.69 78.5838,-163.2863 78.1013,-162.8858 77.6309,-162.4887 77.1724,-162.095 76.7258,-161.705 76.2909,-161.3189 75.8677,-160.9368 75.456,-160.5588 75.0557,-160.1852 74.6669,-159.8161 74.2893,-159.4517 73.9228,-159.0921 73.5674,-158.7375 73.2229,-158.388 72.8892,-158.0439 72.5663,-157.7052 72.2539,-157.3721 71.9521,-157.0448 71.6605,-156.7234 71.3793,-156.408 71.1081,-156.0989 70.847,-155.7961 70.5957,-155.4999 70.3542,-155.2103 70.1222,-154.9274 69.8998,-154.6515 69.6867,-154.3827 69.4829,-154.121 69.2881,-153.8667 69.1023,-153.6199 68.9253,-153.3806 68.757,-153.1491 68.5972,-152.9254 68.4458,-152.7097 68.3026,-152.5021 68.1676,-152.3028 68.0405,-152.1117 67.9212,-151.9292 67.8095,-151.7552 67.7054,-151.5899 67.6086,-151.4334 67.519,-151.2858 67.3252,-151.096 60.4335,-153.982 60.4327,-154.2533 60.4751,-154.4207 60.5187,-154.5995 60.5634,-154.7897 60.6091,-154.9913 60.6555,-155.2044 60.7024,-155.429 60.7497,-155.6651 60.7972,-155.9128 60.8447,-156.172 60.892,-156.4428 60.9389,-156.7251 60.9852,-157.0191 61.0307,-157.3247 61.0753,-157.6419 61.1187,-157.9707 61.1608,-158.3112 61.2013,-158.6633 61.2402,-159.027 61.2771,-159.4023 61.3119,-159.7892 61.3444,-160.1877 61.3744,-160.5978 61.4018,-161.0194 61.4263,-161.4527 61.4478,-161.8974 61.466,-162.3537 61.4807,-162.8214 61.4919,-163.3007 61.4992,-163.7913 61.5025,-164.2934 61.5017,-164.8068 61.4964,-165.3316 61.4866,-165.8676 61.4721,-166.4149 61.4526,-166.9734 61.4279,-167.5431 61.3979,-168.1239 61.3625,-168.7158 61.3213,-169.3187 61.2743,-169.9326 61.2212,-170.5573 61.1618,-171.1929 61.0961,-171.8393 61.0237,-172.4964 60.864,-172.9355 55.0823,-174.863 54.6911,-174.6076 54.2389,-174.1253 53.7984,-173.6477 53.3695,-173.1749 52.9521,-172.7069 52.5462,-172.2441 52.1515,-171.7865 51.7679,-171.3343 51.3954,-170.8877 51.0339,-170.4467 50.6831,-170.0116 50.3431,-169.5826 50.0136,-169.1596 49.6945,-168.743 49.3857,-168.3328 49.0871,-167.9292 48.7986,-167.5323 48.5199,-167.1422 48.2511,-166.7592 47.9918,-166.3833 47.7421,-166.0146 47.5018,-165.6533 47.2706,-165.2996 47.0486,-164.9535 46.8355,-164.6152 46.6311,-164.2848 46.4355,-163.9624 46.2483,-163.6482 46.0695,-163.3422 45.8988,-163.0446 45.7363,-162.7555 45.5816,-162.475 45.4346,-162.2032 45.2953,-161.9403 45.1633,-161.6862 45.0387,-161.4413 44.9211,-161.2054 44.8105,-160.9788 44.7066,-160.7615 44.6094,-160.5537 44.5187,-160.3554 44.4342,-160.1667 44.3559,-159.9877 44.2835,-159.8185 44.2169,-159.6592 44.0535,-159.4427 36.8087,-161.2693 36.7675,-161.5375 36.7844,-161.7093 36.8009,-161.8926 36.8168,-162.0873 36.8319,-162.2935 36.846,-162.5111 36.8589,-162.7402 36.8705,-162.9807 36.8806,-163.2327 36.8889,-163.4961 36.8953,-163.7709 36.8996,-164.0571 36.9015,-164.3547 36.901,-164.6637 36.8978,-164.984 36.8917,-165.3156 36.8826,-165.6585 36.8702,-166.0127 36.8544,-166.3781 36.835,-166.7547 36.8117,-167.1425 36.7845,-167.5414 36.7531,-167.9514 36.7173,-168.3725 36.677,-168.8045 36.6319,-169.2475 36.5819,-169.7014 36.5268,-170.1661 36.4664,-170.6416 36.4005,-171.1279 36.329,-171.6248 36.2516,-172.1324 36.1682,-172.6505 36.0786,-173.1791 35.9826,-173.7181 35.8801,-174.2675 35.7708,-174.8272 35.6546,-175.397 35.5313,-175.977 35.4008,-176.567 35.2628,-177.167 35.1171,-177.7769 34.9637,-178.3965 34.8024,-179.0259 34.6328,-179.6649 34.4095,-180.0753 28.4051,-181.1195 28.0563,-180.8086 27.681,-180.2644 27.3166,-179.7264 26.963,-179.1949 26.6201,-178.67 26.2876,-178.1519 25.9655,-177.6406 25.6537,-177.1363 25.3519,-176.6391 25.0601,-176.1492 24.7781,-175.6667 24.5058,-175.1917 24.243,-174.7244 23.9896,-174.2648 23.7454,-173.8132 23.5103,-173.3696 23.2841,-172.9341 23.0667,-172.5069 22.858,-172.0881 22.6577,-171.6777 22.4657,-171.2759 22.2818,-170.8829 22.106,-170.4987 21.938,-170.1234 21.7777,-169.7571 21.6249,-169.3999 21.4795,-169.0519 21.3412,-168.7133 21.21,-168.3841 21.0857,-168.0644 20.968,-167.7543 20.8568,-167.4539 20.752,-167.1632 20.6534,-166.8824 20.5608,-166.6116 20.474,-166.3508 20.3929,-166.1 20.3173,-165.8595 20.247,-165.6291 20.1819,-165.4091 20.1217,-165.1995 20.0663,-165.0003 20.0155,-164.8117 19.9692,-164.6336 19.9271,-164.4661 19.7978,-164.2276 12.3616,-164.9541 12.2809,-165.2131 12.272,-165.3856 12.261,-165.5692 12.2477,-165.7642 12.2319,-165.9703 12.2134,-166.1876 12.1921,-166.4161 12.1677,-166.6556 12.1401,-166.9063 12.109,-167.168 12.0744,-167.4407 12.036,-167.7243 11.9936,-168.0189 11.947,-168.3243 11.8961,-168.6406 11.8407,-168.9676 11.7805,-169.3053 11.7155,-169.6537 11.6454,-170.0127 11.5701,-170.3822 11.4893,-170.7622 11.4029,-171.1526 11.3107,-171.5533 11.2126,-171.9643 11.1083,-172.3855 10.9977,-172.8168 10.8806,-173.2582 10.7569,-173.7095 10.6263,-174.1707 10.4886,-174.6417 10.3438,-175.1225 10.1917,-175.6128 10.032,-176.1127 9.8646,-176.6221 9.6894,-177.1408 9.5061,-177.6687 9.3146,-178.2058 9.1148,-178.752 8.9065,-179.3071 8.6894,-179.8711 8.4635,-180.4438 8.2286,-181.0252 7.9846,-181.6151 7.7312,-182.2134 7.4683,-182.82 7.1863,-183.1924 1.0934,-183.3301 0.7948,-182.9707 0.5048,-182.3766 0.2247,-181.7904 -0.0457,-181.2121 -0.3066,-180.642 -0.5582,-180.08 -0.8004,-179.5264 -1.0336,-178.9813 -1.2579,-178.4447 -1.4735,-177.9168 -1.6804,-177.3976 -1.8789,-176.8874 -2.0691,-176.3861 -2.2512,-175.8939 -2.4253,-175.4109 -2.5917,-174.9372 -2.7504,-174.4729 -2.9017,-174.0181 -3.0457,-173.5728 -3.1826,-173.1372 -3.3126,-172.7113 -3.4358,-172.2952 -3.5524,-171.8891 -3.6626,-171.4929 -3.7665,-171.1068 -3.8643,-170.7309 -3.9563,-170.3651 -4.0425,-170.0097 -4.1232,-169.6646 -4.1986,-169.3299 -4.2687,-169.0057 -4.3338,-168.6921 -4.3941,-168.3891 -4.4498,-168.0967 -4.501,-167.8151 -4.5479,-167.5443 -4.5907,-167.2842 -4.6297,-167.0351 -4.6648,-166.7969 -4.6965,-166.5696 -4.7247,-166.3533 -4.7498,-166.1481 -4.7719,-165.954 -4.7912,-165.771 -4.8079,-165.5992 -4.9002,-165.3441 -12.3616,-164.9541 -12.48,-165.1982 -12.5145,-165.3674 -12.5528,-165.5474 -12.595,-165.7381 -12.6413,-165.9396 -12.692,-166.1517 -12.7471,-166.3745 -12.8069,-166.6077 -12.8716,-166.8515 -12.9413,-167.1056 -13.0162,-167.3701 -13.0965,-167.6449 -13.1823,-167.9298 -13.2739,-168.2249 -13.3713,-168.53 -13.4749,-168.8451 -13.5847,-169.1701 -13.7009,-169.5049 -13.8237,-169.8494 -13.9533,-170.2036 -14.0898,-170.5673 -14.2334,-170.9405 -14.3843,-171.323 -14.5426,-171.7148 -14.7085,-172.1157 -14.8821,-172.5257 -15.0637,-172.9447 -15.2533,-173.3725 -15.4512,-173.8091 -15.6575,-174.2544 -15.8723,-174.7082 -16.0959,-175.1704 -16.3283,-175.6409 -16.5697,-176.1196 -16.8203,-176.6064 -17.0802,-177.1011 -17.3496,-177.6037 -17.6286,-178.114 -17.9174,-178.6319 -18.216,-179.1572 -18.5248,-179.6899 -18.8437,-180.2297 -19.1729,-180.7766 -19.5126,-181.3305 -19.863,-181.8911 -20.1973,-182.2174 -26.2428,-181.4454 -26.4844,-181.0455 -26.6826,-180.4149 -26.8723,-179.7934 -27.0535,-179.1813 -27.2265,-178.5786 -27.3915,-177.9855 -27.5485,-177.402 -27.6979,-176.8281 -27.8397,-176.2641 -27.9741,-175.71 -28.1014,-175.1658 -28.2216,-174.6316 -28.335,-174.1076 -28.4417,-173.5938 -28.5419,-173.0903 -28.6358,-172.5971 -28.7235,-172.1143 -28.8054,-171.6419 -28.8814,-171.1802 -28.9518,-170.729 -29.0169,-170.2885 -29.0767,-169.8587 -29.1315,-169.4398 -29.1814,-169.0316 -29.2266,-168.6343 -29.2673,-168.248 -29.3037,-167.8726 -29.336,-167.5083 -29.3644,-167.155 -29.389,-166.8129 -29.41,-166.4819 -29.4277,-166.162 -29.4422,-165.8534 -29.4536,-165.556 -29.4623,-165.2699 -29.4683,-164.9951 -29.4719,-164.7316 -29.4732,-164.4794 -29.4725,-164.2386 -29.4699,-164.0092 -29.4656,-163.7911 -29.4599,-163.5845 -29.4528,-163.3892 -29.4446,-163.2054 -29.4355,-163.033 -29.4887,-162.767 -36.8087,-161.2693 -36.9621,-161.493 -37.0214,-161.6552 -37.0861,-161.8275 -37.1563,-162.0098 -37.2321,-162.2021 -37.3138,-162.4043 -37.4016,-162.6163 -37.4955,-162.8381 -37.5958,-163.0695 -37.7025,-163.3104 -37.816,-163.5607 -37.9364,-163.8205 -38.0637,-164.0895 -38.1982,-164.3676 -38.3401,-164.6548 -38.4895,-164.9509 -38.6465,-165.2559 -38.8113,-165.5697 -38.9841,-165.892 -39.165,-166.2229 -39.3542,-166.5622 -39.5518,-166.9098 -39.758,-167.2656 -39.9729,-167.6294 -40.1967,-168.0011 -40.4295,-168.3807 -40.6715,-168.7679 -40.9228,-169.1627 -41.1836,-169.565 -41.4539,-169.9745 -41.734,-170.3912 -42.0239,-170.8149 -42.3238,-171.2455 -42.6339,-171.6829 -42.9543,-172.1269 -43.285,-172.5774 -43.6263,-173.0342 -43.9782,-173.4972 -44.3409,-173.9663 -44.7146,-174.4412 -45.0992,-174.9219 -45.495,-175.4082 -45.9021,-175.8999 -46.3206,-176.397 -46.7506,-176.8991 -47.1298,-177.1719 -52.9927,-175.5075 -53.172,-175.0761 -53.274,-174.4229 -53.3689,-173.7802 -53.4569,-173.1479 -53.5382,-172.5262 -53.6129,-171.9151 -53.6812,-171.3146 -53.7434,-170.725 -53.7995,-170.1461 -53.8499,-169.5781 -53.8946,-169.021 -53.9339,-168.4749 -53.9679,-167.9399 -53.9968,-167.4159 -54.0208,-166.903 -54.0402,-166.4013 -54.055,-165.9109 -54.0655,-165.4316 -54.0719,-164.9637 -54.0743,-164.5071 -54.073,-164.0618 -54.0681,-163.6279 -54.0598,-163.2054 -54.0483,-162.7944 -54.0338,-162.3948 -54.0165,-162.0067 -53.9965,-161.6301 -53.9742,-161.2651 -53.9496,-160.9115 -53.9229,-160.5695 -53.8944,-160.2391 -53.8642,-159.9202 -53.8325,-159.6128 -53.7995,-159.3171 -53.7654,-159.0329 -53.7304,-158.7602 -53.6947,-158.4991 -53.6584,-158.2496 -53.6218,-158.0116 -53.5851,-157.7851 -53.5483,-157.5701 -53.5118,-157.3666 -53.4757,-157.1746 -53.4402,-156.994 -53.4055,-156.8249 -53.4185,-156.5539 -60.4335,-153.982 -60.6186,-154.1804 -60.7014,-154.3319 -60.791,-154.4926 -60.8876,-154.6624 -60.9913,-154.8413 -61.1022,-155.0291 -61.2205,-155.2256 -61.3464,-155.4309 -61.4801,-155.6447 -61.6216,-155.8671 -61.7711,-156.0977 -61.9288,-156.3366 -62.0948,-156.5836 -62.2693,-156.8386 -62.4524,-157.1014 -62.6442,-157.372 -62.8449,-157.6502 -63.0547,-157.9359 -63.2736,-158.2289 -63.5018,-158.5291 -63.7394,-158.8364 -63.9867,-159.1507 -64.2436,-159.4717 -64.5103,-159.7994 -64.787,-160.1337 -65.0738,-160.4743 -65.3708,-160.8212 -65.6781,-161.1741 -65.9959,-161.533 -66.3243,-161.8976 -66.6633,-162.2679 -67.0132,-162.6437 -67.3739,-163.0248 -67.7457,-163.4111 -68.1287,-163.8024 -68.5229,-164.1985 -68.9284,-164.5994 -69.3454,-165.0048 -69.774,-165.4145 -70.2143,-165.8285 -70.6663,-166.2465 -71.1301,-166.6683 -71.606,-167.0939 -72.0938,-167.523 -72.5939,-167.9555 -73.0095,-168.1687 -78.5589,-165.6491 -78.6719,-165.1958 -78.6754,-164.5347 -78.6734,-163.885 -78.6662,-163.2466 -78.6539,-162.6197 -78.6367,-162.0043 -78.6148,-161.4004 -78.5883,-160.8081 -78.5576,-160.2273 -78.5227,-159.6582 -78.4839,-159.1006 -78.4414,-158.5548 -78.3952,-158.0206 -78.3457,-157.4982 -78.2931,-156.9875 -78.2374,-156.4885 -78.179,-156.0013 -78.118,-155.5258 -78.0545,-155.0622 -77.9889,-154.6103 -77.9212,-154.1702 -77.8516,-153.7419 -77.7805,-153.3254 -77.7078,-152.9206 -77.634,-152.5277 -77.559,-152.1465 -77.4832,-151.7771 -77.4066,-151.4194 -77.3296,-151.0735 -77.2523,-150.7393 -77.1748,-150.4168 -77.0974,-150.106 -77.0203,-149.8068 -76.9436,-149.5192 -76.8675,-149.2433 -76.7923,-148.9789 -76.718,-148.726 -76.645,-148.4847 -76.5733,-148.2548 -76.5032,-148.0363 -76.4348,-147.8292 -76.3684,-147.6334 -76.3041,-147.4489 -76.2421,-147.2757 -76.1826,-147.1136 -76.155,-146.8437 -82.7083,-143.255 -82.9209,-143.4236 -83.0254,-143.561 -83.138,-143.7066 -83.2588,-143.8602 -83.3879,-144.0216 -83.5256,-144.1907 -83.6719,-144.3674 -83.827,-144.5517 -83.991,-144.7432 -84.1641,-144.9419 -84.3463,-145.1477 -84.5379,-145.3604 -84.7389,-145.5799 -84.9494,-145.8061 -85.1696,-146.0387 -85.3996,-146.2777 -85.6396,-146.5228 -85.8895,-146.7741 -86.1497,-147.0312 -86.4201,-147.294 -86.7009,-147.5625 -86.9922,-147.8364 -87.2941,-148.1156 -87.6067,-148.3999 -87.9301,-148.6891 -88.2644,-148.9832 -88.6098,-149.2819 -88.9663,-149.5851 -89.334,-149.8926 -89.7131,-150.2042 -90.1035,-150.5199 -90.5055,-150.8393 -90.919,-151.1624 -91.3442,-151.4889 -91.7812,-151.8188 -92.23,-152.1518 -92.6908,-152.4877 -93.1636,-152.8264 -93.6484,-153.1677 -94.1455,-153.5114 -94.6547,-153.8574 -95.1763,-154.2054 -95.7102,-154.5553 -96.2566,-154.9069 -96.8155,-155.26 -97.2583,-155.4089 -102.3701,-152.0903 -102.4143,-151.6252 -102.3193,-150.971 -102.2205,-150.3288 -102.1182,-149.6987 -102.0126,-149.0807 -101.9039,-148.4747 -101.7922,-147.8808 -101.6778,-147.299 -101.5608,-146.7293 -101.4415,-146.1717 -101.32,-145.6262 -101.1966,-145.0928 -101.0714,-144.5715 -100.9446,-144.0622 -100.8164,-143.5651 -100.687,-143.08 -100.5566,-142.6069 -100.4254,-142.1459 -100.2935,-141.6968 -100.1613,-141.2598 -100.0287,-140.8347 -99.8961,-140.4215 -99.7637,-140.0203 -99.6315,-139.6309 -99.4999,-139.2533 -99.369,-138.8876 -99.2389,-138.5336 -99.11,-138.1913 -98.9822,-137.8608 -98.856,-137.5418 -98.7313,-137.2345 -98.6084,-136.9386 -98.4876,-136.6543 -98.3689,-136.3814 -98.2525,-136.1198 -98.1387,-135.8696 -98.0276,-135.6307 -97.9194,-135.4029 -97.8143,-135.1862 -97.7124,-134.9806 -97.6139,-134.786 -97.5191,-134.6024 -97.428,-134.4295 -97.3408,-134.2674 -97.2578,-134.1161 -97.1904,-133.8533 -103.1356,-129.328 -103.3709,-129.4629 -103.4947,-129.5833 -103.6277,-129.7104 -103.7701,-129.8443 -103.9219,-129.9846 -104.0832,-130.1314 -104.2542,-130.2843 -104.4351,-130.4434 -104.6258,-130.6083 -104.8265,-130.779 -105.0374,-130.9554 -105.2585,-131.1372 -105.49,-131.3243 -105.7318,-131.5165 -105.9843,-131.7137 -106.2473,-131.9157 -106.5211,-132.1224 -106.8058,-132.3335 -107.1013,-132.549 -107.4079,-132.7686 -107.7255,-132.9922 -108.0544,-133.2197 -108.3945,-133.4507 -108.746,-133.6853 -109.109,-133.9231 -109.4834,-134.164 -109.8694,-134.4079 -110.2671,-134.6546 -110.6766,-134.9039 -111.0978,-135.1555 -111.531,-135.4095 -111.976,-135.6654 -112.4331,-135.9233 -112.9022,-136.1828 -113.3835,-136.4438 -113.877,-136.7062 -114.3826,-136.9697 -114.9006,-137.2341 -115.4309,-137.4994 -115.9736,-137.7652 -116.5288,-138.0314 -117.0964,-138.2978 -117.6765,-138.5642 -118.2692,-138.8304 -118.8745,-139.0963 -119.3345,-139.1775 -123.8946,-135.1341 -123.869,-134.6676 -123.6775,-134.0349 -123.4841,-133.4146 -123.2891,-132.8068 -123.0925,-132.2114 -122.8947,-131.6284 -122.6957,-131.0577 -122.4959,-130.4995 -122.2953,-129.9536 -122.0943,-129.42 -121.8928,-128.8987 -121.6913,-128.3897 -121.4898,-127.8928 -121.2885,-127.4082 -121.0876,-126.9357 -120.8874,-126.4753 -120.6879,-126.0269 -120.4895,-125.5906 -120.2922,-125.1662 -120.0962,-124.7538 -119.9018,-124.3532 -119.7091,-123.9644 -119.5183,-123.5874 -119.3297,-123.222 -119.1432,-122.8683 -118.9592,-122.5262 -118.7779,-122.1955 -118.5993,-121.8763 -118.4238,-121.5684 -118.2514,-121.2719 -118.0823,-120.9865 -117.9167,-120.7123 -117.7548,-120.4492 -117.5968,-120.197 -117.4427,-119.9557 -117.2929,-119.7253 -117.1474,-119.5055 -117.0065,-119.2964 -116.8702,-119.0979 -116.7388,-118.9097 -116.6125,-118.732 -116.4913,-118.5645 -116.3755,-118.4072 -116.2651,-118.2599 -116.1605,-118.1226 -116.0546,-117.8728 -121.259,-112.5119 -121.5118,-112.6103 -121.6522,-112.7109 -121.8026,-112.8168 -121.9633,-112.9279 -122.1343,-113.0441 -122.3158,-113.1651 -122.5077,-113.2909 -122.7102,-113.4212 -122.9234,-113.5559 -123.1473,-113.6948 -123.3821,-113.8377 -123.6278,-113.9845 -123.8846,-114.135 -124.1524,-114.289 -124.4314,-114.4464 -124.7217,-114.607 -125.0232,-114.7705 -125.3361,-114.9369 -125.6605,-115.1059 -125.9964,-115.2774 -126.3438,-115.4512 -126.7029,-115.627 -127.0737,-115.8048 -127.4562,-115.9843 -127.8505,-116.1654 -128.2567,-116.3479 -128.6747,-116.5315 -129.1048,-116.7162 -129.5468,-116.9016 -130.0009,-117.0877 -130.467,-117.2742 -130.9452,-117.461 -131.4356,-117.6478 -131.9382,-117.8345 -132.453,-118.0209 -132.9801,-118.2068 -133.5194,-118.392 -134.071,-118.5763 -134.6349,-118.7595 -135.2111,-118.9415 -135.7997,-119.122 -136.4007,-119.3008 -137.0141,-119.4778 -137.6398,-119.6527 -138.278,-119.8254 -138.745,-119.8371 -142.6515,-115.1593 -142.5567,-114.7018 -142.273,-114.1047 -141.9893,-113.5201 -141.7059,-112.9481 -141.4228,-112.3887 -141.1402,-111.8417 -140.8585,-111.3071 -140.5777,-110.7849 -140.298,-110.2749 -140.0196,-109.7773 -139.7427,-109.2918 -139.4676,-108.8185 -139.1943,-108.3573 -138.923,-107.908 -138.6539,-107.4707 -138.3873,-107.0453 -138.1233,-106.6317 -137.862,-106.2298 -137.6036,-105.8396 -137.3484,-105.461 -137.0965,-105.0938 -136.848,-104.7381 -136.6032,-104.3937 -136.3621,-104.0606 -136.1251,-103.7386 -135.8921,-103.4277 -135.6635,-103.1278 -135.4394,-102.8387 -135.2199,-102.5605 -135.0052,-102.2929 -134.7955,-102.036 -134.5909,-101.7895 -134.3916,-101.5534 -134.1977,-101.3276 -134.0095,-101.112 -133.827,-100.9064 -133.6504,-100.7108 -133.4798,-100.5251 -133.3155,-100.349 -133.1575,-100.1826 -133.0061,-100.0257 -132.8613,-99.8781 -132.7233,-99.7398 -132.5923,-99.6106 -132.4683,-99.4904 -132.3264,-99.2592 -136.6737,-93.1825 -136.9383,-93.2422 -137.0921,-93.3207 -137.2567,-93.403 -137.4321,-93.4889 -137.6185,-93.5783 -137.816,-93.6709 -138.0245,-93.7667 -138.2442,-93.8654 -138.475,-93.9668 -138.7172,-94.0707 -138.9707,-94.1771 -139.2355,-94.2856 -139.5118,-94.3962 -139.7996,-94.5086 -140.099,-94.6226 -140.4099,-94.7381 -140.7324,-94.8549 -141.0667,-94.9728 -141.4126,-95.0916 -141.7703,-95.2111 -142.1397,-95.3311 -142.521,-95.4515 -142.9142,-95.572 -143.3192,-95.6925 -143.7361,-95.8128 -144.1649,-95.9327 -144.6057,-96.052 -145.0584,-96.1705 -145.5231,-96.288 -145.9999,-96.4043 -146.4886,-96.5193 -146.9893,-96.6327 -147.5021,-96.7443 -148.0269,-96.8541 -148.5637,-96.9616 -149.1126,-97.0669 -149.6735,-97.1696 -150.2464,-97.2697 -150.8313,-97.3668 -151.4283,-97.4608 -152.0372,-97.5516 -152.6581,-97.6388 -153.291,-97.7224 -153.9358,-97.8021 -154.5925,-97.8778 -155.0561,-97.8198 -158.2218,-92.6119 -158.0599,-92.1737 -157.6904,-91.6255 -157.3227,-91.0898 -156.9572,-90.5664 -156.5938,-90.0554 -156.233,-89.5566 -155.8747,-89.07 -155.5192,-88.5955 -155.1666,-88.1329 -154.8172,-87.6823 -154.471,-87.2436 -154.1284,-86.8165 -153.7894,-86.4012 -153.4542,-85.9974 -153.123,-85.6051 -152.7959,-85.2242 -152.4732,-84.8545 -152.1549,-84.4961 -151.8413,-84.1487 -151.5325,-83.8123 -151.2286,-83.4868 -150.9299,-83.1721 -150.6365,-82.8681 -150.3485,-82.5746 -150.0661,-82.2915 -149.7894,-82.0188 -149.5187,-81.7563 -149.254,-81.5039 -148.9955,-81.2615 -148.7433,-81.0289 -148.4976,-80.8061 -148.2586,-80.5928 -148.0263,-80.3891 -147.8009,-80.1947 -147.5827,-80.0096 -147.3715,-79.8335 -147.1678,-79.6664 -146.9715,-79.5081 -146.7827,-79.3586 -146.6017,-79.2175 -146.4286,-79.0849 -146.2634,-78.9606 -146.1064,-78.8444 -145.9575,-78.7362 -145.817,-78.6358 -145.6423,-78.4283 -149.0353,-71.7716 -149.3058,-71.7911 -149.4696,-71.8458 -149.6446,-71.9027 -149.8309,-71.9615 -150.0286,-72.0221 -150.2376,-72.0843 -150.4581,-72.1479 -150.69,-72.2127 -150.9334,-72.2786 -151.1883,-72.3453 -151.4548,-72.4127 -151.7329,-72.4806 -152.0226,-72.5487 -152.324,-72.6169 -152.637,-72.6851 -152.9616,-72.753 -153.298,-72.8204 -153.646,-72.8871 -154.0058,-72.953 -154.3773,-73.0179 -154.7605,-73.0815 -155.1555,-73.1437 -155.5622,-73.2043 -155.9806,-73.2631 -156.4108,-73.3199 -156.8527,-73.3746 -157.3064,-73.4268 -157.7717,-73.4765 -158.2487,-73.5234 -158.7375,-73.5674 -159.2379,-73.6082 -159.7499,-73.6457 -160.2736,-73.6797 -160.8089,-73.71 -161.3558,-73.7364 -161.9142,-73.7587 -162.4841,-73.7767 -163.0655,-73.7902 -163.6584,-73.799 -164.2627,-73.8031 -164.8784,-73.802 -165.5053,-73.7958 -166.1436,-73.7841 -166.7931,-73.7668 -167.4538,-73.7437 -167.9036,-73.6173 -170.2577,-67.9958 -170.0322,-67.5866 -169.5852,-67.0996 -169.1418,-66.6247 -168.7023,-66.1616 -168.2669,-65.7105 -167.8357,-65.271 -167.4089,-64.8433 -166.9866,-64.427 -166.569,-64.0222 -166.1564,-63.6287 -165.7487,-63.2464 -165.3462,-62.8752 -164.9491,-62.515 -164.5575,-62.1657 -164.1715,-61.8271 -163.7913,-61.4992 -163.4171,-61.1818 -163.049,-60.8748 -162.6871,-60.5781 -162.3316,-60.2915 -161.9826,-60.0149 -161.6403,-59.7482 -161.3049,-59.4913 -160.9763,-59.244 -160.6549,-59.0062 -160.3407,-58.7778 -160.0338,-58.5586 -159.7345,-58.3484 -159.4427,-58.1472 -159.1587,-57.9548 -158.8825,-57.7711 -158.6144,-57.5959 -158.3543,-57.4291 -158.1025,-57.2704 -157.8591,-57.1199 -157.6241,-56.9772 -157.3977,-56.8424 -157.18,-56.7151 -156.9711,-56.5954 -156.7711,-56.4829 -156.5801,-56.3776 -156.3982,-56.2792 -156.2256,-56.1878 -156.0623,-56.1029 -155.9084,-56.0246 -155.7047,-55.8455 -158.0677,-48.7574 -158.3381,-48.7364 -158.5082,-48.7661 -158.6897,-48.7962 -158.8827,-48.8266 -159.0872,-48.8571 -159.3032,-48.8874 -159.5307,-48.9175 -159.7697,-48.947 -160.0202,-48.9759 -160.2822,-49.0038 -160.5558,-49.0307 -160.8409,-49.0564 -161.1375,-49.0806 -161.4456,-49.1032 -161.7653,-49.1239 -162.0964,-49.1426 -162.4391,-49.1591 -162.7932,-49.1733 -163.1588,-49.1848 -163.5358,-49.1936 -163.9242,-49.1994 -164.324,-49.202 -164.7352,-49.2013 -165.1578,-49.1971 -165.5916,-49.1892 -166.0367,-49.1773 -166.4931,-49.1614 -166.9606,-49.1412 -167.4393,-49.1165 -167.9292,-49.0871 -168.4301,-49.0529 -168.942,-49.0137 -169.4649,-48.9692 -169.9987,-48.9194 -170.5434,-48.864 -171.0989,-48.8028 -171.6652,-48.7356 -172.2421,-48.6624 -172.8297,-48.5828 -173.4278,-48.4967 -174.0364,-48.4039 -174.6555,-48.3042 -175.2849,-48.1976 -175.9245,-48.0837 -176.5744,-47.9624 -177.0003,-47.7703 -178.4903,-41.8607 -178.2064,-41.4897 -177.6917,-41.0748 -177.1825,-40.6712 -176.6789,-40.2789 -176.1811,-39.8977 -175.6892,-39.5274 -175.2034,-39.168 -174.7238,-38.8194 -174.2506,-38.4813 -173.7839,-38.1537 -173.3238,-37.8364 -172.8705,-37.5294 -172.4241,-37.2324 -171.9848,-36.9453 -171.5527,-36.6681 -171.1279,-36.4005 -170.7105,-36.1424 -170.3008,-35.8937 -169.8987,-35.6542 -169.5044,-35.4238 -169.1182,-35.2023 -168.74,-34.9896 -168.3699,-34.7856 -168.0082,-34.59 -167.6549,-34.4028 -167.3102,-34.2237 -166.9741,-34.0527 -166.6467,-33.8895 -166.3282,-33.7341 -166.0187,-33.5862 -165.7183,-33.4456 -165.427,-33.3124 -165.145,-33.1861 -164.8724,-33.0668 -164.6092,-32.9542 -164.3556,-32.8482 -164.1116,-32.7486 -163.8774,-32.6552 -163.6529,-32.5679 -163.4384,-32.4865 -163.2339,-32.4108 -163.0394,-32.3407 -162.8551,-32.276 -162.6809,-32.2164 -162.5171,-32.1619 -162.2889,-32.0152 -163.5691,-24.6541 -163.8334,-24.593 -164.006,-24.597 -164.19,-24.5997 -164.3854,-24.601 -164.5921,-24.6007 -164.8102,-24.5985 -165.0396,-24.5943 -165.2803,-24.5879 -165.5323,-24.5791 -165.7956,-24.5677 -166.0702,-24.5535 -166.3559,-24.5364 -166.6528,-24.5161 -166.9609,-24.4925 -167.28,-24.4654 -167.6103,-24.4345 -167.9516,-24.3998 -168.3038,-24.361 -168.667,-24.3179 -169.0411,-24.2704 -169.4261,-24.2182 -169.8219,-24.1613 -170.2284,-24.0993 -170.6455,-24.0321 -171.0734,-23.9596 -171.5117,-23.8816 -171.9606,-23.7978 -172.4199,-23.7081 -172.8896,-23.6123 -173.3696,-23.5103 -173.8598,-23.4018 -174.3602,-23.2867 -174.8706,-23.1649 -175.391,-23.036 -175.9214,-22.9 -176.4615,-22.7567 -177.0115,-22.6059 -177.571,-22.4475 -178.1402,-22.2812 -178.7188,-22.1069 -179.3068,-21.9245 -179.9041,-21.7337 -180.5106,-21.5344 -181.1261,-21.3264 -181.7506,-21.1096 -182.1432,-20.8562 -182.7357,-14.7906 -182.3997,-14.466 -181.8289,-14.1325 -181.2653,-13.8093 -180.7088,-13.4964 -180.1598,-13.1936 -179.6182,-12.9008 -179.0842,-12.6178 -178.558,-12.3445 -178.0397,-12.0808 -177.5294,-11.8264 -177.0272,-11.5813 -176.5332,-11.3452 -176.0475,-11.1181 -175.5703,-10.8997 -175.1017,-10.6899 -174.6417,-10.4886 -174.1906,-10.2956 -173.7483,-10.1108 -173.315,-9.9339 -172.8909,-9.7648 -172.4759,-9.6034 -172.0702,-9.4495 -171.6739,-9.3028 -171.2871,-9.1634 -170.9098,-9.0309 -170.5422,-8.9052 -170.1844,-8.7862 -169.8364,-8.6736 -169.4983,-8.5674 -169.1702,-8.4672 -168.8522,-8.3731 -168.5443,-8.2847 -168.2466,-8.2019 -167.9592,-8.1245 -167.6822,-8.0524 -167.4156,-7.9854 -167.1595,-7.9233 -166.914,-7.8658 -166.6791,-7.813 -166.4548,-7.7644 -166.2413,-7.7201 -166.0385,-7.6797 -165.8466,-7.6432 -165.6655,-7.6103 -165.4954,-7.5808 -165.2479,-7.4697 -165.4167,0 -165.6689,0.0998 -165.8402,0.1216 -166.0225,0.1463 -166.2159,0.1741 -166.4203,0.2053 -166.6356,0.2399 -166.8618,0.2783 -167.0989,0.3205 -167.3468,0.3668 -167.6055,0.4173 -167.8748,0.4722 -168.1548,0.5317 -168.4454,0.596 -168.7465,0.6653 -169.058,0.7397 -169.38,0.8194 -169.7123,0.9046 -170.0548,0.9955 -170.4076,1.0922 -170.7704,1.195 -171.1433,1.3039 -171.5261,1.4192 -171.9189,1.5411 -172.3214,1.6697 -172.7336,1.8051 -173.1555,1.9477 -173.5868,2.0974 -174.0276,2.2545 -174.4778,2.4193 -174.9372,2.5917 -175.4058,2.772 -175.8834,2.9604 -176.37,3.157 -176.8654,3.3619 -177.3695,3.5755 -177.8823,3.7977 -178.4036,4.0287 -178.9333,4.2688 -179.4713,4.5181 -180.0175,4.7767 -180.5718,5.0447 -181.1339,5.3224 -181.7039,5.6098 -182.2816,5.9072 -182.8669,6.2147 -183.2172,6.5237 -182.8992,12.61 -182.5185,12.8808 -181.9044,13.1256 -181.2988,13.3611 -180.702,13.5876 -180.1139,13.8052 -179.5348,14.014 -178.9646,14.2142 -178.4036,14.406 -177.8517,14.5896 -177.3092,14.7651 -176.776,14.9326 -176.2523,15.0924 -175.7383,15.2446 -175.2339,15.3894 -174.7392,15.527 -174.2544,15.6575 -173.7795,15.7811 -173.3146,15.898 -172.8598,16.0083 -172.4152,16.1123 -171.9808,16.2101 -171.5567,16.3018 -171.143,16.3877 -170.7397,16.468 -170.3469,16.5428 -169.9647,16.6123 -169.5931,16.6766 -169.2322,16.7361 -168.882,16.7908 -168.5427,16.8409 -168.2142,16.8866 -167.8965,16.9281 -167.5899,16.9656 -167.2942,16.9992 -167.0095,17.0293 -166.7359,17.0558 -166.4734,17.0791 -166.222,17.0993 -165.9819,17.1165 -165.7529,17.1311 -165.5351,17.1431 -165.3286,17.1528 -165.1334,17.1603 -164.9494,17.1659 -164.7768,17.1697 -164.5155,17.2427 -163.5691,24.6541 -163.8037,24.7904 -163.9698,24.8374 -164.1464,24.889 -164.3335,24.9454 -164.5309,25.0066 -164.7387,25.073 -164.9567,25.1447 -165.1848,25.2217 -165.423,25.3044 -165.6712,25.3929 -165.9294,25.4874 -166.1974,25.588 -166.4751,25.6949 -166.7625,25.8082 -167.0595,25.9282 -167.366,26.055 -167.6819,26.1888 -168.0071,26.3297 -168.3415,26.4779 -168.6849,26.6336 -169.0374,26.7969 -169.3988,26.968 -169.769,27.1471 -170.1478,27.3342 -170.5353,27.5296 -170.9312,27.7334 -171.3354,27.9458 -171.7479,28.1668 -172.1685,28.3968 -172.5971,28.6358 -173.0335,28.8839 -173.4777,29.1414 -173.9296,29.4083 -174.3889,29.6848 -174.8556,29.9711 -175.3295,30.2672 -175.8106,30.5734 -176.2986,30.8898 -176.7934,31.2164 -177.295,31.5535 -177.8031,31.9012 -178.3176,32.2596 -178.8383,32.6288 -179.3653,33.0089 -179.8981,33.4002 -180.1985,33.758 -178.9769,39.7288 -178.5601,39.9399 -177.9164,40.0904 -177.2825,40.2331 -176.6586,40.3681 -176.0447,40.4956 -175.4408,40.6157 -174.8472,40.7288 -174.2638,40.8348 -173.6908,40.9341 -173.1281,41.0267 -172.576,41.1129 -172.0343,41.1929 -171.5033,41.2668 -170.983,41.3348 -170.4733,41.3971 -169.9745,41.4539 -169.4865,41.5053 -169.0094,41.5516 -168.5432,41.5929 -168.088,41.6295 -167.6439,41.6614 -167.2109,41.6889 -166.789,41.7122 -166.3782,41.7315 -165.9787,41.7469 -165.5904,41.7587 -165.2134,41.7669 -164.8476,41.7719 -164.4932,41.7738 -164.1502,41.7727 -163.8185,41.769 -163.4983,41.7627 -163.1894,41.7541 -162.892,41.7433 -162.6061,41.7305 -162.3316,41.716 -162.0685,41.6999 -161.817,41.6824 -161.5769,41.6637 -161.3483,41.6439 -161.1312,41.6234 -160.9255,41.6022 -160.7313,41.5805 -160.5486,41.5586 -160.3774,41.5366 -160.1082,41.5699 -158.0677,48.7574 -158.2793,48.9271 -158.4365,48.9984 -158.6035,49.0758 -158.7801,49.1594 -158.9662,49.2494 -159.1617,49.346 -159.3666,49.4493 -159.5807,49.5595 -159.8039,49.6768 -160.0362,49.8013 -160.2774,49.9332 -160.5274,50.0726 -160.7861,50.2197 -161.0534,50.3746 -161.3292,50.5376 -161.6134,50.7086 -161.9058,50.888 -162.2063,51.0758 -162.5149,51.2722 -162.8313,51.4773 -163.1555,51.6914 -163.4874,51.9144 -163.8267,52.1466 -164.1735,52.3881 -164.5275,52.6391 -164.8886,52.8996 -165.2566,53.1698 -165.6315,53.4499 -166.0132,53.74 -166.4013,54.0402 -166.7959,54.3506 -167.1968,54.6714 -167.6038,55.0027 -168.0168,55.3446 -168.4356,55.6972 -168.8601,56.0607 -169.2902,56.4352 -169.7256,56.8207 -170.1662,57.2175 -170.6119,57.6255 -171.0625,58.0451 -171.5179,58.4761 -171.9778,58.9188 -172.4422,59.3732 -172.9108,59.8395 -173.1545,60.2381 -171.0566,65.9602 -170.613,66.1068 -169.954,66.1597 -169.306,66.2063 -168.6689,66.2468 -168.0428,66.2814 -167.4279,66.3102 -166.824,66.3335 -166.2313,66.3514 -165.6499,66.3641 -165.0797,66.3719 -164.5209,66.3749 -163.9734,66.3732 -163.4373,66.3671 -162.9126,66.3568 -162.3994,66.3425 -161.8976,66.3243 -161.4074,66.3024 -160.9287,66.2771 -160.4616,66.2485 -160.0061,66.2167 -159.5622,66.1821 -159.1299,66.1448 -158.7092,66.105 -158.3002,66.0628 -157.9028,66.0185 -157.5171,65.9722 -157.143,65.9242 -156.7806,65.8746 -156.4299,65.8236 -156.0909,65.7715 -155.7635,65.7183 -155.4477,65.6644 -155.1436,65.6098 -154.8511,65.5548 -154.5703,65.4996 -154.301,65.4443 -154.0433,65.3892 -153.7972,65.3344 -153.5626,65.2801 -153.3395,65.2265 -153.1278,65.1738 -152.9276,65.1222 -152.7389,65.0719 -152.5615,65.023 -152.3954,64.9757 -152.1242,64.9684 -149.0353,71.7716 -149.2192,71.971 -149.3641,72.0649 -149.5177,72.1663 -149.6798,72.2753 -149.8504,72.392 -150.0294,72.5167 -150.2166,72.6494 -150.4119,72.7903 -150.6151,72.9395 -150.8262,73.0972 -151.0451,73.2636 -151.2715,73.4387 -151.5054,73.6227 -151.7466,73.8158 -151.9951,74.018 -152.2506,74.2295 -152.513,74.4504 -152.7822,74.6809 -153.058,74.9211 -153.3403,75.1711 -153.629,75.4311 -153.9239,75.7011 -154.2249,75.9813 -154.5318,76.2718 -154.8444,76.5727 -155.1626,76.8841 -155.4863,77.2062 -155.8153,77.539 -156.1494,77.8828 -156.4885,78.2374 -156.8324,78.6032 -157.181,78.9802 -157.5341,79.3684 -157.8915,79.768 -158.2531,80.1791 -158.6187,80.6018 -158.9881,81.0362 -159.3612,81.4824 -159.7378,81.9404 -160.1177,82.4103 -160.5007,82.8923 -160.8867,83.3864 -161.2756,83.8927 -161.667,84.4113 -162.0609,84.9422 -162.2425,85.3727 -159.3152,90.7182 -158.8547,90.797 -158.1952,90.7511 -157.5474,90.7006 -156.9114,90.6457 -156.2872,90.5865 -155.6748,90.5234 -155.0742,90.4564 -154.4855,90.3858 -153.9087,90.3117 -153.3437,90.2344 -152.7907,90.1541 -152.2495,90.0708 -151.7203,89.9849 -151.203,89.8965 -150.6977,89.8059 -150.2042,89.7131 -149.7228,89.6184 -149.2532,89.522 -148.7956,89.4241 -148.3499,89.3248 -147.916,89.2244 -147.4941,89.1231 -147.0841,89.021 -146.6859,88.9183 -146.2996,88.8153 -145.9251,88.7121 -145.5624,88.6088 -145.2114,88.5058 -144.8722,88.4031 -144.5447,88.301 -144.2289,88.1997 -143.9247,88.0993 -143.6322,88 -143.3511,87.902 -143.0816,87.8055 -142.8236,87.7107 -142.577,87.6178 -142.3418,87.5269 -142.1179,87.4383 -141.9053,87.3521 -141.7039,87.2684 -141.5136,87.1875 -141.3344,87.1096 -141.1663,87.0348 -141.0091,86.9633 -140.7421,86.9157 -136.6737,93.1825 -136.8259,93.4071 -136.9551,93.5216 -137.0919,93.6447 -137.236,93.7766 -137.3873,93.9175 -137.5456,94.0674 -137.711,94.2266 -137.8831,94.395 -138.0618,94.5729 -138.2471,94.7603 -138.4387,94.9574 -138.6365,95.1643 -138.8403,95.3811 -139.0501,95.608 -139.2656,95.8449 -139.4867,96.0922 -139.7133,96.3498 -139.9451,96.6178 -140.1821,96.8964 -140.424,97.1857 -140.6707,97.4858 -140.9221,97.7967 -141.1779,98.1187 -141.438,98.4516 -141.7023,98.7958 -141.9706,99.1512 -142.2427,99.5179 -142.5184,99.8961 -142.7975,100.2857 -143.08,100.687 -143.3655,101.0999 -143.6541,101.5246 -143.9453,101.9612 -144.2392,102.4096 -144.5355,102.87 -144.834,103.3425 -145.1345,103.8271 -145.4369,104.3238 -145.7411,104.8328 -146.0467,105.3541 -146.3536,105.8878 -146.6617,106.4339 -146.9707,106.9925 -147.2805,107.5637 -147.5908,108.1474 -147.7062,108.6001 -144.0149,113.4496 -143.5478,113.4589 -142.9025,113.3153 -142.2695,113.1688 -141.6488,113.0197 -141.0404,112.8682 -140.4442,112.7144 -139.8603,112.5587 -139.2887,112.4011 -138.7294,112.2419 -138.1822,112.0813 -137.6473,111.9194 -137.1247,111.7564 -136.6142,111.5926 -136.1158,111.4281 -135.6296,111.2631 -135.1555,111.0978 -134.6935,110.9324 -134.2436,110.7671 -133.8057,110.6021 -133.3797,110.4375 -132.9657,110.2736 -132.5636,110.1105 -132.1734,109.9485 -131.795,109.7876 -131.4283,109.6281 -131.0734,109.4702 -130.7301,109.3141 -130.3984,109.1599 -130.0783,109.0078 -129.7697,108.858 -129.4725,108.7108 -129.1867,108.5661 -128.9122,108.4244 -128.6489,108.2856 -128.3968,108.15 -128.1558,108.0178 -127.9258,107.8892 -127.7067,107.7643 -127.4986,107.6433 -127.3012,107.5263 -127.1145,107.4136 -126.9384,107.3052 -126.7728,107.2015 -126.6177,107.1025 -126.473,107.0084 -126.216,106.9215 -121.259,112.5119 -121.376,112.7566 -121.4868,112.8891 -121.6036,113.0312 -121.7265,113.1832 -121.8551,113.345 -121.9893,113.5169 -122.1291,113.6989 -122.2742,113.8911 -122.4244,114.0936 -122.5797,114.3066 -122.7397,114.53 -122.9045,114.7641 -123.0738,115.0089 -123.2474,115.2644 -123.4252,115.5309 -123.607,115.8083 -123.7926,116.0968 -123.9819,116.3964 -124.1747,116.7072 -124.3708,117.0294 -124.57,117.3628 -124.7722,117.7078 -124.9772,118.0642 -125.1848,118.4323 -125.3949,118.8119 -125.6072,119.2034 -125.8216,119.6065 -126.0378,120.0216 -126.2558,120.4485 -126.4753,120.8874 -126.6961,121.3383 -126.9181,121.8012 -127.1411,122.2763 -127.3648,122.7635 -127.5891,123.2629 -127.8139,123.7746 -128.0389,124.2986 -128.2639,124.8349 -128.4887,125.3835 -128.7132,125.9446 -128.9372,126.518 -129.1604,127.104 -129.3827,127.7024 -129.6039,128.3133 -129.8238,128.9367 -129.8705,129.4016 -125.4976,133.6468 -125.0343,133.5864 -124.4177,133.3481 -123.8136,133.1089 -123.222,132.869 -122.643,132.6285 -122.0764,132.3876 -121.5222,132.1466 -120.9805,131.9056 -120.4511,131.6648 -119.934,131.4244 -119.4292,131.1846 -118.9367,130.9456 -118.4563,130.7075 -117.988,130.4706 -117.5318,130.2349 -117.0877,130.0009 -116.6555,129.7685 -116.2352,129.5379 -115.8268,129.3095 -115.4301,129.0833 -115.0452,128.8595 -114.6719,128.6383 -114.3102,128.4198 -113.9599,128.2044 -113.6212,127.992 -113.2937,127.783 -112.9775,127.5774 -112.6726,127.3755 -112.3787,127.1775 -112.0958,126.9834 -111.8239,126.7934 -111.5629,126.6078 -111.3125,126.4267 -111.0729,126.2503 -110.8438,126.0786 -110.6252,125.912 -110.4169,125.7505 -110.2189,125.5943 -110.0311,125.4436 -109.8533,125.2986 -109.6855,125.1593 -109.5276,125.0259 -109.3793,124.8986 -109.2407,124.7776 -109.1116,124.663 -108.8704,124.5388 -103.1356,129.328 -103.2148,129.5874 -103.3046,129.7349 -103.399,129.8929 -103.4978,130.0614 -103.6009,130.2406 -103.708,130.4306 -103.8191,130.6314 -103.9339,130.843 -104.0523,131.0657 -104.174,131.2994 -104.299,131.5442 -104.4271,131.8002 -104.558,132.0675 -104.6916,132.3461 -104.8276,132.6361 -104.9661,132.9375 -105.1066,133.2504 -105.2491,133.5749 -105.3934,133.911 -105.5393,134.2587 -105.6867,134.6182 -105.8352,134.9894 -105.9848,135.3724 -106.1352,135.7673 -106.2863,136.1741 -106.4379,136.5927 -106.5898,137.0234 -106.7418,137.466 -106.8937,137.9206 -107.0453,138.3873 -107.1965,138.8661 -107.347,139.357 -107.4967,139.8599 -107.6453,140.3751 -107.7927,140.9024 -107.9387,141.4418 -108.083,141.9935 -108.2256,142.5573 -108.3662,143.1333 -108.5046,143.7216 -108.6405,144.322 -108.774,144.9347 -108.9046,145.5595 -109.0323,146.1966 -109.1568,146.8459 -109.1336,147.3125 -104.1769,150.8585 -103.7278,150.7297 -103.1535,150.4022 -102.5918,150.0757 -102.0426,149.7502 -101.5059,149.4261 -100.9815,149.1035 -100.4695,148.7826 -99.9697,148.4635 -99.4821,148.1465 -99.0067,147.8318 -98.5432,147.5194 -98.0918,147.2096 -97.6523,146.9026 -97.2246,146.5985 -96.8086,146.2975 -96.4043,145.9999 -96.0116,145.7056 -95.6303,145.4151 -95.2605,145.1283 -94.902,144.8455 -94.5547,144.5668 -94.2186,144.2924 -93.8934,144.0225 -93.5792,143.7573 -93.2759,143.4968 -92.9832,143.2413 -92.7012,142.9909 -92.4298,142.7458 -92.1687,142.5062 -91.9179,142.2721 -91.6774,142.0437 -91.4469,141.8213 -91.2263,141.6049 -91.0157,141.3947 -90.8147,141.1909 -90.6234,140.9935 -90.4415,140.8028 -90.269,140.6188 -90.1057,140.4418 -89.9516,140.2719 -89.8064,140.1091 -89.6701,139.9537 -89.5425,139.8058 -89.4234,139.6654 -89.3129,139.5328 -89.0929,139.3741 -82.7083,143.255 -82.748,143.5234 -82.8148,143.6826 -82.8846,143.8529 -82.9572,144.0343 -83.0324,144.2268 -83.11,144.4306 -83.1899,144.6457 -83.2719,144.8722 -83.3558,145.11 -83.4413,145.3592 -83.5285,145.6199 -83.6169,145.8922 -83.7065,146.176 -83.7971,146.4714 -83.8884,146.7784 -83.9804,147.0971 -84.0727,147.4274 -84.1653,147.7695 -84.2579,148.1234 -84.3503,148.489 -84.4424,148.8664 -84.534,149.2556 -84.6248,149.6567 -84.7147,150.0695 -84.8035,150.4943 -84.891,150.9308 -84.977,151.3793 -85.0613,151.8396 -85.1438,152.3118 -85.2242,152.7959 -85.3023,153.2919 -85.3779,153.7997 -85.451,154.3194 -85.5212,154.8509 -85.5883,155.3943 -85.6523,155.9495 -85.7128,156.5165 -85.7698,157.0952 -85.8229,157.6858 -85.8721,158.2881 -85.917,158.9021 -85.9576,159.5278 -85.9937,160.1651 -86.025,160.8141 -86.0514,161.4747 -85.9589,161.9326 -80.529,164.7003 -80.1041,164.506 -79.5851,164.0966 -79.0783,163.69 -78.5838,163.2863 -78.1013,162.8858 -77.6309,162.4887 -77.1724,162.095 -76.7258,161.705 -76.2909,161.3189 -75.8677,160.9368 -75.456,160.5588 -75.0557,160.1852 -74.6669,159.8161 -74.2893,159.4517 -73.9228,159.0921 -73.5674,158.7375 -73.2229,158.388 -72.8892,158.0439 -72.5663,157.7052 -72.2539,157.3721 -71.9521,157.0448 -71.6605,156.7234 -71.3793,156.408 -71.1081,156.0989 -70.847,155.7961 -70.5957,155.4999 -70.3542,155.2103 -70.1222,154.9274 -69.8998,154.6515 -69.6867,154.3827 -69.4829,154.121 -69.2881,153.8667 -69.1023,153.6199 -68.9253,153.3806 -68.757,153.1491 -68.5972,152.9254 -68.4458,152.7097 -68.3026,152.5021 -68.1676,152.3028 -68.0405,152.1117 -67.9212,151.9292 -67.8095,151.7552 -67.7054,151.5899 -67.6086,151.4334 -67.519,151.2858 -67.3252,151.096 -60.4335,153.982 -60.4327,154.2533 -60.4751,154.4207 -60.5187,154.5995 -60.5634,154.7897 -60.6091,154.9913 -60.6555,155.2044 -60.7024,155.429 -60.7497,155.6651 -60.7972,155.9128 -60.8447,156.172 -60.892,156.4428 -60.9389,156.7251 -60.9852,157.0191 -61.0307,157.3247 -61.0753,157.6419 -61.1187,157.9707 -61.1608,158.3112 -61.2013,158.6633 -61.2402,159.027 -61.2771,159.4023 -61.3119,159.7892 -61.3444,160.1877 -61.3744,160.5978 -61.4018,161.0194 -61.4263,161.4527 -61.4478,161.8974 -61.466,162.3537 -61.4807,162.8214 -61.4919,163.3007 -61.4992,163.7913 -61.5025,164.2934 -61.5017,164.8068 -61.4964,165.3316 -61.4866,165.8676 -61.4721,166.4149 -61.4526,166.9734 -61.4279,167.5431 -61.3979,168.1239 -61.3625,168.7158 -61.3213,169.3187 -61.2743,169.9326 -61.2212,170.5573 -61.1618,171.1929 -61.0961,171.8393 -61.0237,172.4964 -60.864,172.9355 -55.0823,174.863 -54.6911,174.6076 -54.2389,174.1253 -53.7984,173.6477 -53.3695,173.1749 -52.9521,172.7069 -52.5462,172.2441 -52.1515,171.7865 -51.7679,171.3343 -51.3954,170.8877 -51.0339,170.4467 -50.6831,170.0116 -50.3431,169.5826 -50.0136,169.1596 -49.6945,168.743 -49.3857,168.3328 -49.0871,167.9292 -48.7986,167.5323 -48.5199,167.1422 -48.2511,166.7592 -47.9918,166.3833 -47.7421,166.0146 -47.5018,165.6533 -47.2706,165.2996 -47.0486,164.9535 -46.8355,164.6152 -46.6311,164.2848 -46.4355,163.9624 -46.2483,163.6482 -46.0695,163.3422 -45.8988,163.0446 -45.7363,162.7555 -45.5816,162.475 -45.4346,162.2032 -45.2953,161.9403 -45.1633,161.6862 -45.0387,161.4413 -44.9211,161.2054 -44.8105,160.9788 -44.7066,160.7615 -44.6094,160.5537 -44.5187,160.3554 -44.4342,160.1667 -44.3559,159.9877 -44.2835,159.8185 -44.2169,159.6592 -44.0535,159.4427 -36.8087,161.2693 -36.7675,161.5375 -36.7844,161.7093 -36.8009,161.8926 -36.8168,162.0873 -36.8319,162.2935 -36.846,162.5111 -36.8589,162.7402 -36.8705,162.9807 -36.8806,163.2327 -36.8889,163.4961 -36.8953,163.7709 -36.8996,164.0571 -36.9015,164.3547 -36.901,164.6637 -36.8978,164.984 -36.8917,165.3156 -36.8826,165.6585 -36.8702,166.0127 -36.8544,166.3781 -36.835,166.7547 -36.8117,167.1425 -36.7845,167.5414 -36.7531,167.9514 -36.7173,168.3725 -36.677,168.8045 -36.6319,169.2475 -36.5819,169.7014 -36.5268,170.1661 -36.4664,170.6416 -36.4005,171.1279 -36.329,171.6248 -36.2516,172.1324 -36.1682,172.6505 -36.0786,173.1791 -35.9826,173.7181 -35.8801,174.2675 -35.7708,174.8272 -35.6546,175.397 -35.5313,175.977 -35.4008,176.567 -35.2628,177.167 -35.1171,177.7769 -34.9637,178.3965 -34.8024,179.0259 -34.6328,179.6649 -34.4095,180.0753 -28.4051,181.1195 -28.0563,180.8086 -27.681,180.2644 -27.3166,179.7264 -26.963,179.1949 -26.6201,178.67 -26.2876,178.1519 -25.9655,177.6406 -25.6537,177.1363 -25.3519,176.6391 -25.0601,176.1492 -24.7781,175.6667 -24.5058,175.1917 -24.243,174.7244 -23.9896,174.2648 -23.7454,173.8132 -23.5103,173.3696 -23.2841,172.9341 -23.0667,172.5069 -22.858,172.0881 -22.6577,171.6777 -22.4657,171.2759 -22.2818,170.8829 -22.106,170.4987 -21.938,170.1234 -21.7777,169.7571 -21.6249,169.3999 -21.4795,169.0519 -21.3412,168.7133 -21.21,168.3841 -21.0857,168.0644 -20.968,167.7543 -20.8568,167.4539 -20.752,167.1632 -20.6534,166.8824 -20.5608,166.6116 -20.474,166.3508 -20.3929,166.1 -20.3173,165.8595 -20.247,165.6291 -20.1819,165.4091 -20.1217,165.1995 -20.0663,165.0003 -20.0155,164.8117 -19.9692,164.6336 -19.9271,164.4661 -19.7978,164.2276 -12.3616,164.9541 -12.2809,165.2131 -12.272,165.3856 -12.261,165.5692 -12.2477,165.7642 -12.2319,165.9703 -12.2134,166.1876 -12.1921,166.4161 -12.1677,166.6556 -12.1401,166.9063 -12.109,167.168 -12.0744,167.4407 -12.036,167.7243 -11.9936,168.0189 -11.947,168.3243 -11.8961,168.6406 -11.8407,168.9676 -11.7805,169.3053 -11.7155,169.6537 -11.6454,170.0127 -11.5701,170.3822 -11.4893,170.7622 -11.4029,171.1526 -11.3107,171.5533 -11.2126,171.9643 -11.1083,172.3855 -10.9977,172.8168 -10.8806,173.2582 -10.7569,173.7095 -10.6263,174.1707 -10.4886,174.6417 -10.3438,175.1225 -10.1917,175.6128 -10.032,176.1127 -9.8646,176.6221 -9.6894,177.1408 -9.5061,177.6687 -9.3146,178.2058 -9.1148,178.752 -8.9065,179.3071 -8.6894,179.8711 -8.4635,180.4438 -8.2286,181.0252 -7.9846,181.6151 -7.7312,182.2134 -7.4683,182.82 -7.1863,183.1924 -1.0934,183.3301 -0.7948,182.9707 -0.5048,182.3766 -0.2247,181.7904 0.0457,181.2121 0.3066,180.642 0.5582,180.08 0.8004,179.5264 1.0336,178.9813 1.2579,178.4447 1.4735,177.9168 1.6804,177.3976 1.8789,176.8874 2.0691,176.3861 2.2512,175.8939 2.4253,175.4109 2.5917,174.9372 2.7504,174.4729 2.9017,174.0181 3.0457,173.5728 3.1826,173.1372 3.3126,172.7113 3.4358,172.2952 3.5524,171.8891 3.6626,171.4929 3.7665,171.1068 3.8643,170.7309 3.9563,170.3651 4.0425,170.0097 4.1232,169.6646 4.1986,169.3299 4.2687,169.0057 4.3338,168.6921 4.3941,168.3891 4.4498,168.0967 4.501,167.8151 4.5479,167.5443 4.5907,167.2842 4.6297,167.0351 4.6648,166.7969 4.6965,166.5696 4.7247,166.3533 4.7498,166.1481 4.7719,165.954 4.7912,165.771 4.8079,165.5992 4.9002,165.3441 12.3616,164.9541 12.48,165.1982 12.5145,165.3674 12.5528,165.5474 12.595,165.7381 12.6413,165.9396 12.692,166.1517 12.7471,166.3745 12.8069,166.6077 12.8716,166.8515 12.9413,167.1056 13.0162,167.3701 13.0965,167.6449 13.1823,167.9298 13.2739,168.2249 13.3713,168.53 13.4749,168.8451 13.5847,169.1701 13.7009,169.5049 13.8237,169.8494 13.9533,170.2036 14.0898,170.5673 14.2334,170.9405 14.3843,171.323 14.5426,171.7148 14.7085,172.1157 14.8821,172.5257 15.0637,172.9447 15.2533,173.3725 15.4512,173.8091 15.6575,174.2544 15.8723,174.7082 16.0959,175.1704 16.3283,175.6409 16.5697,176.1196 16.8203,176.6064 17.0802,177.1011 17.3496,177.6037 17.6286,178.114 17.9174,178.6319 18.216,179.1572 18.5248,179.6899 18.8437,180.2297 19.1729,180.7766 19.5126,181.3305 19.863,181.8911 20.1973,182.2174 26.2428,181.4454 26.4844,181.0455 26.6826,180.4149 26.8723,179.7934 27.0535,179.1813 27.2265,178.5786 27.3915,177.9855 27.5485,177.402 27.6979,176.8281 27.8397,176.2641 27.9741,175.71 28.1014,175.1658 28.2216,174.6316 28.335,174.1076 28.4417,173.5938 28.5419,173.0903 28.6358,172.5971 28.7235,172.1143 28.8054,171.6419 28.8814,171.1802 28.9518,170.729 29.0169,170.2885 29.0767,169.8587 29.1315,169.4398 29.1814,169.0316 29.2266,168.6343 29.2673,168.248 29.3037,167.8726 29.336,167.5083 29.3644,167.155 29.389,166.8129 29.41,166.4819 29.4277,166.162 29.4422,165.8534 29.4536,165.556 29.4623,165.2699 29.4683,164.9951 29.4719,164.7316 29.4732,164.4794 29.4725,164.2386 29.4699,164.0092 29.4656,163.7911 29.4599,163.5845 29.4528,163.3892 29.4446,163.2054 29.4355,163.033 29.4887,162.767 36.8087,161.2693 36.9621,161.493 37.0214,161.6552 37.0861,161.8275 37.1563,162.0098 37.2321,162.2021 37.3138,162.4043 37.4016,162.6163 37.4955,162.8381 37.5958,163.0695 37.7025,163.3104 37.816,163.5607 37.9364,163.8205 38.0637,164.0895 38.1982,164.3676 38.3401,164.6548 38.4895,164.9509 38.6465,165.2559 38.8113,165.5697 38.9841,165.892 39.165,166.2229 39.3542,166.5622 39.5518,166.9098 39.758,167.2656 39.9729,167.6294 40.1967,168.0011 40.4295,168.3807 40.6715,168.7679 40.9228,169.1627 41.1836,169.565 41.4539,169.9745 41.734,170.3912 42.0239,170.8149 42.3238,171.2455 42.6339,171.6829 42.9543,172.1269 43.285,172.5774 43.6263,173.0342 43.9782,173.4972 44.3409,173.9663 44.7146,174.4412 45.0992,174.9219 45.495,175.4082 45.9021,175.8999 46.3206,176.397 46.7506,176.8991 47.1298,177.1719 52.9927,175.5075 53.172,175.0761 53.274,174.4229 53.3689,173.7802 53.4569,173.1479 53.5382,172.5262 53.6129,171.9151 53.6812,171.3146 53.7434,170.725 53.7995,170.1461 53.8499,169.5781 53.8946,169.021 53.9339,168.4749 53.9679,167.9399 53.9968,167.4159 54.0208,166.903 54.0402,166.4013 54.055,165.9109 54.0655,165.4316 54.0719,164.9637 54.0743,164.5071 54.073,164.0618 54.0681,163.6279 54.0598,163.2054 54.0483,162.7944 54.0338,162.3948 54.0165,162.0067 53.9965,161.6301 53.9742,161.2651 53.9496,160.9115 53.9229,160.5695 53.8944,160.2391 53.8642,159.9202 53.8325,159.6128 53.7995,159.3171 53.7654,159.0329 53.7304,158.7602 53.6947,158.4991 53.6584,158.2496 53.6218,158.0116 53.5851,157.7851 53.5483,157.5701 53.5118,157.3666 53.4757,157.1746 53.4402,156.994 53.4055,156.8249 53.4185,156.5539 60.4335,153.982 60.6186,154.1804 60.7014,154.3319 60.791,154.4926 60.8876,154.6624 60.9913,154.8413 61.1022,155.0291 61.2205,155.2256 61.3464,155.4309 61.4801,155.6447 61.6216,155.8671 61.7711,156.0977 61.9288,156.3366 62.0948,156.5836 62.2693,156.8386 62.4524,157.1014 62.6442,157.372 62.8449,157.6502 63.0547,157.9359 63.2736,158.2289 63.5018,158.5291 63.7394,158.8364 63.9867,159.1507 64.2436,159.4717 64.5103,159.7994 64.787,160.1337 65.0738,160.4743 65.3708,160.8212 65.6781,161.1741 65.9959,161.533 66.3243,161.8976 66.6633,162.2679 67.0132,162.6437 67.3739,163.0248 67.7457,163.4111 68.1287,163.8024 68.5229,164.1985 68.9284,164.5994 69.3454,165.0048 69.774,165.4145 70.2143,165.8285 70.6663,166.2465 71.1301,166.6683 71.606,167.0939 72.0938,167.523 72.5939,167.9555 73.0095,168.1687 78.5589,165.6491 78.6719,165.1958 78.6754,164.5347 78.6734,163.885 78.6662,163.2466 78.6539,162.6197 78.6367,162.0043 78.6148,161.4004 78.5883,160.8081 78.5576,160.2273 78.5227,159.6582 78.4839,159.1006 78.4414,158.5548 78.3952,158.0206 78.3457,157.4982 78.2931,156.9875 78.2374,156.4885 78.179,156.0013 78.118,155.5258 78.0545,155.0622 77.9889,154.6103 77.9212,154.1702 77.8516,153.7419 77.7805,153.3254 77.7078,152.9206 77.634,152.5277 77.559,152.1465 77.4832,151.7771 77.4066,151.4194 77.3296,151.0735 77.2523,150.7393 77.1748,150.4168 77.0974,150.106 77.0203,149.8068 76.9436,149.5192 76.8675,149.2433 76.7923,148.9789 76.718,148.726 76.645,148.4847 76.5733,148.2548 76.5032,148.0363 76.4348,147.8292 76.3684,147.6334 76.3041,147.4489 76.2421,147.2757 76.1826,147.1136 76.155,146.8437 82.7083,143.255 82.9209,143.4236 83.0254,143.561 83.138,143.7066 83.2588,143.8602 83.3879,144.0216 83.5256,144.1907 83.6719,144.3674 83.827,144.5517 83.991,144.7432 84.1641,144.9419 84.3463,145.1477 84.5379,145.3604 84.7389,145.5799 84.9494,145.8061 85.1696,146.0387 85.3996,146.2777 85.6396,146.5228 85.8895,146.7741 86.1497,147.0312 86.4201,147.294 86.7009,147.5625 86.9922,147.8364 87.2941,148.1156 87.6067,148.3999 87.9301,148.6891 88.2644,148.9832 88.6098,149.2819 88.9663,149.5851 89.334,149.8926 89.7131,150.2042 90.1035,150.5199 90.5055,150.8393 90.919,151.1624 91.3442,151.4889 91.7812,151.8188 92.23,152.1518 92.6908,152.4877 93.1636,152.8264 93.6484,153.1677 94.1455,153.5114 94.6547,153.8574 95.1763,154.2054 95.7102,154.5553 96.2566,154.9069 96.8155,155.26 97.2583,155.4089 102.3701,152.0903 102.4143,151.6252 102.3193,150.971 102.2205,150.3288 102.1182,149.6987 102.0126,149.0807 101.9039,148.4747 101.7922,147.8808 101.6778,147.299 101.5608,146.7293 101.4415,146.1717 101.32,145.6262 101.1966,145.0928 101.0714,144.5715 100.9446,144.0622 100.8164,143.5651 100.687,143.08 100.5566,142.6069 100.4254,142.1459 100.2935,141.6968 100.1613,141.2598 100.0287,140.8347 99.8961,140.4215 99.7637,140.0203 99.6315,139.6309 99.4999,139.2533 99.369,138.8876 99.2389,138.5336 99.11,138.1913 98.9822,137.8608 98.856,137.5418 98.7313,137.2345 98.6084,136.9386 98.4876,136.6543 98.3689,136.3814 98.2525,136.1198 98.1387,135.8696 98.0276,135.6307 97.9194,135.4029 97.8143,135.1862 97.7124,134.9806 97.6139,134.786 97.5191,134.6024 97.428,134.4295 97.3408,134.2674 97.2578,134.1161 97.1904,133.8533 103.1356,129.328 103.3709,129.4629 103.4947,129.5833 103.6277,129.7104 103.7701,129.8443 103.9219,129.9846 104.0832,130.1314 104.2542,130.2843 104.4351,130.4434 104.6258,130.6083 104.8265,130.779 105.0374,130.9554 105.2585,131.1372 105.49,131.3243 105.7318,131.5165 105.9843,131.7137 106.2473,131.9157 106.5211,132.1224 106.8058,132.3335 107.1013,132.549 107.4079,132.7686 107.7255,132.9922 108.0544,133.2197 108.3945,133.4507 108.746,133.6853 109.109,133.9231 109.4834,134.164 109.8694,134.4079 110.2671,134.6546 110.6766,134.9039 111.0978,135.1555 111.531,135.4095 111.976,135.6654 112.4331,135.9233 112.9022,136.1828 113.3835,136.4438 113.877,136.7062 114.3826,136.9697 114.9006,137.2341 115.4309,137.4994 115.9736,137.7652 116.5288,138.0314 117.0964,138.2978 117.6765,138.5642 118.2692,138.8304 118.8745,139.0963 119.3345,139.1775 123.8946,135.1341 123.869,134.6676 123.6775,134.0349 123.4841,133.4146 123.2891,132.8068 123.0925,132.2114 122.8947,131.6284 122.6957,131.0577 122.4959,130.4995 122.2953,129.9536 122.0943,129.42 121.8928,128.8987 121.6913,128.3897 121.4898,127.8928 121.2885,127.4082 121.0876,126.9357 120.8874,126.4753 120.6879,126.0269 120.4895,125.5906 120.2922,125.1662 120.0962,124.7538 119.9018,124.3532 119.7091,123.9644 119.5183,123.5874 119.3297,123.222 119.1432,122.8683 118.9592,122.5262 118.7779,122.1955 118.5993,121.8763 118.4238,121.5684 118.2514,121.2719 118.0823,120.9865 117.9167,120.7123 117.7548,120.4492 117.5968,120.197 117.4427,119.9557 117.2929,119.7253 117.1474,119.5055 117.0065,119.2964 116.8702,119.0979 116.7388,118.9097 116.6125,118.732 116.4913,118.5645 116.3755,118.4072 116.2651,118.2599 116.1605,118.1226 116.0546,117.8728 121.259,112.5119 121.5118,112.6103 121.6522,112.7109 121.8026,112.8168 121.9633,112.9279 122.1343,113.0441 122.3158,113.1651 122.5077,113.2909 122.7102,113.4212 122.9234,113.5559 123.1473,113.6948 123.3821,113.8377 123.6278,113.9845 123.8846,114.135 124.1524,114.289 124.4314,114.4464 124.7217,114.607 125.0232,114.7705 125.3361,114.9369 125.6605,115.1059 125.9964,115.2774 126.3438,115.4512 126.7029,115.627 127.0737,115.8048 127.4562,115.9843 127.8505,116.1654 128.2567,116.3479 128.6747,116.5315 129.1048,116.7162 129.5468,116.9016 130.0009,117.0877 130.467,117.2742 130.9452,117.461 131.4356,117.6478 131.9382,117.8345 132.453,118.0209 132.9801,118.2068 133.5194,118.392 134.071,118.5763 134.6349,118.7595 135.2111,118.9415 135.7997,119.122 136.4007,119.3008 137.0141,119.4778 137.6398,119.6527 138.278,119.8254 138.745,119.8371 142.6515,115.1593 142.5567,114.7018 142.273,114.1047 141.9893,113.5201 141.7059,112.9481 141.4228,112.3887 141.1402,111.8417 140.8585,111.3071 140.5777,110.7849 140.298,110.2749 140.0196,109.7773 139.7427,109.2918 139.4676,108.8185 139.1943,108.3573 138.923,107.908 138.6539,107.4707 138.3873,107.0453 138.1233,106.6317 137.862,106.2298 137.6036,105.8396 137.3484,105.461 137.0965,105.0938 136.848,104.7381 136.6032,104.3937 136.3621,104.0606 136.1251,103.7386 135.8921,103.4277 135.6635,103.1278 135.4394,102.8387 135.2199,102.5605 135.0052,102.2929 134.7955,102.036 134.5909,101.7895 134.3916,101.5534 134.1977,101.3276 134.0095,101.112 133.827,100.9064 133.6504,100.7108 133.4798,100.5251 133.3155,100.349 133.1575,100.1826 133.0061,100.0257 132.8613,99.8781 132.7233,99.7398 132.5923,99.6106 132.4683,99.4904 132.3264,99.2592 136.6737,93.1825 136.9383,93.2422 137.0921,93.3207 137.2567,93.403 137.4321,93.4889 137.6185,93.5783 137.816,93.6709 138.0245,93.7667 138.2442,93.8654 138.475,93.9668 138.7172,94.0707 138.9707,94.1771 139.2355,94.2856 139.5118,94.3962 139.7996,94.5086 140.099,94.6226 140.4099,94.7381 140.7324,94.8549 141.0667,94.9728 141.4126,95.0916 141.7703,95.2111 142.1397,95.3311 142.521,95.4515 142.9142,95.572 143.3192,95.6925 143.7361,95.8128 144.1649,95.9327 144.6057,96.052 145.0584,96.1705 145.5231,96.288 145.9999,96.4043 146.4886,96.5193 146.9893,96.6327 147.5021,96.7443 148.0269,96.8541 148.5637,96.9616 149.1126,97.0669 149.6735,97.1696 150.2464,97.2697 150.8313,97.3668 151.4283,97.4608 152.0372,97.5516 152.6581,97.6388 153.291,97.7224 153.9358,97.8021 154.5925,97.8778 155.0561,97.8198 158.2218,92.6119 158.0599,92.1737 157.6904,91.6255 157.3227,91.0898 156.9572,90.5664 156.5938,90.0554 156.233,89.5566 155.8747,89.07 155.5192,88.5955 155.1666,88.1329 154.8172,87.6823 154.471,87.2436 154.1284,86.8165 153.7894,86.4012 153.4542,85.9974 153.123,85.6051 152.7959,85.2242 152.4732,84.8545 152.1549,84.4961 151.8413,84.1487 151.5325,83.8123 151.2286,83.4868 150.9299,83.1721 150.6365,82.8681 150.3485,82.5746 150.0661,82.2915 149.7894,82.0188 149.5187,81.7563 149.254,81.5039 148.9955,81.2615 148.7433,81.0289 148.4976,80.8061 148.2586,80.5928 148.0263,80.3891 147.8009,80.1947 147.5827,80.0096 147.3715,79.8335 147.1678,79.6664 146.9715,79.5081 146.7827,79.3586 146.6017,79.2175 146.4286,79.0849 146.2634,78.9606 146.1064,78.8444 145.9575,78.7362 145.817,78.6358 145.6423,78.4283 149.0353,71.7716 149.3058,71.7911 149.4696,71.8458 149.6446,71.9027 149.8309,71.9615 150.0286,72.0221 150.2376,72.0843 150.4581,72.1479 150.69,72.2127 150.9334,72.2786 151.1883,72.3453 151.4548,72.4127 151.7329,72.4806 152.0226,72.5487 152.324,72.6169 152.637,72.6851 152.9616,72.753 153.298,72.8204 153.646,72.8871 154.0058,72.953 154.3773,73.0179 154.7605,73.0815 155.1555,73.1437 155.5622,73.2043 155.9806,73.2631 156.4108,73.3199 156.8527,73.3746 157.3064,73.4268 157.7717,73.4765 158.2487,73.5234 158.7375,73.5674 159.2379,73.6082 159.7499,73.6457 160.2736,73.6797 160.8089,73.71 161.3558,73.7364 161.9142,73.7587 162.4841,73.7767 163.0655,73.7902 163.6584,73.799 164.2627,73.8031 164.8784,73.802 165.5053,73.7958 166.1436,73.7841 166.7931,73.7668 167.4538,73.7437 167.9036,73.6173 170.2577,67.9958 170.0322,67.5866 169.5852,67.0996 169.1418,66.6247 168.7023,66.1616 168.2669,65.7105 167.8357,65.271 167.4089,64.8433 166.9866,64.427 166.569,64.0222 166.1564,63.6287 165.7487,63.2464 165.3462,62.8752 164.9491,62.515 164.5575,62.1657 164.1715,61.8271 163.7913,61.4992 163.4171,61.1818 163.049,60.8748 162.6871,60.5781 162.3316,60.2915 161.9826,60.0149 161.6403,59.7482 161.3049,59.4913 160.9763,59.244 160.6549,59.0062 160.3407,58.7778 160.0338,58.5586 159.7345,58.3484 159.4427,58.1472 159.1587,57.9548 158.8825,57.7711 158.6144,57.5959 158.3543,57.4291 158.1025,57.2704 157.8591,57.1199 157.6241,56.9772 157.3977,56.8424 157.18,56.7151 156.9711,56.5954 156.7711,56.4829 156.5801,56.3776 156.3982,56.2792 156.2256,56.1878 156.0623,56.1029 155.9084,56.0246 155.7047,55.8455 158.0677,48.7574 158.3381,48.7364 158.5082,48.7661 158.6897,48.7962 158.8827,48.8266 159.0872,48.8571 159.3032,48.8874 159.5307,48.9175 159.7697,48.947 160.0202,48.9759 160.2822,49.0038 160.5558,49.0307 160.8409,49.0564 161.1375,49.0806 161.4456,49.1032 161.7653,49.1239 162.0964,49.1426 162.4391,49.1591 162.7932,49.1733 163.1588,49.1848 163.5358,49.1936 163.9242,49.1994 164.324,49.202 164.7352,49.2013 165.1578,49.1971 165.5916,49.1892 166.0367,49.1773 166.4931,49.1614 166.9606,49.1412 167.4393,49.1165 167.9292,49.0871 168.4301,49.0529 168.942,49.0137 169.4649,48.9692 169.9987,48.9194 170.5434,48.864 171.0989,48.8028 171.6652,48.7356 172.2421,48.6624 172.8297,48.5828 173.4278,48.4967 174.0364,48.4039 174.6555,48.3042 175.2849,48.1976 175.9245,48.0837 176.5744,47.9624 177.0003,47.7703 178.4903,41.8607 178.2064,41.4897 177.6917,41.0748 177.1825,40.6712 176.6789,40.2789 176.1811,39.8977 175.6892,39.5274 175.2034,39.168 174.7238,38.8194 174.2506,38.4813 173.7839,38.1537 173.3238,37.8364 172.8705,37.5294 172.4241,37.2324 171.9848,36.9453 171.5527,36.6681 171.1279,36.4005 170.7105,36.1424 170.3008,35.8937 169.8987,35.6542 169.5044,35.4238 169.1182,35.2023 168.74,34.9896 168.3699,34.7856 168.0082,34.59 167.6549,34.4028 167.3102,34.2237 166.9741,34.0527 166.6467,33.8895 166.3282,33.7341 166.0187,33.5862 165.7183,33.4456 165.427,33.3124 165.145,33.1861 164.8724,33.0668 164.6092,32.9542 164.3556,32.8482 164.1116,32.7486 163.8774,32.6552 163.6529,32.5679 163.4384,32.4865 163.2339,32.4108 163.0394,32.3407 162.8551,32.276 162.6809,32.2164 162.5171,32.1619 162.2889,32.0152 163.5691,24.6541 163.8334,24.593 164.006,24.597 164.19,24.5997 164.3854,24.601 164.5921,24.6007 164.8102,24.5985 165.0396,24.5943 165.2803,24.5879 165.5323,24.5791 165.7956,24.5677 166.0702,24.5535 166.3559,24.5364 166.6528,24.5161 166.9609,24.4925 167.28,24.4654 167.6103,24.4345 167.9516,24.3998 168.3038,24.361 168.667,24.3179 169.0411,24.2704 169.4261,24.2182 169.8219,24.1613 170.2284,24.0993 170.6455,24.0321 171.0734,23.9596 171.5117,23.8816 171.9606,23.7978 172.4199,23.7081 172.8896,23.6123 173.3696,23.5103 173.8598,23.4018 174.3602,23.2867 174.8706,23.1649 175.391,23.036 175.9214,22.9 176.4615,22.7567 177.0115,22.6059 177.571,22.4475 178.1402,22.2812 178.7188,22.1069 179.3068,21.9245 179.9041,21.7337 180.5106,21.5344 181.1261,21.3264 181.7506,21.1096 182.1432,20.8562 182.7357,14.7906 182.3997,14.466 181.8289,14.1325 181.2653,13.8093 180.7088,13.4964 180.1598,13.1936 179.6182,12.9008 179.0842,12.6178 178.558,12.3445 178.0397,12.0808 177.5294,11.8264 177.0272,11.5813 176.5332,11.3452 176.0475,11.1181 175.5703,10.8997 175.1017,10.6899 174.6417,10.4886 174.1906,10.2956 173.7483,10.1108 173.315,9.9339 172.8909,9.7648 172.4759,9.6034 172.0702,9.4495 171.6739,9.3028 171.2871,9.1634 170.9098,9.0309 170.5422,8.9052 170.1844,8.7862 169.8364,8.6736 169.4983,8.5674 169.1702,8.4672 168.8522,8.3731 168.5443,8.2847 168.2466,8.2019 167.9592,8.1245 167.6822,8.0524 167.4156,7.9854 167.1595,7.9233 166.914,7.8658 166.6791,7.813 166.4548,7.7644 166.2413,7.7201 166.0385,7.6797 165.8466,7.6432 165.6655,7.6103 165.4954,7.5808 165.2479,7.4697 "/><g class="guides"><polyline fill="none" stroke="#444" stroke-width="0.5" stroke-miterlimit="10" points="10,0 -10,0"/><polyline fill="none" stroke="#444" stroke-width="0.5" stroke-miterlimit="10" points="0,10 0,-10"/></g><circle fill="#c00" class="firstmarker" stroke="none" stroke-miterlimit="10" cx="174.7615" cy="-9.1333" r="3.2708"/><g class="geartext"><g class="text"><polyline fill="none" stroke="#444" stroke-width="0.5" stroke-linecap="square" stroke-miterlimit="1"  points="-19.72 -133.97 -22.68 -133.5 -25.63 -132.97 -28.57 -132.37 -31.5 -131.7 "/><polyline fill="none" stroke="#444" stroke-width="0.5" stroke-linecap="square" stroke-miterlimit="1"  points="-24.5 -127.08 -26.77 -138.86 "/><polyline fill="none" stroke="#444" stroke-width="0.5" stroke-linecap="square" stroke-miterlimit="1"  points="-20.59 -139.91 -23.18 -136.46 -25.63 -132.97 -27.94 -129.44 -30.1 -125.87 "/><polyline fill="none" stroke="#444" stroke-width="0.5" stroke-linecap="square" stroke-miterlimit="1"  points="-18.84 -128.04 -22.18 -130.55 -25.63 -132.97 -29.2 -135.3 -32.89 -137.54 "/><polyline fill="none" stroke="#444" stroke-width="0.5" stroke-linecap="square" stroke-miterlimit="1"  points="-1.67 -126.41 -4.47 -126.34 -7.27 -126.21 -10.06 -126.02 -12.85 -125.76 -13.46 -131.73 -10.78 -134.99 -7.78 -135.19 -4.79 -135.33 -1.83 -138.4 -1.87 -141.4 -5.11 -144.33 -8.3 -144.18 -11.49 -143.96 -14.37 -140.68 "/><polyline fill="none" stroke="#444" stroke-width="0.5" stroke-linecap="square" stroke-miterlimit="1"  points="32.99 -140.6 28.88 -123.07 27.08 -128.09 25.07 -133.08 22.85 -138.04 20.42 -142.97 17.88 -125.15 "/><polyline fill="none" stroke="#444" stroke-width="0.5" stroke-linecap="square" stroke-miterlimit="1"  points="49.2 -129.38 46.32 -130.43 43.42 -131.43 40.5 -132.36 37.56 -133.22 "/><polyline fill="none" stroke="#444" stroke-width="0.5" stroke-linecap="square" stroke-miterlimit="1"  points="47.07 -123.77 44.32 -124.78 41.54 -125.73 38.75 -126.62 35.93 -127.45 "/><polyline fill="none" stroke="#444" stroke-width="0.5" stroke-linecap="square" stroke-miterlimit="1"  points="63.06 -116.44 60.46 -117.81 57.84 -119.12 55.19 -120.37 52.51 -121.56 56.85 -124.01 61.33 -126.31 65.94 -128.48 57.72 -112.47 "/><polyline fill="none" stroke="#444" stroke-width="0.5" stroke-linecap="square" stroke-miterlimit="1"  points="74.4 -102.2 72.12 -103.83 69.8 -105.4 67.45 -106.92 65.07 -108.39 68.15 -113.53 72.25 -114.53 74.77 -112.9 77.25 -111.22 81.46 -111.9 83.23 -114.33 82.39 -118.61 79.74 -120.41 77.05 -122.14 72.79 -121.25 "/><polyline fill="none" stroke="#444" stroke-width="0.5" stroke-linecap="square" stroke-miterlimit="1"  points="95.65 -95.86 97.75 -93.71 99.8 -91.52 101.81 -89.29 106.06 -88.94 108.36 -90.87 108.57 -95.23 106.44 -97.61 104.25 -99.94 102.01 -102.23 89.29 -89.49 "/><polyline fill="none" stroke="#444" stroke-width="0.5" stroke-linecap="square" stroke-miterlimit="1"  points="100.37 -76.86 109.89 -84.16 "/><polyline fill="none" stroke="#444" stroke-width="0.5" stroke-linecap="square" stroke-miterlimit="1"  points="112.28 -85.98 114.66 -87.81 "/><polyline fill="none" stroke="#444" stroke-width="0.5" stroke-linecap="square" stroke-miterlimit="1"  points="112.27 -64.37 108.25 -65.3 109.31 -69.28 121.98 -77.31 "/><polyline fill="none" stroke="#444" stroke-width="0.5" stroke-linecap="square" stroke-miterlimit="1"  points="120.08 -68.85 118.52 -71.49 116.91 -74.1 115.24 -76.67 113.51 -79.21 "/><polyline fill="none" stroke="#444" stroke-width="0.5" stroke-linecap="square" stroke-miterlimit="1"  points="117.03 -47.79 115.95 -50.37 114.8 -52.93 113.6 -55.46 115.01 -59.34 120.34 -62.09 124.39 -60.72 125.7 -57.95 126.95 -55.15 128.14 -52.33 "/><polyline fill="none" stroke="#444" stroke-width="0.5" stroke-linecap="square" stroke-miterlimit="1"  points="124.69 -44.58 128.49 -42.76 132.27 -40.78 133.14 -37.84 131.05 -34.13 122.34 -31.86 "/><polyline fill="none" stroke="#444" stroke-width="0.5" stroke-linecap="square" stroke-miterlimit="1"  points="119.04 -42.56 135.99 -48.62 "/><polyline fill="none" stroke="#444" stroke-width="0.5" stroke-linecap="square" stroke-miterlimit="1"  points="125.79 -12.58 126.04 -9.79 126.22 -7 126.35 -4.2 129.41 -1.43 141.41 -1.57 144.34 -4.8 144.2 -7.99 143.98 -11.19 143.7 -14.37 "/><polyline fill="none" stroke="#444" stroke-width="0.5" stroke-linecap="square" stroke-miterlimit="1"  points="143.98 -11.19 126.04 -9.79 "/><polyline fill="none" stroke="#444" stroke-width="0.5" stroke-linecap="square" stroke-miterlimit="1"  points="137.39 16.82 137.73 13.78 138 10.72 138.2 7.66 138.34 4.6 "/><polyline fill="none" stroke="#444" stroke-width="0.5" stroke-linecap="square" stroke-miterlimit="1"  points="131.43 16.09 131.76 13.18 132.02 10.26 132.21 7.33 132.34 4.4 "/><polyline fill="none" stroke="#444" stroke-width="0.5" stroke-linecap="square" stroke-miterlimit="1"  points="139.47 23.39 141.86 27.03 141.23 30.17 140.53 33.29 136.85 35.64 133.95 34.88 131.77 31.22 128.14 33.37 125.24 32.62 123.01 29.14 123.63 26.41 124.18 23.66 127.63 21.4 "/><polyline fill="none" stroke="#444" stroke-width="0.5" stroke-linecap="square" stroke-miterlimit="1"  points="132.43 28.29 131.77 31.22 "/><polyline fill="none" stroke="#444" stroke-width="0.5" stroke-linecap="square" stroke-miterlimit="1"  points="123.67 38.13 120.8 37.25 "/><polyline fill="none" stroke="#444" stroke-width="0.5" stroke-linecap="square" stroke-miterlimit="1"  points="131.15 60.47 132.46 57.55 133.7 54.6 134.88 51.62 135.99 48.62 130.34 46.6 129.27 49.48 128.14 52.33 126.95 55.15 122.98 56.7 117.53 54.19 115.95 50.37 117.03 47.79 118.06 45.19 121.86 43.57 "/><polyline fill="none" stroke="#444" stroke-width="0.5" stroke-linecap="square" stroke-miterlimit="1"  points="112.74 75.01 111.05 77.49 109.31 79.93 107.51 82.33 108 86.57 110.34 88.45 114.66 87.81 116.57 85.24 118.43 82.64 120.24 80 105.25 70.03 "/><polyline fill="none" stroke="#444" stroke-width="0.5" stroke-linecap="square" stroke-miterlimit="1"  points="95.58 100.12 97.77 97.98 99.92 95.79 102.02 93.55 104.06 91.27 "/><polyline fill="none" stroke="#444" stroke-width="0.5" stroke-linecap="square" stroke-miterlimit="1"  points="91.43 95.78 93.53 93.73 95.59 91.64 97.59 89.5 99.55 87.31 "/><polyline fill="none" stroke="#444" stroke-width="0.5" stroke-linecap="square" stroke-miterlimit="1"  points="93.02 106.52 92.56 110.85 81.03 97.04 "/><polyline fill="none" stroke="#444" stroke-width="0.5" stroke-linecap="square" stroke-miterlimit="1"  points="78.86 98.81 81.03 97.04 83.15 95.22 "/><polyline fill="none" stroke="#444" stroke-width="0.5" stroke-linecap="square" stroke-miterlimit="1"  points="65.07 108.39 67.45 106.92 69.8 105.4 72.12 103.83 74.4 102.2 77.93 107.05 77.25 111.22 74.77 112.9 72.25 114.53 71.24 118.68 72.79 121.25 77.05 122.14 79.74 120.41 82.39 118.61 83.23 114.33 "/><polyline fill="none" stroke="#444" stroke-width="0.5" stroke-linecap="square" stroke-miterlimit="1"  points="50.93 125.48 48.14 126.57 45.32 127.61 42.48 128.58 40.5 132.36 41.38 135.23 45.31 137.13 48.33 136.09 51.34 134.98 54.31 133.81 47.54 117.14 "/><polyline fill="none" stroke="#444" stroke-width="0.5" stroke-linecap="square" stroke-miterlimit="1"  points="31.6 122.4 33.1 128.21 31.62 134.76 29.87 141.29 25.62 136.02 21.62 130.64 20.64 124.72 "/><polyline fill="none" stroke="#444" stroke-width="0.5" stroke-linecap="square" stroke-miterlimit="1"  points="33.1 128.21 30.25 128.91 27.39 129.55 24.51 130.13 21.62 130.64 "/><polyline fill="none" stroke="#444" stroke-width="0.5" stroke-linecap="square" stroke-miterlimit="1"  points="4.3 138.35 7.37 138.22 10.43 138.02 13.48 137.76 16.53 137.43 "/><polyline fill="none" stroke="#444" stroke-width="0.5" stroke-linecap="square" stroke-miterlimit="1"  points="4.12 132.35 7.05 132.23 9.98 132.04 12.9 131.79 15.82 131.47 "/><polyline fill="none" stroke="#444" stroke-width="0.5" stroke-linecap="square" stroke-miterlimit="1"  points="-12.85 125.76 -10.06 126.02 -7.27 126.21 -4.47 126.34 -1.67 126.41 -1.75 132.41 -4.79 135.33 -7.78 135.19 -10.78 134.99 -14.07 137.7 -14.37 140.68 -11.49 143.96 -8.3 144.18 -5.11 144.33 -1.87 141.4 "/><polyline fill="none" stroke="#444" stroke-width="0.5" stroke-linecap="square" stroke-miterlimit="1"  points="-27.31 126.5 -23.93 124.13 -21.17 124.63 -18.84 128.04 -20.59 139.91 -24.19 142.38 -27.34 141.81 -29.84 138.23 -27.31 126.5 "/></g></g><g class="guides gearguides" opacity="0.2"><circle class="pitch" fill="none" stroke="#f00" stroke-miterlimit="10" cx="0" cy="0" r="175"/><circle class="outer" fill="none" stroke="#ccc" stroke-miterlimit="10" stroke-dasharray="2,2" cx="0" cy="0" r="183.33"/><circle class="base" fill="none" stroke="#00f" stroke-miterlimit="10" stroke-dasharray="2,2" cx="0" cy="0" r="164.45"/></g></svg>