<?xml version="1.0" encoding="utf-8"?><!-- Generator: Iparigrafika Gear Generator by Abel Vincze http://geargenerator.com/ --><svg version="1.2" class="svggear" xmlns="http://www.w3.org/2000/svg" xmlns:xlink="http://www.w3.org/1999/xlink" x="0px" y="0px" width="176px" height="176px" viewBox="-88 -88 176 176" overflow="scroll" xml:space="preserve"><polygon id="gearpoly0" data-id="0" class="gear" fill="#ddd" stroke="#444" stroke-width="1" stroke-miterlimit="10" points="33.75,0 55.6964,-0.0001 55.8995,-0.0123 56.3707,-0.0718 57.1029,-0.2157 58.0854,-0.4806 59.3037,-0.9017 60.7393,-1.5129 62.3707,-2.3458 64.1725,-3.4303 66.1166,-4.7935 68.1718,-6.4598 70.3042,-8.4504 72.4775,-10.7834 74.6537,-13.4732 76.7925,-16.5306 78.8526,-19.9623 80.7916,-23.7711 82.5661,-27.9557 81.0476,-32.0932 76.9873,-34.1363 73.0449,-35.7866 69.2539,-37.0708 65.6451,-38.0187 62.2456,-38.6621 59.079,-39.0353 56.1652,-39.1739 53.5201,-39.1151 51.1557,-38.897 49.0801,-38.5584 47.2972,-38.1383 45.8071,-37.6756 44.6057,-37.2087 43.685,-36.7751 43.0335,-36.4112 42.6358,-36.1517 42.473,-36.0296 25.737,-21.8327 10.4293,-32.0982 17.211,-52.9704 17.2622,-53.1674 17.3512,-53.6339 17.4406,-54.3748 17.4923,-55.3911 17.4682,-56.6798 17.3307,-58.2341 17.0426,-60.0429 16.5679,-62.0917 15.8722,-64.3619 14.9226,-66.8314 13.6883,-69.4746 12.1411,-72.2625 10.2554,-75.1633 8.0087,-78.1423 5.3816,-81.162 2.3583,-84.183 -1.0731,-87.1638 -5.4774,-86.9982 -8.6752,-83.768 -11.463,-80.5285 -13.8558,-77.3199 -15.8725,-74.1806 -17.5349,-71.1463 -18.8683,-68.2501 -19.9006,-65.5217 -20.662,-62.9878 -21.1852,-60.6718 -21.5046,-58.5931 -21.656,-56.7677 -21.6765,-55.2075 -21.6037,-53.9206 -21.4758,-52.9111 -21.331,-52.179 -21.2072,-51.7206 -21.1414,-51.528 -12.811,-31.2241 -27.3043,-19.8378 -45.0594,-32.7374 -45.2309,-32.847 -45.647,-33.0758 -46.324,-33.3897 -47.2746,-33.753 -48.5077,-34.1283 -50.0284,-34.4778 -51.8378,-34.7627 -53.933,-34.9445 -56.307,-34.9843 -58.9491,-34.8443 -61.8443,-34.4872 -64.9739,-33.8773 -68.3155,-32.9803 -71.8429,-31.764 -75.5267,-30.1986 -79.334,-28.2569 -83.2293,-25.9145 -84.4328,-21.6746 -82.3489,-17.6352 -80.1294,-13.9827 -77.8173,-10.7155 -75.4548,-7.8275 -73.0828,-5.3087 -70.7403,-3.1456 -68.4644,-1.3207 -66.2899,0.1864 -64.2489,1.3998 -62.3707,2.3458 -60.6814,3.0539 -59.2039,3.5555 -57.9574,3.8839 -56.9578,4.0743 -56.2168,4.1628 -55.7425,4.1867 -55.539,4.1836 -33.6546,2.5352 -27.3043,19.8378 -45.0593,32.7376 -45.2164,32.8669 -45.5627,33.1919 -46.0705,33.7388 -46.7096,34.5306 -47.4476,35.5874 -48.2499,36.9256 -49.0801,38.5584 -49.9004,40.4949 -50.6719,42.7404 -51.3551,45.2965 -51.9102,48.1603 -52.2972,51.3252 -52.4767,54.7804 -52.41,58.511 -52.0596,62.4982 -51.3895,66.7193 -50.3654,71.1477 -46.7049,73.6025 -42.2192,72.8689 -38.0597,71.8866 -34.2379,70.6974 -30.7612,69.343 -27.6327,67.8654 -24.8516,66.306 -22.4128,64.7054 -20.3074,63.1031 -18.5228,61.5369 -17.0426,60.0429 -15.8471,58.6551 -14.9135,57.4049 -14.216,56.321 -13.7261,55.4291 -13.4129,54.7518 -13.2436,54.3081 -13.1837,54.1136 -7.9888,32.7909 10.4293,32.0982 17.2112,52.9704 17.2856,53.1598 17.4878,53.5895 17.8509,54.2415 18.4065,55.094 19.1835,56.1225 20.2083,57.299 21.5046,58.5931 23.0929,59.9717 24.9901,61.3994 27.2099,62.839 29.762,64.2519 32.6524,65.598 35.8831,66.8364 39.4517,67.9258 43.352,68.8246 47.5736,69.4917 52.1017,69.8862 55.5675,67.1635 56.256,62.6706 56.6072,58.4111 56.6571,54.4089 56.4434,50.6838 56.0048,47.2518 55.3812,44.1249 54.6126,41.3109 53.7392,38.8134 52.8012,36.6321 51.8378,34.7627 50.8873,33.1969 49.9868,31.9227 49.1715,30.9244 48.4746,30.1828 47.9272,29.6757 47.5575,29.3776 47.3911,29.2604 28.7173,17.7307 "/><g class="guides"><polyline fill="none" stroke="#444" stroke-width="0.5" stroke-miterlimit="10" points="10,0 -10,0"/><polyline fill="none" stroke="#444" stroke-width="0.5" stroke-miterlimit="10" points="0,10 0,-10"/></g><circle fill="#c00" class="firstmarker" stroke="none" stroke-miterlimit="10" cx="58.6731" cy="-21.534" r="9.8125"/><g class="geartext"><g class="text"><polyline fill="none" stroke="#444" stroke-width="0.5" stroke-linecap="square" stroke-miterlimit="1"  points="-17.67 -18.69 -18.24 -18.12 -18.8 -17.55 -19.34 -16.95 -19.86 -16.34 "/><polyline fill="none" stroke="#444" stroke-width="0.5" stroke-linecap="square" stroke-miterlimit="1"  points="-17.62 -16.45 -19.97 -18.64 "/><polyline fill="none" stroke="#444" stroke-width="0.5" stroke-linecap="square" stroke-miterlimit="1"  points="-18.77 -19.85 -18.81 -18.69 -18.8 -17.55 -18.73 -16.42 -18.62 -15.32 "/><polyline fill="none" stroke="#444" stroke-width="0.5" stroke-linecap="square" stroke-miterlimit="1"  points="-16.56 -17.52 -17.67 -17.56 -18.8 -17.55 -19.94 -17.48 -21.1 -17.36 "/><polyline fill="none" stroke="#444" stroke-width="0.5" stroke-linecap="square" stroke-miterlimit="1"  points="-13.63 -19.88 -13.77 -18.8 -14.35 -18.36 -15.43 -18.52 -17.49 -20.99 -17.32 -22.16 -16.62 -22.69 -15.45 -22.53 -13.63 -19.88 "/><polyline fill="none" stroke="#444" stroke-width="0.5" stroke-linecap="square" stroke-miterlimit="1"  points="-7.16 -27.2 -5.93 -22.54 -6.97 -23.5 -8.08 -24.41 -9.26 -25.28 -10.49 -26.09 -8.69 -21.62 "/><polyline fill="none" stroke="#444" stroke-width="0.5" stroke-linecap="square" stroke-miterlimit="1"  points="-1.85 -26.45 -2.68 -26.38 -3.5 -26.29 -4.32 -26.16 -5.13 -26.02 "/><polyline fill="none" stroke="#444" stroke-width="0.5" stroke-linecap="square" stroke-miterlimit="1"  points="-1.74 -24.85 -2.51 -24.78 -3.29 -24.69 -4.06 -24.58 -4.82 -24.44 "/><polyline fill="none" stroke="#444" stroke-width="0.5" stroke-linecap="square" stroke-miterlimit="1"  points="3.3 -27.93 2.43 -28.02 1.55 -28.08 0.67 -28.12 -0.21 -28.12 -0.19 -26.52 0.63 -26.51 1.46 -26.48 2.29 -26.42 3.02 -25.54 2.83 -23.94 2.01 -23.22 1.29 -23.27 0.56 -23.3 -0.18 -24.11 "/><polyline fill="none" stroke="#444" stroke-width="0.5" stroke-linecap="square" stroke-miterlimit="1"  points="8.49 -24.27 9.24 -24 9.99 -23.7 10.72 -23.37 11.81 -23.74 12.16 -24.46 11.73 -25.56 10.92 -25.92 10.11 -26.25 9.28 -26.55 7.69 -22 "/><polyline fill="none" stroke="#444" stroke-width="0.5" stroke-linecap="square" stroke-miterlimit="1"  points="11.66 -20.18 13.27 -22.96 "/><polyline fill="none" stroke="#444" stroke-width="0.5" stroke-linecap="square" stroke-miterlimit="1"  points="13.67 -23.66 14.07 -24.35 "/><polyline fill="none" stroke="#444" stroke-width="0.5" stroke-linecap="square" stroke-miterlimit="1"  points="15.74 -18.26 14.66 -18.12 14.57 -19.21 17 -22.41 "/><polyline fill="none" stroke="#444" stroke-width="0.5" stroke-linecap="square" stroke-miterlimit="1"  points="17.31 -20.09 16.68 -20.62 16.03 -21.13 15.36 -21.62 14.67 -22.09 "/><polyline fill="none" stroke="#444" stroke-width="0.5" stroke-linecap="square" stroke-miterlimit="1"  points="18.24 -14.51 17.78 -15.07 17.3 -15.62 16.8 -16.15 16.85 -17.24 17.97 -18.39 19.12 -18.38 19.68 -17.77 20.23 -17.15 20.75 -16.51 "/><polyline fill="none" stroke="#444" stroke-width="0.5" stroke-linecap="square" stroke-miterlimit="1"  points="20.43 -14.26 21.54 -14.05 22.65 -13.79 23.07 -13.08 22.76 -11.97 20.62 -10.85 "/><polyline fill="none" stroke="#444" stroke-width="0.5" stroke-linecap="square" stroke-miterlimit="1"  points="19.11 -13.34 23.06 -16.1 "/><polyline fill="none" stroke="#444" stroke-width="0.5" stroke-linecap="square" stroke-miterlimit="1"  points="22.49 -6.12 22.67 -5.41 22.82 -4.7 22.96 -3.99 23.87 -3.38 27.05 -3.83 27.71 -4.81 27.55 -5.67 27.36 -6.53 27.14 -7.38 "/><polyline fill="none" stroke="#444" stroke-width="0.5" stroke-linecap="square" stroke-miterlimit="1"  points="27.36 -6.53 22.67 -5.41 "/><polyline fill="none" stroke="#444" stroke-width="0.5" stroke-linecap="square" stroke-miterlimit="1"  points="26.49 1.24 26.51 0.41 26.51 -0.41 26.49 -1.24 26.44 -2.07 "/><polyline fill="none" stroke="#444" stroke-width="0.5" stroke-linecap="square" stroke-miterlimit="1"  points="24.88 1.17 24.91 0.39 24.91 -0.39 24.88 -1.17 24.83 -1.94 "/><polyline fill="none" stroke="#444" stroke-width="0.5" stroke-linecap="square" stroke-miterlimit="1"  points="27.16 2.98 27.85 3.94 23.07 3.27 "/><polyline fill="none" stroke="#444" stroke-width="0.5" stroke-linecap="square" stroke-miterlimit="1"  points="22.96 3.99 23.07 3.27 23.16 2.54 "/><polyline fill="none" stroke="#444" stroke-width="0.5" stroke-linecap="square" stroke-miterlimit="1"  points="23.45 5.6 22.67 5.41 "/><polyline fill="none" stroke="#444" stroke-width="0.5" stroke-linecap="square" stroke-miterlimit="1"  points="21.26 9.54 21.55 8.87 21.81 8.2 22.06 7.51 22.28 6.82 23.82 7.29 24.34 8.29 24.07 9.04 23.78 9.79 24.19 10.86 24.93 11.19 26.01 10.71 26.33 9.89 26.62 9.06 26.13 7.99 "/><polyline fill="none" stroke="#444" stroke-width="0.5" stroke-linecap="square" stroke-miterlimit="1"  points="23.06 16.1 23.55 15.37 24.02 14.63 24.47 13.87 24.89 13.1 23.47 12.35 23.07 13.08 22.65 13.79 22.21 14.49 21.09 14.72 19.77 13.8 19.52 12.73 19.9 12.12 20.27 11.49 21.33 11.23 "/><polyline fill="none" stroke="#444" stroke-width="0.5" stroke-linecap="square" stroke-miterlimit="1"  points="17.39 18.94 16.79 19.48 16.17 19.99 15.54 20.49 15.36 21.62 15.82 22.27 17 22.41 17.69 21.87 18.36 21.3 19.02 20.72 15.76 17.17 "/><polyline fill="none" stroke="#444" stroke-width="0.5" stroke-linecap="square" stroke-miterlimit="1"  points="11.06 24.1 11.81 23.74 12.54 23.36 13.27 22.96 13.98 22.54 "/><polyline fill="none" stroke="#444" stroke-width="0.5" stroke-linecap="square" stroke-miterlimit="1"  points="10.39 22.64 11.09 22.31 11.78 21.95 12.46 21.57 13.13 21.17 "/><polyline fill="none" stroke="#444" stroke-width="0.5" stroke-linecap="square" stroke-miterlimit="1"  points="5.99 24.18 6.74 23.98 7.48 23.76 8.22 23.51 8.95 23.25 8.58 24.53 8.13 25.8 7.61 27.08 6.3 22.43 "/><polyline fill="none" stroke="#444" stroke-width="0.5" stroke-linecap="square" stroke-miterlimit="1"  points="0.62 25.71 -0.19 25.71 -0.99 25.7 -1.79 25.65 -2.68 26.38 -2.76 27.18 -1.96 28.06 -1.08 28.1 -0.21 28.12 0.67 28.12 0.56 23.3 "/><polyline fill="none" stroke="#444" stroke-width="0.5" stroke-linecap="square" stroke-miterlimit="1"  points="-3.79 22.99 -4.06 24.58 -5.13 26.02 -6.3 27.41 -6.75 25.64 -7.09 23.88 -6.63 22.34 "/><polyline fill="none" stroke="#444" stroke-width="0.5" stroke-linecap="square" stroke-miterlimit="1"  points="-4.06 24.58 -4.82 24.44 -5.58 24.28 -6.34 24.09 -7.09 23.88 "/><polyline fill="none" stroke="#444" stroke-width="0.5" stroke-linecap="square" stroke-miterlimit="1"  points="-12.15 23.57 -11.41 23.94 -10.66 24.28 -9.89 24.6 -9.12 24.9 "/><polyline fill="none" stroke="#444" stroke-width="0.5" stroke-linecap="square" stroke-miterlimit="1"  points="-11.42 22.14 -10.72 22.49 -10.01 22.81 -9.29 23.11 -8.57 23.39 "/><polyline fill="none" stroke="#444" stroke-width="0.5" stroke-linecap="square" stroke-miterlimit="1"  points="-14.35 18.36 -13.77 18.8 -13.18 19.22 -12.57 19.62 -11.95 20 -12.78 21.38 -13.87 21.65 -14.54 21.21 -15.2 20.74 -16.33 20.89 -16.83 21.52 -16.62 22.69 -15.91 23.2 -15.17 23.68 -14.01 23.45 "/><polyline fill="none" stroke="#444" stroke-width="0.5" stroke-linecap="square" stroke-miterlimit="1"  points="-18.67 21.03 -19.32 20.44 -19.95 19.82 -20.56 19.19 -21.15 18.54 -18.8 17.55 -16.53 16.43 "/></g></g><g class="guides gearguides" opacity="0.2"><circle class="pitch" fill="none" stroke="#f00" stroke-miterlimit="10" cx="0" cy="0" r="62.5"/><circle class="outer" fill="none" stroke="#ccc" stroke-miterlimit="10" stroke-dasharray="2,2" cx="0" cy="0" r="87.5"/><circle class="base" fill="none" stroke="#00f" stroke-miterlimit="10" stroke-dasharray="2,2" cx="0" cy="0" r="55.69"/></g></svg>