<?xml version="1.0" encoding="utf-8"?><!-- Generator: Iparigrafika Gear Generator by Abel Vincze http://geargenerator.com/ --><svg version="1.2" class="svggear" xmlns="http://www.w3.org/2000/svg" xmlns:xlink="http://www.w3.org/1999/xlink" x="0px" y="0px" width="550px" height="550px" viewBox="-275 -275 550 550" overflow="scroll" xml:space="preserve"><polygon id="gearpoly3" data-id="3" class="gear" fill="#ddd" stroke="#444" stroke-width="1" stroke-miterlimit="10" points="221.25,0 222.7856,-0.0004 222.8873,-0.0032 223.0568,-0.0107 223.2938,-0.0253 223.5982,-0.0493 223.9697,-0.0852 224.4079,-0.1352 224.9124,-0.2017 225.4828,-0.2871 226.1185,-0.3936 226.819,-0.5235 227.5837,-0.6792 228.4117,-0.8628 229.3024,-1.0768 230.2549,-1.3232 231.2684,-1.6044 232.3418,-1.9224 233.4742,-2.2796 234.6646,-2.678 235.9118,-3.1198 237.2147,-3.607 238.572,-4.1417 239.9824,-4.7261 241.4447,-5.362 242.9574,-6.0515 244.519,-6.7965 246.1282,-7.5989 247.7833,-8.4605 249.4827,-9.3834 251.2248,-10.3691 253.0079,-11.4196 254.8303,-12.5364 256.6901,-13.7214 258.5855,-14.9761 260.5147,-16.3021 262.4757,-17.7009 264.4665,-19.1742 266.4851,-20.7232 268.5295,-22.3495 270.5975,-24.0544 272.6871,-25.8392 273.6129,-27.5859 272.6154,-36.1362 271.3124,-37.6228 268.8682,-38.8787 266.4632,-40.0618 264.0994,-41.1739 261.7784,-42.2167 259.5019,-43.1921 257.2716,-44.102 255.089,-44.9484 252.9557,-45.733 250.873,-46.4581 248.8425,-47.1255 246.8655,-47.7373 244.9433,-48.2955 243.0771,-48.8024 241.2681,-49.26 239.5174,-49.6704 237.8262,-50.0359 236.1955,-50.3587 234.6261,-50.641 233.119,-50.8849 231.6751,-51.0929 230.295,-51.2672 228.9796,-51.41 227.7295,-51.5237 226.5453,-51.6106 225.4274,-51.673 224.3765,-51.7133 223.3928,-51.7339 222.4768,-51.7371 221.6287,-51.7252 220.8488,-51.7007 220.1372,-51.6659 219.494,-51.6232 218.9193,-51.5749 218.413,-51.5235 217.975,-51.4714 217.6053,-51.4208 217.3035,-51.3741 217.0695,-51.3337 216.9029,-51.302 216.8032,-51.2813 215.3088,-50.9282 210.4213,-68.37 211.8815,-68.8449 211.9774,-68.879 212.1363,-68.9385 212.3572,-69.0256 212.6393,-69.1425 212.9815,-69.2914 213.3828,-69.4744 213.8421,-69.6936 214.3582,-69.951 214.9299,-70.2488 215.556,-70.5888 216.2351,-70.9731 216.9658,-71.4037 217.7468,-71.8824 218.5765,-72.4111 219.4535,-72.9917 220.3761,-73.6259 221.3428,-74.3155 222.3518,-75.0623 223.4014,-75.8678 224.49,-76.7338 225.6156,-77.6618 226.7764,-78.6534 227.9706,-79.7101 229.1962,-80.8332 230.4512,-82.0244 231.7336,-83.2847 233.0414,-84.6157 234.3725,-86.0185 235.7248,-87.4944 237.096,-89.0444 238.484,-90.6697 239.8867,-92.3714 241.3016,-94.1504 242.7266,-96.0077 244.1593,-97.944 245.5974,-99.9604 247.0386,-102.0574 248.4803,-104.2359 249.9203,-106.4964 251.3561,-108.8395 251.6968,-110.7868 248.106,-118.6104 246.4074,-119.6216 243.6946,-120.0607 241.0418,-120.4427 238.45,-120.7699 235.9204,-121.0444 233.4539,-121.2686 231.0516,-121.4448 228.7143,-121.5753 226.4429,-121.6623 224.2381,-121.7083 222.1007,-121.7156 220.0314,-121.6865 218.0308,-121.6234 216.0993,-121.5288 214.2374,-121.405 212.4456,-121.2543 210.7242,-121.0794 209.0735,-120.8824 207.4938,-120.6659 205.985,-120.4322 204.5475,-120.1838 203.1812,-119.923 201.886,-119.6524 200.6619,-119.3742 199.5088,-119.0909 198.4264,-118.8049 197.4144,-118.5184 196.4725,-118.234 195.6004,-117.954 194.7975,-117.6806 194.0633,-117.4163 193.3973,-117.1633 192.7988,-116.9239 192.2671,-116.7005 191.8014,-116.4951 191.4011,-116.3102 191.065,-116.1478 190.7925,-116.0102 190.5824,-115.8995 190.4337,-115.8178 190.3453,-115.7673 189.0332,-114.9697 178.995,-130.0475 180.2371,-130.9504 180.3178,-131.0124 180.4505,-131.1181 180.6336,-131.2692 180.8658,-131.4676 181.1452,-131.715 181.4703,-132.013 181.8394,-132.3634 182.2507,-132.7677 182.7024,-133.2275 183.1928,-133.7444 183.7199,-134.3198 184.2818,-134.9551 184.8766,-135.6517 185.5024,-136.4109 186.157,-137.2341 186.8385,-138.1224 187.5447,-139.0769 188.2736,-140.0989 189.0229,-141.1894 189.7906,-142.3494 190.5743,-143.5798 191.372,-144.8816 192.1812,-146.2556 192.9997,-147.7025 193.8252,-149.2231 194.6554,-150.8181 195.4879,-152.4881 196.3203,-154.2336 197.1503,-156.055 197.9755,-157.953 198.7933,-159.9277 199.6014,-161.9795 200.3974,-164.1087 201.1787,-166.3153 201.9429,-168.5997 202.6876,-170.9617 203.4102,-173.4015 204.1082,-175.9188 204.7792,-178.5137 205.4206,-181.1858 205.1429,-183.1431 199.3102,-189.4741 197.3822,-189.911 194.6666,-189.4903 192.0255,-189.0338 189.4595,-188.5441 186.9688,-188.0235 184.5538,-187.4745 182.2146,-186.8997 179.9514,-186.3015 177.7642,-185.6824 175.6532,-185.0448 173.6182,-184.3913 171.6591,-183.7242 169.7759,-183.046 167.9681,-182.3591 166.2357,-181.666 164.5781,-180.969 162.9951,-180.2707 161.486,-179.5733 160.0505,-178.8792 158.6878,-178.1907 157.3974,-177.5102 156.1785,-176.84 155.0304,-176.1824 153.9522,-175.5396 152.943,-174.9138 152.002,-174.3073 151.128,-173.7222 150.3202,-173.1606 149.5772,-172.6248 148.8981,-172.1167 148.2815,-171.6384 147.7263,-171.192 147.231,-170.7794 146.7944,-170.4025 146.415,-170.0633 146.0914,-169.7637 145.822,-169.5054 145.6053,-169.2903 145.4397,-169.1201 145.3235,-168.9965 145.2551,-168.9212 144.2536,-167.7571 130.0475,-178.995 130.9497,-180.2375 131.0073,-180.3215 131.1009,-180.463 131.2284,-180.6633 131.3878,-180.9237 131.5772,-181.2453 131.7942,-181.6292 132.037,-182.0765 132.3032,-182.5881 132.5907,-183.1651 132.8974,-183.8082 133.2209,-184.5183 133.559,-185.2961 133.9094,-186.1424 134.2699,-187.0579 134.6382,-188.043 135.0118,-189.0984 135.3885,-190.2245 135.7659,-191.4218 136.1416,-192.6904 136.5132,-194.0309 136.8784,-195.4433 137.2347,-196.9278 137.5797,-198.4846 137.911,-200.1136 138.2262,-201.8149 138.5229,-203.5884 138.7986,-205.4339 139.0509,-207.3511 139.2774,-209.34 139.4757,-211.4 139.6433,-213.5308 139.7778,-215.7319 139.8769,-218.0028 139.9381,-220.3429 139.959,-222.7516 139.9373,-225.2282 139.8706,-227.7718 139.7565,-230.3817 139.5928,-233.0568 139.3771,-235.7964 138.5082,-237.5721 131.0045,-241.7908 129.0359,-241.6105 126.5832,-240.3713 124.2125,-239.121 121.9234,-237.8623 119.7155,-236.5975 117.5883,-235.3291 115.5412,-234.0596 113.5736,-232.7913 111.6848,-231.5266 109.8741,-230.2679 108.1407,-229.0175 106.4837,-227.7776 104.9021,-226.5507 103.3951,-225.3388 101.9617,-224.1443 100.6006,-222.9692 99.3108,-221.8159 98.0912,-220.6863 96.9404,-219.5825 95.8571,-218.5067 94.8402,-217.4607 93.888,-216.4467 92.9993,-215.4664 92.1725,-214.5219 91.4061,-213.6149 90.6986,-212.7473 90.0482,-211.9207 89.4534,-211.137 88.9124,-210.3978 88.4235,-209.7047 87.9849,-209.0593 87.5948,-208.4632 87.2513,-207.9177 86.9525,-207.4244 86.6965,-206.9846 86.4813,-206.5996 86.3049,-206.2707 86.1653,-205.9992 86.0604,-205.7861 85.9881,-205.6327 85.9463,-205.5399 85.3535,-204.1233 68.37,-210.4213 68.8441,-211.8818 68.873,-211.9794 68.9182,-212.1429 68.9776,-212.3728 69.0487,-212.6698 69.1294,-213.0341 69.2173,-213.4663 69.3099,-213.9667 69.405,-214.5356 69.5002,-215.1731 69.5931,-215.8795 69.6813,-216.6548 69.7625,-217.4991 69.8343,-218.4123 69.8942,-219.3943 69.94,-220.445 69.9692,-221.5642 69.9795,-222.7516 69.9684,-224.0069 69.9337,-225.3295 69.8729,-226.7192 69.7838,-228.1753 69.6639,-229.6973 69.511,-231.2845 69.3227,-232.9362 69.0967,-234.6517 68.8309,-236.43 68.5228,-238.2703 68.1703,-240.1718 67.7711,-242.1332 67.3231,-244.1537 66.824,-246.232 66.2718,-248.3669 65.6642,-250.5573 64.9993,-252.8018 64.2749,-255.0991 63.4889,-257.4477 62.6395,-259.8462 61.7245,-262.2931 60.7421,-264.7868 59.6904,-267.3256 58.3153,-268.7458 49.8752,-270.4394 48.0587,-269.6596 46.109,-267.723 44.2406,-265.8013 42.4525,-263.8968 40.7435,-262.0117 39.1124,-260.1481 37.5578,-258.3081 36.0784,-256.4939 34.6729,-254.7074 33.3398,-252.9508 32.0776,-251.2259 30.8848,-249.5347 29.7598,-247.879 28.7011,-246.2608 27.7069,-244.6817 26.7756,-243.1436 25.9053,-241.6481 25.0944,-240.1969 24.341,-238.7916 23.6433,-237.4337 22.9993,-236.1247 22.4071,-234.866 21.8648,-233.6591 21.3704,-232.5053 20.9218,-231.4059 20.517,-230.3621 20.1538,-229.375 19.8303,-228.4459 19.5442,-227.5757 19.2934,-226.7654 19.0758,-226.0161 18.889,-225.3286 18.7308,-224.7036 18.5991,-224.1421 18.4915,-223.6447 18.4058,-223.2121 18.3397,-222.8448 18.2908,-222.5434 18.2569,-222.3084 18.2355,-222.1401 18.2245,-222.0389 18.0985,-220.5085 0,-221.25 -0.0004,-222.7856 -0.0032,-222.8873 -0.0107,-223.0568 -0.0253,-223.2938 -0.0493,-223.5982 -0.0852,-223.9697 -0.1352,-224.4079 -0.2017,-224.9124 -0.2871,-225.4828 -0.3936,-226.1185 -0.5235,-226.819 -0.6792,-227.5837 -0.8628,-228.4117 -1.0768,-229.3024 -1.3232,-230.2549 -1.6044,-231.2684 -1.9224,-232.3418 -2.2796,-233.4742 -2.678,-234.6646 -3.1198,-235.9118 -3.607,-237.2147 -4.1417,-238.572 -4.7261,-239.9824 -5.362,-241.4447 -6.0515,-242.9574 -6.7965,-244.519 -7.5989,-246.1282 -8.4605,-247.7833 -9.3834,-249.4827 -10.3691,-251.2248 -11.4196,-253.0079 -12.5364,-254.8303 -13.7214,-256.6901 -14.9761,-258.5855 -16.3021,-260.5147 -17.7009,-262.4757 -19.1742,-264.4665 -20.7232,-266.4851 -22.3495,-268.5295 -24.0544,-270.5975 -25.8392,-272.6871 -27.5859,-273.6129 -36.1362,-272.6154 -37.6228,-271.3124 -38.8787,-268.8682 -40.0618,-266.4632 -41.1739,-264.0994 -42.2167,-261.7784 -43.1921,-259.5019 -44.102,-257.2716 -44.9484,-255.089 -45.733,-252.9557 -46.4581,-250.873 -47.1255,-248.8425 -47.7373,-246.8655 -48.2955,-244.9433 -48.8024,-243.0771 -49.26,-241.2681 -49.6704,-239.5174 -50.0359,-237.8262 -50.3587,-236.1955 -50.641,-234.6261 -50.8849,-233.119 -51.0929,-231.6751 -51.2672,-230.295 -51.41,-228.9796 -51.5237,-227.7295 -51.6106,-226.5453 -51.673,-225.4274 -51.7133,-224.3765 -51.7339,-223.3928 -51.7371,-222.4768 -51.7252,-221.6287 -51.7007,-220.8488 -51.6659,-220.1372 -51.6232,-219.494 -51.5749,-218.9193 -51.5235,-218.413 -51.4714,-217.975 -51.4208,-217.6053 -51.3741,-217.3035 -51.3337,-217.0695 -51.302,-216.9029 -51.2813,-216.8032 -50.9282,-215.3088 -68.37,-210.4213 -68.8449,-211.8815 -68.879,-211.9774 -68.9385,-212.1363 -69.0256,-212.3572 -69.1425,-212.6393 -69.2914,-212.9815 -69.4744,-213.3828 -69.6936,-213.8421 -69.951,-214.3582 -70.2488,-214.9299 -70.5888,-215.556 -70.9731,-216.2351 -71.4037,-216.9658 -71.8824,-217.7468 -72.4111,-218.5765 -72.9917,-219.4535 -73.6259,-220.3761 -74.3155,-221.3428 -75.0623,-222.3518 -75.8678,-223.4014 -76.7338,-224.49 -77.6618,-225.6156 -78.6534,-226.7764 -79.7101,-227.9706 -80.8332,-229.1962 -82.0244,-230.4512 -83.2847,-231.7336 -84.6157,-233.0414 -86.0185,-234.3725 -87.4944,-235.7248 -89.0444,-237.096 -90.6697,-238.484 -92.3714,-239.8867 -94.1504,-241.3016 -96.0077,-242.7266 -97.944,-244.1593 -99.9604,-245.5974 -102.0574,-247.0386 -104.2359,-248.4803 -106.4964,-249.9203 -108.8395,-251.3561 -110.7868,-251.6968 -118.6104,-248.106 -119.6216,-246.4074 -120.0607,-243.6946 -120.4427,-241.0418 -120.7699,-238.45 -121.0444,-235.9204 -121.2686,-233.4539 -121.4448,-231.0516 -121.5753,-228.7143 -121.6623,-226.4429 -121.7083,-224.2381 -121.7156,-222.1007 -121.6865,-220.0314 -121.6234,-218.0308 -121.5288,-216.0993 -121.405,-214.2374 -121.2543,-212.4456 -121.0794,-210.7242 -120.8824,-209.0735 -120.6659,-207.4938 -120.4322,-205.985 -120.1838,-204.5475 -119.923,-203.1812 -119.6524,-201.886 -119.3742,-200.6619 -119.0909,-199.5088 -118.8049,-198.4264 -118.5184,-197.4144 -118.234,-196.4725 -117.954,-195.6004 -117.6806,-194.7975 -117.4163,-194.0633 -117.1633,-193.3973 -116.9239,-192.7988 -116.7005,-192.2671 -116.4951,-191.8014 -116.3102,-191.4011 -116.1478,-191.065 -116.0102,-190.7925 -115.8995,-190.5824 -115.8178,-190.4337 -115.7673,-190.3453 -114.9697,-189.0332 -130.0475,-178.995 -130.9504,-180.2371 -131.0124,-180.3178 -131.1181,-180.4505 -131.2692,-180.6336 -131.4676,-180.8658 -131.715,-181.1452 -132.013,-181.4703 -132.3634,-181.8394 -132.7677,-182.2507 -133.2275,-182.7024 -133.7444,-183.1928 -134.3198,-183.7199 -134.9551,-184.2818 -135.6517,-184.8766 -136.4109,-185.5024 -137.2341,-186.157 -138.1224,-186.8385 -139.0769,-187.5447 -140.0989,-188.2736 -141.1894,-189.0229 -142.3494,-189.7906 -143.5798,-190.5743 -144.8816,-191.372 -146.2556,-192.1812 -147.7025,-192.9997 -149.2231,-193.8252 -150.8181,-194.6554 -152.4881,-195.4879 -154.2336,-196.3203 -156.055,-197.1503 -157.953,-197.9755 -159.9277,-198.7933 -161.9795,-199.6014 -164.1087,-200.3974 -166.3153,-201.1787 -168.5997,-201.9429 -170.9617,-202.6876 -173.4015,-203.4102 -175.9188,-204.1082 -178.5137,-204.7792 -181.1858,-205.4206 -183.1431,-205.1429 -189.4741,-199.3102 -189.911,-197.3822 -189.4903,-194.6666 -189.0338,-192.0255 -188.5441,-189.4595 -188.0235,-186.9688 -187.4745,-184.5538 -186.8997,-182.2146 -186.3015,-179.9514 -185.6824,-177.7642 -185.0448,-175.6532 -184.3913,-173.6182 -183.7242,-171.6591 -183.046,-169.7759 -182.3591,-167.9681 -181.666,-166.2357 -180.969,-164.5781 -180.2707,-162.9951 -179.5733,-161.486 -178.8792,-160.0505 -178.1907,-158.6878 -177.5102,-157.3974 -176.84,-156.1785 -176.1824,-155.0304 -175.5396,-153.9522 -174.9138,-152.943 -174.3073,-152.002 -173.7222,-151.128 -173.1606,-150.3202 -172.6248,-149.5772 -172.1167,-148.8981 -171.6384,-148.2815 -171.192,-147.7263 -170.7794,-147.231 -170.4025,-146.7944 -170.0633,-146.415 -169.7637,-146.0914 -169.5054,-145.822 -169.2903,-145.6053 -169.1201,-145.4397 -168.9965,-145.3235 -168.9212,-145.2551 -167.7571,-144.2536 -178.995,-130.0475 -180.2375,-130.9497 -180.3215,-131.0073 -180.463,-131.1009 -180.6633,-131.2284 -180.9237,-131.3878 -181.2453,-131.5772 -181.6292,-131.7942 -182.0765,-132.037 -182.5881,-132.3032 -183.1651,-132.5907 -183.8082,-132.8974 -184.5183,-133.2209 -185.2961,-133.559 -186.1424,-133.9094 -187.0579,-134.2699 -188.043,-134.6382 -189.0984,-135.0118 -190.2245,-135.3885 -191.4218,-135.7659 -192.6904,-136.1416 -194.0309,-136.5132 -195.4433,-136.8784 -196.9278,-137.2347 -198.4846,-137.5797 -200.1136,-137.911 -201.8149,-138.2262 -203.5884,-138.5229 -205.4339,-138.7986 -207.3511,-139.0509 -209.34,-139.2774 -211.4,-139.4757 -213.5308,-139.6433 -215.7319,-139.7778 -218.0028,-139.8769 -220.3429,-139.9381 -222.7516,-139.959 -225.2282,-139.9373 -227.7718,-139.8706 -230.3817,-139.7565 -233.0568,-139.5928 -235.7964,-139.3771 -237.5721,-138.5082 -241.7908,-131.0045 -241.6105,-129.0359 -240.3713,-126.5832 -239.121,-124.2125 -237.8623,-121.9234 -236.5975,-119.7155 -235.3291,-117.5883 -234.0596,-115.5412 -232.7913,-113.5736 -231.5266,-111.6848 -230.2679,-109.8741 -229.0175,-108.1407 -227.7776,-106.4837 -226.5507,-104.9021 -225.3388,-103.3951 -224.1443,-101.9617 -222.9692,-100.6006 -221.8159,-99.3108 -220.6863,-98.0912 -219.5825,-96.9404 -218.5067,-95.8571 -217.4607,-94.8402 -216.4467,-93.888 -215.4664,-92.9993 -214.5219,-92.1725 -213.6149,-91.4061 -212.7473,-90.6986 -211.9207,-90.0482 -211.137,-89.4534 -210.3978,-88.9124 -209.7047,-88.4235 -209.0593,-87.9849 -208.4632,-87.5948 -207.9177,-87.2513 -207.4244,-86.9525 -206.9846,-86.6965 -206.5996,-86.4813 -206.2707,-86.3049 -205.9992,-86.1653 -205.7861,-86.0604 -205.6327,-85.9881 -205.5399,-85.9463 -204.1233,-85.3535 -210.4213,-68.37 -211.8818,-68.8441 -211.9794,-68.873 -212.1429,-68.9182 -212.3728,-68.9776 -212.6698,-69.0487 -213.0341,-69.1294 -213.4663,-69.2173 -213.9667,-69.3099 -214.5356,-69.405 -215.1731,-69.5002 -215.8795,-69.5931 -216.6548,-69.6813 -217.4991,-69.7625 -218.4123,-69.8343 -219.3943,-69.8942 -220.445,-69.94 -221.5642,-69.9692 -222.7516,-69.9795 -224.0069,-69.9684 -225.3295,-69.9337 -226.7192,-69.8729 -228.1753,-69.7838 -229.6973,-69.6639 -231.2845,-69.511 -232.9362,-69.3227 -234.6517,-69.0967 -236.43,-68.8309 -238.2703,-68.5228 -240.1718,-68.1703 -242.1332,-67.7711 -244.1537,-67.3231 -246.232,-66.824 -248.3669,-66.2718 -250.5573,-65.6642 -252.8018,-64.9993 -255.0991,-64.2749 -257.4477,-63.4889 -259.8462,-62.6395 -262.2931,-61.7245 -264.7868,-60.7421 -267.3256,-59.6904 -268.7458,-58.3153 -270.4394,-49.8752 -269.6596,-48.0587 -267.723,-46.109 -265.8013,-44.2406 -263.8968,-42.4525 -262.0117,-40.7435 -260.1481,-39.1124 -258.3081,-37.5578 -256.4939,-36.0784 -254.7074,-34.6729 -252.9508,-33.3398 -251.2259,-32.0776 -249.5347,-30.8848 -247.879,-29.7598 -246.2608,-28.7011 -244.6817,-27.7069 -243.1436,-26.7756 -241.6481,-25.9053 -240.1969,-25.0944 -238.7916,-24.341 -237.4337,-23.6433 -236.1247,-22.9993 -234.866,-22.4071 -233.6591,-21.8648 -232.5053,-21.3704 -231.4059,-20.9218 -230.3621,-20.517 -229.375,-20.1538 -228.4459,-19.8303 -227.5757,-19.5442 -226.7654,-19.2934 -226.0161,-19.0758 -225.3286,-18.889 -224.7036,-18.7308 -224.1421,-18.5991 -223.6447,-18.4915 -223.2121,-18.4058 -222.8448,-18.3397 -222.5434,-18.2908 -222.3084,-18.2569 -222.1401,-18.2355 -222.0389,-18.2245 -220.5085,-18.0985 -221.25,0 -222.7856,0.0004 -222.8873,0.0032 -223.0568,0.0107 -223.2938,0.0253 -223.5982,0.0493 -223.9697,0.0852 -224.4079,0.1352 -224.9124,0.2017 -225.4828,0.2871 -226.1185,0.3936 -226.819,0.5235 -227.5837,0.6792 -228.4117,0.8628 -229.3024,1.0768 -230.2549,1.3232 -231.2684,1.6044 -232.3418,1.9224 -233.4742,2.2796 -234.6646,2.678 -235.9118,3.1198 -237.2147,3.607 -238.572,4.1417 -239.9824,4.7261 -241.4447,5.362 -242.9574,6.0515 -244.519,6.7965 -246.1282,7.5989 -247.7833,8.4605 -249.4827,9.3834 -251.2248,10.3691 -253.0079,11.4196 -254.8303,12.5364 -256.6901,13.7214 -258.5855,14.9761 -260.5147,16.3021 -262.4757,17.7009 -264.4665,19.1742 -266.4851,20.7232 -268.5295,22.3495 -270.5975,24.0544 -272.6871,25.8392 -273.6129,27.5859 -272.6154,36.1362 -271.3124,37.6228 -268.8682,38.8787 -266.4632,40.0618 -264.0994,41.1739 -261.7784,42.2167 -259.5019,43.1921 -257.2716,44.102 -255.089,44.9484 -252.9557,45.733 -250.873,46.4581 -248.8425,47.1255 -246.8655,47.7373 -244.9433,48.2955 -243.0771,48.8024 -241.2681,49.26 -239.5174,49.6704 -237.8262,50.0359 -236.1955,50.3587 -234.6261,50.641 -233.119,50.8849 -231.6751,51.0929 -230.295,51.2672 -228.9796,51.41 -227.7295,51.5237 -226.5453,51.6106 -225.4274,51.673 -224.3765,51.7133 -223.3928,51.7339 -222.4768,51.7371 -221.6287,51.7252 -220.8488,51.7007 -220.1372,51.6659 -219.494,51.6232 -218.9193,51.5749 -218.413,51.5235 -217.975,51.4714 -217.6053,51.4208 -217.3035,51.3741 -217.0695,51.3337 -216.9029,51.302 -216.8032,51.2813 -215.3088,50.9282 -210.4213,68.37 -211.8815,68.8449 -211.9774,68.879 -212.1363,68.9385 -212.3572,69.0256 -212.6393,69.1425 -212.9815,69.2914 -213.3828,69.4744 -213.8421,69.6936 -214.3582,69.951 -214.9299,70.2488 -215.556,70.5888 -216.2351,70.9731 -216.9658,71.4037 -217.7468,71.8824 -218.5765,72.4111 -219.4535,72.9917 -220.3761,73.6259 -221.3428,74.3155 -222.3518,75.0623 -223.4014,75.8678 -224.49,76.7338 -225.6156,77.6618 -226.7764,78.6534 -227.9706,79.7101 -229.1962,80.8332 -230.4512,82.0244 -231.7336,83.2847 -233.0414,84.6157 -234.3725,86.0185 -235.7248,87.4944 -237.096,89.0444 -238.484,90.6697 -239.8867,92.3714 -241.3016,94.1504 -242.7266,96.0077 -244.1593,97.944 -245.5974,99.9604 -247.0386,102.0574 -248.4803,104.2359 -249.9203,106.4964 -251.3561,108.8395 -251.6968,110.7868 -248.106,118.6104 -246.4074,119.6216 -243.6946,120.0607 -241.0418,120.4427 -238.45,120.7699 -235.9204,121.0444 -233.4539,121.2686 -231.0516,121.4448 -228.7143,121.5753 -226.4429,121.6623 -224.2381,121.7083 -222.1007,121.7156 -220.0314,121.6865 -218.0308,121.6234 -216.0993,121.5288 -214.2374,121.405 -212.4456,121.2543 -210.7242,121.0794 -209.0735,120.8824 -207.4938,120.6659 -205.985,120.4322 -204.5475,120.1838 -203.1812,119.923 -201.886,119.6524 -200.6619,119.3742 -199.5088,119.0909 -198.4264,118.8049 -197.4144,118.5184 -196.4725,118.234 -195.6004,117.954 -194.7975,117.6806 -194.0633,117.4163 -193.3973,117.1633 -192.7988,116.9239 -192.2671,116.7005 -191.8014,116.4951 -191.4011,116.3102 -191.065,116.1478 -190.7925,116.0102 -190.5824,115.8995 -190.4337,115.8178 -190.3453,115.7673 -189.0332,114.9697 -178.995,130.0475 -180.2371,130.9504 -180.3178,131.0124 -180.4505,131.1181 -180.6336,131.2692 -180.8658,131.4676 -181.1452,131.715 -181.4703,132.013 -181.8394,132.3634 -182.2507,132.7677 -182.7024,133.2275 -183.1928,133.7444 -183.7199,134.3198 -184.2818,134.9551 -184.8766,135.6517 -185.5024,136.4109 -186.157,137.2341 -186.8385,138.1224 -187.5447,139.0769 -188.2736,140.0989 -189.0229,141.1894 -189.7906,142.3494 -190.5743,143.5798 -191.372,144.8816 -192.1812,146.2556 -192.9997,147.7025 -193.8252,149.2231 -194.6554,150.8181 -195.4879,152.4881 -196.3203,154.2336 -197.1503,156.055 -197.9755,157.953 -198.7933,159.9277 -199.6014,161.9795 -200.3974,164.1087 -201.1787,166.3153 -201.9429,168.5997 -202.6876,170.9617 -203.4102,173.4015 -204.1082,175.9188 -204.7792,178.5137 -205.4206,181.1858 -205.1429,183.1431 -199.3102,189.4741 -197.3822,189.911 -194.6666,189.4903 -192.0255,189.0338 -189.4595,188.5441 -186.9688,188.0235 -184.5538,187.4745 -182.2146,186.8997 -179.9514,186.3015 -177.7642,185.6824 -175.6532,185.0448 -173.6182,184.3913 -171.6591,183.7242 -169.7759,183.046 -167.9681,182.3591 -166.2357,181.666 -164.5781,180.969 -162.9951,180.2707 -161.486,179.5733 -160.0505,178.8792 -158.6878,178.1907 -157.3974,177.5102 -156.1785,176.84 -155.0304,176.1824 -153.9522,175.5396 -152.943,174.9138 -152.002,174.3073 -151.128,173.7222 -150.3202,173.1606 -149.5772,172.6248 -148.8981,172.1167 -148.2815,171.6384 -147.7263,171.192 -147.231,170.7794 -146.7944,170.4025 -146.415,170.0633 -146.0914,169.7637 -145.822,169.5054 -145.6053,169.2903 -145.4397,169.1201 -145.3235,168.9965 -145.2551,168.9212 -144.2536,167.7571 -130.0475,178.995 -130.9497,180.2375 -131.0073,180.3215 -131.1009,180.463 -131.2284,180.6633 -131.3878,180.9237 -131.5772,181.2453 -131.7942,181.6292 -132.037,182.0765 -132.3032,182.5881 -132.5907,183.1651 -132.8974,183.8082 -133.2209,184.5183 -133.559,185.2961 -133.9094,186.1424 -134.2699,187.0579 -134.6382,188.043 -135.0118,189.0984 -135.3885,190.2245 -135.7659,191.4218 -136.1416,192.6904 -136.5132,194.0309 -136.8784,195.4433 -137.2347,196.9278 -137.5797,198.4846 -137.911,200.1136 -138.2262,201.8149 -138.5229,203.5884 -138.7986,205.4339 -139.0509,207.3511 -139.2774,209.34 -139.4757,211.4 -139.6433,213.5308 -139.7778,215.7319 -139.8769,218.0028 -139.9381,220.3429 -139.959,222.7516 -139.9373,225.2282 -139.8706,227.7718 -139.7565,230.3817 -139.5928,233.0568 -139.3771,235.7964 -138.5082,237.5721 -131.0045,241.7908 -129.0359,241.6105 -126.5832,240.3713 -124.2125,239.121 -121.9234,237.8623 -119.7155,236.5975 -117.5883,235.3291 -115.5412,234.0596 -113.5736,232.7913 -111.6848,231.5266 -109.8741,230.2679 -108.1407,229.0175 -106.4837,227.7776 -104.9021,226.5507 -103.3951,225.3388 -101.9617,224.1443 -100.6006,222.9692 -99.3108,221.8159 -98.0912,220.6863 -96.9404,219.5825 -95.8571,218.5067 -94.8402,217.4607 -93.888,216.4467 -92.9993,215.4664 -92.1725,214.5219 -91.4061,213.6149 -90.6986,212.7473 -90.0482,211.9207 -89.4534,211.137 -88.9124,210.3978 -88.4235,209.7047 -87.9849,209.0593 -87.5948,208.4632 -87.2513,207.9177 -86.9525,207.4244 -86.6965,206.9846 -86.4813,206.5996 -86.3049,206.2707 -86.1653,205.9992 -86.0604,205.7861 -85.9881,205.6327 -85.9463,205.5399 -85.3535,204.1233 -68.37,210.4213 -68.8441,211.8818 -68.873,211.9794 -68.9182,212.1429 -68.9776,212.3728 -69.0487,212.6698 -69.1294,213.0341 -69.2173,213.4663 -69.3099,213.9667 -69.405,214.5356 -69.5002,215.1731 -69.5931,215.8795 -69.6813,216.6548 -69.7625,217.4991 -69.8343,218.4123 -69.8942,219.3943 -69.94,220.445 -69.9692,221.5642 -69.9795,222.7516 -69.9684,224.0069 -69.9337,225.3295 -69.8729,226.7192 -69.7838,228.1753 -69.6639,229.6973 -69.511,231.2845 -69.3227,232.9362 -69.0967,234.6517 -68.8309,236.43 -68.5228,238.2703 -68.1703,240.1718 -67.7711,242.1332 -67.3231,244.1537 -66.824,246.232 -66.2718,248.3669 -65.6642,250.5573 -64.9993,252.8018 -64.2749,255.0991 -63.4889,257.4477 -62.6395,259.8462 -61.7245,262.2931 -60.7421,264.7868 -59.6904,267.3256 -58.3153,268.7458 -49.8752,270.4394 -48.0587,269.6596 -46.109,267.723 -44.2406,265.8013 -42.4525,263.8968 -40.7435,262.0117 -39.1124,260.1481 -37.5578,258.3081 -36.0784,256.4939 -34.6729,254.7074 -33.3398,252.9508 -32.0776,251.2259 -30.8848,249.5347 -29.7598,247.879 -28.7011,246.2608 -27.7069,244.6817 -26.7756,243.1436 -25.9053,241.6481 -25.0944,240.1969 -24.341,238.7916 -23.6433,237.4337 -22.9993,236.1247 -22.4071,234.866 -21.8648,233.6591 -21.3704,232.5053 -20.9218,231.4059 -20.517,230.3621 -20.1538,229.375 -19.8303,228.4459 -19.5442,227.5757 -19.2934,226.7654 -19.0758,226.0161 -18.889,225.3286 -18.7308,224.7036 -18.5991,224.1421 -18.4915,223.6447 -18.4058,223.2121 -18.3397,222.8448 -18.2908,222.5434 -18.2569,222.3084 -18.2355,222.1401 -18.2245,222.0389 -18.0985,220.5085 0,221.25 0.0004,222.7856 0.0032,222.8873 0.0107,223.0568 0.0253,223.2938 0.0493,223.5982 0.0852,223.9697 0.1352,224.4079 0.2017,224.9124 0.2871,225.4828 0.3936,226.1185 0.5235,226.819 0.6792,227.5837 0.8628,228.4117 1.0768,229.3024 1.3232,230.2549 1.6044,231.2684 1.9224,232.3418 2.2796,233.4742 2.678,234.6646 3.1198,235.9118 3.607,237.2147 4.1417,238.572 4.7261,239.9824 5.362,241.4447 6.0515,242.9574 6.7965,244.519 7.5989,246.1282 8.4605,247.7833 9.3834,249.4827 10.3691,251.2248 11.4196,253.0079 12.5364,254.8303 13.7214,256.6901 14.9761,258.5855 16.3021,260.5147 17.7009,262.4757 19.1742,264.4665 20.7232,266.4851 22.3495,268.5295 24.0544,270.5975 25.8392,272.6871 27.5859,273.6129 36.1362,272.6154 37.6228,271.3124 38.8787,268.8682 40.0618,266.4632 41.1739,264.0994 42.2167,261.7784 43.1921,259.5019 44.102,257.2716 44.9484,255.089 45.733,252.9557 46.4581,250.873 47.1255,248.8425 47.7373,246.8655 48.2955,244.9433 48.8024,243.0771 49.26,241.2681 49.6704,239.5174 50.0359,237.8262 50.3587,236.1955 50.641,234.6261 50.8849,233.119 51.0929,231.6751 51.2672,230.295 51.41,228.9796 51.5237,227.7295 51.6106,226.5453 51.673,225.4274 51.7133,224.3765 51.7339,223.3928 51.7371,222.4768 51.7252,221.6287 51.7007,220.8488 51.6659,220.1372 51.6232,219.494 51.5749,218.9193 51.5235,218.413 51.4714,217.975 51.4208,217.6053 51.3741,217.3035 51.3337,217.0695 51.302,216.9029 51.2813,216.8032 50.9282,215.3088 68.37,210.4213 68.8449,211.8815 68.879,211.9774 68.9385,212.1363 69.0256,212.3572 69.1425,212.6393 69.2914,212.9815 69.4744,213.3828 69.6936,213.8421 69.951,214.3582 70.2488,214.9299 70.5888,215.556 70.9731,216.2351 71.4037,216.9658 71.8824,217.7468 72.4111,218.5765 72.9917,219.4535 73.6259,220.3761 74.3155,221.3428 75.0623,222.3518 75.8678,223.4014 76.7338,224.49 77.6618,225.6156 78.6534,226.7764 79.7101,227.9706 80.8332,229.1962 82.0244,230.4512 83.2847,231.7336 84.6157,233.0414 86.0185,234.3725 87.4944,235.7248 89.0444,237.096 90.6697,238.484 92.3714,239.8867 94.1504,241.3016 96.0077,242.7266 97.944,244.1593 99.9604,245.5974 102.0574,247.0386 104.2359,248.4803 106.4964,249.9203 108.8395,251.3561 110.7868,251.6968 118.6104,248.106 119.6216,246.4074 120.0607,243.6946 120.4427,241.0418 120.7699,238.45 121.0444,235.9204 121.2686,233.4539 121.4448,231.0516 121.5753,228.7143 121.6623,226.4429 121.7083,224.2381 121.7156,222.1007 121.6865,220.0314 121.6234,218.0308 121.5288,216.0993 121.405,214.2374 121.2543,212.4456 121.0794,210.7242 120.8824,209.0735 120.6659,207.4938 120.4322,205.985 120.1838,204.5475 119.923,203.1812 119.6524,201.886 119.3742,200.6619 119.0909,199.5088 118.8049,198.4264 118.5184,197.4144 118.234,196.4725 117.954,195.6004 117.6806,194.7975 117.4163,194.0633 117.1633,193.3973 116.9239,192.7988 116.7005,192.2671 116.4951,191.8014 116.3102,191.4011 116.1478,191.065 116.0102,190.7925 115.8995,190.5824 115.8178,190.4337 115.7673,190.3453 114.9697,189.0332 130.0475,178.995 130.9504,180.2371 131.0124,180.3178 131.1181,180.4505 131.2692,180.6336 131.4676,180.8658 131.715,181.1452 132.013,181.4703 132.3634,181.8394 132.7677,182.2507 133.2275,182.7024 133.7444,183.1928 134.3198,183.7199 134.9551,184.2818 135.6517,184.8766 136.4109,185.5024 137.2341,186.157 138.1224,186.8385 139.0769,187.5447 140.0989,188.2736 141.1894,189.0229 142.3494,189.7906 143.5798,190.5743 144.8816,191.372 146.2556,192.1812 147.7025,192.9997 149.2231,193.8252 150.8181,194.6554 152.4881,195.4879 154.2336,196.3203 156.055,197.1503 157.953,197.9755 159.9277,198.7933 161.9795,199.6014 164.1087,200.3974 166.3153,201.1787 168.5997,201.9429 170.9617,202.6876 173.4015,203.4102 175.9188,204.1082 178.5137,204.7792 181.1858,205.4206 183.1431,205.1429 189.4741,199.3102 189.911,197.3822 189.4903,194.6666 189.0338,192.0255 188.5441,189.4595 188.0235,186.9688 187.4745,184.5538 186.8997,182.2146 186.3015,179.9514 185.6824,177.7642 185.0448,175.6532 184.3913,173.6182 183.7242,171.6591 183.046,169.7759 182.3591,167.9681 181.666,166.2357 180.969,164.5781 180.2707,162.9951 179.5733,161.486 178.8792,160.0505 178.1907,158.6878 177.5102,157.3974 176.84,156.1785 176.1824,155.0304 175.5396,153.9522 174.9138,152.943 174.3073,152.002 173.7222,151.128 173.1606,150.3202 172.6248,149.5772 172.1167,148.8981 171.6384,148.2815 171.192,147.7263 170.7794,147.231 170.4025,146.7944 170.0633,146.415 169.7637,146.0914 169.5054,145.822 169.2903,145.6053 169.1201,145.4397 168.9965,145.3235 168.9212,145.2551 167.7571,144.2536 178.995,130.0475 180.2375,130.9497 180.3215,131.0073 180.463,131.1009 180.6633,131.2284 180.9237,131.3878 181.2453,131.5772 181.6292,131.7942 182.0765,132.037 182.5881,132.3032 183.1651,132.5907 183.8082,132.8974 184.5183,133.2209 185.2961,133.559 186.1424,133.9094 187.0579,134.2699 188.043,134.6382 189.0984,135.0118 190.2245,135.3885 191.4218,135.7659 192.6904,136.1416 194.0309,136.5132 195.4433,136.8784 196.9278,137.2347 198.4846,137.5797 200.1136,137.911 201.8149,138.2262 203.5884,138.5229 205.4339,138.7986 207.3511,139.0509 209.34,139.2774 211.4,139.4757 213.5308,139.6433 215.7319,139.7778 218.0028,139.8769 220.3429,139.9381 222.7516,139.959 225.2282,139.9373 227.7718,139.8706 230.3817,139.7565 233.0568,139.5928 235.7964,139.3771 237.5721,138.5082 241.7908,131.0045 241.6105,129.0359 240.3713,126.5832 239.121,124.2125 237.8623,121.9234 236.5975,119.7155 235.3291,117.5883 234.0596,115.5412 232.7913,113.5736 231.5266,111.6848 230.2679,109.8741 229.0175,108.1407 227.7776,106.4837 226.5507,104.9021 225.3388,103.3951 224.1443,101.9617 222.9692,100.6006 221.8159,99.3108 220.6863,98.0912 219.5825,96.9404 218.5067,95.8571 217.4607,94.8402 216.4467,93.888 215.4664,92.9993 214.5219,92.1725 213.6149,91.4061 212.7473,90.6986 211.9207,90.0482 211.137,89.4534 210.3978,88.9124 209.7047,88.4235 209.0593,87.9849 208.4632,87.5948 207.9177,87.2513 207.4244,86.9525 206.9846,86.6965 206.5996,86.4813 206.2707,86.3049 205.9992,86.1653 205.7861,86.0604 205.6327,85.9881 205.5399,85.9463 204.1233,85.3535 210.4213,68.37 211.8818,68.8441 211.9794,68.873 212.1429,68.9182 212.3728,68.9776 212.6698,69.0487 213.0341,69.1294 213.4663,69.2173 213.9667,69.3099 214.5356,69.405 215.1731,69.5002 215.8795,69.5931 216.6548,69.6813 217.4991,69.7625 218.4123,69.8343 219.3943,69.8942 220.445,69.94 221.5642,69.9692 222.7516,69.9795 224.0069,69.9684 225.3295,69.9337 226.7192,69.8729 228.1753,69.7838 229.6973,69.6639 231.2845,69.511 232.9362,69.3227 234.6517,69.0967 236.43,68.8309 238.2703,68.5228 240.1718,68.1703 242.1332,67.7711 244.1537,67.3231 246.232,66.824 248.3669,66.2718 250.5573,65.6642 252.8018,64.9993 255.0991,64.2749 257.4477,63.4889 259.8462,62.6395 262.2931,61.7245 264.7868,60.7421 267.3256,59.6904 268.7458,58.3153 270.4394,49.8752 269.6596,48.0587 267.723,46.109 265.8013,44.2406 263.8968,42.4525 262.0117,40.7435 260.1481,39.1124 258.3081,37.5578 256.4939,36.0784 254.7074,34.6729 252.9508,33.3398 251.2259,32.0776 249.5347,30.8848 247.879,29.7598 246.2608,28.7011 244.6817,27.7069 243.1436,26.7756 241.6481,25.9053 240.1969,25.0944 238.7916,24.341 237.4337,23.6433 236.1247,22.9993 234.866,22.4071 233.6591,21.8648 232.5053,21.3704 231.4059,20.9218 230.3621,20.517 229.375,20.1538 228.4459,19.8303 227.5757,19.5442 226.7654,19.2934 226.0161,19.0758 225.3286,18.889 224.7036,18.7308 224.1421,18.5991 223.6447,18.4915 223.2121,18.4058 222.8448,18.3397 222.5434,18.2908 222.3084,18.2569 222.1401,18.2355 222.0389,18.2245 220.5085,18.0985 "/><g class="guides"><polyline fill="none" stroke="#444" stroke-width="0.5" stroke-miterlimit="10" points="10,0 -10,0"/><polyline fill="none" stroke="#444" stroke-width="0.5" stroke-miterlimit="10" points="0,10 0,-10"/></g><circle fill="#c00" class="firstmarker" stroke="none" stroke-miterlimit="10" cx="248.316" cy="-28.9681" r="9.8125"/><g class="geartext"><g class="text"><polyline fill="none" stroke="#444" stroke-width="0.5" stroke-linecap="square" stroke-miterlimit="1"  points="83.05 -172.27 80.34 -173.56 77.61 -174.8 74.86 -175.99 72.09 -177.14 "/><polyline fill="none" stroke="#444" stroke-width="0.5" stroke-linecap="square" stroke-miterlimit="1"  points="75.17 -169.31 80.04 -180.28 "/><polyline fill="none" stroke="#444" stroke-width="0.5" stroke-linecap="square" stroke-miterlimit="1"  points="85.66 -177.68 81.6 -176.28 77.61 -174.8 73.68 -173.23 69.83 -171.59 "/><polyline fill="none" stroke="#444" stroke-width="0.5" stroke-linecap="square" stroke-miterlimit="1"  points="80.45 -166.87 79.08 -170.83 77.61 -174.8 76.03 -178.75 74.35 -182.7 "/><polyline fill="none" stroke="#444" stroke-width="0.5" stroke-linecap="square" stroke-miterlimit="1"  points="91.19 -174.91 95.35 -176.09 98.1 -174.57 100.83 -173.01 101.98 -168.84 100.43 -166.27 96.3 -165.24 97.33 -161.14 95.77 -158.57 91.77 -157.46 89.28 -158.88 86.78 -160.26 85.64 -164.26 "/><polyline fill="none" stroke="#444" stroke-width="0.5" stroke-linecap="square" stroke-miterlimit="1"  points="93.69 -166.73 96.3 -165.24 "/><polyline fill="none" stroke="#444" stroke-width="0.5" stroke-linecap="square" stroke-miterlimit="1"  points="131.42 -151.09 119.61 -137.51 120.34 -142.81 120.93 -148.17 121.38 -153.57 121.69 -159.03 110.75 -144.74 "/><polyline fill="none" stroke="#444" stroke-width="0.5" stroke-linecap="square" stroke-miterlimit="1"  points="140.69 -133.93 138.58 -136.12 136.42 -138.28 134.24 -140.4 132.02 -142.49 "/><polyline fill="none" stroke="#444" stroke-width="0.5" stroke-linecap="square" stroke-miterlimit="1"  points="136.35 -129.8 134.3 -131.92 132.21 -134.01 130.09 -136.07 127.94 -138.09 "/><polyline fill="none" stroke="#444" stroke-width="0.5" stroke-linecap="square" stroke-miterlimit="1"  points="143.23 -112.7 141.44 -114.93 139.62 -117.14 137.77 -119.31 135.88 -121.46 140.35 -125.46 144.57 -125.2 146.52 -122.92 148.43 -120.61 152.66 -120.12 155.02 -121.97 155.41 -126.28 153.41 -128.7 151.37 -131.09 147.06 -131.45 "/><polyline fill="none" stroke="#444" stroke-width="0.5" stroke-linecap="square" stroke-miterlimit="1"  points="154.11 -102.79 150.01 -103.5 148.37 -105.84 149.11 -109.93 158.77 -117.05 163.02 -116.29 164.83 -113.72 164.1 -109.45 154.11 -102.79 "/><polyline fill="none" stroke="#444" stroke-width="0.5" stroke-linecap="square" stroke-miterlimit="1"  points="169.78 -88.05 171.14 -85.38 172.45 -82.68 173.73 -79.97 177.71 -78.44 180.45 -79.65 181.91 -83.73 180.57 -86.57 179.19 -89.39 177.77 -92.19 161.79 -83.91 "/><polyline fill="none" stroke="#444" stroke-width="0.5" stroke-linecap="square" stroke-miterlimit="1"  points="168.96 -68.33 180.08 -72.83 "/><polyline fill="none" stroke="#444" stroke-width="0.5" stroke-linecap="square" stroke-miterlimit="1"  points="182.86 -73.95 185.64 -75.08 "/><polyline fill="none" stroke="#444" stroke-width="0.5" stroke-linecap="square" stroke-miterlimit="1"  points="177.5 -53.01 173.79 -54.88 175.75 -58.55 189.99 -63.29 "/><polyline fill="none" stroke="#444" stroke-width="0.5" stroke-linecap="square" stroke-miterlimit="1"  points="186.13 -55.58 185.23 -58.5 184.29 -61.39 183.31 -64.28 182.28 -67.14 "/><polyline fill="none" stroke="#444" stroke-width="0.5" stroke-linecap="square" stroke-miterlimit="1"  points="178.76 -35.51 178.18 -38.31 177.56 -41.1 176.89 -43.88 179.08 -47.41 184.88 -48.95 188.54 -46.77 189.25 -43.8 189.91 -40.83 190.53 -37.84 "/><polyline fill="none" stroke="#444" stroke-width="0.5" stroke-linecap="square" stroke-miterlimit="1"  points="185.7 -30.87 189.13 -28.39 192.53 -25.82 192.91 -22.8 190.26 -19.47 181.3 -18.55 "/><polyline fill="none" stroke="#444" stroke-width="0.5" stroke-linecap="square" stroke-miterlimit="1"  points="179.78 -29.88 197.54 -32.83 "/><polyline fill="none" stroke="#444" stroke-width="0.5" stroke-linecap="square" stroke-miterlimit="1"  points="182.24 1.43 182.2 4.29 182.11 7.15 181.98 10 184.79 13.07 196.76 13.91 199.95 10.99 200.1 7.85 200.19 4.71 200.24 1.57 "/><polyline fill="none" stroke="#444" stroke-width="0.5" stroke-linecap="square" stroke-miterlimit="1"  points="200.19 4.71 182.2 4.29 "/><polyline fill="none" stroke="#444" stroke-width="0.5" stroke-linecap="square" stroke-miterlimit="1"  points="191.62 31.85 192.1 28.84 192.53 25.82 192.91 22.8 193.24 19.77 "/><polyline fill="none" stroke="#444" stroke-width="0.5" stroke-linecap="square" stroke-miterlimit="1"  points="185.7 30.87 186.16 27.95 186.58 25.03 186.95 22.1 187.27 19.16 "/><polyline fill="none" stroke="#444" stroke-width="0.5" stroke-linecap="square" stroke-miterlimit="1"  points="193.58 51.25 194.36 48.21 195.09 45.16 195.78 42.09 196.41 39.01 190.53 37.84 189.91 40.83 189.25 43.8 188.54 46.77 184.88 48.95 179.08 47.41 176.89 43.88 177.56 41.1 178.18 38.31 181.7 36.09 "/><polyline fill="none" stroke="#444" stroke-width="0.5" stroke-linecap="square" stroke-miterlimit="1"  points="178.4 68.91 177.3 71.7 176.15 74.48 174.96 77.23 176.46 81.22 179.18 82.47 183.2 80.86 184.44 77.98 185.64 75.08 186.8 72.16 170.01 65.67 "/><polyline fill="none" stroke="#444" stroke-width="0.5" stroke-linecap="square" stroke-miterlimit="1"  points="168.04 97.44 169.55 94.8 171.02 92.12 172.44 89.43 173.82 86.71 "/><polyline fill="none" stroke="#444" stroke-width="0.5" stroke-linecap="square" stroke-miterlimit="1"  points="162.85 94.43 164.31 91.87 165.73 89.28 167.11 86.67 168.45 84.04 "/><polyline fill="none" stroke="#444" stroke-width="0.5" stroke-linecap="square" stroke-miterlimit="1"  points="153.26 109.32 154.95 106.9 156.61 104.46 158.23 101.99 159.81 99.49 161.59 104.16 163.26 108.9 164.83 113.72 150.01 103.5 "/><polyline fill="none" stroke="#444" stroke-width="0.5" stroke-linecap="square" stroke-miterlimit="1"  points="142.59 127.45 140.57 129.68 138.52 131.86 136.44 134.02 136.42 138.28 138.53 140.42 142.86 140.33 145.04 138.07 147.19 135.78 149.3 133.45 135.88 121.46 "/><polyline fill="none" stroke="#444" stroke-width="0.5" stroke-linecap="square" stroke-miterlimit="1"  points="123.86 133.69 127.94 138.09 129.77 144.55 131.42 151.09 125.17 148.54 119.03 145.84 115.24 141.19 "/><polyline fill="none" stroke="#444" stroke-width="0.5" stroke-linecap="square" stroke-miterlimit="1"  points="127.94 138.09 125.76 140.08 123.55 142.04 121.3 143.96 119.03 145.84 "/><polyline fill="none" stroke="#444" stroke-width="0.5" stroke-linecap="square" stroke-miterlimit="1"  points="108.14 161.37 110.66 159.65 113.15 157.9 115.61 156.1 118.04 154.27 "/><polyline fill="none" stroke="#444" stroke-width="0.5" stroke-linecap="square" stroke-miterlimit="1"  points="104.8 156.38 107.24 154.72 109.65 153.02 112.04 151.28 114.4 149.5 "/><polyline fill="none" stroke="#444" stroke-width="0.5" stroke-linecap="square" stroke-miterlimit="1"  points="86.78 160.26 89.28 158.88 91.77 157.46 94.22 156 96.66 154.51 99.84 159.59 98.88 163.71 96.3 165.24 93.69 166.73 92.49 170.82 93.92 173.45 98.1 174.57 100.83 173.01 103.53 171.41 104.61 167.22 "/><polyline fill="none" stroke="#444" stroke-width="0.5" stroke-linecap="square" stroke-miterlimit="1"  points="89.78 179 86.96 180.38 84.12 181.72 81.26 183.02 78.38 184.27 77.61 174.8 76.56 165.39 "/></g></g><g class="guides gearguides" opacity="0.2"><circle class="pitch" fill="none" stroke="#f00" stroke-miterlimit="10" cx="0" cy="0" r="250"/><circle class="outer" fill="none" stroke="#ccc" stroke-miterlimit="10" stroke-dasharray="2,2" cx="0" cy="0" r="275"/><circle class="base" fill="none" stroke="#00f" stroke-miterlimit="10" stroke-dasharray="2,2" cx="0" cy="0" r="222.75"/></g></svg>